G04 #@! TF.GenerationSoftware,KiCad,Pcbnew,(5.0.0-rc2-190-gf634b7565)*
G04 #@! TF.CreationDate,2018-07-09T23:29:34+02:00*
G04 #@! TF.ProjectId,IoP-mux8-1B,496F502D6D7578382D31422E6B696361,rev?*
G04 #@! TF.SameCoordinates,Original*
G04 #@! TF.FileFunction,Legend,Top*
G04 #@! TF.FilePolarity,Positive*
%FSLAX46Y46*%
G04 Gerber Fmt 4.6, Leading zero omitted, Abs format (unit mm)*
G04 Created by KiCad (PCBNEW (5.0.0-rc2-190-gf634b7565)) date 07/09/18 23:29:34*
%MOMM*%
%LPD*%
G01*
G04 APERTURE LIST*
%ADD10C,0.250000*%
%ADD11C,0.300000*%
%ADD12C,0.200000*%
%ADD13C,0.120000*%
%ADD14C,0.150000*%
%ADD15C,0.254000*%
%ADD16C,0.010000*%
G04 APERTURE END LIST*
D10*
X201352380Y-115402380D02*
X201019047Y-114926190D01*
X200780952Y-115402380D02*
X200780952Y-114402380D01*
X201161904Y-114402380D01*
X201257142Y-114450000D01*
X201304761Y-114497619D01*
X201352380Y-114592857D01*
X201352380Y-114735714D01*
X201304761Y-114830952D01*
X201257142Y-114878571D01*
X201161904Y-114926190D01*
X200780952Y-114926190D01*
X201780952Y-114878571D02*
X202114285Y-114878571D01*
X202257142Y-115402380D02*
X201780952Y-115402380D01*
X201780952Y-114402380D01*
X202257142Y-114402380D01*
X202542857Y-114402380D02*
X202876190Y-115402380D01*
X203209523Y-114402380D01*
X204066666Y-115402380D02*
X203495238Y-115402380D01*
X203780952Y-115402380D02*
X203780952Y-114402380D01*
X203685714Y-114545238D01*
X203590476Y-114640476D01*
X203495238Y-114688095D01*
X204828571Y-114878571D02*
X204971428Y-114926190D01*
X205019047Y-114973809D01*
X205066666Y-115069047D01*
X205066666Y-115211904D01*
X205019047Y-115307142D01*
X204971428Y-115354761D01*
X204876190Y-115402380D01*
X204495238Y-115402380D01*
X204495238Y-114402380D01*
X204828571Y-114402380D01*
X204923809Y-114450000D01*
X204971428Y-114497619D01*
X205019047Y-114592857D01*
X205019047Y-114688095D01*
X204971428Y-114783333D01*
X204923809Y-114830952D01*
X204828571Y-114878571D01*
X204495238Y-114878571D01*
X201185714Y-116247619D02*
X201233333Y-116200000D01*
X201328571Y-116152380D01*
X201566666Y-116152380D01*
X201661904Y-116200000D01*
X201709523Y-116247619D01*
X201757142Y-116342857D01*
X201757142Y-116438095D01*
X201709523Y-116580952D01*
X201138095Y-117152380D01*
X201757142Y-117152380D01*
X202376190Y-116152380D02*
X202471428Y-116152380D01*
X202566666Y-116200000D01*
X202614285Y-116247619D01*
X202661904Y-116342857D01*
X202709523Y-116533333D01*
X202709523Y-116771428D01*
X202661904Y-116961904D01*
X202614285Y-117057142D01*
X202566666Y-117104761D01*
X202471428Y-117152380D01*
X202376190Y-117152380D01*
X202280952Y-117104761D01*
X202233333Y-117057142D01*
X202185714Y-116961904D01*
X202138095Y-116771428D01*
X202138095Y-116533333D01*
X202185714Y-116342857D01*
X202233333Y-116247619D01*
X202280952Y-116200000D01*
X202376190Y-116152380D01*
X203661904Y-117152380D02*
X203090476Y-117152380D01*
X203376190Y-117152380D02*
X203376190Y-116152380D01*
X203280952Y-116295238D01*
X203185714Y-116390476D01*
X203090476Y-116438095D01*
X204233333Y-116580952D02*
X204138095Y-116533333D01*
X204090476Y-116485714D01*
X204042857Y-116390476D01*
X204042857Y-116342857D01*
X204090476Y-116247619D01*
X204138095Y-116200000D01*
X204233333Y-116152380D01*
X204423809Y-116152380D01*
X204519047Y-116200000D01*
X204566666Y-116247619D01*
X204614285Y-116342857D01*
X204614285Y-116390476D01*
X204566666Y-116485714D01*
X204519047Y-116533333D01*
X204423809Y-116580952D01*
X204233333Y-116580952D01*
X204138095Y-116628571D01*
X204090476Y-116676190D01*
X204042857Y-116771428D01*
X204042857Y-116961904D01*
X204090476Y-117057142D01*
X204138095Y-117104761D01*
X204233333Y-117152380D01*
X204423809Y-117152380D01*
X204519047Y-117104761D01*
X204566666Y-117057142D01*
X204614285Y-116961904D01*
X204614285Y-116771428D01*
X204566666Y-116676190D01*
X204519047Y-116628571D01*
X204423809Y-116580952D01*
X201423809Y-117902380D02*
X201519047Y-117902380D01*
X201614285Y-117950000D01*
X201661904Y-117997619D01*
X201709523Y-118092857D01*
X201757142Y-118283333D01*
X201757142Y-118521428D01*
X201709523Y-118711904D01*
X201661904Y-118807142D01*
X201614285Y-118854761D01*
X201519047Y-118902380D01*
X201423809Y-118902380D01*
X201328571Y-118854761D01*
X201280952Y-118807142D01*
X201233333Y-118711904D01*
X201185714Y-118521428D01*
X201185714Y-118283333D01*
X201233333Y-118092857D01*
X201280952Y-117997619D01*
X201328571Y-117950000D01*
X201423809Y-117902380D01*
X202090476Y-117902380D02*
X202757142Y-117902380D01*
X202328571Y-118902380D01*
X203328571Y-117902380D02*
X203423809Y-117902380D01*
X203519047Y-117950000D01*
X203566666Y-117997619D01*
X203614285Y-118092857D01*
X203661904Y-118283333D01*
X203661904Y-118521428D01*
X203614285Y-118711904D01*
X203566666Y-118807142D01*
X203519047Y-118854761D01*
X203423809Y-118902380D01*
X203328571Y-118902380D01*
X203233333Y-118854761D01*
X203185714Y-118807142D01*
X203138095Y-118711904D01*
X203090476Y-118521428D01*
X203090476Y-118283333D01*
X203138095Y-118092857D01*
X203185714Y-117997619D01*
X203233333Y-117950000D01*
X203328571Y-117902380D01*
X204138095Y-118902380D02*
X204328571Y-118902380D01*
X204423809Y-118854761D01*
X204471428Y-118807142D01*
X204566666Y-118664285D01*
X204614285Y-118473809D01*
X204614285Y-118092857D01*
X204566666Y-117997619D01*
X204519047Y-117950000D01*
X204423809Y-117902380D01*
X204233333Y-117902380D01*
X204138095Y-117950000D01*
X204090476Y-117997619D01*
X204042857Y-118092857D01*
X204042857Y-118330952D01*
X204090476Y-118426190D01*
X204138095Y-118473809D01*
X204233333Y-118521428D01*
X204423809Y-118521428D01*
X204519047Y-118473809D01*
X204566666Y-118426190D01*
X204614285Y-118330952D01*
D11*
X196679457Y-123116971D02*
X196679457Y-121616971D01*
X197536600Y-123116971D01*
X197536600Y-121616971D01*
X198465171Y-123116971D02*
X198322314Y-123045542D01*
X198250885Y-122974114D01*
X198179457Y-122831257D01*
X198179457Y-122402685D01*
X198250885Y-122259828D01*
X198322314Y-122188400D01*
X198465171Y-122116971D01*
X198679457Y-122116971D01*
X198822314Y-122188400D01*
X198893742Y-122259828D01*
X198965171Y-122402685D01*
X198965171Y-122831257D01*
X198893742Y-122974114D01*
X198822314Y-123045542D01*
X198679457Y-123116971D01*
X198465171Y-123116971D01*
X200250885Y-123116971D02*
X200250885Y-121616971D01*
X200250885Y-123045542D02*
X200108028Y-123116971D01*
X199822314Y-123116971D01*
X199679457Y-123045542D01*
X199608028Y-122974114D01*
X199536600Y-122831257D01*
X199536600Y-122402685D01*
X199608028Y-122259828D01*
X199679457Y-122188400D01*
X199822314Y-122116971D01*
X200108028Y-122116971D01*
X200250885Y-122188400D01*
X201536600Y-123045542D02*
X201393742Y-123116971D01*
X201108028Y-123116971D01*
X200965171Y-123045542D01*
X200893742Y-122902685D01*
X200893742Y-122331257D01*
X200965171Y-122188400D01*
X201108028Y-122116971D01*
X201393742Y-122116971D01*
X201536600Y-122188400D01*
X201608028Y-122331257D01*
X201608028Y-122474114D01*
X200893742Y-122616971D01*
X202250885Y-123116971D02*
X202250885Y-121616971D01*
X202750885Y-122688400D01*
X203250885Y-121616971D01*
X203250885Y-123116971D01*
X204822314Y-122974114D02*
X204750885Y-123045542D01*
X204536600Y-123116971D01*
X204393742Y-123116971D01*
X204179457Y-123045542D01*
X204036600Y-122902685D01*
X203965171Y-122759828D01*
X203893742Y-122474114D01*
X203893742Y-122259828D01*
X203965171Y-121974114D01*
X204036600Y-121831257D01*
X204179457Y-121688400D01*
X204393742Y-121616971D01*
X204536600Y-121616971D01*
X204750885Y-121688400D01*
X204822314Y-121759828D01*
X205465171Y-121616971D02*
X205465171Y-122831257D01*
X205536600Y-122974114D01*
X205608028Y-123045542D01*
X205750885Y-123116971D01*
X206036600Y-123116971D01*
X206179457Y-123045542D01*
X206250885Y-122974114D01*
X206322314Y-122831257D01*
X206322314Y-121616971D01*
X206893742Y-122116971D02*
X207250885Y-123116971D01*
X207608028Y-122116971D01*
X208108028Y-121759828D02*
X208179457Y-121688400D01*
X208322314Y-121616971D01*
X208679457Y-121616971D01*
X208822314Y-121688400D01*
X208893742Y-121759828D01*
X208965171Y-121902685D01*
X208965171Y-122045542D01*
X208893742Y-122259828D01*
X208036600Y-123116971D01*
X208965171Y-123116971D01*
D12*
X180000000Y-125000000D02*
G75*
G02X178000000Y-123000000I0J2000000D01*
G01*
X231000000Y-45000000D02*
G75*
G02X233000000Y-47000000I0J-2000000D01*
G01*
X233000000Y-123000000D02*
G75*
G02X231000000Y-125000000I-2000000J0D01*
G01*
X178000000Y-47000000D02*
G75*
G02X180000000Y-45000000I2000000J0D01*
G01*
X178000000Y-47000000D02*
X178000000Y-123000000D01*
X231000000Y-45000000D02*
X180000000Y-45000000D01*
X233000000Y-123000000D02*
X233000000Y-47000000D01*
X180000000Y-125000000D02*
X231000000Y-125000000D01*
G04 #@! TO.C,EXT4*
X219000000Y-93700000D02*
X230950000Y-93700000D01*
X230950000Y-93700000D02*
X230950000Y-89200000D01*
X230950000Y-89200000D02*
X217050000Y-89200000D01*
X217050000Y-89200000D02*
X217050000Y-92000000D01*
D13*
G04 #@! TO.C,JP4*
X208145000Y-65722000D02*
X208145000Y-63062000D01*
X203005000Y-65722000D02*
X208145000Y-65722000D01*
X203005000Y-63062000D02*
X208145000Y-63062000D01*
X203005000Y-65722000D02*
X203005000Y-63062000D01*
X201735000Y-65722000D02*
X200405000Y-65722000D01*
X200405000Y-65722000D02*
X200405000Y-64392000D01*
G04 #@! TO.C,SW1*
X185310000Y-103970000D02*
G75*
G02X183310000Y-103970000I-1000000J0D01*
G01*
X183310000Y-103970000D02*
X181660000Y-103970000D01*
X181660000Y-103970000D02*
X181660000Y-114250000D01*
X181660000Y-114250000D02*
X186960000Y-114250000D01*
X186960000Y-114250000D02*
X186960000Y-103970000D01*
X186960000Y-103970000D02*
X185310000Y-103970000D01*
D14*
G04 #@! TO.C,IC1*
X180425000Y-102300000D02*
X180425000Y-102275000D01*
X180425000Y-94250000D02*
X180425000Y-94275000D01*
X185075000Y-94250000D02*
X185075000Y-94275000D01*
X186150000Y-102350000D02*
X180425000Y-102350000D01*
X185075000Y-94250000D02*
X180425000Y-94250000D01*
D13*
G04 #@! TO.C,R10*
X185170000Y-91562779D02*
X185170000Y-91237221D01*
X184150000Y-91562779D02*
X184150000Y-91237221D01*
G04 #@! TO.C,R19*
X205534721Y-76683600D02*
X205860279Y-76683600D01*
X205534721Y-77703600D02*
X205860279Y-77703600D01*
D15*
G04 #@! TO.C,R13*
X212047490Y-58319000D02*
G75*
G03X212047490Y-58319000I-57155J0D01*
G01*
G04 #@! TO.C,R5*
X190291820Y-117906000D02*
G75*
G03X190291820Y-117906000I-57155J0D01*
G01*
D12*
G04 #@! TO.C,MASTER0*
X216050000Y-56700000D02*
X216050000Y-59500000D01*
X229950000Y-56700000D02*
X216050000Y-56700000D01*
X229950000Y-61200000D02*
X229950000Y-56700000D01*
X218000000Y-61200000D02*
X229950000Y-61200000D01*
G04 #@! TO.C,IC8*
X218175000Y-55420000D02*
X216650000Y-55420000D01*
X216300000Y-50365000D02*
X216300000Y-55265000D01*
X213100000Y-50365000D02*
X216300000Y-50365000D01*
X213100000Y-55265000D02*
X213100000Y-50365000D01*
X216300000Y-55265000D02*
X213100000Y-55265000D01*
G04 #@! TO.C,IC3*
X199650000Y-101250000D02*
X199650000Y-97550000D01*
X199650000Y-97550000D02*
X207450000Y-97550000D01*
X207450000Y-97550000D02*
X207450000Y-101250000D01*
X207450000Y-101250000D02*
X199650000Y-101250000D01*
X199400000Y-103075000D02*
X199400000Y-101600000D01*
G04 #@! TO.C,IC7*
X215975000Y-80290000D02*
X214450000Y-80290000D01*
X214100000Y-75050000D02*
X214100000Y-79950000D01*
X210900000Y-75050000D02*
X214100000Y-75050000D01*
X210900000Y-79950000D02*
X210900000Y-75050000D01*
X214100000Y-79950000D02*
X210900000Y-79950000D01*
G04 #@! TO.C,IC6*
X203400000Y-81150000D02*
X202200000Y-81150000D01*
G04 #@! TO.C,IC4*
X227450000Y-66800000D02*
X227450000Y-70000000D01*
X227450000Y-70000000D02*
X222550000Y-70000000D01*
X222550000Y-70000000D02*
X222550000Y-66800000D01*
X222550000Y-66800000D02*
X227450000Y-66800000D01*
X227605000Y-64925000D02*
X227605000Y-66450000D01*
G04 #@! TO.C,IC2*
X187800001Y-69900000D02*
X187800001Y-66200000D01*
X187800001Y-66200000D02*
X192799999Y-66200000D01*
X192799999Y-66200000D02*
X192799999Y-69900000D01*
X192799999Y-69900000D02*
X187800001Y-69900000D01*
X187450000Y-71725000D02*
X187450000Y-70250000D01*
G04 #@! TO.C,IC5*
X202588000Y-70603000D02*
X205788000Y-70603000D01*
X205788000Y-70603000D02*
X205788000Y-75503000D01*
X205788000Y-75503000D02*
X202588000Y-75503000D01*
X202588000Y-75503000D02*
X202588000Y-70603000D01*
X200713000Y-70263000D02*
X202238000Y-70263000D01*
D13*
G04 #@! TO.C,C10*
X196068800Y-83376079D02*
X196068800Y-83050521D01*
X197088800Y-83376079D02*
X197088800Y-83050521D01*
G04 #@! TO.C,R18*
X195070000Y-79820079D02*
X195070000Y-79494521D01*
X194050000Y-79820079D02*
X194050000Y-79494521D01*
G04 #@! TO.C,R17*
X195056800Y-83050721D02*
X195056800Y-83376279D01*
X194036800Y-83050721D02*
X194036800Y-83376279D01*
D12*
G04 #@! TO.C,U1*
X190300000Y-124350000D02*
X215700000Y-124350000D01*
X190952000Y-76090000D02*
X215700000Y-76090000D01*
D13*
G04 #@! TO.C,J1*
X180670000Y-60490000D02*
X185870000Y-60490000D01*
X180670000Y-50270000D02*
X180670000Y-60490000D01*
X185870000Y-47670000D02*
X185870000Y-60490000D01*
X180670000Y-50270000D02*
X183270000Y-50270000D01*
X183270000Y-50270000D02*
X183270000Y-47670000D01*
X183270000Y-47670000D02*
X185870000Y-47670000D01*
X180670000Y-49000000D02*
X180670000Y-47670000D01*
X180670000Y-47670000D02*
X182000000Y-47670000D01*
G04 #@! TO.C,J3*
X196830000Y-60330000D02*
X195500000Y-60330000D01*
X196830000Y-59000000D02*
X196830000Y-60330000D01*
X194230000Y-60330000D02*
X191630000Y-60330000D01*
X194230000Y-57730000D02*
X194230000Y-60330000D01*
X196830000Y-57730000D02*
X194230000Y-57730000D01*
X191630000Y-60330000D02*
X191630000Y-47510000D01*
X196830000Y-57730000D02*
X196830000Y-47510000D01*
X196830000Y-47510000D02*
X191630000Y-47510000D01*
G04 #@! TO.C,C2*
X188196621Y-102294200D02*
X188522179Y-102294200D01*
X188196621Y-103314200D02*
X188522179Y-103314200D01*
G04 #@! TO.C,C3*
X200625600Y-108483321D02*
X200625600Y-108808879D01*
X201645600Y-108483321D02*
X201645600Y-108808879D01*
G04 #@! TO.C,C4*
X200020000Y-93395721D02*
X200020000Y-93721279D01*
X199000000Y-93395721D02*
X199000000Y-93721279D01*
G04 #@! TO.C,C5*
X220749721Y-63260000D02*
X221075279Y-63260000D01*
X220749721Y-62240000D02*
X221075279Y-62240000D01*
G04 #@! TO.C,C6*
X225987221Y-62240000D02*
X226312779Y-62240000D01*
X225987221Y-63260000D02*
X226312779Y-63260000D01*
G04 #@! TO.C,C7*
X194040000Y-70162221D02*
X194040000Y-70487779D01*
X195060000Y-70162221D02*
X195060000Y-70487779D01*
G04 #@! TO.C,C8*
X210737079Y-82377200D02*
X210411521Y-82377200D01*
X210737079Y-81357200D02*
X210411521Y-81357200D01*
G04 #@! TO.C,C9*
X202405879Y-76683600D02*
X202080321Y-76683600D01*
X202405879Y-77703600D02*
X202080321Y-77703600D01*
G04 #@! TO.C,C1*
X226590000Y-48625279D02*
X226590000Y-48299721D01*
X227610000Y-48625279D02*
X227610000Y-48299721D01*
G04 #@! TO.C,JP1*
X232030000Y-62990000D02*
X229370000Y-62990000D01*
X232030000Y-68130000D02*
X232030000Y-62990000D01*
X229370000Y-68130000D02*
X229370000Y-62990000D01*
X232030000Y-68130000D02*
X229370000Y-68130000D01*
X232030000Y-69400000D02*
X232030000Y-70730000D01*
X232030000Y-70730000D02*
X230700000Y-70730000D01*
G04 #@! TO.C,JP2*
X231830000Y-55330000D02*
X230500000Y-55330000D01*
X231830000Y-54000000D02*
X231830000Y-55330000D01*
X231830000Y-52730000D02*
X229170000Y-52730000D01*
X229170000Y-52730000D02*
X229170000Y-47590000D01*
X231830000Y-52730000D02*
X231830000Y-47590000D01*
X231830000Y-47590000D02*
X229170000Y-47590000D01*
G04 #@! TO.C,JP3*
X219590000Y-52670000D02*
X219590000Y-55330000D01*
X224730000Y-52670000D02*
X219590000Y-52670000D01*
X224730000Y-55330000D02*
X219590000Y-55330000D01*
X224730000Y-52670000D02*
X224730000Y-55330000D01*
X226000000Y-52670000D02*
X227330000Y-52670000D01*
X227330000Y-52670000D02*
X227330000Y-54000000D01*
G04 #@! TO.C,J2*
X180670000Y-88490000D02*
X185870000Y-88490000D01*
X180670000Y-78270000D02*
X180670000Y-88490000D01*
X185870000Y-75670000D02*
X185870000Y-88490000D01*
X180670000Y-78270000D02*
X183270000Y-78270000D01*
X183270000Y-78270000D02*
X183270000Y-75670000D01*
X183270000Y-75670000D02*
X185870000Y-75670000D01*
X180670000Y-77000000D02*
X180670000Y-75670000D01*
X180670000Y-75670000D02*
X182000000Y-75670000D01*
G04 #@! TO.C,R15*
X211448079Y-62408800D02*
X211122521Y-62408800D01*
X211448079Y-63428800D02*
X211122521Y-63428800D01*
G04 #@! TO.C,R2*
X211050279Y-88030000D02*
X210724721Y-88030000D01*
X211050279Y-87010000D02*
X210724721Y-87010000D01*
G04 #@! TO.C,R3*
X225310000Y-48625279D02*
X225310000Y-48299721D01*
X224290000Y-48625279D02*
X224290000Y-48299721D01*
G04 #@! TO.C,R1*
X211050279Y-85490000D02*
X210724721Y-85490000D01*
X211050279Y-84470000D02*
X210724721Y-84470000D01*
G04 #@! TO.C,R16*
X206990000Y-82537221D02*
X206990000Y-82862779D01*
X208010000Y-82537221D02*
X208010000Y-82862779D01*
G04 #@! TO.C,R4*
X221699721Y-49760000D02*
X222025279Y-49760000D01*
X221699721Y-48740000D02*
X222025279Y-48740000D01*
G04 #@! TO.C,R14*
X211448079Y-64339200D02*
X211122521Y-64339200D01*
X211448079Y-65359200D02*
X211122521Y-65359200D01*
G04 #@! TO.C,R9*
X203677600Y-108483321D02*
X203677600Y-108808879D01*
X202657600Y-108483321D02*
X202657600Y-108808879D01*
D12*
G04 #@! TO.C,EXT2*
X219000000Y-104700000D02*
X230950000Y-104700000D01*
X230950000Y-104700000D02*
X230950000Y-100200000D01*
X230950000Y-100200000D02*
X217050000Y-100200000D01*
X217050000Y-100200000D02*
X217050000Y-103000000D01*
G04 #@! TO.C,LOC1*
X200200000Y-61950000D02*
X203000000Y-61950000D01*
X200200000Y-48050000D02*
X200200000Y-61950000D01*
X204700000Y-48050000D02*
X200200000Y-48050000D01*
X204700000Y-60000000D02*
X204700000Y-48050000D01*
G04 #@! TO.C,LOC0*
X210200000Y-60000000D02*
X210200000Y-48050000D01*
X210200000Y-48050000D02*
X205700000Y-48050000D01*
X205700000Y-48050000D02*
X205700000Y-61950000D01*
X205700000Y-61950000D02*
X208500000Y-61950000D01*
G04 #@! TO.C,EXT0*
X219000000Y-115700000D02*
X230950000Y-115700000D01*
X230950000Y-115700000D02*
X230950000Y-111200000D01*
X230950000Y-111200000D02*
X217050000Y-111200000D01*
X217050000Y-111200000D02*
X217050000Y-114000000D01*
G04 #@! TO.C,EXT3*
X217050000Y-94700000D02*
X217050000Y-97500000D01*
X230950000Y-94700000D02*
X217050000Y-94700000D01*
X230950000Y-99200000D02*
X230950000Y-94700000D01*
X219000000Y-99200000D02*
X230950000Y-99200000D01*
G04 #@! TO.C,EXT6*
X217050000Y-78200000D02*
X217050000Y-81000000D01*
X230950000Y-78200000D02*
X217050000Y-78200000D01*
X230950000Y-82700000D02*
X230950000Y-78200000D01*
X219000000Y-82700000D02*
X230950000Y-82700000D01*
G04 #@! TO.C,EXT7*
X219000000Y-77200000D02*
X230950000Y-77200000D01*
X230950000Y-77200000D02*
X230950000Y-72700000D01*
X230950000Y-72700000D02*
X217050000Y-72700000D01*
X217050000Y-72700000D02*
X217050000Y-75500000D01*
G04 #@! TO.C,EXT5*
X217050000Y-83700000D02*
X217050000Y-86500000D01*
X230950000Y-83700000D02*
X217050000Y-83700000D01*
X230950000Y-88200000D02*
X230950000Y-83700000D01*
X219000000Y-88200000D02*
X230950000Y-88200000D01*
G04 #@! TO.C,EXT1*
X219000000Y-110200000D02*
X230950000Y-110200000D01*
X230950000Y-110200000D02*
X230950000Y-105700000D01*
X230950000Y-105700000D02*
X217050000Y-105700000D01*
X217050000Y-105700000D02*
X217050000Y-108500000D01*
D15*
G04 #@! TO.C,R8*
X187151155Y-84034665D02*
G75*
G03X187151155Y-84034665I-57155J0D01*
G01*
G04 #@! TO.C,R7*
X209422490Y-100494000D02*
G75*
G03X209422490Y-100494000I-57155J0D01*
G01*
G04 #@! TO.C,R11*
X209422490Y-95694000D02*
G75*
G03X209422490Y-95694000I-57155J0D01*
G01*
G04 #@! TO.C,R12*
X197791820Y-98306000D02*
G75*
G03X197791820Y-98306000I-57155J0D01*
G01*
G04 #@! TO.C,R6*
X197791820Y-103106000D02*
G75*
G03X197791820Y-103106000I-57155J0D01*
G01*
D16*
G04 #@! TO.C,G\002A\002A\002A*
G36*
X220732459Y-116286056D02*
X221326575Y-116286288D01*
X221846215Y-116286794D01*
X222296475Y-116287670D01*
X222682452Y-116289012D01*
X223009240Y-116290916D01*
X223281935Y-116293480D01*
X223505633Y-116296800D01*
X223685429Y-116300973D01*
X223826419Y-116306095D01*
X223933699Y-116312262D01*
X224012363Y-116319572D01*
X224067509Y-116328120D01*
X224104231Y-116338004D01*
X224127626Y-116349320D01*
X224142788Y-116362164D01*
X224143939Y-116363416D01*
X224155878Y-116381769D01*
X224166390Y-116412214D01*
X224175564Y-116459872D01*
X224183489Y-116529865D01*
X224190257Y-116627317D01*
X224195956Y-116757349D01*
X224200676Y-116925083D01*
X224204508Y-117135641D01*
X224207542Y-117394146D01*
X224209866Y-117705720D01*
X224211571Y-118075485D01*
X224212747Y-118508564D01*
X224213483Y-119010078D01*
X224213870Y-119585150D01*
X224213998Y-120238901D01*
X224214000Y-120357355D01*
X224213942Y-121022241D01*
X224213701Y-121607621D01*
X224213177Y-122118658D01*
X224212269Y-122560513D01*
X224210878Y-122938348D01*
X224208903Y-123257323D01*
X224206243Y-123522601D01*
X224202800Y-123739342D01*
X224198471Y-123912709D01*
X224193158Y-124047863D01*
X224186760Y-124149966D01*
X224179177Y-124224178D01*
X224170308Y-124275662D01*
X224160054Y-124309579D01*
X224148313Y-124331090D01*
X224136583Y-124343938D01*
X224118271Y-124355847D01*
X224087883Y-124366336D01*
X224040311Y-124375494D01*
X223970446Y-124383409D01*
X223873183Y-124390172D01*
X223743411Y-124395871D01*
X223576024Y-124400595D01*
X223365913Y-124404434D01*
X223107970Y-124407476D01*
X222797088Y-124409811D01*
X222428158Y-124411527D01*
X221996073Y-124412715D01*
X221495725Y-124413463D01*
X220922005Y-124413860D01*
X220269806Y-124413996D01*
X220121478Y-124414000D01*
X219454693Y-124413942D01*
X218867428Y-124413703D01*
X218354535Y-124413183D01*
X217910868Y-124412282D01*
X217531278Y-124410902D01*
X217210619Y-124408942D01*
X216943744Y-124406304D01*
X216725506Y-124402887D01*
X216550757Y-124398593D01*
X216414351Y-124393322D01*
X216311139Y-124386975D01*
X216235976Y-124379452D01*
X216183713Y-124370653D01*
X216149205Y-124360480D01*
X216127302Y-124348833D01*
X216113728Y-124336583D01*
X216101888Y-124318364D01*
X216091451Y-124288103D01*
X216082331Y-124240727D01*
X216074439Y-124171158D01*
X216067687Y-124074322D01*
X216061989Y-123945143D01*
X216057258Y-123778545D01*
X216053404Y-123569454D01*
X216050341Y-123312793D01*
X216047982Y-123003487D01*
X216046239Y-122636461D01*
X216045024Y-122206639D01*
X216044250Y-121708945D01*
X216043829Y-121138305D01*
X216043674Y-120489642D01*
X216043667Y-120272583D01*
X216043667Y-116751666D01*
X216509333Y-116751666D01*
X216509333Y-123948333D01*
X223748333Y-123948333D01*
X223748333Y-116751666D01*
X216509333Y-116751666D01*
X216043667Y-116751666D01*
X216043667Y-116286000D01*
X220058772Y-116286000D01*
X220732459Y-116286056D01*
X220732459Y-116286056D01*
G37*
X220732459Y-116286056D02*
X221326575Y-116286288D01*
X221846215Y-116286794D01*
X222296475Y-116287670D01*
X222682452Y-116289012D01*
X223009240Y-116290916D01*
X223281935Y-116293480D01*
X223505633Y-116296800D01*
X223685429Y-116300973D01*
X223826419Y-116306095D01*
X223933699Y-116312262D01*
X224012363Y-116319572D01*
X224067509Y-116328120D01*
X224104231Y-116338004D01*
X224127626Y-116349320D01*
X224142788Y-116362164D01*
X224143939Y-116363416D01*
X224155878Y-116381769D01*
X224166390Y-116412214D01*
X224175564Y-116459872D01*
X224183489Y-116529865D01*
X224190257Y-116627317D01*
X224195956Y-116757349D01*
X224200676Y-116925083D01*
X224204508Y-117135641D01*
X224207542Y-117394146D01*
X224209866Y-117705720D01*
X224211571Y-118075485D01*
X224212747Y-118508564D01*
X224213483Y-119010078D01*
X224213870Y-119585150D01*
X224213998Y-120238901D01*
X224214000Y-120357355D01*
X224213942Y-121022241D01*
X224213701Y-121607621D01*
X224213177Y-122118658D01*
X224212269Y-122560513D01*
X224210878Y-122938348D01*
X224208903Y-123257323D01*
X224206243Y-123522601D01*
X224202800Y-123739342D01*
X224198471Y-123912709D01*
X224193158Y-124047863D01*
X224186760Y-124149966D01*
X224179177Y-124224178D01*
X224170308Y-124275662D01*
X224160054Y-124309579D01*
X224148313Y-124331090D01*
X224136583Y-124343938D01*
X224118271Y-124355847D01*
X224087883Y-124366336D01*
X224040311Y-124375494D01*
X223970446Y-124383409D01*
X223873183Y-124390172D01*
X223743411Y-124395871D01*
X223576024Y-124400595D01*
X223365913Y-124404434D01*
X223107970Y-124407476D01*
X222797088Y-124409811D01*
X222428158Y-124411527D01*
X221996073Y-124412715D01*
X221495725Y-124413463D01*
X220922005Y-124413860D01*
X220269806Y-124413996D01*
X220121478Y-124414000D01*
X219454693Y-124413942D01*
X218867428Y-124413703D01*
X218354535Y-124413183D01*
X217910868Y-124412282D01*
X217531278Y-124410902D01*
X217210619Y-124408942D01*
X216943744Y-124406304D01*
X216725506Y-124402887D01*
X216550757Y-124398593D01*
X216414351Y-124393322D01*
X216311139Y-124386975D01*
X216235976Y-124379452D01*
X216183713Y-124370653D01*
X216149205Y-124360480D01*
X216127302Y-124348833D01*
X216113728Y-124336583D01*
X216101888Y-124318364D01*
X216091451Y-124288103D01*
X216082331Y-124240727D01*
X216074439Y-124171158D01*
X216067687Y-124074322D01*
X216061989Y-123945143D01*
X216057258Y-123778545D01*
X216053404Y-123569454D01*
X216050341Y-123312793D01*
X216047982Y-123003487D01*
X216046239Y-122636461D01*
X216045024Y-122206639D01*
X216044250Y-121708945D01*
X216043829Y-121138305D01*
X216043674Y-120489642D01*
X216043667Y-120272583D01*
X216043667Y-116751666D01*
X216509333Y-116751666D01*
X216509333Y-123948333D01*
X223748333Y-123948333D01*
X223748333Y-116751666D01*
X216509333Y-116751666D01*
X216043667Y-116751666D01*
X216043667Y-116286000D01*
X220058772Y-116286000D01*
X220732459Y-116286056D01*
G36*
X219979430Y-119241895D02*
X220045025Y-119401027D01*
X220118732Y-119550611D01*
X220189661Y-119671355D01*
X220246922Y-119743967D01*
X220269869Y-119756420D01*
X220306906Y-119724094D01*
X220376962Y-119640167D01*
X220464960Y-119522719D01*
X220466064Y-119521179D01*
X220577249Y-119371314D01*
X220654369Y-119277551D01*
X220693573Y-119242162D01*
X220691008Y-119267423D01*
X220642824Y-119355605D01*
X220581991Y-119452739D01*
X220394171Y-119787434D01*
X220224812Y-120174389D01*
X220087621Y-120581330D01*
X220060259Y-120681239D01*
X220025570Y-120846373D01*
X219995536Y-121048516D01*
X219971431Y-121269085D01*
X219954530Y-121489497D01*
X219946109Y-121691169D01*
X219947443Y-121855520D01*
X219959806Y-121963965D01*
X219970381Y-121991216D01*
X220035541Y-122015535D01*
X220152759Y-121995327D01*
X220306989Y-121937692D01*
X220483188Y-121849734D01*
X220666308Y-121738553D01*
X220841306Y-121611252D01*
X220924102Y-121541040D01*
X221017072Y-121463476D01*
X221056374Y-121446013D01*
X221048361Y-121474898D01*
X220987496Y-121556050D01*
X220877419Y-121673953D01*
X220735250Y-121812743D01*
X220578109Y-121956552D01*
X220423116Y-122089515D01*
X220287390Y-122195768D01*
X220223386Y-122239438D01*
X220117450Y-122306025D01*
X220045864Y-122352164D01*
X220029638Y-122363418D01*
X220030899Y-122411572D01*
X220059199Y-122519601D01*
X220108124Y-122669605D01*
X220171260Y-122843682D01*
X220242193Y-123023930D01*
X220314507Y-123192449D01*
X220364300Y-123297409D01*
X220521169Y-123609666D01*
X219941613Y-123609666D01*
X219877135Y-123392544D01*
X219797474Y-123058130D01*
X219738072Y-122673444D01*
X219702486Y-122271215D01*
X219694271Y-121884174D01*
X219698865Y-121751672D01*
X219708869Y-121540466D01*
X219710509Y-121389283D01*
X219700526Y-121273633D01*
X219675663Y-121169026D01*
X219632662Y-121050972D01*
X219592716Y-120953684D01*
X219507022Y-120765742D01*
X219407972Y-120574790D01*
X219316791Y-120421709D01*
X219315548Y-120419845D01*
X219169859Y-120201833D01*
X219368860Y-120392333D01*
X219497441Y-120526588D01*
X219618757Y-120671495D01*
X219682300Y-120759532D01*
X219796740Y-120936232D01*
X219893941Y-120632532D01*
X219954034Y-120457370D01*
X220017750Y-120291293D01*
X220070732Y-120171454D01*
X220109881Y-120088996D01*
X220126846Y-120021775D01*
X220120407Y-119944390D01*
X220089347Y-119831440D01*
X220048394Y-119705787D01*
X219993692Y-119524613D01*
X219948134Y-119345586D01*
X219921554Y-119207366D01*
X219921506Y-119207000D01*
X219896545Y-119016500D01*
X219979430Y-119241895D01*
X219979430Y-119241895D01*
G37*
X219979430Y-119241895D02*
X220045025Y-119401027D01*
X220118732Y-119550611D01*
X220189661Y-119671355D01*
X220246922Y-119743967D01*
X220269869Y-119756420D01*
X220306906Y-119724094D01*
X220376962Y-119640167D01*
X220464960Y-119522719D01*
X220466064Y-119521179D01*
X220577249Y-119371314D01*
X220654369Y-119277551D01*
X220693573Y-119242162D01*
X220691008Y-119267423D01*
X220642824Y-119355605D01*
X220581991Y-119452739D01*
X220394171Y-119787434D01*
X220224812Y-120174389D01*
X220087621Y-120581330D01*
X220060259Y-120681239D01*
X220025570Y-120846373D01*
X219995536Y-121048516D01*
X219971431Y-121269085D01*
X219954530Y-121489497D01*
X219946109Y-121691169D01*
X219947443Y-121855520D01*
X219959806Y-121963965D01*
X219970381Y-121991216D01*
X220035541Y-122015535D01*
X220152759Y-121995327D01*
X220306989Y-121937692D01*
X220483188Y-121849734D01*
X220666308Y-121738553D01*
X220841306Y-121611252D01*
X220924102Y-121541040D01*
X221017072Y-121463476D01*
X221056374Y-121446013D01*
X221048361Y-121474898D01*
X220987496Y-121556050D01*
X220877419Y-121673953D01*
X220735250Y-121812743D01*
X220578109Y-121956552D01*
X220423116Y-122089515D01*
X220287390Y-122195768D01*
X220223386Y-122239438D01*
X220117450Y-122306025D01*
X220045864Y-122352164D01*
X220029638Y-122363418D01*
X220030899Y-122411572D01*
X220059199Y-122519601D01*
X220108124Y-122669605D01*
X220171260Y-122843682D01*
X220242193Y-123023930D01*
X220314507Y-123192449D01*
X220364300Y-123297409D01*
X220521169Y-123609666D01*
X219941613Y-123609666D01*
X219877135Y-123392544D01*
X219797474Y-123058130D01*
X219738072Y-122673444D01*
X219702486Y-122271215D01*
X219694271Y-121884174D01*
X219698865Y-121751672D01*
X219708869Y-121540466D01*
X219710509Y-121389283D01*
X219700526Y-121273633D01*
X219675663Y-121169026D01*
X219632662Y-121050972D01*
X219592716Y-120953684D01*
X219507022Y-120765742D01*
X219407972Y-120574790D01*
X219316791Y-120421709D01*
X219315548Y-120419845D01*
X219169859Y-120201833D01*
X219368860Y-120392333D01*
X219497441Y-120526588D01*
X219618757Y-120671495D01*
X219682300Y-120759532D01*
X219796740Y-120936232D01*
X219893941Y-120632532D01*
X219954034Y-120457370D01*
X220017750Y-120291293D01*
X220070732Y-120171454D01*
X220109881Y-120088996D01*
X220126846Y-120021775D01*
X220120407Y-119944390D01*
X220089347Y-119831440D01*
X220048394Y-119705787D01*
X219993692Y-119524613D01*
X219948134Y-119345586D01*
X219921554Y-119207366D01*
X219921506Y-119207000D01*
X219896545Y-119016500D01*
X219979430Y-119241895D01*
G36*
X223269260Y-119544996D02*
X223304026Y-119552915D01*
X223309562Y-119609948D01*
X223288757Y-119729695D01*
X223246567Y-119896197D01*
X223187946Y-120093498D01*
X223117849Y-120305639D01*
X223041231Y-120516665D01*
X222963047Y-120710617D01*
X222904923Y-120838228D01*
X222686925Y-121225772D01*
X222448620Y-121535179D01*
X222186016Y-121771390D01*
X222107604Y-121825076D01*
X221890606Y-121935721D01*
X221634512Y-122023310D01*
X221379127Y-122075890D01*
X221239850Y-122085666D01*
X221077489Y-122085666D01*
X221292471Y-121821083D01*
X221490102Y-121548063D01*
X221638026Y-121280763D01*
X221726780Y-121037011D01*
X221738954Y-120979928D01*
X221750575Y-120876567D01*
X221727791Y-120826093D01*
X221660828Y-120800289D01*
X221494035Y-120791310D01*
X221284721Y-120828363D01*
X221055645Y-120903567D01*
X220829569Y-121009044D01*
X220629253Y-121136911D01*
X220583840Y-121173155D01*
X220494983Y-121242023D01*
X220433352Y-121279211D01*
X220424832Y-121281333D01*
X220407408Y-121244808D01*
X220413208Y-121149264D01*
X220437925Y-121015749D01*
X220477254Y-120865311D01*
X220526890Y-120718997D01*
X220552313Y-120658172D01*
X220717491Y-120392173D01*
X220956163Y-120154628D01*
X221260211Y-119951453D01*
X221621518Y-119788567D01*
X221841734Y-119718288D01*
X221974354Y-119688222D01*
X222153623Y-119656761D01*
X222362764Y-119625805D01*
X222584997Y-119597250D01*
X222803542Y-119572994D01*
X223001620Y-119554935D01*
X223162453Y-119544970D01*
X223269260Y-119544996D01*
X223269260Y-119544996D01*
G37*
X223269260Y-119544996D02*
X223304026Y-119552915D01*
X223309562Y-119609948D01*
X223288757Y-119729695D01*
X223246567Y-119896197D01*
X223187946Y-120093498D01*
X223117849Y-120305639D01*
X223041231Y-120516665D01*
X222963047Y-120710617D01*
X222904923Y-120838228D01*
X222686925Y-121225772D01*
X222448620Y-121535179D01*
X222186016Y-121771390D01*
X222107604Y-121825076D01*
X221890606Y-121935721D01*
X221634512Y-122023310D01*
X221379127Y-122075890D01*
X221239850Y-122085666D01*
X221077489Y-122085666D01*
X221292471Y-121821083D01*
X221490102Y-121548063D01*
X221638026Y-121280763D01*
X221726780Y-121037011D01*
X221738954Y-120979928D01*
X221750575Y-120876567D01*
X221727791Y-120826093D01*
X221660828Y-120800289D01*
X221494035Y-120791310D01*
X221284721Y-120828363D01*
X221055645Y-120903567D01*
X220829569Y-121009044D01*
X220629253Y-121136911D01*
X220583840Y-121173155D01*
X220494983Y-121242023D01*
X220433352Y-121279211D01*
X220424832Y-121281333D01*
X220407408Y-121244808D01*
X220413208Y-121149264D01*
X220437925Y-121015749D01*
X220477254Y-120865311D01*
X220526890Y-120718997D01*
X220552313Y-120658172D01*
X220717491Y-120392173D01*
X220956163Y-120154628D01*
X221260211Y-119951453D01*
X221621518Y-119788567D01*
X221841734Y-119718288D01*
X221974354Y-119688222D01*
X222153623Y-119656761D01*
X222362764Y-119625805D01*
X222584997Y-119597250D01*
X222803542Y-119572994D01*
X223001620Y-119554935D01*
X223162453Y-119544970D01*
X223269260Y-119544996D01*
G36*
X217665698Y-118453270D02*
X217816984Y-118473984D01*
X218000923Y-118511065D01*
X218201391Y-118561781D01*
X218384204Y-118617351D01*
X218763520Y-118769116D01*
X219074843Y-118952617D01*
X219331502Y-119176034D01*
X219378902Y-119227878D01*
X219530784Y-119446895D01*
X219636549Y-119694971D01*
X219683212Y-119940119D01*
X219684333Y-119980240D01*
X219684333Y-120103114D01*
X219519897Y-119972878D01*
X219344707Y-119853049D01*
X219148549Y-119748515D01*
X218957687Y-119671157D01*
X218798380Y-119632854D01*
X218763583Y-119630746D01*
X218668528Y-119639318D01*
X218631515Y-119680446D01*
X218626236Y-119746750D01*
X218658475Y-119972574D01*
X218757840Y-120208648D01*
X218902205Y-120431539D01*
X219091491Y-120688666D01*
X218953996Y-120684848D01*
X218810834Y-120669438D01*
X218674237Y-120640092D01*
X218401394Y-120518181D01*
X218159327Y-120320850D01*
X217952555Y-120053169D01*
X217785595Y-119720208D01*
X217737067Y-119588198D01*
X217700168Y-119457153D01*
X217657866Y-119274223D01*
X217614821Y-119064003D01*
X217575692Y-118851086D01*
X217545138Y-118660068D01*
X217527820Y-118515544D01*
X217525583Y-118471872D01*
X217563190Y-118451655D01*
X217665698Y-118453270D01*
X217665698Y-118453270D01*
G37*
X217665698Y-118453270D02*
X217816984Y-118473984D01*
X218000923Y-118511065D01*
X218201391Y-118561781D01*
X218384204Y-118617351D01*
X218763520Y-118769116D01*
X219074843Y-118952617D01*
X219331502Y-119176034D01*
X219378902Y-119227878D01*
X219530784Y-119446895D01*
X219636549Y-119694971D01*
X219683212Y-119940119D01*
X219684333Y-119980240D01*
X219684333Y-120103114D01*
X219519897Y-119972878D01*
X219344707Y-119853049D01*
X219148549Y-119748515D01*
X218957687Y-119671157D01*
X218798380Y-119632854D01*
X218763583Y-119630746D01*
X218668528Y-119639318D01*
X218631515Y-119680446D01*
X218626236Y-119746750D01*
X218658475Y-119972574D01*
X218757840Y-120208648D01*
X218902205Y-120431539D01*
X219091491Y-120688666D01*
X218953996Y-120684848D01*
X218810834Y-120669438D01*
X218674237Y-120640092D01*
X218401394Y-120518181D01*
X218159327Y-120320850D01*
X217952555Y-120053169D01*
X217785595Y-119720208D01*
X217737067Y-119588198D01*
X217700168Y-119457153D01*
X217657866Y-119274223D01*
X217614821Y-119064003D01*
X217575692Y-118851086D01*
X217545138Y-118660068D01*
X217527820Y-118515544D01*
X217525583Y-118471872D01*
X217563190Y-118451655D01*
X217665698Y-118453270D01*
G36*
X222113136Y-117965061D02*
X222083351Y-118120928D01*
X222034788Y-118314769D01*
X221976058Y-118517114D01*
X221915776Y-118698490D01*
X221862555Y-118829426D01*
X221857694Y-118839112D01*
X221690286Y-119082189D01*
X221469799Y-119281709D01*
X221215904Y-119422609D01*
X221021063Y-119479740D01*
X220854960Y-119509928D01*
X220925772Y-119411381D01*
X221034482Y-119240823D01*
X221120916Y-119068430D01*
X221180561Y-118909023D01*
X221208908Y-118777423D01*
X221201443Y-118688453D01*
X221155417Y-118656902D01*
X220995517Y-118685327D01*
X220808195Y-118760424D01*
X220625639Y-118868740D01*
X220595496Y-118890935D01*
X220487722Y-118971096D01*
X220430547Y-119003163D01*
X220408032Y-118991401D01*
X220404236Y-118942137D01*
X220445026Y-118703954D01*
X220558527Y-118474081D01*
X220733196Y-118269205D01*
X220957493Y-118106015D01*
X220997003Y-118084996D01*
X221235345Y-117987103D01*
X221527474Y-117903011D01*
X221842676Y-117841213D01*
X221915354Y-117831028D01*
X222135541Y-117802622D01*
X222113136Y-117965061D01*
X222113136Y-117965061D01*
G37*
X222113136Y-117965061D02*
X222083351Y-118120928D01*
X222034788Y-118314769D01*
X221976058Y-118517114D01*
X221915776Y-118698490D01*
X221862555Y-118829426D01*
X221857694Y-118839112D01*
X221690286Y-119082189D01*
X221469799Y-119281709D01*
X221215904Y-119422609D01*
X221021063Y-119479740D01*
X220854960Y-119509928D01*
X220925772Y-119411381D01*
X221034482Y-119240823D01*
X221120916Y-119068430D01*
X221180561Y-118909023D01*
X221208908Y-118777423D01*
X221201443Y-118688453D01*
X221155417Y-118656902D01*
X220995517Y-118685327D01*
X220808195Y-118760424D01*
X220625639Y-118868740D01*
X220595496Y-118890935D01*
X220487722Y-118971096D01*
X220430547Y-119003163D01*
X220408032Y-118991401D01*
X220404236Y-118942137D01*
X220445026Y-118703954D01*
X220558527Y-118474081D01*
X220733196Y-118269205D01*
X220957493Y-118106015D01*
X220997003Y-118084996D01*
X221235345Y-117987103D01*
X221527474Y-117903011D01*
X221842676Y-117841213D01*
X221915354Y-117831028D01*
X222135541Y-117802622D01*
X222113136Y-117965061D01*
G36*
X219640581Y-117587940D02*
X219735398Y-117671962D01*
X219846576Y-117790370D01*
X219958320Y-117925464D01*
X220054837Y-118059548D01*
X220108753Y-118150796D01*
X220176911Y-118341425D01*
X220203264Y-118545544D01*
X220185772Y-118731213D01*
X220151746Y-118823548D01*
X220095984Y-118926930D01*
X220014962Y-118754780D01*
X219939286Y-118622331D01*
X219852125Y-118507539D01*
X219830966Y-118485892D01*
X219727992Y-118389153D01*
X219659759Y-118552458D01*
X219611055Y-118766888D01*
X219617263Y-118876715D01*
X219627899Y-118978908D01*
X219622569Y-119034363D01*
X219618077Y-119037666D01*
X219575161Y-119010484D01*
X219498781Y-118942732D01*
X219472843Y-118917356D01*
X219345211Y-118731716D01*
X219283153Y-118502913D01*
X219290223Y-118245424D01*
X219297659Y-118204257D01*
X219341445Y-118029934D01*
X219399179Y-117858819D01*
X219462567Y-117710098D01*
X219523316Y-117602954D01*
X219573130Y-117556571D01*
X219577920Y-117556000D01*
X219640581Y-117587940D01*
X219640581Y-117587940D01*
G37*
X219640581Y-117587940D02*
X219735398Y-117671962D01*
X219846576Y-117790370D01*
X219958320Y-117925464D01*
X220054837Y-118059548D01*
X220108753Y-118150796D01*
X220176911Y-118341425D01*
X220203264Y-118545544D01*
X220185772Y-118731213D01*
X220151746Y-118823548D01*
X220095984Y-118926930D01*
X220014962Y-118754780D01*
X219939286Y-118622331D01*
X219852125Y-118507539D01*
X219830966Y-118485892D01*
X219727992Y-118389153D01*
X219659759Y-118552458D01*
X219611055Y-118766888D01*
X219617263Y-118876715D01*
X219627899Y-118978908D01*
X219622569Y-119034363D01*
X219618077Y-119037666D01*
X219575161Y-119010484D01*
X219498781Y-118942732D01*
X219472843Y-118917356D01*
X219345211Y-118731716D01*
X219283153Y-118502913D01*
X219290223Y-118245424D01*
X219297659Y-118204257D01*
X219341445Y-118029934D01*
X219399179Y-117858819D01*
X219462567Y-117710098D01*
X219523316Y-117602954D01*
X219573130Y-117556571D01*
X219577920Y-117556000D01*
X219640581Y-117587940D01*
G04 #@! TD*
G04 #@! TO.C,EXT4*
D12*
X231909285Y-93465476D02*
X231909285Y-93042142D01*
X232574523Y-92860714D02*
X232574523Y-93465476D01*
X231304523Y-93465476D01*
X231304523Y-92860714D01*
X231304523Y-92437380D02*
X232574523Y-91590714D01*
X231304523Y-91590714D02*
X232574523Y-92437380D01*
X231304523Y-91288333D02*
X231304523Y-90562619D01*
X232574523Y-90925476D02*
X231304523Y-90925476D01*
X231727857Y-89595000D02*
X232574523Y-89595000D01*
X231244047Y-89897380D02*
X232151190Y-90199761D01*
X232151190Y-89413571D01*
G04 #@! TO.C,JP4*
X196941666Y-63804523D02*
X196941666Y-64711666D01*
X196881190Y-64893095D01*
X196760238Y-65014047D01*
X196578809Y-65074523D01*
X196457857Y-65074523D01*
X197546428Y-65074523D02*
X197546428Y-63804523D01*
X198030238Y-63804523D01*
X198151190Y-63865000D01*
X198211666Y-63925476D01*
X198272142Y-64046428D01*
X198272142Y-64227857D01*
X198211666Y-64348809D01*
X198151190Y-64409285D01*
X198030238Y-64469761D01*
X197546428Y-64469761D01*
X199360714Y-64227857D02*
X199360714Y-65074523D01*
X199058333Y-63744047D02*
X198755952Y-64651190D01*
X199542142Y-64651190D01*
G04 #@! TO.C,SW1*
X178806666Y-116264047D02*
X178988095Y-116324523D01*
X179290476Y-116324523D01*
X179411428Y-116264047D01*
X179471904Y-116203571D01*
X179532380Y-116082619D01*
X179532380Y-115961666D01*
X179471904Y-115840714D01*
X179411428Y-115780238D01*
X179290476Y-115719761D01*
X179048571Y-115659285D01*
X178927619Y-115598809D01*
X178867142Y-115538333D01*
X178806666Y-115417380D01*
X178806666Y-115296428D01*
X178867142Y-115175476D01*
X178927619Y-115115000D01*
X179048571Y-115054523D01*
X179350952Y-115054523D01*
X179532380Y-115115000D01*
X179955714Y-115054523D02*
X180258095Y-116324523D01*
X180500000Y-115417380D01*
X180741904Y-116324523D01*
X181044285Y-115054523D01*
X182193333Y-116324523D02*
X181467619Y-116324523D01*
X181830476Y-116324523D02*
X181830476Y-115054523D01*
X181709523Y-115235952D01*
X181588571Y-115356904D01*
X181467619Y-115417380D01*
G04 #@! TO.C,IC1*
X187010238Y-98824523D02*
X187010238Y-97554523D01*
X188340714Y-98703571D02*
X188280238Y-98764047D01*
X188098809Y-98824523D01*
X187977857Y-98824523D01*
X187796428Y-98764047D01*
X187675476Y-98643095D01*
X187615000Y-98522142D01*
X187554523Y-98280238D01*
X187554523Y-98098809D01*
X187615000Y-97856904D01*
X187675476Y-97735952D01*
X187796428Y-97615000D01*
X187977857Y-97554523D01*
X188098809Y-97554523D01*
X188280238Y-97615000D01*
X188340714Y-97675476D01*
X189550238Y-98824523D02*
X188824523Y-98824523D01*
X189187380Y-98824523D02*
X189187380Y-97554523D01*
X189066428Y-97735952D01*
X188945476Y-97856904D01*
X188824523Y-97917380D01*
G04 #@! TO.C,R10*
X186683571Y-91974523D02*
X186260238Y-91369761D01*
X185957857Y-91974523D02*
X185957857Y-90704523D01*
X186441666Y-90704523D01*
X186562619Y-90765000D01*
X186623095Y-90825476D01*
X186683571Y-90946428D01*
X186683571Y-91127857D01*
X186623095Y-91248809D01*
X186562619Y-91309285D01*
X186441666Y-91369761D01*
X185957857Y-91369761D01*
X187893095Y-91974523D02*
X187167380Y-91974523D01*
X187530238Y-91974523D02*
X187530238Y-90704523D01*
X187409285Y-90885952D01*
X187288333Y-91006904D01*
X187167380Y-91067380D01*
X188679285Y-90704523D02*
X188800238Y-90704523D01*
X188921190Y-90765000D01*
X188981666Y-90825476D01*
X189042142Y-90946428D01*
X189102619Y-91188333D01*
X189102619Y-91490714D01*
X189042142Y-91732619D01*
X188981666Y-91853571D01*
X188921190Y-91914047D01*
X188800238Y-91974523D01*
X188679285Y-91974523D01*
X188558333Y-91914047D01*
X188497857Y-91853571D01*
X188437380Y-91732619D01*
X188376904Y-91490714D01*
X188376904Y-91188333D01*
X188437380Y-90946428D01*
X188497857Y-90825476D01*
X188558333Y-90765000D01*
X188679285Y-90704523D01*
G04 #@! TO.C,R19*
X205933571Y-79324523D02*
X205510238Y-78719761D01*
X205207857Y-79324523D02*
X205207857Y-78054523D01*
X205691666Y-78054523D01*
X205812619Y-78115000D01*
X205873095Y-78175476D01*
X205933571Y-78296428D01*
X205933571Y-78477857D01*
X205873095Y-78598809D01*
X205812619Y-78659285D01*
X205691666Y-78719761D01*
X205207857Y-78719761D01*
X207143095Y-79324523D02*
X206417380Y-79324523D01*
X206780238Y-79324523D02*
X206780238Y-78054523D01*
X206659285Y-78235952D01*
X206538333Y-78356904D01*
X206417380Y-78417380D01*
X207747857Y-79324523D02*
X207989761Y-79324523D01*
X208110714Y-79264047D01*
X208171190Y-79203571D01*
X208292142Y-79022142D01*
X208352619Y-78780238D01*
X208352619Y-78296428D01*
X208292142Y-78175476D01*
X208231666Y-78115000D01*
X208110714Y-78054523D01*
X207868809Y-78054523D01*
X207747857Y-78115000D01*
X207687380Y-78175476D01*
X207626904Y-78296428D01*
X207626904Y-78598809D01*
X207687380Y-78719761D01*
X207747857Y-78780238D01*
X207868809Y-78840714D01*
X208110714Y-78840714D01*
X208231666Y-78780238D01*
X208292142Y-78719761D01*
X208352619Y-78598809D01*
G04 #@! TO.C,R13*
X213933571Y-62824523D02*
X213510238Y-62219761D01*
X213207857Y-62824523D02*
X213207857Y-61554523D01*
X213691666Y-61554523D01*
X213812619Y-61615000D01*
X213873095Y-61675476D01*
X213933571Y-61796428D01*
X213933571Y-61977857D01*
X213873095Y-62098809D01*
X213812619Y-62159285D01*
X213691666Y-62219761D01*
X213207857Y-62219761D01*
X215143095Y-62824523D02*
X214417380Y-62824523D01*
X214780238Y-62824523D02*
X214780238Y-61554523D01*
X214659285Y-61735952D01*
X214538333Y-61856904D01*
X214417380Y-61917380D01*
X215566428Y-61554523D02*
X216352619Y-61554523D01*
X215929285Y-62038333D01*
X216110714Y-62038333D01*
X216231666Y-62098809D01*
X216292142Y-62159285D01*
X216352619Y-62280238D01*
X216352619Y-62582619D01*
X216292142Y-62703571D01*
X216231666Y-62764047D01*
X216110714Y-62824523D01*
X215747857Y-62824523D01*
X215626904Y-62764047D01*
X215566428Y-62703571D01*
G04 #@! TO.C,R5*
X188325533Y-119914123D02*
X187902200Y-119309361D01*
X187599819Y-119914123D02*
X187599819Y-118644123D01*
X188083628Y-118644123D01*
X188204580Y-118704600D01*
X188265057Y-118765076D01*
X188325533Y-118886028D01*
X188325533Y-119067457D01*
X188265057Y-119188409D01*
X188204580Y-119248885D01*
X188083628Y-119309361D01*
X187599819Y-119309361D01*
X189474580Y-118644123D02*
X188869819Y-118644123D01*
X188809342Y-119248885D01*
X188869819Y-119188409D01*
X188990771Y-119127933D01*
X189293152Y-119127933D01*
X189414104Y-119188409D01*
X189474580Y-119248885D01*
X189535057Y-119369838D01*
X189535057Y-119672219D01*
X189474580Y-119793171D01*
X189414104Y-119853647D01*
X189293152Y-119914123D01*
X188990771Y-119914123D01*
X188869819Y-119853647D01*
X188809342Y-119793171D01*
G04 #@! TO.C,MASTER0*
X219336523Y-58296523D02*
X219336523Y-57026523D01*
X219759857Y-57933666D01*
X220183190Y-57026523D01*
X220183190Y-58296523D01*
X220727476Y-57933666D02*
X221332238Y-57933666D01*
X220606523Y-58296523D02*
X221029857Y-57026523D01*
X221453190Y-58296523D01*
X221816047Y-58236047D02*
X221997476Y-58296523D01*
X222299857Y-58296523D01*
X222420809Y-58236047D01*
X222481285Y-58175571D01*
X222541761Y-58054619D01*
X222541761Y-57933666D01*
X222481285Y-57812714D01*
X222420809Y-57752238D01*
X222299857Y-57691761D01*
X222057952Y-57631285D01*
X221937000Y-57570809D01*
X221876523Y-57510333D01*
X221816047Y-57389380D01*
X221816047Y-57268428D01*
X221876523Y-57147476D01*
X221937000Y-57087000D01*
X222057952Y-57026523D01*
X222360333Y-57026523D01*
X222541761Y-57087000D01*
X222904619Y-57026523D02*
X223630333Y-57026523D01*
X223267476Y-58296523D02*
X223267476Y-57026523D01*
X224053666Y-57631285D02*
X224477000Y-57631285D01*
X224658428Y-58296523D02*
X224053666Y-58296523D01*
X224053666Y-57026523D01*
X224658428Y-57026523D01*
X225928428Y-58296523D02*
X225505095Y-57691761D01*
X225202714Y-58296523D02*
X225202714Y-57026523D01*
X225686523Y-57026523D01*
X225807476Y-57087000D01*
X225867952Y-57147476D01*
X225928428Y-57268428D01*
X225928428Y-57449857D01*
X225867952Y-57570809D01*
X225807476Y-57631285D01*
X225686523Y-57691761D01*
X225202714Y-57691761D01*
X226714619Y-57026523D02*
X226835571Y-57026523D01*
X226956523Y-57087000D01*
X227017000Y-57147476D01*
X227077476Y-57268428D01*
X227137952Y-57510333D01*
X227137952Y-57812714D01*
X227077476Y-58054619D01*
X227017000Y-58175571D01*
X226956523Y-58236047D01*
X226835571Y-58296523D01*
X226714619Y-58296523D01*
X226593666Y-58236047D01*
X226533190Y-58175571D01*
X226472714Y-58054619D01*
X226412238Y-57812714D01*
X226412238Y-57510333D01*
X226472714Y-57268428D01*
X226533190Y-57147476D01*
X226593666Y-57087000D01*
X226714619Y-57026523D01*
G04 #@! TO.C,IC8*
X212510238Y-57074523D02*
X212510238Y-55804523D01*
X213840714Y-56953571D02*
X213780238Y-57014047D01*
X213598809Y-57074523D01*
X213477857Y-57074523D01*
X213296428Y-57014047D01*
X213175476Y-56893095D01*
X213115000Y-56772142D01*
X213054523Y-56530238D01*
X213054523Y-56348809D01*
X213115000Y-56106904D01*
X213175476Y-55985952D01*
X213296428Y-55865000D01*
X213477857Y-55804523D01*
X213598809Y-55804523D01*
X213780238Y-55865000D01*
X213840714Y-55925476D01*
X214566428Y-56348809D02*
X214445476Y-56288333D01*
X214385000Y-56227857D01*
X214324523Y-56106904D01*
X214324523Y-56046428D01*
X214385000Y-55925476D01*
X214445476Y-55865000D01*
X214566428Y-55804523D01*
X214808333Y-55804523D01*
X214929285Y-55865000D01*
X214989761Y-55925476D01*
X215050238Y-56046428D01*
X215050238Y-56106904D01*
X214989761Y-56227857D01*
X214929285Y-56288333D01*
X214808333Y-56348809D01*
X214566428Y-56348809D01*
X214445476Y-56409285D01*
X214385000Y-56469761D01*
X214324523Y-56590714D01*
X214324523Y-56832619D01*
X214385000Y-56953571D01*
X214445476Y-57014047D01*
X214566428Y-57074523D01*
X214808333Y-57074523D01*
X214929285Y-57014047D01*
X214989761Y-56953571D01*
X215050238Y-56832619D01*
X215050238Y-56590714D01*
X214989761Y-56469761D01*
X214929285Y-56409285D01*
X214808333Y-56348809D01*
G04 #@! TO.C,IC3*
X202260238Y-105074523D02*
X202260238Y-103804523D01*
X203590714Y-104953571D02*
X203530238Y-105014047D01*
X203348809Y-105074523D01*
X203227857Y-105074523D01*
X203046428Y-105014047D01*
X202925476Y-104893095D01*
X202865000Y-104772142D01*
X202804523Y-104530238D01*
X202804523Y-104348809D01*
X202865000Y-104106904D01*
X202925476Y-103985952D01*
X203046428Y-103865000D01*
X203227857Y-103804523D01*
X203348809Y-103804523D01*
X203530238Y-103865000D01*
X203590714Y-103925476D01*
X204014047Y-103804523D02*
X204800238Y-103804523D01*
X204376904Y-104288333D01*
X204558333Y-104288333D01*
X204679285Y-104348809D01*
X204739761Y-104409285D01*
X204800238Y-104530238D01*
X204800238Y-104832619D01*
X204739761Y-104953571D01*
X204679285Y-105014047D01*
X204558333Y-105074523D01*
X204195476Y-105074523D01*
X204074523Y-105014047D01*
X204014047Y-104953571D01*
G04 #@! TO.C,IC7*
X213574523Y-82739761D02*
X212304523Y-82739761D01*
X213453571Y-81409285D02*
X213514047Y-81469761D01*
X213574523Y-81651190D01*
X213574523Y-81772142D01*
X213514047Y-81953571D01*
X213393095Y-82074523D01*
X213272142Y-82135000D01*
X213030238Y-82195476D01*
X212848809Y-82195476D01*
X212606904Y-82135000D01*
X212485952Y-82074523D01*
X212365000Y-81953571D01*
X212304523Y-81772142D01*
X212304523Y-81651190D01*
X212365000Y-81469761D01*
X212425476Y-81409285D01*
X212304523Y-80985952D02*
X212304523Y-80139285D01*
X213574523Y-80683571D01*
G04 #@! TO.C,IC6*
X204010238Y-81324523D02*
X204010238Y-80054523D01*
X205340714Y-81203571D02*
X205280238Y-81264047D01*
X205098809Y-81324523D01*
X204977857Y-81324523D01*
X204796428Y-81264047D01*
X204675476Y-81143095D01*
X204615000Y-81022142D01*
X204554523Y-80780238D01*
X204554523Y-80598809D01*
X204615000Y-80356904D01*
X204675476Y-80235952D01*
X204796428Y-80115000D01*
X204977857Y-80054523D01*
X205098809Y-80054523D01*
X205280238Y-80115000D01*
X205340714Y-80175476D01*
X206429285Y-80054523D02*
X206187380Y-80054523D01*
X206066428Y-80115000D01*
X206005952Y-80175476D01*
X205885000Y-80356904D01*
X205824523Y-80598809D01*
X205824523Y-81082619D01*
X205885000Y-81203571D01*
X205945476Y-81264047D01*
X206066428Y-81324523D01*
X206308333Y-81324523D01*
X206429285Y-81264047D01*
X206489761Y-81203571D01*
X206550238Y-81082619D01*
X206550238Y-80780238D01*
X206489761Y-80659285D01*
X206429285Y-80598809D01*
X206308333Y-80538333D01*
X206066428Y-80538333D01*
X205945476Y-80598809D01*
X205885000Y-80659285D01*
X205824523Y-80780238D01*
G04 #@! TO.C,IC4*
X228824523Y-69489761D02*
X227554523Y-69489761D01*
X228703571Y-68159285D02*
X228764047Y-68219761D01*
X228824523Y-68401190D01*
X228824523Y-68522142D01*
X228764047Y-68703571D01*
X228643095Y-68824523D01*
X228522142Y-68885000D01*
X228280238Y-68945476D01*
X228098809Y-68945476D01*
X227856904Y-68885000D01*
X227735952Y-68824523D01*
X227615000Y-68703571D01*
X227554523Y-68522142D01*
X227554523Y-68401190D01*
X227615000Y-68219761D01*
X227675476Y-68159285D01*
X227977857Y-67070714D02*
X228824523Y-67070714D01*
X227494047Y-67373095D02*
X228401190Y-67675476D01*
X228401190Y-66889285D01*
G04 #@! TO.C,IC2*
X187445523Y-69289761D02*
X186175523Y-69289761D01*
X187324571Y-67959285D02*
X187385047Y-68019761D01*
X187445523Y-68201190D01*
X187445523Y-68322142D01*
X187385047Y-68503571D01*
X187264095Y-68624523D01*
X187143142Y-68685000D01*
X186901238Y-68745476D01*
X186719809Y-68745476D01*
X186477904Y-68685000D01*
X186356952Y-68624523D01*
X186236000Y-68503571D01*
X186175523Y-68322142D01*
X186175523Y-68201190D01*
X186236000Y-68019761D01*
X186296476Y-67959285D01*
X186296476Y-67475476D02*
X186236000Y-67415000D01*
X186175523Y-67294047D01*
X186175523Y-66991666D01*
X186236000Y-66870714D01*
X186296476Y-66810238D01*
X186417428Y-66749761D01*
X186538380Y-66749761D01*
X186719809Y-66810238D01*
X187445523Y-67535952D01*
X187445523Y-66749761D01*
G04 #@! TO.C,IC5*
X203010238Y-70074523D02*
X203010238Y-68804523D01*
X204340714Y-69953571D02*
X204280238Y-70014047D01*
X204098809Y-70074523D01*
X203977857Y-70074523D01*
X203796428Y-70014047D01*
X203675476Y-69893095D01*
X203615000Y-69772142D01*
X203554523Y-69530238D01*
X203554523Y-69348809D01*
X203615000Y-69106904D01*
X203675476Y-68985952D01*
X203796428Y-68865000D01*
X203977857Y-68804523D01*
X204098809Y-68804523D01*
X204280238Y-68865000D01*
X204340714Y-68925476D01*
X205489761Y-68804523D02*
X204885000Y-68804523D01*
X204824523Y-69409285D01*
X204885000Y-69348809D01*
X205005952Y-69288333D01*
X205308333Y-69288333D01*
X205429285Y-69348809D01*
X205489761Y-69409285D01*
X205550238Y-69530238D01*
X205550238Y-69832619D01*
X205489761Y-69953571D01*
X205429285Y-70014047D01*
X205308333Y-70074523D01*
X205005952Y-70074523D01*
X204885000Y-70014047D01*
X204824523Y-69953571D01*
G04 #@! TO.C,C10*
X198433571Y-83666871D02*
X198373095Y-83727347D01*
X198191666Y-83787823D01*
X198070714Y-83787823D01*
X197889285Y-83727347D01*
X197768333Y-83606395D01*
X197707857Y-83485442D01*
X197647380Y-83243538D01*
X197647380Y-83062109D01*
X197707857Y-82820204D01*
X197768333Y-82699252D01*
X197889285Y-82578300D01*
X198070714Y-82517823D01*
X198191666Y-82517823D01*
X198373095Y-82578300D01*
X198433571Y-82638776D01*
X199643095Y-83787823D02*
X198917380Y-83787823D01*
X199280238Y-83787823D02*
X199280238Y-82517823D01*
X199159285Y-82699252D01*
X199038333Y-82820204D01*
X198917380Y-82880680D01*
X200429285Y-82517823D02*
X200550238Y-82517823D01*
X200671190Y-82578300D01*
X200731666Y-82638776D01*
X200792142Y-82759728D01*
X200852619Y-83001633D01*
X200852619Y-83304014D01*
X200792142Y-83545919D01*
X200731666Y-83666871D01*
X200671190Y-83727347D01*
X200550238Y-83787823D01*
X200429285Y-83787823D01*
X200308333Y-83727347D01*
X200247857Y-83666871D01*
X200187380Y-83545919D01*
X200126904Y-83304014D01*
X200126904Y-83001633D01*
X200187380Y-82759728D01*
X200247857Y-82638776D01*
X200308333Y-82578300D01*
X200429285Y-82517823D01*
G04 #@! TO.C,R18*
X193683571Y-77824523D02*
X193260238Y-77219761D01*
X192957857Y-77824523D02*
X192957857Y-76554523D01*
X193441666Y-76554523D01*
X193562619Y-76615000D01*
X193623095Y-76675476D01*
X193683571Y-76796428D01*
X193683571Y-76977857D01*
X193623095Y-77098809D01*
X193562619Y-77159285D01*
X193441666Y-77219761D01*
X192957857Y-77219761D01*
X194893095Y-77824523D02*
X194167380Y-77824523D01*
X194530238Y-77824523D02*
X194530238Y-76554523D01*
X194409285Y-76735952D01*
X194288333Y-76856904D01*
X194167380Y-76917380D01*
X195618809Y-77098809D02*
X195497857Y-77038333D01*
X195437380Y-76977857D01*
X195376904Y-76856904D01*
X195376904Y-76796428D01*
X195437380Y-76675476D01*
X195497857Y-76615000D01*
X195618809Y-76554523D01*
X195860714Y-76554523D01*
X195981666Y-76615000D01*
X196042142Y-76675476D01*
X196102619Y-76796428D01*
X196102619Y-76856904D01*
X196042142Y-76977857D01*
X195981666Y-77038333D01*
X195860714Y-77098809D01*
X195618809Y-77098809D01*
X195497857Y-77159285D01*
X195437380Y-77219761D01*
X195376904Y-77340714D01*
X195376904Y-77582619D01*
X195437380Y-77703571D01*
X195497857Y-77764047D01*
X195618809Y-77824523D01*
X195860714Y-77824523D01*
X195981666Y-77764047D01*
X196042142Y-77703571D01*
X196102619Y-77582619D01*
X196102619Y-77340714D01*
X196042142Y-77219761D01*
X195981666Y-77159285D01*
X195860714Y-77098809D01*
G04 #@! TO.C,R17*
X193683571Y-86574523D02*
X193260238Y-85969761D01*
X192957857Y-86574523D02*
X192957857Y-85304523D01*
X193441666Y-85304523D01*
X193562619Y-85365000D01*
X193623095Y-85425476D01*
X193683571Y-85546428D01*
X193683571Y-85727857D01*
X193623095Y-85848809D01*
X193562619Y-85909285D01*
X193441666Y-85969761D01*
X192957857Y-85969761D01*
X194893095Y-86574523D02*
X194167380Y-86574523D01*
X194530238Y-86574523D02*
X194530238Y-85304523D01*
X194409285Y-85485952D01*
X194288333Y-85606904D01*
X194167380Y-85667380D01*
X195316428Y-85304523D02*
X196163095Y-85304523D01*
X195618809Y-86574523D01*
G04 #@! TO.C,U1*
X202032380Y-99524523D02*
X202032380Y-100552619D01*
X202092857Y-100673571D01*
X202153333Y-100734047D01*
X202274285Y-100794523D01*
X202516190Y-100794523D01*
X202637142Y-100734047D01*
X202697619Y-100673571D01*
X202758095Y-100552619D01*
X202758095Y-99524523D01*
X204028095Y-100794523D02*
X203302380Y-100794523D01*
X203665238Y-100794523D02*
X203665238Y-99524523D01*
X203544285Y-99705952D01*
X203423333Y-99826904D01*
X203302380Y-99887380D01*
G04 #@! TO.C,J1*
X181484466Y-45669923D02*
X181484466Y-46577066D01*
X181423990Y-46758495D01*
X181303038Y-46879447D01*
X181121609Y-46939923D01*
X181000657Y-46939923D01*
X182754466Y-46939923D02*
X182028752Y-46939923D01*
X182391609Y-46939923D02*
X182391609Y-45669923D01*
X182270657Y-45851352D01*
X182149704Y-45972304D01*
X182028752Y-46032780D01*
G04 #@! TO.C,J3*
X195326666Y-61054523D02*
X195326666Y-61961666D01*
X195266190Y-62143095D01*
X195145238Y-62264047D01*
X194963809Y-62324523D01*
X194842857Y-62324523D01*
X195810476Y-61054523D02*
X196596666Y-61054523D01*
X196173333Y-61538333D01*
X196354761Y-61538333D01*
X196475714Y-61598809D01*
X196536190Y-61659285D01*
X196596666Y-61780238D01*
X196596666Y-62082619D01*
X196536190Y-62203571D01*
X196475714Y-62264047D01*
X196354761Y-62324523D01*
X195991904Y-62324523D01*
X195870952Y-62264047D01*
X195810476Y-62203571D01*
G04 #@! TO.C,MK4*
X226436904Y-124024523D02*
X226436904Y-122754523D01*
X226860238Y-123661666D01*
X227283571Y-122754523D01*
X227283571Y-124024523D01*
X227888333Y-124024523D02*
X227888333Y-122754523D01*
X228614047Y-124024523D02*
X228069761Y-123298809D01*
X228614047Y-122754523D02*
X227888333Y-123480238D01*
X229702619Y-123177857D02*
X229702619Y-124024523D01*
X229400238Y-122694047D02*
X229097857Y-123601190D01*
X229884047Y-123601190D01*
G04 #@! TO.C,MK3*
X213086904Y-64824523D02*
X213086904Y-63554523D01*
X213510238Y-64461666D01*
X213933571Y-63554523D01*
X213933571Y-64824523D01*
X214538333Y-64824523D02*
X214538333Y-63554523D01*
X215264047Y-64824523D02*
X214719761Y-64098809D01*
X215264047Y-63554523D02*
X214538333Y-64280238D01*
X215687380Y-63554523D02*
X216473571Y-63554523D01*
X216050238Y-64038333D01*
X216231666Y-64038333D01*
X216352619Y-64098809D01*
X216413095Y-64159285D01*
X216473571Y-64280238D01*
X216473571Y-64582619D01*
X216413095Y-64703571D01*
X216352619Y-64764047D01*
X216231666Y-64824523D01*
X215868809Y-64824523D01*
X215747857Y-64764047D01*
X215687380Y-64703571D01*
G04 #@! TO.C,MK2*
X185586904Y-124074523D02*
X185586904Y-122804523D01*
X186010238Y-123711666D01*
X186433571Y-122804523D01*
X186433571Y-124074523D01*
X187038333Y-124074523D02*
X187038333Y-122804523D01*
X187764047Y-124074523D02*
X187219761Y-123348809D01*
X187764047Y-122804523D02*
X187038333Y-123530238D01*
X188247857Y-122925476D02*
X188308333Y-122865000D01*
X188429285Y-122804523D01*
X188731666Y-122804523D01*
X188852619Y-122865000D01*
X188913095Y-122925476D01*
X188973571Y-123046428D01*
X188973571Y-123167380D01*
X188913095Y-123348809D01*
X188187380Y-124074523D01*
X188973571Y-124074523D01*
G04 #@! TO.C,MK1*
X181463904Y-64313523D02*
X181463904Y-63043523D01*
X181887238Y-63950666D01*
X182310571Y-63043523D01*
X182310571Y-64313523D01*
X182915333Y-64313523D02*
X182915333Y-63043523D01*
X183641047Y-64313523D02*
X183096761Y-63587809D01*
X183641047Y-63043523D02*
X182915333Y-63769238D01*
X184850571Y-64313523D02*
X184124857Y-64313523D01*
X184487714Y-64313523D02*
X184487714Y-63043523D01*
X184366761Y-63224952D01*
X184245809Y-63345904D01*
X184124857Y-63406380D01*
G04 #@! TO.C,C2*
X187538333Y-101703571D02*
X187477857Y-101764047D01*
X187296428Y-101824523D01*
X187175476Y-101824523D01*
X186994047Y-101764047D01*
X186873095Y-101643095D01*
X186812619Y-101522142D01*
X186752142Y-101280238D01*
X186752142Y-101098809D01*
X186812619Y-100856904D01*
X186873095Y-100735952D01*
X186994047Y-100615000D01*
X187175476Y-100554523D01*
X187296428Y-100554523D01*
X187477857Y-100615000D01*
X187538333Y-100675476D01*
X188022142Y-100675476D02*
X188082619Y-100615000D01*
X188203571Y-100554523D01*
X188505952Y-100554523D01*
X188626904Y-100615000D01*
X188687380Y-100675476D01*
X188747857Y-100796428D01*
X188747857Y-100917380D01*
X188687380Y-101098809D01*
X187961666Y-101824523D01*
X188747857Y-101824523D01*
G04 #@! TO.C,C3*
X198788333Y-109953571D02*
X198727857Y-110014047D01*
X198546428Y-110074523D01*
X198425476Y-110074523D01*
X198244047Y-110014047D01*
X198123095Y-109893095D01*
X198062619Y-109772142D01*
X198002142Y-109530238D01*
X198002142Y-109348809D01*
X198062619Y-109106904D01*
X198123095Y-108985952D01*
X198244047Y-108865000D01*
X198425476Y-108804523D01*
X198546428Y-108804523D01*
X198727857Y-108865000D01*
X198788333Y-108925476D01*
X199211666Y-108804523D02*
X199997857Y-108804523D01*
X199574523Y-109288333D01*
X199755952Y-109288333D01*
X199876904Y-109348809D01*
X199937380Y-109409285D01*
X199997857Y-109530238D01*
X199997857Y-109832619D01*
X199937380Y-109953571D01*
X199876904Y-110014047D01*
X199755952Y-110074523D01*
X199393095Y-110074523D01*
X199272142Y-110014047D01*
X199211666Y-109953571D01*
G04 #@! TO.C,C4*
X199038333Y-91703571D02*
X198977857Y-91764047D01*
X198796428Y-91824523D01*
X198675476Y-91824523D01*
X198494047Y-91764047D01*
X198373095Y-91643095D01*
X198312619Y-91522142D01*
X198252142Y-91280238D01*
X198252142Y-91098809D01*
X198312619Y-90856904D01*
X198373095Y-90735952D01*
X198494047Y-90615000D01*
X198675476Y-90554523D01*
X198796428Y-90554523D01*
X198977857Y-90615000D01*
X199038333Y-90675476D01*
X200126904Y-90977857D02*
X200126904Y-91824523D01*
X199824523Y-90494047D02*
X199522142Y-91401190D01*
X200308333Y-91401190D01*
G04 #@! TO.C,C5*
X217788333Y-63203571D02*
X217727857Y-63264047D01*
X217546428Y-63324523D01*
X217425476Y-63324523D01*
X217244047Y-63264047D01*
X217123095Y-63143095D01*
X217062619Y-63022142D01*
X217002142Y-62780238D01*
X217002142Y-62598809D01*
X217062619Y-62356904D01*
X217123095Y-62235952D01*
X217244047Y-62115000D01*
X217425476Y-62054523D01*
X217546428Y-62054523D01*
X217727857Y-62115000D01*
X217788333Y-62175476D01*
X218937380Y-62054523D02*
X218332619Y-62054523D01*
X218272142Y-62659285D01*
X218332619Y-62598809D01*
X218453571Y-62538333D01*
X218755952Y-62538333D01*
X218876904Y-62598809D01*
X218937380Y-62659285D01*
X218997857Y-62780238D01*
X218997857Y-63082619D01*
X218937380Y-63203571D01*
X218876904Y-63264047D01*
X218755952Y-63324523D01*
X218453571Y-63324523D01*
X218332619Y-63264047D01*
X218272142Y-63203571D01*
G04 #@! TO.C,C6*
X224203571Y-62961666D02*
X224264047Y-63022142D01*
X224324523Y-63203571D01*
X224324523Y-63324523D01*
X224264047Y-63505952D01*
X224143095Y-63626904D01*
X224022142Y-63687380D01*
X223780238Y-63747857D01*
X223598809Y-63747857D01*
X223356904Y-63687380D01*
X223235952Y-63626904D01*
X223115000Y-63505952D01*
X223054523Y-63324523D01*
X223054523Y-63203571D01*
X223115000Y-63022142D01*
X223175476Y-62961666D01*
X223054523Y-61873095D02*
X223054523Y-62115000D01*
X223115000Y-62235952D01*
X223175476Y-62296428D01*
X223356904Y-62417380D01*
X223598809Y-62477857D01*
X224082619Y-62477857D01*
X224203571Y-62417380D01*
X224264047Y-62356904D01*
X224324523Y-62235952D01*
X224324523Y-61994047D01*
X224264047Y-61873095D01*
X224203571Y-61812619D01*
X224082619Y-61752142D01*
X223780238Y-61752142D01*
X223659285Y-61812619D01*
X223598809Y-61873095D01*
X223538333Y-61994047D01*
X223538333Y-62235952D01*
X223598809Y-62356904D01*
X223659285Y-62417380D01*
X223780238Y-62477857D01*
G04 #@! TO.C,C7*
X196538333Y-70778571D02*
X196477857Y-70839047D01*
X196296428Y-70899523D01*
X196175476Y-70899523D01*
X195994047Y-70839047D01*
X195873095Y-70718095D01*
X195812619Y-70597142D01*
X195752142Y-70355238D01*
X195752142Y-70173809D01*
X195812619Y-69931904D01*
X195873095Y-69810952D01*
X195994047Y-69690000D01*
X196175476Y-69629523D01*
X196296428Y-69629523D01*
X196477857Y-69690000D01*
X196538333Y-69750476D01*
X196961666Y-69629523D02*
X197808333Y-69629523D01*
X197264047Y-70899523D01*
G04 #@! TO.C,C8*
X210288333Y-83953571D02*
X210227857Y-84014047D01*
X210046428Y-84074523D01*
X209925476Y-84074523D01*
X209744047Y-84014047D01*
X209623095Y-83893095D01*
X209562619Y-83772142D01*
X209502142Y-83530238D01*
X209502142Y-83348809D01*
X209562619Y-83106904D01*
X209623095Y-82985952D01*
X209744047Y-82865000D01*
X209925476Y-82804523D01*
X210046428Y-82804523D01*
X210227857Y-82865000D01*
X210288333Y-82925476D01*
X211014047Y-83348809D02*
X210893095Y-83288333D01*
X210832619Y-83227857D01*
X210772142Y-83106904D01*
X210772142Y-83046428D01*
X210832619Y-82925476D01*
X210893095Y-82865000D01*
X211014047Y-82804523D01*
X211255952Y-82804523D01*
X211376904Y-82865000D01*
X211437380Y-82925476D01*
X211497857Y-83046428D01*
X211497857Y-83106904D01*
X211437380Y-83227857D01*
X211376904Y-83288333D01*
X211255952Y-83348809D01*
X211014047Y-83348809D01*
X210893095Y-83409285D01*
X210832619Y-83469761D01*
X210772142Y-83590714D01*
X210772142Y-83832619D01*
X210832619Y-83953571D01*
X210893095Y-84014047D01*
X211014047Y-84074523D01*
X211255952Y-84074523D01*
X211376904Y-84014047D01*
X211437380Y-83953571D01*
X211497857Y-83832619D01*
X211497857Y-83590714D01*
X211437380Y-83469761D01*
X211376904Y-83409285D01*
X211255952Y-83348809D01*
G04 #@! TO.C,C9*
X199038333Y-77703571D02*
X198977857Y-77764047D01*
X198796428Y-77824523D01*
X198675476Y-77824523D01*
X198494047Y-77764047D01*
X198373095Y-77643095D01*
X198312619Y-77522142D01*
X198252142Y-77280238D01*
X198252142Y-77098809D01*
X198312619Y-76856904D01*
X198373095Y-76735952D01*
X198494047Y-76615000D01*
X198675476Y-76554523D01*
X198796428Y-76554523D01*
X198977857Y-76615000D01*
X199038333Y-76675476D01*
X199643095Y-77824523D02*
X199885000Y-77824523D01*
X200005952Y-77764047D01*
X200066428Y-77703571D01*
X200187380Y-77522142D01*
X200247857Y-77280238D01*
X200247857Y-76796428D01*
X200187380Y-76675476D01*
X200126904Y-76615000D01*
X200005952Y-76554523D01*
X199764047Y-76554523D01*
X199643095Y-76615000D01*
X199582619Y-76675476D01*
X199522142Y-76796428D01*
X199522142Y-77098809D01*
X199582619Y-77219761D01*
X199643095Y-77280238D01*
X199764047Y-77340714D01*
X200005952Y-77340714D01*
X200126904Y-77280238D01*
X200187380Y-77219761D01*
X200247857Y-77098809D01*
G04 #@! TO.C,C1*
X227038333Y-51453571D02*
X226977857Y-51514047D01*
X226796428Y-51574523D01*
X226675476Y-51574523D01*
X226494047Y-51514047D01*
X226373095Y-51393095D01*
X226312619Y-51272142D01*
X226252142Y-51030238D01*
X226252142Y-50848809D01*
X226312619Y-50606904D01*
X226373095Y-50485952D01*
X226494047Y-50365000D01*
X226675476Y-50304523D01*
X226796428Y-50304523D01*
X226977857Y-50365000D01*
X227038333Y-50425476D01*
X228247857Y-51574523D02*
X227522142Y-51574523D01*
X227885000Y-51574523D02*
X227885000Y-50304523D01*
X227764047Y-50485952D01*
X227643095Y-50606904D01*
X227522142Y-50667380D01*
G04 #@! TO.C,JP1*
X230804523Y-62058333D02*
X231711666Y-62058333D01*
X231893095Y-62118809D01*
X232014047Y-62239761D01*
X232074523Y-62421190D01*
X232074523Y-62542142D01*
X232074523Y-61453571D02*
X230804523Y-61453571D01*
X230804523Y-60969761D01*
X230865000Y-60848809D01*
X230925476Y-60788333D01*
X231046428Y-60727857D01*
X231227857Y-60727857D01*
X231348809Y-60788333D01*
X231409285Y-60848809D01*
X231469761Y-60969761D01*
X231469761Y-61453571D01*
X232074523Y-59518333D02*
X232074523Y-60244047D01*
X232074523Y-59881190D02*
X230804523Y-59881190D01*
X230985952Y-60002142D01*
X231106904Y-60123095D01*
X231167380Y-60244047D01*
G04 #@! TO.C,JP2*
X230804523Y-58308333D02*
X231711666Y-58308333D01*
X231893095Y-58368809D01*
X232014047Y-58489761D01*
X232074523Y-58671190D01*
X232074523Y-58792142D01*
X232074523Y-57703571D02*
X230804523Y-57703571D01*
X230804523Y-57219761D01*
X230865000Y-57098809D01*
X230925476Y-57038333D01*
X231046428Y-56977857D01*
X231227857Y-56977857D01*
X231348809Y-57038333D01*
X231409285Y-57098809D01*
X231469761Y-57219761D01*
X231469761Y-57703571D01*
X230925476Y-56494047D02*
X230865000Y-56433571D01*
X230804523Y-56312619D01*
X230804523Y-56010238D01*
X230865000Y-55889285D01*
X230925476Y-55828809D01*
X231046428Y-55768333D01*
X231167380Y-55768333D01*
X231348809Y-55828809D01*
X232074523Y-56554523D01*
X232074523Y-55768333D01*
G04 #@! TO.C,JP3*
X222191666Y-50804523D02*
X222191666Y-51711666D01*
X222131190Y-51893095D01*
X222010238Y-52014047D01*
X221828809Y-52074523D01*
X221707857Y-52074523D01*
X222796428Y-52074523D02*
X222796428Y-50804523D01*
X223280238Y-50804523D01*
X223401190Y-50865000D01*
X223461666Y-50925476D01*
X223522142Y-51046428D01*
X223522142Y-51227857D01*
X223461666Y-51348809D01*
X223401190Y-51409285D01*
X223280238Y-51469761D01*
X222796428Y-51469761D01*
X223945476Y-50804523D02*
X224731666Y-50804523D01*
X224308333Y-51288333D01*
X224489761Y-51288333D01*
X224610714Y-51348809D01*
X224671190Y-51409285D01*
X224731666Y-51530238D01*
X224731666Y-51832619D01*
X224671190Y-51953571D01*
X224610714Y-52014047D01*
X224489761Y-52074523D01*
X224126904Y-52074523D01*
X224005952Y-52014047D01*
X223945476Y-51953571D01*
G04 #@! TO.C,J2*
X181326666Y-73554523D02*
X181326666Y-74461666D01*
X181266190Y-74643095D01*
X181145238Y-74764047D01*
X180963809Y-74824523D01*
X180842857Y-74824523D01*
X181870952Y-73675476D02*
X181931428Y-73615000D01*
X182052380Y-73554523D01*
X182354761Y-73554523D01*
X182475714Y-73615000D01*
X182536190Y-73675476D01*
X182596666Y-73796428D01*
X182596666Y-73917380D01*
X182536190Y-74098809D01*
X181810476Y-74824523D01*
X182596666Y-74824523D01*
G04 #@! TO.C,R15*
X210468871Y-67324523D02*
X210045538Y-66719761D01*
X209743157Y-67324523D02*
X209743157Y-66054523D01*
X210226966Y-66054523D01*
X210347919Y-66115000D01*
X210408395Y-66175476D01*
X210468871Y-66296428D01*
X210468871Y-66477857D01*
X210408395Y-66598809D01*
X210347919Y-66659285D01*
X210226966Y-66719761D01*
X209743157Y-66719761D01*
X211678395Y-67324523D02*
X210952680Y-67324523D01*
X211315538Y-67324523D02*
X211315538Y-66054523D01*
X211194585Y-66235952D01*
X211073633Y-66356904D01*
X210952680Y-66417380D01*
X212827442Y-66054523D02*
X212222680Y-66054523D01*
X212162204Y-66659285D01*
X212222680Y-66598809D01*
X212343633Y-66538333D01*
X212646014Y-66538333D01*
X212766966Y-66598809D01*
X212827442Y-66659285D01*
X212887919Y-66780238D01*
X212887919Y-67082619D01*
X212827442Y-67203571D01*
X212766966Y-67264047D01*
X212646014Y-67324523D01*
X212343633Y-67324523D01*
X212222680Y-67264047D01*
X212162204Y-67203571D01*
G04 #@! TO.C,R2*
X210675833Y-89824523D02*
X210252500Y-89219761D01*
X209950119Y-89824523D02*
X209950119Y-88554523D01*
X210433928Y-88554523D01*
X210554880Y-88615000D01*
X210615357Y-88675476D01*
X210675833Y-88796428D01*
X210675833Y-88977857D01*
X210615357Y-89098809D01*
X210554880Y-89159285D01*
X210433928Y-89219761D01*
X209950119Y-89219761D01*
X211159642Y-88675476D02*
X211220119Y-88615000D01*
X211341071Y-88554523D01*
X211643452Y-88554523D01*
X211764404Y-88615000D01*
X211824880Y-88675476D01*
X211885357Y-88796428D01*
X211885357Y-88917380D01*
X211824880Y-89098809D01*
X211099166Y-89824523D01*
X211885357Y-89824523D01*
G04 #@! TO.C,R3*
X222038333Y-48074523D02*
X221615000Y-47469761D01*
X221312619Y-48074523D02*
X221312619Y-46804523D01*
X221796428Y-46804523D01*
X221917380Y-46865000D01*
X221977857Y-46925476D01*
X222038333Y-47046428D01*
X222038333Y-47227857D01*
X221977857Y-47348809D01*
X221917380Y-47409285D01*
X221796428Y-47469761D01*
X221312619Y-47469761D01*
X222461666Y-46804523D02*
X223247857Y-46804523D01*
X222824523Y-47288333D01*
X223005952Y-47288333D01*
X223126904Y-47348809D01*
X223187380Y-47409285D01*
X223247857Y-47530238D01*
X223247857Y-47832619D01*
X223187380Y-47953571D01*
X223126904Y-48014047D01*
X223005952Y-48074523D01*
X222643095Y-48074523D01*
X222522142Y-48014047D01*
X222461666Y-47953571D01*
G04 #@! TO.C,R1*
X208038333Y-86324523D02*
X207615000Y-85719761D01*
X207312619Y-86324523D02*
X207312619Y-85054523D01*
X207796428Y-85054523D01*
X207917380Y-85115000D01*
X207977857Y-85175476D01*
X208038333Y-85296428D01*
X208038333Y-85477857D01*
X207977857Y-85598809D01*
X207917380Y-85659285D01*
X207796428Y-85719761D01*
X207312619Y-85719761D01*
X209247857Y-86324523D02*
X208522142Y-86324523D01*
X208885000Y-86324523D02*
X208885000Y-85054523D01*
X208764047Y-85235952D01*
X208643095Y-85356904D01*
X208522142Y-85417380D01*
G04 #@! TO.C,R16*
X203933571Y-85074523D02*
X203510238Y-84469761D01*
X203207857Y-85074523D02*
X203207857Y-83804523D01*
X203691666Y-83804523D01*
X203812619Y-83865000D01*
X203873095Y-83925476D01*
X203933571Y-84046428D01*
X203933571Y-84227857D01*
X203873095Y-84348809D01*
X203812619Y-84409285D01*
X203691666Y-84469761D01*
X203207857Y-84469761D01*
X205143095Y-85074523D02*
X204417380Y-85074523D01*
X204780238Y-85074523D02*
X204780238Y-83804523D01*
X204659285Y-83985952D01*
X204538333Y-84106904D01*
X204417380Y-84167380D01*
X206231666Y-83804523D02*
X205989761Y-83804523D01*
X205868809Y-83865000D01*
X205808333Y-83925476D01*
X205687380Y-84106904D01*
X205626904Y-84348809D01*
X205626904Y-84832619D01*
X205687380Y-84953571D01*
X205747857Y-85014047D01*
X205868809Y-85074523D01*
X206110714Y-85074523D01*
X206231666Y-85014047D01*
X206292142Y-84953571D01*
X206352619Y-84832619D01*
X206352619Y-84530238D01*
X206292142Y-84409285D01*
X206231666Y-84348809D01*
X206110714Y-84288333D01*
X205868809Y-84288333D01*
X205747857Y-84348809D01*
X205687380Y-84409285D01*
X205626904Y-84530238D01*
G04 #@! TO.C,R4*
X218538333Y-49824523D02*
X218115000Y-49219761D01*
X217812619Y-49824523D02*
X217812619Y-48554523D01*
X218296428Y-48554523D01*
X218417380Y-48615000D01*
X218477857Y-48675476D01*
X218538333Y-48796428D01*
X218538333Y-48977857D01*
X218477857Y-49098809D01*
X218417380Y-49159285D01*
X218296428Y-49219761D01*
X217812619Y-49219761D01*
X219626904Y-48977857D02*
X219626904Y-49824523D01*
X219324523Y-48494047D02*
X219022142Y-49401190D01*
X219808333Y-49401190D01*
G04 #@! TO.C,R14*
X210468871Y-69074523D02*
X210045538Y-68469761D01*
X209743157Y-69074523D02*
X209743157Y-67804523D01*
X210226966Y-67804523D01*
X210347919Y-67865000D01*
X210408395Y-67925476D01*
X210468871Y-68046428D01*
X210468871Y-68227857D01*
X210408395Y-68348809D01*
X210347919Y-68409285D01*
X210226966Y-68469761D01*
X209743157Y-68469761D01*
X211678395Y-69074523D02*
X210952680Y-69074523D01*
X211315538Y-69074523D02*
X211315538Y-67804523D01*
X211194585Y-67985952D01*
X211073633Y-68106904D01*
X210952680Y-68167380D01*
X212766966Y-68227857D02*
X212766966Y-69074523D01*
X212464585Y-67744047D02*
X212162204Y-68651190D01*
X212948395Y-68651190D01*
G04 #@! TO.C,R9*
X205038333Y-108574523D02*
X204615000Y-107969761D01*
X204312619Y-108574523D02*
X204312619Y-107304523D01*
X204796428Y-107304523D01*
X204917380Y-107365000D01*
X204977857Y-107425476D01*
X205038333Y-107546428D01*
X205038333Y-107727857D01*
X204977857Y-107848809D01*
X204917380Y-107909285D01*
X204796428Y-107969761D01*
X204312619Y-107969761D01*
X205643095Y-108574523D02*
X205885000Y-108574523D01*
X206005952Y-108514047D01*
X206066428Y-108453571D01*
X206187380Y-108272142D01*
X206247857Y-108030238D01*
X206247857Y-107546428D01*
X206187380Y-107425476D01*
X206126904Y-107365000D01*
X206005952Y-107304523D01*
X205764047Y-107304523D01*
X205643095Y-107365000D01*
X205582619Y-107425476D01*
X205522142Y-107546428D01*
X205522142Y-107848809D01*
X205582619Y-107969761D01*
X205643095Y-108030238D01*
X205764047Y-108090714D01*
X206005952Y-108090714D01*
X206126904Y-108030238D01*
X206187380Y-107969761D01*
X206247857Y-107848809D01*
G04 #@! TO.C,EXT2*
X231909285Y-104465476D02*
X231909285Y-104042142D01*
X232574523Y-103860714D02*
X232574523Y-104465476D01*
X231304523Y-104465476D01*
X231304523Y-103860714D01*
X231304523Y-103437380D02*
X232574523Y-102590714D01*
X231304523Y-102590714D02*
X232574523Y-103437380D01*
X231304523Y-102288333D02*
X231304523Y-101562619D01*
X232574523Y-101925476D02*
X231304523Y-101925476D01*
X231425476Y-101199761D02*
X231365000Y-101139285D01*
X231304523Y-101018333D01*
X231304523Y-100715952D01*
X231365000Y-100595000D01*
X231425476Y-100534523D01*
X231546428Y-100474047D01*
X231667380Y-100474047D01*
X231848809Y-100534523D01*
X232574523Y-101260238D01*
X232574523Y-100474047D01*
G04 #@! TO.C,LOC1*
X200988095Y-47324523D02*
X200383333Y-47324523D01*
X200383333Y-46054523D01*
X201653333Y-46054523D02*
X201895238Y-46054523D01*
X202016190Y-46115000D01*
X202137142Y-46235952D01*
X202197619Y-46477857D01*
X202197619Y-46901190D01*
X202137142Y-47143095D01*
X202016190Y-47264047D01*
X201895238Y-47324523D01*
X201653333Y-47324523D01*
X201532380Y-47264047D01*
X201411428Y-47143095D01*
X201350952Y-46901190D01*
X201350952Y-46477857D01*
X201411428Y-46235952D01*
X201532380Y-46115000D01*
X201653333Y-46054523D01*
X203467619Y-47203571D02*
X203407142Y-47264047D01*
X203225714Y-47324523D01*
X203104761Y-47324523D01*
X202923333Y-47264047D01*
X202802380Y-47143095D01*
X202741904Y-47022142D01*
X202681428Y-46780238D01*
X202681428Y-46598809D01*
X202741904Y-46356904D01*
X202802380Y-46235952D01*
X202923333Y-46115000D01*
X203104761Y-46054523D01*
X203225714Y-46054523D01*
X203407142Y-46115000D01*
X203467619Y-46175476D01*
X204677142Y-47324523D02*
X203951428Y-47324523D01*
X204314285Y-47324523D02*
X204314285Y-46054523D01*
X204193333Y-46235952D01*
X204072380Y-46356904D01*
X203951428Y-46417380D01*
G04 #@! TO.C,LOC0*
X206380095Y-47346323D02*
X205775333Y-47346323D01*
X205775333Y-46076323D01*
X207045333Y-46076323D02*
X207287238Y-46076323D01*
X207408190Y-46136800D01*
X207529142Y-46257752D01*
X207589619Y-46499657D01*
X207589619Y-46922990D01*
X207529142Y-47164895D01*
X207408190Y-47285847D01*
X207287238Y-47346323D01*
X207045333Y-47346323D01*
X206924380Y-47285847D01*
X206803428Y-47164895D01*
X206742952Y-46922990D01*
X206742952Y-46499657D01*
X206803428Y-46257752D01*
X206924380Y-46136800D01*
X207045333Y-46076323D01*
X208859619Y-47225371D02*
X208799142Y-47285847D01*
X208617714Y-47346323D01*
X208496761Y-47346323D01*
X208315333Y-47285847D01*
X208194380Y-47164895D01*
X208133904Y-47043942D01*
X208073428Y-46802038D01*
X208073428Y-46620609D01*
X208133904Y-46378704D01*
X208194380Y-46257752D01*
X208315333Y-46136800D01*
X208496761Y-46076323D01*
X208617714Y-46076323D01*
X208799142Y-46136800D01*
X208859619Y-46197276D01*
X209645809Y-46076323D02*
X209766761Y-46076323D01*
X209887714Y-46136800D01*
X209948190Y-46197276D01*
X210008666Y-46318228D01*
X210069142Y-46560133D01*
X210069142Y-46862514D01*
X210008666Y-47104419D01*
X209948190Y-47225371D01*
X209887714Y-47285847D01*
X209766761Y-47346323D01*
X209645809Y-47346323D01*
X209524857Y-47285847D01*
X209464380Y-47225371D01*
X209403904Y-47104419D01*
X209343428Y-46862514D01*
X209343428Y-46560133D01*
X209403904Y-46318228D01*
X209464380Y-46197276D01*
X209524857Y-46136800D01*
X209645809Y-46076323D01*
G04 #@! TO.C,EXT0*
X231909285Y-115465476D02*
X231909285Y-115042142D01*
X232574523Y-114860714D02*
X232574523Y-115465476D01*
X231304523Y-115465476D01*
X231304523Y-114860714D01*
X231304523Y-114437380D02*
X232574523Y-113590714D01*
X231304523Y-113590714D02*
X232574523Y-114437380D01*
X231304523Y-113288333D02*
X231304523Y-112562619D01*
X232574523Y-112925476D02*
X231304523Y-112925476D01*
X231304523Y-111897380D02*
X231304523Y-111776428D01*
X231365000Y-111655476D01*
X231425476Y-111595000D01*
X231546428Y-111534523D01*
X231788333Y-111474047D01*
X232090714Y-111474047D01*
X232332619Y-111534523D01*
X232453571Y-111595000D01*
X232514047Y-111655476D01*
X232574523Y-111776428D01*
X232574523Y-111897380D01*
X232514047Y-112018333D01*
X232453571Y-112078809D01*
X232332619Y-112139285D01*
X232090714Y-112199761D01*
X231788333Y-112199761D01*
X231546428Y-112139285D01*
X231425476Y-112078809D01*
X231365000Y-112018333D01*
X231304523Y-111897380D01*
G04 #@! TO.C,EXT3*
X231909285Y-98965476D02*
X231909285Y-98542142D01*
X232574523Y-98360714D02*
X232574523Y-98965476D01*
X231304523Y-98965476D01*
X231304523Y-98360714D01*
X231304523Y-97937380D02*
X232574523Y-97090714D01*
X231304523Y-97090714D02*
X232574523Y-97937380D01*
X231304523Y-96788333D02*
X231304523Y-96062619D01*
X232574523Y-96425476D02*
X231304523Y-96425476D01*
X231304523Y-95760238D02*
X231304523Y-94974047D01*
X231788333Y-95397380D01*
X231788333Y-95215952D01*
X231848809Y-95095000D01*
X231909285Y-95034523D01*
X232030238Y-94974047D01*
X232332619Y-94974047D01*
X232453571Y-95034523D01*
X232514047Y-95095000D01*
X232574523Y-95215952D01*
X232574523Y-95578809D01*
X232514047Y-95699761D01*
X232453571Y-95760238D01*
G04 #@! TO.C,EXT6*
X231909285Y-82465476D02*
X231909285Y-82042142D01*
X232574523Y-81860714D02*
X232574523Y-82465476D01*
X231304523Y-82465476D01*
X231304523Y-81860714D01*
X231304523Y-81437380D02*
X232574523Y-80590714D01*
X231304523Y-80590714D02*
X232574523Y-81437380D01*
X231304523Y-80288333D02*
X231304523Y-79562619D01*
X232574523Y-79925476D02*
X231304523Y-79925476D01*
X231304523Y-78595000D02*
X231304523Y-78836904D01*
X231365000Y-78957857D01*
X231425476Y-79018333D01*
X231606904Y-79139285D01*
X231848809Y-79199761D01*
X232332619Y-79199761D01*
X232453571Y-79139285D01*
X232514047Y-79078809D01*
X232574523Y-78957857D01*
X232574523Y-78715952D01*
X232514047Y-78595000D01*
X232453571Y-78534523D01*
X232332619Y-78474047D01*
X232030238Y-78474047D01*
X231909285Y-78534523D01*
X231848809Y-78595000D01*
X231788333Y-78715952D01*
X231788333Y-78957857D01*
X231848809Y-79078809D01*
X231909285Y-79139285D01*
X232030238Y-79199761D01*
G04 #@! TO.C,EXT7*
X231909285Y-76965476D02*
X231909285Y-76542142D01*
X232574523Y-76360714D02*
X232574523Y-76965476D01*
X231304523Y-76965476D01*
X231304523Y-76360714D01*
X231304523Y-75937380D02*
X232574523Y-75090714D01*
X231304523Y-75090714D02*
X232574523Y-75937380D01*
X231304523Y-74788333D02*
X231304523Y-74062619D01*
X232574523Y-74425476D02*
X231304523Y-74425476D01*
X231304523Y-73760238D02*
X231304523Y-72913571D01*
X232574523Y-73457857D01*
G04 #@! TO.C,EXT5*
X231909285Y-87715476D02*
X231909285Y-87292142D01*
X232574523Y-87110714D02*
X232574523Y-87715476D01*
X231304523Y-87715476D01*
X231304523Y-87110714D01*
X231304523Y-86687380D02*
X232574523Y-85840714D01*
X231304523Y-85840714D02*
X232574523Y-86687380D01*
X231304523Y-85538333D02*
X231304523Y-84812619D01*
X232574523Y-85175476D02*
X231304523Y-85175476D01*
X231304523Y-83784523D02*
X231304523Y-84389285D01*
X231909285Y-84449761D01*
X231848809Y-84389285D01*
X231788333Y-84268333D01*
X231788333Y-83965952D01*
X231848809Y-83845000D01*
X231909285Y-83784523D01*
X232030238Y-83724047D01*
X232332619Y-83724047D01*
X232453571Y-83784523D01*
X232514047Y-83845000D01*
X232574523Y-83965952D01*
X232574523Y-84268333D01*
X232514047Y-84389285D01*
X232453571Y-84449761D01*
G04 #@! TO.C,EXT1*
X231909285Y-109965476D02*
X231909285Y-109542142D01*
X232574523Y-109360714D02*
X232574523Y-109965476D01*
X231304523Y-109965476D01*
X231304523Y-109360714D01*
X231304523Y-108937380D02*
X232574523Y-108090714D01*
X231304523Y-108090714D02*
X232574523Y-108937380D01*
X231304523Y-107788333D02*
X231304523Y-107062619D01*
X232574523Y-107425476D02*
X231304523Y-107425476D01*
X232574523Y-105974047D02*
X232574523Y-106699761D01*
X232574523Y-106336904D02*
X231304523Y-106336904D01*
X231485952Y-106457857D01*
X231606904Y-106578809D01*
X231667380Y-106699761D01*
G04 #@! TO.C,R8*
X188288333Y-80324523D02*
X187865000Y-79719761D01*
X187562619Y-80324523D02*
X187562619Y-79054523D01*
X188046428Y-79054523D01*
X188167380Y-79115000D01*
X188227857Y-79175476D01*
X188288333Y-79296428D01*
X188288333Y-79477857D01*
X188227857Y-79598809D01*
X188167380Y-79659285D01*
X188046428Y-79719761D01*
X187562619Y-79719761D01*
X189014047Y-79598809D02*
X188893095Y-79538333D01*
X188832619Y-79477857D01*
X188772142Y-79356904D01*
X188772142Y-79296428D01*
X188832619Y-79175476D01*
X188893095Y-79115000D01*
X189014047Y-79054523D01*
X189255952Y-79054523D01*
X189376904Y-79115000D01*
X189437380Y-79175476D01*
X189497857Y-79296428D01*
X189497857Y-79356904D01*
X189437380Y-79477857D01*
X189376904Y-79538333D01*
X189255952Y-79598809D01*
X189014047Y-79598809D01*
X188893095Y-79659285D01*
X188832619Y-79719761D01*
X188772142Y-79840714D01*
X188772142Y-80082619D01*
X188832619Y-80203571D01*
X188893095Y-80264047D01*
X189014047Y-80324523D01*
X189255952Y-80324523D01*
X189376904Y-80264047D01*
X189437380Y-80203571D01*
X189497857Y-80082619D01*
X189497857Y-79840714D01*
X189437380Y-79719761D01*
X189376904Y-79659285D01*
X189255952Y-79598809D01*
G04 #@! TO.C,R7*
X210788333Y-105324523D02*
X210365000Y-104719761D01*
X210062619Y-105324523D02*
X210062619Y-104054523D01*
X210546428Y-104054523D01*
X210667380Y-104115000D01*
X210727857Y-104175476D01*
X210788333Y-104296428D01*
X210788333Y-104477857D01*
X210727857Y-104598809D01*
X210667380Y-104659285D01*
X210546428Y-104719761D01*
X210062619Y-104719761D01*
X211211666Y-104054523D02*
X212058333Y-104054523D01*
X211514047Y-105324523D01*
G04 #@! TO.C,R11*
X210410571Y-94653523D02*
X209987238Y-94048761D01*
X209684857Y-94653523D02*
X209684857Y-93383523D01*
X210168666Y-93383523D01*
X210289619Y-93444000D01*
X210350095Y-93504476D01*
X210410571Y-93625428D01*
X210410571Y-93806857D01*
X210350095Y-93927809D01*
X210289619Y-93988285D01*
X210168666Y-94048761D01*
X209684857Y-94048761D01*
X211620095Y-94653523D02*
X210894380Y-94653523D01*
X211257238Y-94653523D02*
X211257238Y-93383523D01*
X211136285Y-93564952D01*
X211015333Y-93685904D01*
X210894380Y-93746380D01*
X212829619Y-94653523D02*
X212103904Y-94653523D01*
X212466761Y-94653523D02*
X212466761Y-93383523D01*
X212345809Y-93564952D01*
X212224857Y-93685904D01*
X212103904Y-93746380D01*
G04 #@! TO.C,R12*
X195433571Y-105324523D02*
X195010238Y-104719761D01*
X194707857Y-105324523D02*
X194707857Y-104054523D01*
X195191666Y-104054523D01*
X195312619Y-104115000D01*
X195373095Y-104175476D01*
X195433571Y-104296428D01*
X195433571Y-104477857D01*
X195373095Y-104598809D01*
X195312619Y-104659285D01*
X195191666Y-104719761D01*
X194707857Y-104719761D01*
X196643095Y-105324523D02*
X195917380Y-105324523D01*
X196280238Y-105324523D02*
X196280238Y-104054523D01*
X196159285Y-104235952D01*
X196038333Y-104356904D01*
X195917380Y-104417380D01*
X197126904Y-104175476D02*
X197187380Y-104115000D01*
X197308333Y-104054523D01*
X197610714Y-104054523D01*
X197731666Y-104115000D01*
X197792142Y-104175476D01*
X197852619Y-104296428D01*
X197852619Y-104417380D01*
X197792142Y-104598809D01*
X197066428Y-105324523D01*
X197852619Y-105324523D01*
G04 #@! TO.C,R6*
X195915333Y-94824523D02*
X195492000Y-94219761D01*
X195189619Y-94824523D02*
X195189619Y-93554523D01*
X195673428Y-93554523D01*
X195794380Y-93615000D01*
X195854857Y-93675476D01*
X195915333Y-93796428D01*
X195915333Y-93977857D01*
X195854857Y-94098809D01*
X195794380Y-94159285D01*
X195673428Y-94219761D01*
X195189619Y-94219761D01*
X197003904Y-93554523D02*
X196762000Y-93554523D01*
X196641047Y-93615000D01*
X196580571Y-93675476D01*
X196459619Y-93856904D01*
X196399142Y-94098809D01*
X196399142Y-94582619D01*
X196459619Y-94703571D01*
X196520095Y-94764047D01*
X196641047Y-94824523D01*
X196882952Y-94824523D01*
X197003904Y-94764047D01*
X197064380Y-94703571D01*
X197124857Y-94582619D01*
X197124857Y-94280238D01*
X197064380Y-94159285D01*
X197003904Y-94098809D01*
X196882952Y-94038333D01*
X196641047Y-94038333D01*
X196520095Y-94098809D01*
X196459619Y-94159285D01*
X196399142Y-94280238D01*
G04 #@! TD*
M02*
