G04 #@! TF.GenerationSoftware,KiCad,Pcbnew,(5.0.0-rc2-190-gf634b7565)*
G04 #@! TF.CreationDate,2018-07-09T23:29:34+02:00*
G04 #@! TF.ProjectId,IoP-mux8-1B,496F502D6D7578382D31422E6B696361,rev?*
G04 #@! TF.SameCoordinates,Original*
G04 #@! TF.FileFunction,Soldermask,Bot*
G04 #@! TF.FilePolarity,Negative*
%FSLAX46Y46*%
G04 Gerber Fmt 4.6, Leading zero omitted, Abs format (unit mm)*
G04 Created by KiCad (PCBNEW (5.0.0-rc2-190-gf634b7565)) date 07/09/18 23:29:34*
%MOMM*%
%LPD*%
G01*
G04 APERTURE LIST*
%ADD10C,0.200000*%
%ADD11R,1.750000X1.750000*%
%ADD12C,1.750000*%
%ADD13R,2.100000X2.100000*%
%ADD14O,2.100000X2.100000*%
%ADD15R,2.000000X2.000000*%
%ADD16O,2.000000X2.000000*%
%ADD17C,1.635000*%
%ADD18R,1.635000X1.635000*%
%ADD19C,3.600000*%
G04 APERTURE END LIST*
D10*
X180000000Y-125000000D02*
G75*
G02X178000000Y-123000000I0J2000000D01*
G01*
X231000000Y-45000000D02*
G75*
G02X233000000Y-47000000I0J-2000000D01*
G01*
X233000000Y-123000000D02*
G75*
G02X231000000Y-125000000I-2000000J0D01*
G01*
X178000000Y-47000000D02*
G75*
G02X180000000Y-45000000I2000000J0D01*
G01*
X178000000Y-47000000D02*
X178000000Y-123000000D01*
X231000000Y-45000000D02*
X180000000Y-45000000D01*
X233000000Y-123000000D02*
X233000000Y-47000000D01*
X180000000Y-125000000D02*
X231000000Y-125000000D01*
D11*
G04 #@! TO.C,EXT4*
X219000000Y-92000000D03*
D12*
X221000000Y-92000000D03*
X223000000Y-92000000D03*
X225000000Y-92000000D03*
X227000000Y-92000000D03*
X229000000Y-92000000D03*
G04 #@! TD*
D13*
G04 #@! TO.C,JP4*
X201735000Y-64392000D03*
D14*
X204275000Y-64392000D03*
X206815000Y-64392000D03*
G04 #@! TD*
D15*
G04 #@! TO.C,SW1*
X180500000Y-105300000D03*
D16*
X188120000Y-112920000D03*
X180500000Y-107840000D03*
X188120000Y-110380000D03*
X180500000Y-110380000D03*
X188120000Y-107840000D03*
X180500000Y-112920000D03*
X188120000Y-105300000D03*
G04 #@! TD*
D12*
G04 #@! TO.C,MASTER0*
X228000000Y-59500000D03*
X226000000Y-59500000D03*
X224000000Y-59500000D03*
X222000000Y-59500000D03*
X220000000Y-59500000D03*
D11*
X218000000Y-59500000D03*
G04 #@! TD*
D17*
G04 #@! TO.C,U1*
X214430000Y-82440000D03*
X214430000Y-84980000D03*
X214430000Y-87520000D03*
X214430000Y-90060000D03*
X214430000Y-92600000D03*
X214430000Y-95140000D03*
X214430000Y-97680000D03*
X214430000Y-100220000D03*
X214430000Y-102760000D03*
X214430000Y-105300000D03*
X214430000Y-107840000D03*
X214430000Y-110380000D03*
X214430000Y-112920000D03*
X214430000Y-115460000D03*
X214430000Y-118000000D03*
X191570000Y-118000000D03*
X191570000Y-115460000D03*
X191570000Y-112920000D03*
X191570000Y-110380000D03*
X191570000Y-107840000D03*
X191570000Y-105300000D03*
X191570000Y-102760000D03*
X191570000Y-100220000D03*
X191570000Y-97680000D03*
X191570000Y-95140000D03*
X191570000Y-92600000D03*
X191570000Y-90060000D03*
X191570000Y-87520000D03*
X191570000Y-84980000D03*
D18*
X191570000Y-82440000D03*
G04 #@! TD*
D13*
G04 #@! TO.C,J1*
X182000000Y-49000000D03*
D14*
X184540000Y-49000000D03*
X182000000Y-51540000D03*
X184540000Y-51540000D03*
X182000000Y-54080000D03*
X184540000Y-54080000D03*
X182000000Y-56620000D03*
X184540000Y-56620000D03*
X182000000Y-59160000D03*
X184540000Y-59160000D03*
G04 #@! TD*
G04 #@! TO.C,J3*
X192960000Y-48840000D03*
X195500000Y-48840000D03*
X192960000Y-51380000D03*
X195500000Y-51380000D03*
X192960000Y-53920000D03*
X195500000Y-53920000D03*
X192960000Y-56460000D03*
X195500000Y-56460000D03*
X192960000Y-59000000D03*
D13*
X195500000Y-59000000D03*
G04 #@! TD*
D19*
G04 #@! TO.C,MK4*
X228000000Y-120000000D03*
G04 #@! TD*
G04 #@! TO.C,MK3*
X218000000Y-68000000D03*
G04 #@! TD*
G04 #@! TO.C,MK2*
X183000000Y-120000000D03*
G04 #@! TD*
G04 #@! TO.C,MK1*
X183000000Y-68000000D03*
G04 #@! TD*
D13*
G04 #@! TO.C,JP1*
X230700000Y-69400000D03*
D14*
X230700000Y-66860000D03*
X230700000Y-64320000D03*
G04 #@! TD*
G04 #@! TO.C,JP2*
X230500000Y-48920000D03*
X230500000Y-51460000D03*
D13*
X230500000Y-54000000D03*
G04 #@! TD*
G04 #@! TO.C,JP3*
X226000000Y-54000000D03*
D14*
X223460000Y-54000000D03*
X220920000Y-54000000D03*
G04 #@! TD*
D13*
G04 #@! TO.C,J2*
X182000000Y-77000000D03*
D14*
X184540000Y-77000000D03*
X182000000Y-79540000D03*
X184540000Y-79540000D03*
X182000000Y-82080000D03*
X184540000Y-82080000D03*
X182000000Y-84620000D03*
X184540000Y-84620000D03*
X182000000Y-87160000D03*
X184540000Y-87160000D03*
G04 #@! TD*
D11*
G04 #@! TO.C,EXT2*
X219000000Y-103000000D03*
D12*
X221000000Y-103000000D03*
X223000000Y-103000000D03*
X225000000Y-103000000D03*
X227000000Y-103000000D03*
X229000000Y-103000000D03*
G04 #@! TD*
G04 #@! TO.C,LOC1*
X203000000Y-50000000D03*
X203000000Y-52000000D03*
X203000000Y-54000000D03*
X203000000Y-56000000D03*
X203000000Y-58000000D03*
D11*
X203000000Y-60000000D03*
G04 #@! TD*
G04 #@! TO.C,LOC0*
X208500000Y-60000000D03*
D12*
X208500000Y-58000000D03*
X208500000Y-56000000D03*
X208500000Y-54000000D03*
X208500000Y-52000000D03*
X208500000Y-50000000D03*
G04 #@! TD*
D11*
G04 #@! TO.C,EXT0*
X219000000Y-114000000D03*
D12*
X221000000Y-114000000D03*
X223000000Y-114000000D03*
X225000000Y-114000000D03*
X227000000Y-114000000D03*
X229000000Y-114000000D03*
G04 #@! TD*
G04 #@! TO.C,EXT3*
X229000000Y-97500000D03*
X227000000Y-97500000D03*
X225000000Y-97500000D03*
X223000000Y-97500000D03*
X221000000Y-97500000D03*
D11*
X219000000Y-97500000D03*
G04 #@! TD*
D12*
G04 #@! TO.C,EXT6*
X229000000Y-81000000D03*
X227000000Y-81000000D03*
X225000000Y-81000000D03*
X223000000Y-81000000D03*
X221000000Y-81000000D03*
D11*
X219000000Y-81000000D03*
G04 #@! TD*
G04 #@! TO.C,EXT7*
X219000000Y-75500000D03*
D12*
X221000000Y-75500000D03*
X223000000Y-75500000D03*
X225000000Y-75500000D03*
X227000000Y-75500000D03*
X229000000Y-75500000D03*
G04 #@! TD*
G04 #@! TO.C,EXT5*
X229000000Y-86500000D03*
X227000000Y-86500000D03*
X225000000Y-86500000D03*
X223000000Y-86500000D03*
X221000000Y-86500000D03*
D11*
X219000000Y-86500000D03*
G04 #@! TD*
G04 #@! TO.C,EXT1*
X219000000Y-108500000D03*
D12*
X221000000Y-108500000D03*
X223000000Y-108500000D03*
X225000000Y-108500000D03*
X227000000Y-108500000D03*
X229000000Y-108500000D03*
G04 #@! TD*
M02*
