%FSLAX45Y45*%
G04 Gerber Fmt 4.5, Leading zero omitted, Abs format (unit mm)*
G04 Created by KiCad (PCBNEW (5.0.0-rc2-190-gf634b7565)) date 07/09/18 23:28:30*
%MOMM*%
%LPD*%
G01*
G04 APERTURE LIST*
%ADD10C,0.200000*%
%ADD11C,0.300000*%
G04 APERTURE END LIST*
D10*
X18000000Y-12500000D02*
G75*
G02X17800000Y-12300000I0J200000D01*
G01*
X23100000Y-4500000D02*
G75*
G02X23300000Y-4700000I0J-200000D01*
G01*
X23300000Y-12300000D02*
G75*
G02X23100000Y-12500000I-200000J0D01*
G01*
X17800000Y-4700000D02*
G75*
G02X18000000Y-4500000I200000J0D01*
G01*
X17800000Y-4700000D02*
X17800000Y-12300000D01*
X23100000Y-4500000D02*
X18000000Y-4500000D01*
X23300000Y-12300000D02*
X23300000Y-4700000D01*
X18000000Y-12500000D02*
X23100000Y-12500000D01*
D10*
X18140000Y-6640000D02*
X18460000Y-6960000D01*
X18460000Y-6640000D02*
X18140000Y-6960000D01*
X18140000Y-11840000D02*
X18460000Y-12160000D01*
X18460000Y-11840000D02*
X18140000Y-12160000D01*
X21640000Y-6640000D02*
X21960000Y-6960000D01*
X21960000Y-6640000D02*
X21640000Y-6960000D01*
X22640000Y-11840000D02*
X22960000Y-12160000D01*
X22960000Y-11840000D02*
X22640000Y-12160000D01*
D11*
X18076428Y-12975714D02*
X18076428Y-12675714D01*
X18147857Y-12675714D01*
X18190714Y-12690000D01*
X18219286Y-12718571D01*
X18233571Y-12747143D01*
X18247857Y-12804286D01*
X18247857Y-12847143D01*
X18233571Y-12904286D01*
X18219286Y-12932857D01*
X18190714Y-12961429D01*
X18147857Y-12975714D01*
X18076428Y-12975714D01*
X18376428Y-12975714D02*
X18376428Y-12775714D01*
X18376428Y-12832857D02*
X18390714Y-12804286D01*
X18405000Y-12790000D01*
X18433571Y-12775714D01*
X18462143Y-12775714D01*
X18562143Y-12975714D02*
X18562143Y-12775714D01*
X18562143Y-12675714D02*
X18547857Y-12690000D01*
X18562143Y-12704286D01*
X18576428Y-12690000D01*
X18562143Y-12675714D01*
X18562143Y-12704286D01*
X18747857Y-12975714D02*
X18719286Y-12961429D01*
X18705000Y-12932857D01*
X18705000Y-12675714D01*
X18905000Y-12975714D02*
X18876428Y-12961429D01*
X18862143Y-12932857D01*
X18862143Y-12675714D01*
X19247857Y-12975714D02*
X19247857Y-12675714D01*
X19347857Y-12890000D01*
X19447857Y-12675714D01*
X19447857Y-12975714D01*
X19719286Y-12975714D02*
X19719286Y-12818571D01*
X19705000Y-12790000D01*
X19676428Y-12775714D01*
X19619286Y-12775714D01*
X19590714Y-12790000D01*
X19719286Y-12961429D02*
X19690714Y-12975714D01*
X19619286Y-12975714D01*
X19590714Y-12961429D01*
X19576428Y-12932857D01*
X19576428Y-12904286D01*
X19590714Y-12875714D01*
X19619286Y-12861429D01*
X19690714Y-12861429D01*
X19719286Y-12847143D01*
X19862143Y-12775714D02*
X19862143Y-13075714D01*
X19862143Y-12790000D02*
X19890714Y-12775714D01*
X19947857Y-12775714D01*
X19976428Y-12790000D01*
X19990714Y-12804286D01*
X20005000Y-12832857D01*
X20005000Y-12918571D01*
X19990714Y-12947143D01*
X19976428Y-12961429D01*
X19947857Y-12975714D01*
X19890714Y-12975714D01*
X19862143Y-12961429D01*
X20133571Y-12947143D02*
X20147857Y-12961429D01*
X20133571Y-12975714D01*
X20119286Y-12961429D01*
X20133571Y-12947143D01*
X20133571Y-12975714D01*
X20133571Y-12790000D02*
X20147857Y-12804286D01*
X20133571Y-12818571D01*
X20119286Y-12804286D01*
X20133571Y-12790000D01*
X20133571Y-12818571D01*
X17470000Y-13310000D02*
X17790000Y-13630000D01*
X17790000Y-13310000D02*
X17470000Y-13630000D01*
X18047857Y-13305714D02*
X18233571Y-13305714D01*
X18133571Y-13420000D01*
X18176428Y-13420000D01*
X18205000Y-13434286D01*
X18219286Y-13448571D01*
X18233571Y-13477143D01*
X18233571Y-13548571D01*
X18219286Y-13577143D01*
X18205000Y-13591429D01*
X18176428Y-13605714D01*
X18090714Y-13605714D01*
X18062143Y-13591429D01*
X18047857Y-13577143D01*
X18362143Y-13577143D02*
X18376428Y-13591429D01*
X18362143Y-13605714D01*
X18347857Y-13591429D01*
X18362143Y-13577143D01*
X18362143Y-13605714D01*
X18490714Y-13334286D02*
X18505000Y-13320000D01*
X18533571Y-13305714D01*
X18605000Y-13305714D01*
X18633571Y-13320000D01*
X18647857Y-13334286D01*
X18662143Y-13362857D01*
X18662143Y-13391429D01*
X18647857Y-13434286D01*
X18476428Y-13605714D01*
X18662143Y-13605714D01*
X18847857Y-13305714D02*
X18876428Y-13305714D01*
X18905000Y-13320000D01*
X18919286Y-13334286D01*
X18933571Y-13362857D01*
X18947857Y-13420000D01*
X18947857Y-13491429D01*
X18933571Y-13548571D01*
X18919286Y-13577143D01*
X18905000Y-13591429D01*
X18876428Y-13605714D01*
X18847857Y-13605714D01*
X18819286Y-13591429D01*
X18805000Y-13577143D01*
X18790714Y-13548571D01*
X18776428Y-13491429D01*
X18776428Y-13420000D01*
X18790714Y-13362857D01*
X18805000Y-13334286D01*
X18819286Y-13320000D01*
X18847857Y-13305714D01*
X19076428Y-13605714D02*
X19076428Y-13405714D01*
X19076428Y-13434286D02*
X19090714Y-13420000D01*
X19119286Y-13405714D01*
X19162143Y-13405714D01*
X19190714Y-13420000D01*
X19205000Y-13448571D01*
X19205000Y-13605714D01*
X19205000Y-13448571D02*
X19219286Y-13420000D01*
X19247857Y-13405714D01*
X19290714Y-13405714D01*
X19319286Y-13420000D01*
X19333571Y-13448571D01*
X19333571Y-13605714D01*
X19476428Y-13605714D02*
X19476428Y-13405714D01*
X19476428Y-13434286D02*
X19490714Y-13420000D01*
X19519286Y-13405714D01*
X19562143Y-13405714D01*
X19590714Y-13420000D01*
X19605000Y-13448571D01*
X19605000Y-13605714D01*
X19605000Y-13448571D02*
X19619286Y-13420000D01*
X19647857Y-13405714D01*
X19690714Y-13405714D01*
X19719286Y-13420000D01*
X19733571Y-13448571D01*
X19733571Y-13605714D01*
X20319286Y-13291429D02*
X20062143Y-13677143D01*
X20705000Y-13305714D02*
X20733571Y-13305714D01*
X20762143Y-13320000D01*
X20776428Y-13334286D01*
X20790714Y-13362857D01*
X20805000Y-13420000D01*
X20805000Y-13491429D01*
X20790714Y-13548571D01*
X20776428Y-13577143D01*
X20762143Y-13591429D01*
X20733571Y-13605714D01*
X20705000Y-13605714D01*
X20676428Y-13591429D01*
X20662143Y-13577143D01*
X20647857Y-13548571D01*
X20633571Y-13491429D01*
X20633571Y-13420000D01*
X20647857Y-13362857D01*
X20662143Y-13334286D01*
X20676428Y-13320000D01*
X20705000Y-13305714D01*
X20933571Y-13577143D02*
X20947857Y-13591429D01*
X20933571Y-13605714D01*
X20919286Y-13591429D01*
X20933571Y-13577143D01*
X20933571Y-13605714D01*
X21233571Y-13605714D02*
X21062143Y-13605714D01*
X21147857Y-13605714D02*
X21147857Y-13305714D01*
X21119286Y-13348571D01*
X21090714Y-13377143D01*
X21062143Y-13391429D01*
X21347857Y-13334286D02*
X21362143Y-13320000D01*
X21390714Y-13305714D01*
X21462143Y-13305714D01*
X21490714Y-13320000D01*
X21505000Y-13334286D01*
X21519286Y-13362857D01*
X21519286Y-13391429D01*
X21505000Y-13434286D01*
X21333571Y-13605714D01*
X21519286Y-13605714D01*
X21776428Y-13305714D02*
X21719286Y-13305714D01*
X21690714Y-13320000D01*
X21676428Y-13334286D01*
X21647857Y-13377143D01*
X21633571Y-13434286D01*
X21633571Y-13548571D01*
X21647857Y-13577143D01*
X21662143Y-13591429D01*
X21690714Y-13605714D01*
X21747857Y-13605714D01*
X21776428Y-13591429D01*
X21790714Y-13577143D01*
X21805000Y-13548571D01*
X21805000Y-13477143D01*
X21790714Y-13448571D01*
X21776428Y-13434286D01*
X21747857Y-13420000D01*
X21690714Y-13420000D01*
X21662143Y-13434286D01*
X21647857Y-13448571D01*
X21633571Y-13477143D01*
X21919286Y-13305714D02*
X21919286Y-13362857D01*
X22033571Y-13305714D02*
X22033571Y-13362857D01*
X22476428Y-13720000D02*
X22462143Y-13705714D01*
X22433571Y-13662857D01*
X22419286Y-13634286D01*
X22405000Y-13591429D01*
X22390714Y-13520000D01*
X22390714Y-13462857D01*
X22405000Y-13391429D01*
X22419286Y-13348571D01*
X22433571Y-13320000D01*
X22462143Y-13277143D01*
X22476428Y-13262857D01*
X22719286Y-13405714D02*
X22719286Y-13605714D01*
X22647857Y-13291429D02*
X22576428Y-13505714D01*
X22762143Y-13505714D01*
X23105000Y-13605714D02*
X23105000Y-13305714D01*
X23233571Y-13605714D02*
X23233571Y-13448571D01*
X23219286Y-13420000D01*
X23190714Y-13405714D01*
X23147857Y-13405714D01*
X23119286Y-13420000D01*
X23105000Y-13434286D01*
X23419286Y-13605714D02*
X23390714Y-13591429D01*
X23376428Y-13577143D01*
X23362143Y-13548571D01*
X23362143Y-13462857D01*
X23376428Y-13434286D01*
X23390714Y-13420000D01*
X23419286Y-13405714D01*
X23462143Y-13405714D01*
X23490714Y-13420000D01*
X23505000Y-13434286D01*
X23519286Y-13462857D01*
X23519286Y-13548571D01*
X23505000Y-13577143D01*
X23490714Y-13591429D01*
X23462143Y-13605714D01*
X23419286Y-13605714D01*
X23690714Y-13605714D02*
X23662143Y-13591429D01*
X23647857Y-13562857D01*
X23647857Y-13305714D01*
X23919286Y-13591429D02*
X23890714Y-13605714D01*
X23833571Y-13605714D01*
X23805000Y-13591429D01*
X23790714Y-13562857D01*
X23790714Y-13448571D01*
X23805000Y-13420000D01*
X23833571Y-13405714D01*
X23890714Y-13405714D01*
X23919286Y-13420000D01*
X23933571Y-13448571D01*
X23933571Y-13477143D01*
X23790714Y-13505714D01*
X24047857Y-13591429D02*
X24076428Y-13605714D01*
X24133571Y-13605714D01*
X24162143Y-13591429D01*
X24176428Y-13562857D01*
X24176428Y-13548571D01*
X24162143Y-13520000D01*
X24133571Y-13505714D01*
X24090714Y-13505714D01*
X24062143Y-13491429D01*
X24047857Y-13462857D01*
X24047857Y-13448571D01*
X24062143Y-13420000D01*
X24090714Y-13405714D01*
X24133571Y-13405714D01*
X24162143Y-13420000D01*
X24276428Y-13720000D02*
X24290714Y-13705714D01*
X24319286Y-13662857D01*
X24333571Y-13634286D01*
X24347857Y-13591429D01*
X24362143Y-13520000D01*
X24362143Y-13462857D01*
X24347857Y-13391429D01*
X24333571Y-13348571D01*
X24319286Y-13320000D01*
X24290714Y-13277143D01*
X24276428Y-13262857D01*
X24819286Y-13720000D02*
X24805000Y-13705714D01*
X24776428Y-13662857D01*
X24762143Y-13634286D01*
X24747857Y-13591429D01*
X24733571Y-13520000D01*
X24733571Y-13462857D01*
X24747857Y-13391429D01*
X24762143Y-13348571D01*
X24776428Y-13320000D01*
X24805000Y-13277143D01*
X24819286Y-13262857D01*
X24933571Y-13405714D02*
X24933571Y-13605714D01*
X24933571Y-13434286D02*
X24947857Y-13420000D01*
X24976428Y-13405714D01*
X25019286Y-13405714D01*
X25047857Y-13420000D01*
X25062143Y-13448571D01*
X25062143Y-13605714D01*
X25247857Y-13605714D02*
X25219286Y-13591429D01*
X25205000Y-13577143D01*
X25190714Y-13548571D01*
X25190714Y-13462857D01*
X25205000Y-13434286D01*
X25219286Y-13420000D01*
X25247857Y-13405714D01*
X25290714Y-13405714D01*
X25319286Y-13420000D01*
X25333571Y-13434286D01*
X25347857Y-13462857D01*
X25347857Y-13548571D01*
X25333571Y-13577143D01*
X25319286Y-13591429D01*
X25290714Y-13605714D01*
X25247857Y-13605714D01*
X25433571Y-13405714D02*
X25547857Y-13405714D01*
X25476428Y-13305714D02*
X25476428Y-13562857D01*
X25490714Y-13591429D01*
X25519286Y-13605714D01*
X25547857Y-13605714D01*
X25876428Y-13405714D02*
X25876428Y-13705714D01*
X25876428Y-13420000D02*
X25905000Y-13405714D01*
X25962143Y-13405714D01*
X25990714Y-13420000D01*
X26005000Y-13434286D01*
X26019286Y-13462857D01*
X26019286Y-13548571D01*
X26005000Y-13577143D01*
X25990714Y-13591429D01*
X25962143Y-13605714D01*
X25905000Y-13605714D01*
X25876428Y-13591429D01*
X26190714Y-13605714D02*
X26162143Y-13591429D01*
X26147857Y-13562857D01*
X26147857Y-13305714D01*
X26433571Y-13605714D02*
X26433571Y-13448571D01*
X26419286Y-13420000D01*
X26390714Y-13405714D01*
X26333571Y-13405714D01*
X26305000Y-13420000D01*
X26433571Y-13591429D02*
X26405000Y-13605714D01*
X26333571Y-13605714D01*
X26305000Y-13591429D01*
X26290714Y-13562857D01*
X26290714Y-13534286D01*
X26305000Y-13505714D01*
X26333571Y-13491429D01*
X26405000Y-13491429D01*
X26433571Y-13477143D01*
X26533571Y-13405714D02*
X26647857Y-13405714D01*
X26576428Y-13305714D02*
X26576428Y-13562857D01*
X26590714Y-13591429D01*
X26619286Y-13605714D01*
X26647857Y-13605714D01*
X26862143Y-13591429D02*
X26833571Y-13605714D01*
X26776428Y-13605714D01*
X26747857Y-13591429D01*
X26733571Y-13562857D01*
X26733571Y-13448571D01*
X26747857Y-13420000D01*
X26776428Y-13405714D01*
X26833571Y-13405714D01*
X26862143Y-13420000D01*
X26876428Y-13448571D01*
X26876428Y-13477143D01*
X26733571Y-13505714D01*
X27133571Y-13605714D02*
X27133571Y-13305714D01*
X27133571Y-13591429D02*
X27105000Y-13605714D01*
X27047857Y-13605714D01*
X27019286Y-13591429D01*
X27005000Y-13577143D01*
X26990714Y-13548571D01*
X26990714Y-13462857D01*
X27005000Y-13434286D01*
X27019286Y-13420000D01*
X27047857Y-13405714D01*
X27105000Y-13405714D01*
X27133571Y-13420000D01*
X27247857Y-13720000D02*
X27262143Y-13705714D01*
X27290714Y-13662857D01*
X27305000Y-13634286D01*
X27319286Y-13591429D01*
X27333571Y-13520000D01*
X27333571Y-13462857D01*
X27319286Y-13391429D01*
X27305000Y-13348571D01*
X27290714Y-13320000D01*
X27262143Y-13277143D01*
X27247857Y-13262857D01*
M02*
