G04 #@! TF.GenerationSoftware,KiCad,Pcbnew,(5.0.0-rc2-190-gf634b7565)*
G04 #@! TF.CreationDate,2018-07-18T23:06:54+02:00*
G04 #@! TF.ProjectId,IoP-mux8-1C,496F502D6D7578382D31432E6B696361,rev?*
G04 #@! TF.SameCoordinates,Original*
G04 #@! TF.FileFunction,Paste,Top*
G04 #@! TF.FilePolarity,Positive*
%FSLAX46Y46*%
G04 Gerber Fmt 4.6, Leading zero omitted, Abs format (unit mm)*
G04 Created by KiCad (PCBNEW (5.0.0-rc2-190-gf634b7565)) date 07/18/18 23:06:54*
%MOMM*%
%LPD*%
G01*
G04 APERTURE LIST*
%ADD10C,0.200000*%
%ADD11C,0.100000*%
%ADD12C,0.875000*%
%ADD13R,0.700000X1.525000*%
%ADD14R,1.525000X0.700000*%
%ADD15R,1.100000X0.400000*%
%ADD16R,0.900000X0.600000*%
%ADD17R,0.450000X1.475000*%
%ADD18R,1.525000X0.435000*%
%ADD19R,1.200000X0.400000*%
%ADD20R,0.600000X0.900000*%
G04 APERTURE END LIST*
D10*
X180000000Y-125000000D02*
G75*
G02X178000000Y-123000000I0J2000000D01*
G01*
X231000000Y-45000000D02*
G75*
G02X233000000Y-47000000I0J-2000000D01*
G01*
X233000000Y-123000000D02*
G75*
G02X231000000Y-125000000I-2000000J0D01*
G01*
X178000000Y-47000000D02*
G75*
G02X180000000Y-45000000I2000000J0D01*
G01*
X178000000Y-47000000D02*
X178000000Y-123000000D01*
X231000000Y-45000000D02*
X180000000Y-45000000D01*
X233000000Y-123000000D02*
X233000000Y-47000000D01*
X180000000Y-125000000D02*
X231000000Y-125000000D01*
D11*
G04 #@! TO.C,R20*
G36*
X196727391Y-108997753D02*
X196748626Y-109000903D01*
X196769450Y-109006119D01*
X196789662Y-109013351D01*
X196809068Y-109022530D01*
X196827481Y-109033566D01*
X196844724Y-109046354D01*
X196860630Y-109060770D01*
X196875046Y-109076676D01*
X196887834Y-109093919D01*
X196898870Y-109112332D01*
X196908049Y-109131738D01*
X196915281Y-109151950D01*
X196920497Y-109172774D01*
X196923647Y-109194009D01*
X196924700Y-109215450D01*
X196924700Y-109727950D01*
X196923647Y-109749391D01*
X196920497Y-109770626D01*
X196915281Y-109791450D01*
X196908049Y-109811662D01*
X196898870Y-109831068D01*
X196887834Y-109849481D01*
X196875046Y-109866724D01*
X196860630Y-109882630D01*
X196844724Y-109897046D01*
X196827481Y-109909834D01*
X196809068Y-109920870D01*
X196789662Y-109930049D01*
X196769450Y-109937281D01*
X196748626Y-109942497D01*
X196727391Y-109945647D01*
X196705950Y-109946700D01*
X196268450Y-109946700D01*
X196247009Y-109945647D01*
X196225774Y-109942497D01*
X196204950Y-109937281D01*
X196184738Y-109930049D01*
X196165332Y-109920870D01*
X196146919Y-109909834D01*
X196129676Y-109897046D01*
X196113770Y-109882630D01*
X196099354Y-109866724D01*
X196086566Y-109849481D01*
X196075530Y-109831068D01*
X196066351Y-109811662D01*
X196059119Y-109791450D01*
X196053903Y-109770626D01*
X196050753Y-109749391D01*
X196049700Y-109727950D01*
X196049700Y-109215450D01*
X196050753Y-109194009D01*
X196053903Y-109172774D01*
X196059119Y-109151950D01*
X196066351Y-109131738D01*
X196075530Y-109112332D01*
X196086566Y-109093919D01*
X196099354Y-109076676D01*
X196113770Y-109060770D01*
X196129676Y-109046354D01*
X196146919Y-109033566D01*
X196165332Y-109022530D01*
X196184738Y-109013351D01*
X196204950Y-109006119D01*
X196225774Y-109000903D01*
X196247009Y-108997753D01*
X196268450Y-108996700D01*
X196705950Y-108996700D01*
X196727391Y-108997753D01*
X196727391Y-108997753D01*
G37*
D12*
X196487200Y-109471700D03*
D11*
G36*
X198302391Y-108997753D02*
X198323626Y-109000903D01*
X198344450Y-109006119D01*
X198364662Y-109013351D01*
X198384068Y-109022530D01*
X198402481Y-109033566D01*
X198419724Y-109046354D01*
X198435630Y-109060770D01*
X198450046Y-109076676D01*
X198462834Y-109093919D01*
X198473870Y-109112332D01*
X198483049Y-109131738D01*
X198490281Y-109151950D01*
X198495497Y-109172774D01*
X198498647Y-109194009D01*
X198499700Y-109215450D01*
X198499700Y-109727950D01*
X198498647Y-109749391D01*
X198495497Y-109770626D01*
X198490281Y-109791450D01*
X198483049Y-109811662D01*
X198473870Y-109831068D01*
X198462834Y-109849481D01*
X198450046Y-109866724D01*
X198435630Y-109882630D01*
X198419724Y-109897046D01*
X198402481Y-109909834D01*
X198384068Y-109920870D01*
X198364662Y-109930049D01*
X198344450Y-109937281D01*
X198323626Y-109942497D01*
X198302391Y-109945647D01*
X198280950Y-109946700D01*
X197843450Y-109946700D01*
X197822009Y-109945647D01*
X197800774Y-109942497D01*
X197779950Y-109937281D01*
X197759738Y-109930049D01*
X197740332Y-109920870D01*
X197721919Y-109909834D01*
X197704676Y-109897046D01*
X197688770Y-109882630D01*
X197674354Y-109866724D01*
X197661566Y-109849481D01*
X197650530Y-109831068D01*
X197641351Y-109811662D01*
X197634119Y-109791450D01*
X197628903Y-109770626D01*
X197625753Y-109749391D01*
X197624700Y-109727950D01*
X197624700Y-109215450D01*
X197625753Y-109194009D01*
X197628903Y-109172774D01*
X197634119Y-109151950D01*
X197641351Y-109131738D01*
X197650530Y-109112332D01*
X197661566Y-109093919D01*
X197674354Y-109076676D01*
X197688770Y-109060770D01*
X197704676Y-109046354D01*
X197721919Y-109033566D01*
X197740332Y-109022530D01*
X197759738Y-109013351D01*
X197779950Y-109006119D01*
X197800774Y-109000903D01*
X197822009Y-108997753D01*
X197843450Y-108996700D01*
X198280950Y-108996700D01*
X198302391Y-108997753D01*
X198302391Y-108997753D01*
G37*
D12*
X198062200Y-109471700D03*
G04 #@! TD*
D13*
G04 #@! TO.C,IC4*
X226905000Y-71112000D03*
X225635000Y-71112000D03*
X224365000Y-71112000D03*
X223095000Y-71112000D03*
X223095000Y-65688000D03*
X224365000Y-65688000D03*
X225635000Y-65688000D03*
X226905000Y-65688000D03*
G04 #@! TD*
D14*
G04 #@! TO.C,IC8*
X217412000Y-54720000D03*
X217412000Y-53450000D03*
X217412000Y-52180000D03*
X217412000Y-50910000D03*
X211988000Y-50910000D03*
X211988000Y-52180000D03*
X211988000Y-53450000D03*
X211988000Y-54720000D03*
G04 #@! TD*
D15*
G04 #@! TO.C,IC1*
X185600000Y-101850000D03*
X185600000Y-101200000D03*
X185600000Y-100550000D03*
X185600000Y-99900000D03*
X185600000Y-99250000D03*
X185600000Y-98600000D03*
X185600000Y-97950000D03*
X185600000Y-97300000D03*
X185600000Y-96650000D03*
X185600000Y-96000000D03*
X185600000Y-95350000D03*
X185600000Y-94700000D03*
X179900000Y-94700000D03*
X179900000Y-95350000D03*
X179900000Y-96000000D03*
X179900000Y-96650000D03*
X179900000Y-97300000D03*
X179900000Y-97950000D03*
X179900000Y-98600000D03*
X179900000Y-99250000D03*
X179900000Y-99900000D03*
X179900000Y-100550000D03*
X179900000Y-101200000D03*
X179900000Y-101850000D03*
G04 #@! TD*
D11*
G04 #@! TO.C,R10*
G36*
X184937691Y-90176053D02*
X184958926Y-90179203D01*
X184979750Y-90184419D01*
X184999962Y-90191651D01*
X185019368Y-90200830D01*
X185037781Y-90211866D01*
X185055024Y-90224654D01*
X185070930Y-90239070D01*
X185085346Y-90254976D01*
X185098134Y-90272219D01*
X185109170Y-90290632D01*
X185118349Y-90310038D01*
X185125581Y-90330250D01*
X185130797Y-90351074D01*
X185133947Y-90372309D01*
X185135000Y-90393750D01*
X185135000Y-90831250D01*
X185133947Y-90852691D01*
X185130797Y-90873926D01*
X185125581Y-90894750D01*
X185118349Y-90914962D01*
X185109170Y-90934368D01*
X185098134Y-90952781D01*
X185085346Y-90970024D01*
X185070930Y-90985930D01*
X185055024Y-91000346D01*
X185037781Y-91013134D01*
X185019368Y-91024170D01*
X184999962Y-91033349D01*
X184979750Y-91040581D01*
X184958926Y-91045797D01*
X184937691Y-91048947D01*
X184916250Y-91050000D01*
X184403750Y-91050000D01*
X184382309Y-91048947D01*
X184361074Y-91045797D01*
X184340250Y-91040581D01*
X184320038Y-91033349D01*
X184300632Y-91024170D01*
X184282219Y-91013134D01*
X184264976Y-91000346D01*
X184249070Y-90985930D01*
X184234654Y-90970024D01*
X184221866Y-90952781D01*
X184210830Y-90934368D01*
X184201651Y-90914962D01*
X184194419Y-90894750D01*
X184189203Y-90873926D01*
X184186053Y-90852691D01*
X184185000Y-90831250D01*
X184185000Y-90393750D01*
X184186053Y-90372309D01*
X184189203Y-90351074D01*
X184194419Y-90330250D01*
X184201651Y-90310038D01*
X184210830Y-90290632D01*
X184221866Y-90272219D01*
X184234654Y-90254976D01*
X184249070Y-90239070D01*
X184264976Y-90224654D01*
X184282219Y-90211866D01*
X184300632Y-90200830D01*
X184320038Y-90191651D01*
X184340250Y-90184419D01*
X184361074Y-90179203D01*
X184382309Y-90176053D01*
X184403750Y-90175000D01*
X184916250Y-90175000D01*
X184937691Y-90176053D01*
X184937691Y-90176053D01*
G37*
D12*
X184660000Y-90612500D03*
D11*
G36*
X184937691Y-91751053D02*
X184958926Y-91754203D01*
X184979750Y-91759419D01*
X184999962Y-91766651D01*
X185019368Y-91775830D01*
X185037781Y-91786866D01*
X185055024Y-91799654D01*
X185070930Y-91814070D01*
X185085346Y-91829976D01*
X185098134Y-91847219D01*
X185109170Y-91865632D01*
X185118349Y-91885038D01*
X185125581Y-91905250D01*
X185130797Y-91926074D01*
X185133947Y-91947309D01*
X185135000Y-91968750D01*
X185135000Y-92406250D01*
X185133947Y-92427691D01*
X185130797Y-92448926D01*
X185125581Y-92469750D01*
X185118349Y-92489962D01*
X185109170Y-92509368D01*
X185098134Y-92527781D01*
X185085346Y-92545024D01*
X185070930Y-92560930D01*
X185055024Y-92575346D01*
X185037781Y-92588134D01*
X185019368Y-92599170D01*
X184999962Y-92608349D01*
X184979750Y-92615581D01*
X184958926Y-92620797D01*
X184937691Y-92623947D01*
X184916250Y-92625000D01*
X184403750Y-92625000D01*
X184382309Y-92623947D01*
X184361074Y-92620797D01*
X184340250Y-92615581D01*
X184320038Y-92608349D01*
X184300632Y-92599170D01*
X184282219Y-92588134D01*
X184264976Y-92575346D01*
X184249070Y-92560930D01*
X184234654Y-92545024D01*
X184221866Y-92527781D01*
X184210830Y-92509368D01*
X184201651Y-92489962D01*
X184194419Y-92469750D01*
X184189203Y-92448926D01*
X184186053Y-92427691D01*
X184185000Y-92406250D01*
X184185000Y-91968750D01*
X184186053Y-91947309D01*
X184189203Y-91926074D01*
X184194419Y-91905250D01*
X184201651Y-91885038D01*
X184210830Y-91865632D01*
X184221866Y-91847219D01*
X184234654Y-91829976D01*
X184249070Y-91814070D01*
X184264976Y-91799654D01*
X184282219Y-91786866D01*
X184300632Y-91775830D01*
X184320038Y-91766651D01*
X184340250Y-91759419D01*
X184361074Y-91754203D01*
X184382309Y-91751053D01*
X184403750Y-91750000D01*
X184916250Y-91750000D01*
X184937691Y-91751053D01*
X184937691Y-91751053D01*
G37*
D12*
X184660000Y-92187500D03*
G04 #@! TD*
D11*
G04 #@! TO.C,R19*
G36*
X205150191Y-76719653D02*
X205171426Y-76722803D01*
X205192250Y-76728019D01*
X205212462Y-76735251D01*
X205231868Y-76744430D01*
X205250281Y-76755466D01*
X205267524Y-76768254D01*
X205283430Y-76782670D01*
X205297846Y-76798576D01*
X205310634Y-76815819D01*
X205321670Y-76834232D01*
X205330849Y-76853638D01*
X205338081Y-76873850D01*
X205343297Y-76894674D01*
X205346447Y-76915909D01*
X205347500Y-76937350D01*
X205347500Y-77449850D01*
X205346447Y-77471291D01*
X205343297Y-77492526D01*
X205338081Y-77513350D01*
X205330849Y-77533562D01*
X205321670Y-77552968D01*
X205310634Y-77571381D01*
X205297846Y-77588624D01*
X205283430Y-77604530D01*
X205267524Y-77618946D01*
X205250281Y-77631734D01*
X205231868Y-77642770D01*
X205212462Y-77651949D01*
X205192250Y-77659181D01*
X205171426Y-77664397D01*
X205150191Y-77667547D01*
X205128750Y-77668600D01*
X204691250Y-77668600D01*
X204669809Y-77667547D01*
X204648574Y-77664397D01*
X204627750Y-77659181D01*
X204607538Y-77651949D01*
X204588132Y-77642770D01*
X204569719Y-77631734D01*
X204552476Y-77618946D01*
X204536570Y-77604530D01*
X204522154Y-77588624D01*
X204509366Y-77571381D01*
X204498330Y-77552968D01*
X204489151Y-77533562D01*
X204481919Y-77513350D01*
X204476703Y-77492526D01*
X204473553Y-77471291D01*
X204472500Y-77449850D01*
X204472500Y-76937350D01*
X204473553Y-76915909D01*
X204476703Y-76894674D01*
X204481919Y-76873850D01*
X204489151Y-76853638D01*
X204498330Y-76834232D01*
X204509366Y-76815819D01*
X204522154Y-76798576D01*
X204536570Y-76782670D01*
X204552476Y-76768254D01*
X204569719Y-76755466D01*
X204588132Y-76744430D01*
X204607538Y-76735251D01*
X204627750Y-76728019D01*
X204648574Y-76722803D01*
X204669809Y-76719653D01*
X204691250Y-76718600D01*
X205128750Y-76718600D01*
X205150191Y-76719653D01*
X205150191Y-76719653D01*
G37*
D12*
X204910000Y-77193600D03*
D11*
G36*
X206725191Y-76719653D02*
X206746426Y-76722803D01*
X206767250Y-76728019D01*
X206787462Y-76735251D01*
X206806868Y-76744430D01*
X206825281Y-76755466D01*
X206842524Y-76768254D01*
X206858430Y-76782670D01*
X206872846Y-76798576D01*
X206885634Y-76815819D01*
X206896670Y-76834232D01*
X206905849Y-76853638D01*
X206913081Y-76873850D01*
X206918297Y-76894674D01*
X206921447Y-76915909D01*
X206922500Y-76937350D01*
X206922500Y-77449850D01*
X206921447Y-77471291D01*
X206918297Y-77492526D01*
X206913081Y-77513350D01*
X206905849Y-77533562D01*
X206896670Y-77552968D01*
X206885634Y-77571381D01*
X206872846Y-77588624D01*
X206858430Y-77604530D01*
X206842524Y-77618946D01*
X206825281Y-77631734D01*
X206806868Y-77642770D01*
X206787462Y-77651949D01*
X206767250Y-77659181D01*
X206746426Y-77664397D01*
X206725191Y-77667547D01*
X206703750Y-77668600D01*
X206266250Y-77668600D01*
X206244809Y-77667547D01*
X206223574Y-77664397D01*
X206202750Y-77659181D01*
X206182538Y-77651949D01*
X206163132Y-77642770D01*
X206144719Y-77631734D01*
X206127476Y-77618946D01*
X206111570Y-77604530D01*
X206097154Y-77588624D01*
X206084366Y-77571381D01*
X206073330Y-77552968D01*
X206064151Y-77533562D01*
X206056919Y-77513350D01*
X206051703Y-77492526D01*
X206048553Y-77471291D01*
X206047500Y-77449850D01*
X206047500Y-76937350D01*
X206048553Y-76915909D01*
X206051703Y-76894674D01*
X206056919Y-76873850D01*
X206064151Y-76853638D01*
X206073330Y-76834232D01*
X206084366Y-76815819D01*
X206097154Y-76798576D01*
X206111570Y-76782670D01*
X206127476Y-76768254D01*
X206144719Y-76755466D01*
X206163132Y-76744430D01*
X206182538Y-76735251D01*
X206202750Y-76728019D01*
X206223574Y-76722803D01*
X206244809Y-76719653D01*
X206266250Y-76718600D01*
X206703750Y-76718600D01*
X206725191Y-76719653D01*
X206725191Y-76719653D01*
G37*
D12*
X206485000Y-77193600D03*
G04 #@! TD*
D16*
G04 #@! TO.C,R13*
X214625000Y-60825000D03*
X214625000Y-60025000D03*
X214625000Y-59225000D03*
X214625000Y-58425000D03*
X212825000Y-60825000D03*
X212825000Y-60025000D03*
X212825000Y-59225000D03*
X212825000Y-58425000D03*
G04 #@! TD*
G04 #@! TO.C,R5*
X187600000Y-115400000D03*
X187600000Y-116200000D03*
X187600000Y-117000000D03*
X187600000Y-117800000D03*
X189400000Y-115400000D03*
X189400000Y-116200000D03*
X189400000Y-117000000D03*
X189400000Y-117800000D03*
G04 #@! TD*
D17*
G04 #@! TO.C,IC3*
X199975000Y-102338000D03*
X200625000Y-102338000D03*
X201275000Y-102338000D03*
X201925000Y-102338000D03*
X202575000Y-102338000D03*
X203225000Y-102338000D03*
X203875000Y-102338000D03*
X204525000Y-102338000D03*
X205175000Y-102338000D03*
X205825000Y-102338000D03*
X206475000Y-102338000D03*
X207125000Y-102338000D03*
X207125000Y-96462000D03*
X206475000Y-96462000D03*
X205825000Y-96462000D03*
X205175000Y-96462000D03*
X204525000Y-96462000D03*
X203875000Y-96462000D03*
X203225000Y-96462000D03*
X202575000Y-96462000D03*
X201925000Y-96462000D03*
X201275000Y-96462000D03*
X200625000Y-96462000D03*
X199975000Y-96462000D03*
G04 #@! TD*
D18*
G04 #@! TO.C,IC7*
X209788000Y-79722000D03*
X209788000Y-79088000D03*
X209788000Y-78452000D03*
X209788000Y-77818000D03*
X209788000Y-77182000D03*
X209788000Y-76548000D03*
X209788000Y-75912000D03*
X209788000Y-75278000D03*
X215212000Y-75278000D03*
X215212000Y-75912000D03*
X215212000Y-76548000D03*
X215212000Y-77182000D03*
X215212000Y-77818000D03*
X215212000Y-78452000D03*
X215212000Y-79088000D03*
X215212000Y-79722000D03*
G04 #@! TD*
D19*
G04 #@! TO.C,IC6*
X202800000Y-80700000D03*
X202800000Y-80050000D03*
X202800000Y-79400000D03*
X200900000Y-79400000D03*
X200900000Y-80700000D03*
G04 #@! TD*
D17*
G04 #@! TO.C,IC2*
X188025000Y-70988000D03*
X188675000Y-70988000D03*
X189325000Y-70988000D03*
X189975000Y-70988000D03*
X190625000Y-70988000D03*
X191275000Y-70988000D03*
X191925000Y-70988000D03*
X192575000Y-70988000D03*
X192575000Y-65112000D03*
X191925000Y-65112000D03*
X191275000Y-65112000D03*
X190625000Y-65112000D03*
X189975000Y-65112000D03*
X189325000Y-65112000D03*
X188675000Y-65112000D03*
X188025000Y-65112000D03*
G04 #@! TD*
D18*
G04 #@! TO.C,IC5*
X201476000Y-70831000D03*
X201476000Y-71465000D03*
X201476000Y-72101000D03*
X201476000Y-72735000D03*
X201476000Y-73371000D03*
X201476000Y-74005000D03*
X201476000Y-74641000D03*
X201476000Y-75275000D03*
X206900000Y-75275000D03*
X206900000Y-74641000D03*
X206900000Y-74005000D03*
X206900000Y-73371000D03*
X206900000Y-72735000D03*
X206900000Y-72101000D03*
X206900000Y-71465000D03*
X206900000Y-70831000D03*
G04 #@! TD*
D11*
G04 #@! TO.C,C10*
G36*
X196856491Y-83564353D02*
X196877726Y-83567503D01*
X196898550Y-83572719D01*
X196918762Y-83579951D01*
X196938168Y-83589130D01*
X196956581Y-83600166D01*
X196973824Y-83612954D01*
X196989730Y-83627370D01*
X197004146Y-83643276D01*
X197016934Y-83660519D01*
X197027970Y-83678932D01*
X197037149Y-83698338D01*
X197044381Y-83718550D01*
X197049597Y-83739374D01*
X197052747Y-83760609D01*
X197053800Y-83782050D01*
X197053800Y-84219550D01*
X197052747Y-84240991D01*
X197049597Y-84262226D01*
X197044381Y-84283050D01*
X197037149Y-84303262D01*
X197027970Y-84322668D01*
X197016934Y-84341081D01*
X197004146Y-84358324D01*
X196989730Y-84374230D01*
X196973824Y-84388646D01*
X196956581Y-84401434D01*
X196938168Y-84412470D01*
X196918762Y-84421649D01*
X196898550Y-84428881D01*
X196877726Y-84434097D01*
X196856491Y-84437247D01*
X196835050Y-84438300D01*
X196322550Y-84438300D01*
X196301109Y-84437247D01*
X196279874Y-84434097D01*
X196259050Y-84428881D01*
X196238838Y-84421649D01*
X196219432Y-84412470D01*
X196201019Y-84401434D01*
X196183776Y-84388646D01*
X196167870Y-84374230D01*
X196153454Y-84358324D01*
X196140666Y-84341081D01*
X196129630Y-84322668D01*
X196120451Y-84303262D01*
X196113219Y-84283050D01*
X196108003Y-84262226D01*
X196104853Y-84240991D01*
X196103800Y-84219550D01*
X196103800Y-83782050D01*
X196104853Y-83760609D01*
X196108003Y-83739374D01*
X196113219Y-83718550D01*
X196120451Y-83698338D01*
X196129630Y-83678932D01*
X196140666Y-83660519D01*
X196153454Y-83643276D01*
X196167870Y-83627370D01*
X196183776Y-83612954D01*
X196201019Y-83600166D01*
X196219432Y-83589130D01*
X196238838Y-83579951D01*
X196259050Y-83572719D01*
X196279874Y-83567503D01*
X196301109Y-83564353D01*
X196322550Y-83563300D01*
X196835050Y-83563300D01*
X196856491Y-83564353D01*
X196856491Y-83564353D01*
G37*
D12*
X196578800Y-84000800D03*
D11*
G36*
X196856491Y-81989353D02*
X196877726Y-81992503D01*
X196898550Y-81997719D01*
X196918762Y-82004951D01*
X196938168Y-82014130D01*
X196956581Y-82025166D01*
X196973824Y-82037954D01*
X196989730Y-82052370D01*
X197004146Y-82068276D01*
X197016934Y-82085519D01*
X197027970Y-82103932D01*
X197037149Y-82123338D01*
X197044381Y-82143550D01*
X197049597Y-82164374D01*
X197052747Y-82185609D01*
X197053800Y-82207050D01*
X197053800Y-82644550D01*
X197052747Y-82665991D01*
X197049597Y-82687226D01*
X197044381Y-82708050D01*
X197037149Y-82728262D01*
X197027970Y-82747668D01*
X197016934Y-82766081D01*
X197004146Y-82783324D01*
X196989730Y-82799230D01*
X196973824Y-82813646D01*
X196956581Y-82826434D01*
X196938168Y-82837470D01*
X196918762Y-82846649D01*
X196898550Y-82853881D01*
X196877726Y-82859097D01*
X196856491Y-82862247D01*
X196835050Y-82863300D01*
X196322550Y-82863300D01*
X196301109Y-82862247D01*
X196279874Y-82859097D01*
X196259050Y-82853881D01*
X196238838Y-82846649D01*
X196219432Y-82837470D01*
X196201019Y-82826434D01*
X196183776Y-82813646D01*
X196167870Y-82799230D01*
X196153454Y-82783324D01*
X196140666Y-82766081D01*
X196129630Y-82747668D01*
X196120451Y-82728262D01*
X196113219Y-82708050D01*
X196108003Y-82687226D01*
X196104853Y-82665991D01*
X196103800Y-82644550D01*
X196103800Y-82207050D01*
X196104853Y-82185609D01*
X196108003Y-82164374D01*
X196113219Y-82143550D01*
X196120451Y-82123338D01*
X196129630Y-82103932D01*
X196140666Y-82085519D01*
X196153454Y-82068276D01*
X196167870Y-82052370D01*
X196183776Y-82037954D01*
X196201019Y-82025166D01*
X196219432Y-82014130D01*
X196238838Y-82004951D01*
X196259050Y-81997719D01*
X196279874Y-81992503D01*
X196301109Y-81989353D01*
X196322550Y-81988300D01*
X196835050Y-81988300D01*
X196856491Y-81989353D01*
X196856491Y-81989353D01*
G37*
D12*
X196578800Y-82425800D03*
G04 #@! TD*
D11*
G04 #@! TO.C,R18*
G36*
X194837691Y-78433353D02*
X194858926Y-78436503D01*
X194879750Y-78441719D01*
X194899962Y-78448951D01*
X194919368Y-78458130D01*
X194937781Y-78469166D01*
X194955024Y-78481954D01*
X194970930Y-78496370D01*
X194985346Y-78512276D01*
X194998134Y-78529519D01*
X195009170Y-78547932D01*
X195018349Y-78567338D01*
X195025581Y-78587550D01*
X195030797Y-78608374D01*
X195033947Y-78629609D01*
X195035000Y-78651050D01*
X195035000Y-79088550D01*
X195033947Y-79109991D01*
X195030797Y-79131226D01*
X195025581Y-79152050D01*
X195018349Y-79172262D01*
X195009170Y-79191668D01*
X194998134Y-79210081D01*
X194985346Y-79227324D01*
X194970930Y-79243230D01*
X194955024Y-79257646D01*
X194937781Y-79270434D01*
X194919368Y-79281470D01*
X194899962Y-79290649D01*
X194879750Y-79297881D01*
X194858926Y-79303097D01*
X194837691Y-79306247D01*
X194816250Y-79307300D01*
X194303750Y-79307300D01*
X194282309Y-79306247D01*
X194261074Y-79303097D01*
X194240250Y-79297881D01*
X194220038Y-79290649D01*
X194200632Y-79281470D01*
X194182219Y-79270434D01*
X194164976Y-79257646D01*
X194149070Y-79243230D01*
X194134654Y-79227324D01*
X194121866Y-79210081D01*
X194110830Y-79191668D01*
X194101651Y-79172262D01*
X194094419Y-79152050D01*
X194089203Y-79131226D01*
X194086053Y-79109991D01*
X194085000Y-79088550D01*
X194085000Y-78651050D01*
X194086053Y-78629609D01*
X194089203Y-78608374D01*
X194094419Y-78587550D01*
X194101651Y-78567338D01*
X194110830Y-78547932D01*
X194121866Y-78529519D01*
X194134654Y-78512276D01*
X194149070Y-78496370D01*
X194164976Y-78481954D01*
X194182219Y-78469166D01*
X194200632Y-78458130D01*
X194220038Y-78448951D01*
X194240250Y-78441719D01*
X194261074Y-78436503D01*
X194282309Y-78433353D01*
X194303750Y-78432300D01*
X194816250Y-78432300D01*
X194837691Y-78433353D01*
X194837691Y-78433353D01*
G37*
D12*
X194560000Y-78869800D03*
D11*
G36*
X194837691Y-80008353D02*
X194858926Y-80011503D01*
X194879750Y-80016719D01*
X194899962Y-80023951D01*
X194919368Y-80033130D01*
X194937781Y-80044166D01*
X194955024Y-80056954D01*
X194970930Y-80071370D01*
X194985346Y-80087276D01*
X194998134Y-80104519D01*
X195009170Y-80122932D01*
X195018349Y-80142338D01*
X195025581Y-80162550D01*
X195030797Y-80183374D01*
X195033947Y-80204609D01*
X195035000Y-80226050D01*
X195035000Y-80663550D01*
X195033947Y-80684991D01*
X195030797Y-80706226D01*
X195025581Y-80727050D01*
X195018349Y-80747262D01*
X195009170Y-80766668D01*
X194998134Y-80785081D01*
X194985346Y-80802324D01*
X194970930Y-80818230D01*
X194955024Y-80832646D01*
X194937781Y-80845434D01*
X194919368Y-80856470D01*
X194899962Y-80865649D01*
X194879750Y-80872881D01*
X194858926Y-80878097D01*
X194837691Y-80881247D01*
X194816250Y-80882300D01*
X194303750Y-80882300D01*
X194282309Y-80881247D01*
X194261074Y-80878097D01*
X194240250Y-80872881D01*
X194220038Y-80865649D01*
X194200632Y-80856470D01*
X194182219Y-80845434D01*
X194164976Y-80832646D01*
X194149070Y-80818230D01*
X194134654Y-80802324D01*
X194121866Y-80785081D01*
X194110830Y-80766668D01*
X194101651Y-80747262D01*
X194094419Y-80727050D01*
X194089203Y-80706226D01*
X194086053Y-80684991D01*
X194085000Y-80663550D01*
X194085000Y-80226050D01*
X194086053Y-80204609D01*
X194089203Y-80183374D01*
X194094419Y-80162550D01*
X194101651Y-80142338D01*
X194110830Y-80122932D01*
X194121866Y-80104519D01*
X194134654Y-80087276D01*
X194149070Y-80071370D01*
X194164976Y-80056954D01*
X194182219Y-80044166D01*
X194200632Y-80033130D01*
X194220038Y-80023951D01*
X194240250Y-80016719D01*
X194261074Y-80011503D01*
X194282309Y-80008353D01*
X194303750Y-80007300D01*
X194816250Y-80007300D01*
X194837691Y-80008353D01*
X194837691Y-80008353D01*
G37*
D12*
X194560000Y-80444800D03*
G04 #@! TD*
D11*
G04 #@! TO.C,R17*
G36*
X194824491Y-81989553D02*
X194845726Y-81992703D01*
X194866550Y-81997919D01*
X194886762Y-82005151D01*
X194906168Y-82014330D01*
X194924581Y-82025366D01*
X194941824Y-82038154D01*
X194957730Y-82052570D01*
X194972146Y-82068476D01*
X194984934Y-82085719D01*
X194995970Y-82104132D01*
X195005149Y-82123538D01*
X195012381Y-82143750D01*
X195017597Y-82164574D01*
X195020747Y-82185809D01*
X195021800Y-82207250D01*
X195021800Y-82644750D01*
X195020747Y-82666191D01*
X195017597Y-82687426D01*
X195012381Y-82708250D01*
X195005149Y-82728462D01*
X194995970Y-82747868D01*
X194984934Y-82766281D01*
X194972146Y-82783524D01*
X194957730Y-82799430D01*
X194941824Y-82813846D01*
X194924581Y-82826634D01*
X194906168Y-82837670D01*
X194886762Y-82846849D01*
X194866550Y-82854081D01*
X194845726Y-82859297D01*
X194824491Y-82862447D01*
X194803050Y-82863500D01*
X194290550Y-82863500D01*
X194269109Y-82862447D01*
X194247874Y-82859297D01*
X194227050Y-82854081D01*
X194206838Y-82846849D01*
X194187432Y-82837670D01*
X194169019Y-82826634D01*
X194151776Y-82813846D01*
X194135870Y-82799430D01*
X194121454Y-82783524D01*
X194108666Y-82766281D01*
X194097630Y-82747868D01*
X194088451Y-82728462D01*
X194081219Y-82708250D01*
X194076003Y-82687426D01*
X194072853Y-82666191D01*
X194071800Y-82644750D01*
X194071800Y-82207250D01*
X194072853Y-82185809D01*
X194076003Y-82164574D01*
X194081219Y-82143750D01*
X194088451Y-82123538D01*
X194097630Y-82104132D01*
X194108666Y-82085719D01*
X194121454Y-82068476D01*
X194135870Y-82052570D01*
X194151776Y-82038154D01*
X194169019Y-82025366D01*
X194187432Y-82014330D01*
X194206838Y-82005151D01*
X194227050Y-81997919D01*
X194247874Y-81992703D01*
X194269109Y-81989553D01*
X194290550Y-81988500D01*
X194803050Y-81988500D01*
X194824491Y-81989553D01*
X194824491Y-81989553D01*
G37*
D12*
X194546800Y-82426000D03*
D11*
G36*
X194824491Y-83564553D02*
X194845726Y-83567703D01*
X194866550Y-83572919D01*
X194886762Y-83580151D01*
X194906168Y-83589330D01*
X194924581Y-83600366D01*
X194941824Y-83613154D01*
X194957730Y-83627570D01*
X194972146Y-83643476D01*
X194984934Y-83660719D01*
X194995970Y-83679132D01*
X195005149Y-83698538D01*
X195012381Y-83718750D01*
X195017597Y-83739574D01*
X195020747Y-83760809D01*
X195021800Y-83782250D01*
X195021800Y-84219750D01*
X195020747Y-84241191D01*
X195017597Y-84262426D01*
X195012381Y-84283250D01*
X195005149Y-84303462D01*
X194995970Y-84322868D01*
X194984934Y-84341281D01*
X194972146Y-84358524D01*
X194957730Y-84374430D01*
X194941824Y-84388846D01*
X194924581Y-84401634D01*
X194906168Y-84412670D01*
X194886762Y-84421849D01*
X194866550Y-84429081D01*
X194845726Y-84434297D01*
X194824491Y-84437447D01*
X194803050Y-84438500D01*
X194290550Y-84438500D01*
X194269109Y-84437447D01*
X194247874Y-84434297D01*
X194227050Y-84429081D01*
X194206838Y-84421849D01*
X194187432Y-84412670D01*
X194169019Y-84401634D01*
X194151776Y-84388846D01*
X194135870Y-84374430D01*
X194121454Y-84358524D01*
X194108666Y-84341281D01*
X194097630Y-84322868D01*
X194088451Y-84303462D01*
X194081219Y-84283250D01*
X194076003Y-84262426D01*
X194072853Y-84241191D01*
X194071800Y-84219750D01*
X194071800Y-83782250D01*
X194072853Y-83760809D01*
X194076003Y-83739574D01*
X194081219Y-83718750D01*
X194088451Y-83698538D01*
X194097630Y-83679132D01*
X194108666Y-83660719D01*
X194121454Y-83643476D01*
X194135870Y-83627570D01*
X194151776Y-83613154D01*
X194169019Y-83600366D01*
X194187432Y-83589330D01*
X194206838Y-83580151D01*
X194227050Y-83572919D01*
X194247874Y-83567703D01*
X194269109Y-83564553D01*
X194290550Y-83563500D01*
X194803050Y-83563500D01*
X194824491Y-83564553D01*
X194824491Y-83564553D01*
G37*
D12*
X194546800Y-84001000D03*
G04 #@! TD*
D11*
G04 #@! TO.C,C2*
G36*
X187812091Y-102330253D02*
X187833326Y-102333403D01*
X187854150Y-102338619D01*
X187874362Y-102345851D01*
X187893768Y-102355030D01*
X187912181Y-102366066D01*
X187929424Y-102378854D01*
X187945330Y-102393270D01*
X187959746Y-102409176D01*
X187972534Y-102426419D01*
X187983570Y-102444832D01*
X187992749Y-102464238D01*
X187999981Y-102484450D01*
X188005197Y-102505274D01*
X188008347Y-102526509D01*
X188009400Y-102547950D01*
X188009400Y-103060450D01*
X188008347Y-103081891D01*
X188005197Y-103103126D01*
X187999981Y-103123950D01*
X187992749Y-103144162D01*
X187983570Y-103163568D01*
X187972534Y-103181981D01*
X187959746Y-103199224D01*
X187945330Y-103215130D01*
X187929424Y-103229546D01*
X187912181Y-103242334D01*
X187893768Y-103253370D01*
X187874362Y-103262549D01*
X187854150Y-103269781D01*
X187833326Y-103274997D01*
X187812091Y-103278147D01*
X187790650Y-103279200D01*
X187353150Y-103279200D01*
X187331709Y-103278147D01*
X187310474Y-103274997D01*
X187289650Y-103269781D01*
X187269438Y-103262549D01*
X187250032Y-103253370D01*
X187231619Y-103242334D01*
X187214376Y-103229546D01*
X187198470Y-103215130D01*
X187184054Y-103199224D01*
X187171266Y-103181981D01*
X187160230Y-103163568D01*
X187151051Y-103144162D01*
X187143819Y-103123950D01*
X187138603Y-103103126D01*
X187135453Y-103081891D01*
X187134400Y-103060450D01*
X187134400Y-102547950D01*
X187135453Y-102526509D01*
X187138603Y-102505274D01*
X187143819Y-102484450D01*
X187151051Y-102464238D01*
X187160230Y-102444832D01*
X187171266Y-102426419D01*
X187184054Y-102409176D01*
X187198470Y-102393270D01*
X187214376Y-102378854D01*
X187231619Y-102366066D01*
X187250032Y-102355030D01*
X187269438Y-102345851D01*
X187289650Y-102338619D01*
X187310474Y-102333403D01*
X187331709Y-102330253D01*
X187353150Y-102329200D01*
X187790650Y-102329200D01*
X187812091Y-102330253D01*
X187812091Y-102330253D01*
G37*
D12*
X187571900Y-102804200D03*
D11*
G36*
X189387091Y-102330253D02*
X189408326Y-102333403D01*
X189429150Y-102338619D01*
X189449362Y-102345851D01*
X189468768Y-102355030D01*
X189487181Y-102366066D01*
X189504424Y-102378854D01*
X189520330Y-102393270D01*
X189534746Y-102409176D01*
X189547534Y-102426419D01*
X189558570Y-102444832D01*
X189567749Y-102464238D01*
X189574981Y-102484450D01*
X189580197Y-102505274D01*
X189583347Y-102526509D01*
X189584400Y-102547950D01*
X189584400Y-103060450D01*
X189583347Y-103081891D01*
X189580197Y-103103126D01*
X189574981Y-103123950D01*
X189567749Y-103144162D01*
X189558570Y-103163568D01*
X189547534Y-103181981D01*
X189534746Y-103199224D01*
X189520330Y-103215130D01*
X189504424Y-103229546D01*
X189487181Y-103242334D01*
X189468768Y-103253370D01*
X189449362Y-103262549D01*
X189429150Y-103269781D01*
X189408326Y-103274997D01*
X189387091Y-103278147D01*
X189365650Y-103279200D01*
X188928150Y-103279200D01*
X188906709Y-103278147D01*
X188885474Y-103274997D01*
X188864650Y-103269781D01*
X188844438Y-103262549D01*
X188825032Y-103253370D01*
X188806619Y-103242334D01*
X188789376Y-103229546D01*
X188773470Y-103215130D01*
X188759054Y-103199224D01*
X188746266Y-103181981D01*
X188735230Y-103163568D01*
X188726051Y-103144162D01*
X188718819Y-103123950D01*
X188713603Y-103103126D01*
X188710453Y-103081891D01*
X188709400Y-103060450D01*
X188709400Y-102547950D01*
X188710453Y-102526509D01*
X188713603Y-102505274D01*
X188718819Y-102484450D01*
X188726051Y-102464238D01*
X188735230Y-102444832D01*
X188746266Y-102426419D01*
X188759054Y-102409176D01*
X188773470Y-102393270D01*
X188789376Y-102378854D01*
X188806619Y-102366066D01*
X188825032Y-102355030D01*
X188844438Y-102345851D01*
X188864650Y-102338619D01*
X188885474Y-102333403D01*
X188906709Y-102330253D01*
X188928150Y-102329200D01*
X189365650Y-102329200D01*
X189387091Y-102330253D01*
X189387091Y-102330253D01*
G37*
D12*
X189146900Y-102804200D03*
G04 #@! TD*
D11*
G04 #@! TO.C,C3*
G36*
X201413291Y-108997153D02*
X201434526Y-109000303D01*
X201455350Y-109005519D01*
X201475562Y-109012751D01*
X201494968Y-109021930D01*
X201513381Y-109032966D01*
X201530624Y-109045754D01*
X201546530Y-109060170D01*
X201560946Y-109076076D01*
X201573734Y-109093319D01*
X201584770Y-109111732D01*
X201593949Y-109131138D01*
X201601181Y-109151350D01*
X201606397Y-109172174D01*
X201609547Y-109193409D01*
X201610600Y-109214850D01*
X201610600Y-109652350D01*
X201609547Y-109673791D01*
X201606397Y-109695026D01*
X201601181Y-109715850D01*
X201593949Y-109736062D01*
X201584770Y-109755468D01*
X201573734Y-109773881D01*
X201560946Y-109791124D01*
X201546530Y-109807030D01*
X201530624Y-109821446D01*
X201513381Y-109834234D01*
X201494968Y-109845270D01*
X201475562Y-109854449D01*
X201455350Y-109861681D01*
X201434526Y-109866897D01*
X201413291Y-109870047D01*
X201391850Y-109871100D01*
X200879350Y-109871100D01*
X200857909Y-109870047D01*
X200836674Y-109866897D01*
X200815850Y-109861681D01*
X200795638Y-109854449D01*
X200776232Y-109845270D01*
X200757819Y-109834234D01*
X200740576Y-109821446D01*
X200724670Y-109807030D01*
X200710254Y-109791124D01*
X200697466Y-109773881D01*
X200686430Y-109755468D01*
X200677251Y-109736062D01*
X200670019Y-109715850D01*
X200664803Y-109695026D01*
X200661653Y-109673791D01*
X200660600Y-109652350D01*
X200660600Y-109214850D01*
X200661653Y-109193409D01*
X200664803Y-109172174D01*
X200670019Y-109151350D01*
X200677251Y-109131138D01*
X200686430Y-109111732D01*
X200697466Y-109093319D01*
X200710254Y-109076076D01*
X200724670Y-109060170D01*
X200740576Y-109045754D01*
X200757819Y-109032966D01*
X200776232Y-109021930D01*
X200795638Y-109012751D01*
X200815850Y-109005519D01*
X200836674Y-109000303D01*
X200857909Y-108997153D01*
X200879350Y-108996100D01*
X201391850Y-108996100D01*
X201413291Y-108997153D01*
X201413291Y-108997153D01*
G37*
D12*
X201135600Y-109433600D03*
D11*
G36*
X201413291Y-107422153D02*
X201434526Y-107425303D01*
X201455350Y-107430519D01*
X201475562Y-107437751D01*
X201494968Y-107446930D01*
X201513381Y-107457966D01*
X201530624Y-107470754D01*
X201546530Y-107485170D01*
X201560946Y-107501076D01*
X201573734Y-107518319D01*
X201584770Y-107536732D01*
X201593949Y-107556138D01*
X201601181Y-107576350D01*
X201606397Y-107597174D01*
X201609547Y-107618409D01*
X201610600Y-107639850D01*
X201610600Y-108077350D01*
X201609547Y-108098791D01*
X201606397Y-108120026D01*
X201601181Y-108140850D01*
X201593949Y-108161062D01*
X201584770Y-108180468D01*
X201573734Y-108198881D01*
X201560946Y-108216124D01*
X201546530Y-108232030D01*
X201530624Y-108246446D01*
X201513381Y-108259234D01*
X201494968Y-108270270D01*
X201475562Y-108279449D01*
X201455350Y-108286681D01*
X201434526Y-108291897D01*
X201413291Y-108295047D01*
X201391850Y-108296100D01*
X200879350Y-108296100D01*
X200857909Y-108295047D01*
X200836674Y-108291897D01*
X200815850Y-108286681D01*
X200795638Y-108279449D01*
X200776232Y-108270270D01*
X200757819Y-108259234D01*
X200740576Y-108246446D01*
X200724670Y-108232030D01*
X200710254Y-108216124D01*
X200697466Y-108198881D01*
X200686430Y-108180468D01*
X200677251Y-108161062D01*
X200670019Y-108140850D01*
X200664803Y-108120026D01*
X200661653Y-108098791D01*
X200660600Y-108077350D01*
X200660600Y-107639850D01*
X200661653Y-107618409D01*
X200664803Y-107597174D01*
X200670019Y-107576350D01*
X200677251Y-107556138D01*
X200686430Y-107536732D01*
X200697466Y-107518319D01*
X200710254Y-107501076D01*
X200724670Y-107485170D01*
X200740576Y-107470754D01*
X200757819Y-107457966D01*
X200776232Y-107446930D01*
X200795638Y-107437751D01*
X200815850Y-107430519D01*
X200836674Y-107425303D01*
X200857909Y-107422153D01*
X200879350Y-107421100D01*
X201391850Y-107421100D01*
X201413291Y-107422153D01*
X201413291Y-107422153D01*
G37*
D12*
X201135600Y-107858600D03*
G04 #@! TD*
D11*
G04 #@! TO.C,C4*
G36*
X199787691Y-92334553D02*
X199808926Y-92337703D01*
X199829750Y-92342919D01*
X199849962Y-92350151D01*
X199869368Y-92359330D01*
X199887781Y-92370366D01*
X199905024Y-92383154D01*
X199920930Y-92397570D01*
X199935346Y-92413476D01*
X199948134Y-92430719D01*
X199959170Y-92449132D01*
X199968349Y-92468538D01*
X199975581Y-92488750D01*
X199980797Y-92509574D01*
X199983947Y-92530809D01*
X199985000Y-92552250D01*
X199985000Y-92989750D01*
X199983947Y-93011191D01*
X199980797Y-93032426D01*
X199975581Y-93053250D01*
X199968349Y-93073462D01*
X199959170Y-93092868D01*
X199948134Y-93111281D01*
X199935346Y-93128524D01*
X199920930Y-93144430D01*
X199905024Y-93158846D01*
X199887781Y-93171634D01*
X199869368Y-93182670D01*
X199849962Y-93191849D01*
X199829750Y-93199081D01*
X199808926Y-93204297D01*
X199787691Y-93207447D01*
X199766250Y-93208500D01*
X199253750Y-93208500D01*
X199232309Y-93207447D01*
X199211074Y-93204297D01*
X199190250Y-93199081D01*
X199170038Y-93191849D01*
X199150632Y-93182670D01*
X199132219Y-93171634D01*
X199114976Y-93158846D01*
X199099070Y-93144430D01*
X199084654Y-93128524D01*
X199071866Y-93111281D01*
X199060830Y-93092868D01*
X199051651Y-93073462D01*
X199044419Y-93053250D01*
X199039203Y-93032426D01*
X199036053Y-93011191D01*
X199035000Y-92989750D01*
X199035000Y-92552250D01*
X199036053Y-92530809D01*
X199039203Y-92509574D01*
X199044419Y-92488750D01*
X199051651Y-92468538D01*
X199060830Y-92449132D01*
X199071866Y-92430719D01*
X199084654Y-92413476D01*
X199099070Y-92397570D01*
X199114976Y-92383154D01*
X199132219Y-92370366D01*
X199150632Y-92359330D01*
X199170038Y-92350151D01*
X199190250Y-92342919D01*
X199211074Y-92337703D01*
X199232309Y-92334553D01*
X199253750Y-92333500D01*
X199766250Y-92333500D01*
X199787691Y-92334553D01*
X199787691Y-92334553D01*
G37*
D12*
X199510000Y-92771000D03*
D11*
G36*
X199787691Y-93909553D02*
X199808926Y-93912703D01*
X199829750Y-93917919D01*
X199849962Y-93925151D01*
X199869368Y-93934330D01*
X199887781Y-93945366D01*
X199905024Y-93958154D01*
X199920930Y-93972570D01*
X199935346Y-93988476D01*
X199948134Y-94005719D01*
X199959170Y-94024132D01*
X199968349Y-94043538D01*
X199975581Y-94063750D01*
X199980797Y-94084574D01*
X199983947Y-94105809D01*
X199985000Y-94127250D01*
X199985000Y-94564750D01*
X199983947Y-94586191D01*
X199980797Y-94607426D01*
X199975581Y-94628250D01*
X199968349Y-94648462D01*
X199959170Y-94667868D01*
X199948134Y-94686281D01*
X199935346Y-94703524D01*
X199920930Y-94719430D01*
X199905024Y-94733846D01*
X199887781Y-94746634D01*
X199869368Y-94757670D01*
X199849962Y-94766849D01*
X199829750Y-94774081D01*
X199808926Y-94779297D01*
X199787691Y-94782447D01*
X199766250Y-94783500D01*
X199253750Y-94783500D01*
X199232309Y-94782447D01*
X199211074Y-94779297D01*
X199190250Y-94774081D01*
X199170038Y-94766849D01*
X199150632Y-94757670D01*
X199132219Y-94746634D01*
X199114976Y-94733846D01*
X199099070Y-94719430D01*
X199084654Y-94703524D01*
X199071866Y-94686281D01*
X199060830Y-94667868D01*
X199051651Y-94648462D01*
X199044419Y-94628250D01*
X199039203Y-94607426D01*
X199036053Y-94586191D01*
X199035000Y-94564750D01*
X199035000Y-94127250D01*
X199036053Y-94105809D01*
X199039203Y-94084574D01*
X199044419Y-94063750D01*
X199051651Y-94043538D01*
X199060830Y-94024132D01*
X199071866Y-94005719D01*
X199084654Y-93988476D01*
X199099070Y-93972570D01*
X199114976Y-93958154D01*
X199132219Y-93945366D01*
X199150632Y-93934330D01*
X199170038Y-93925151D01*
X199190250Y-93917919D01*
X199211074Y-93912703D01*
X199232309Y-93909553D01*
X199253750Y-93908500D01*
X199766250Y-93908500D01*
X199787691Y-93909553D01*
X199787691Y-93909553D01*
G37*
D12*
X199510000Y-94346000D03*
G04 #@! TD*
D11*
G04 #@! TO.C,C5*
G36*
X221940191Y-62276053D02*
X221961426Y-62279203D01*
X221982250Y-62284419D01*
X222002462Y-62291651D01*
X222021868Y-62300830D01*
X222040281Y-62311866D01*
X222057524Y-62324654D01*
X222073430Y-62339070D01*
X222087846Y-62354976D01*
X222100634Y-62372219D01*
X222111670Y-62390632D01*
X222120849Y-62410038D01*
X222128081Y-62430250D01*
X222133297Y-62451074D01*
X222136447Y-62472309D01*
X222137500Y-62493750D01*
X222137500Y-63006250D01*
X222136447Y-63027691D01*
X222133297Y-63048926D01*
X222128081Y-63069750D01*
X222120849Y-63089962D01*
X222111670Y-63109368D01*
X222100634Y-63127781D01*
X222087846Y-63145024D01*
X222073430Y-63160930D01*
X222057524Y-63175346D01*
X222040281Y-63188134D01*
X222021868Y-63199170D01*
X222002462Y-63208349D01*
X221982250Y-63215581D01*
X221961426Y-63220797D01*
X221940191Y-63223947D01*
X221918750Y-63225000D01*
X221481250Y-63225000D01*
X221459809Y-63223947D01*
X221438574Y-63220797D01*
X221417750Y-63215581D01*
X221397538Y-63208349D01*
X221378132Y-63199170D01*
X221359719Y-63188134D01*
X221342476Y-63175346D01*
X221326570Y-63160930D01*
X221312154Y-63145024D01*
X221299366Y-63127781D01*
X221288330Y-63109368D01*
X221279151Y-63089962D01*
X221271919Y-63069750D01*
X221266703Y-63048926D01*
X221263553Y-63027691D01*
X221262500Y-63006250D01*
X221262500Y-62493750D01*
X221263553Y-62472309D01*
X221266703Y-62451074D01*
X221271919Y-62430250D01*
X221279151Y-62410038D01*
X221288330Y-62390632D01*
X221299366Y-62372219D01*
X221312154Y-62354976D01*
X221326570Y-62339070D01*
X221342476Y-62324654D01*
X221359719Y-62311866D01*
X221378132Y-62300830D01*
X221397538Y-62291651D01*
X221417750Y-62284419D01*
X221438574Y-62279203D01*
X221459809Y-62276053D01*
X221481250Y-62275000D01*
X221918750Y-62275000D01*
X221940191Y-62276053D01*
X221940191Y-62276053D01*
G37*
D12*
X221700000Y-62750000D03*
D11*
G36*
X220365191Y-62276053D02*
X220386426Y-62279203D01*
X220407250Y-62284419D01*
X220427462Y-62291651D01*
X220446868Y-62300830D01*
X220465281Y-62311866D01*
X220482524Y-62324654D01*
X220498430Y-62339070D01*
X220512846Y-62354976D01*
X220525634Y-62372219D01*
X220536670Y-62390632D01*
X220545849Y-62410038D01*
X220553081Y-62430250D01*
X220558297Y-62451074D01*
X220561447Y-62472309D01*
X220562500Y-62493750D01*
X220562500Y-63006250D01*
X220561447Y-63027691D01*
X220558297Y-63048926D01*
X220553081Y-63069750D01*
X220545849Y-63089962D01*
X220536670Y-63109368D01*
X220525634Y-63127781D01*
X220512846Y-63145024D01*
X220498430Y-63160930D01*
X220482524Y-63175346D01*
X220465281Y-63188134D01*
X220446868Y-63199170D01*
X220427462Y-63208349D01*
X220407250Y-63215581D01*
X220386426Y-63220797D01*
X220365191Y-63223947D01*
X220343750Y-63225000D01*
X219906250Y-63225000D01*
X219884809Y-63223947D01*
X219863574Y-63220797D01*
X219842750Y-63215581D01*
X219822538Y-63208349D01*
X219803132Y-63199170D01*
X219784719Y-63188134D01*
X219767476Y-63175346D01*
X219751570Y-63160930D01*
X219737154Y-63145024D01*
X219724366Y-63127781D01*
X219713330Y-63109368D01*
X219704151Y-63089962D01*
X219696919Y-63069750D01*
X219691703Y-63048926D01*
X219688553Y-63027691D01*
X219687500Y-63006250D01*
X219687500Y-62493750D01*
X219688553Y-62472309D01*
X219691703Y-62451074D01*
X219696919Y-62430250D01*
X219704151Y-62410038D01*
X219713330Y-62390632D01*
X219724366Y-62372219D01*
X219737154Y-62354976D01*
X219751570Y-62339070D01*
X219767476Y-62324654D01*
X219784719Y-62311866D01*
X219803132Y-62300830D01*
X219822538Y-62291651D01*
X219842750Y-62284419D01*
X219863574Y-62279203D01*
X219884809Y-62276053D01*
X219906250Y-62275000D01*
X220343750Y-62275000D01*
X220365191Y-62276053D01*
X220365191Y-62276053D01*
G37*
D12*
X220125000Y-62750000D03*
G04 #@! TD*
D11*
G04 #@! TO.C,C6*
G36*
X225602691Y-62276053D02*
X225623926Y-62279203D01*
X225644750Y-62284419D01*
X225664962Y-62291651D01*
X225684368Y-62300830D01*
X225702781Y-62311866D01*
X225720024Y-62324654D01*
X225735930Y-62339070D01*
X225750346Y-62354976D01*
X225763134Y-62372219D01*
X225774170Y-62390632D01*
X225783349Y-62410038D01*
X225790581Y-62430250D01*
X225795797Y-62451074D01*
X225798947Y-62472309D01*
X225800000Y-62493750D01*
X225800000Y-63006250D01*
X225798947Y-63027691D01*
X225795797Y-63048926D01*
X225790581Y-63069750D01*
X225783349Y-63089962D01*
X225774170Y-63109368D01*
X225763134Y-63127781D01*
X225750346Y-63145024D01*
X225735930Y-63160930D01*
X225720024Y-63175346D01*
X225702781Y-63188134D01*
X225684368Y-63199170D01*
X225664962Y-63208349D01*
X225644750Y-63215581D01*
X225623926Y-63220797D01*
X225602691Y-63223947D01*
X225581250Y-63225000D01*
X225143750Y-63225000D01*
X225122309Y-63223947D01*
X225101074Y-63220797D01*
X225080250Y-63215581D01*
X225060038Y-63208349D01*
X225040632Y-63199170D01*
X225022219Y-63188134D01*
X225004976Y-63175346D01*
X224989070Y-63160930D01*
X224974654Y-63145024D01*
X224961866Y-63127781D01*
X224950830Y-63109368D01*
X224941651Y-63089962D01*
X224934419Y-63069750D01*
X224929203Y-63048926D01*
X224926053Y-63027691D01*
X224925000Y-63006250D01*
X224925000Y-62493750D01*
X224926053Y-62472309D01*
X224929203Y-62451074D01*
X224934419Y-62430250D01*
X224941651Y-62410038D01*
X224950830Y-62390632D01*
X224961866Y-62372219D01*
X224974654Y-62354976D01*
X224989070Y-62339070D01*
X225004976Y-62324654D01*
X225022219Y-62311866D01*
X225040632Y-62300830D01*
X225060038Y-62291651D01*
X225080250Y-62284419D01*
X225101074Y-62279203D01*
X225122309Y-62276053D01*
X225143750Y-62275000D01*
X225581250Y-62275000D01*
X225602691Y-62276053D01*
X225602691Y-62276053D01*
G37*
D12*
X225362500Y-62750000D03*
D11*
G36*
X227177691Y-62276053D02*
X227198926Y-62279203D01*
X227219750Y-62284419D01*
X227239962Y-62291651D01*
X227259368Y-62300830D01*
X227277781Y-62311866D01*
X227295024Y-62324654D01*
X227310930Y-62339070D01*
X227325346Y-62354976D01*
X227338134Y-62372219D01*
X227349170Y-62390632D01*
X227358349Y-62410038D01*
X227365581Y-62430250D01*
X227370797Y-62451074D01*
X227373947Y-62472309D01*
X227375000Y-62493750D01*
X227375000Y-63006250D01*
X227373947Y-63027691D01*
X227370797Y-63048926D01*
X227365581Y-63069750D01*
X227358349Y-63089962D01*
X227349170Y-63109368D01*
X227338134Y-63127781D01*
X227325346Y-63145024D01*
X227310930Y-63160930D01*
X227295024Y-63175346D01*
X227277781Y-63188134D01*
X227259368Y-63199170D01*
X227239962Y-63208349D01*
X227219750Y-63215581D01*
X227198926Y-63220797D01*
X227177691Y-63223947D01*
X227156250Y-63225000D01*
X226718750Y-63225000D01*
X226697309Y-63223947D01*
X226676074Y-63220797D01*
X226655250Y-63215581D01*
X226635038Y-63208349D01*
X226615632Y-63199170D01*
X226597219Y-63188134D01*
X226579976Y-63175346D01*
X226564070Y-63160930D01*
X226549654Y-63145024D01*
X226536866Y-63127781D01*
X226525830Y-63109368D01*
X226516651Y-63089962D01*
X226509419Y-63069750D01*
X226504203Y-63048926D01*
X226501053Y-63027691D01*
X226500000Y-63006250D01*
X226500000Y-62493750D01*
X226501053Y-62472309D01*
X226504203Y-62451074D01*
X226509419Y-62430250D01*
X226516651Y-62410038D01*
X226525830Y-62390632D01*
X226536866Y-62372219D01*
X226549654Y-62354976D01*
X226564070Y-62339070D01*
X226579976Y-62324654D01*
X226597219Y-62311866D01*
X226615632Y-62300830D01*
X226635038Y-62291651D01*
X226655250Y-62284419D01*
X226676074Y-62279203D01*
X226697309Y-62276053D01*
X226718750Y-62275000D01*
X227156250Y-62275000D01*
X227177691Y-62276053D01*
X227177691Y-62276053D01*
G37*
D12*
X226937500Y-62750000D03*
G04 #@! TD*
D11*
G04 #@! TO.C,C7*
G36*
X194694991Y-65944153D02*
X194716226Y-65947303D01*
X194737050Y-65952519D01*
X194757262Y-65959751D01*
X194776668Y-65968930D01*
X194795081Y-65979966D01*
X194812324Y-65992754D01*
X194828230Y-66007170D01*
X194842646Y-66023076D01*
X194855434Y-66040319D01*
X194866470Y-66058732D01*
X194875649Y-66078138D01*
X194882881Y-66098350D01*
X194888097Y-66119174D01*
X194891247Y-66140409D01*
X194892300Y-66161850D01*
X194892300Y-66599350D01*
X194891247Y-66620791D01*
X194888097Y-66642026D01*
X194882881Y-66662850D01*
X194875649Y-66683062D01*
X194866470Y-66702468D01*
X194855434Y-66720881D01*
X194842646Y-66738124D01*
X194828230Y-66754030D01*
X194812324Y-66768446D01*
X194795081Y-66781234D01*
X194776668Y-66792270D01*
X194757262Y-66801449D01*
X194737050Y-66808681D01*
X194716226Y-66813897D01*
X194694991Y-66817047D01*
X194673550Y-66818100D01*
X194161050Y-66818100D01*
X194139609Y-66817047D01*
X194118374Y-66813897D01*
X194097550Y-66808681D01*
X194077338Y-66801449D01*
X194057932Y-66792270D01*
X194039519Y-66781234D01*
X194022276Y-66768446D01*
X194006370Y-66754030D01*
X193991954Y-66738124D01*
X193979166Y-66720881D01*
X193968130Y-66702468D01*
X193958951Y-66683062D01*
X193951719Y-66662850D01*
X193946503Y-66642026D01*
X193943353Y-66620791D01*
X193942300Y-66599350D01*
X193942300Y-66161850D01*
X193943353Y-66140409D01*
X193946503Y-66119174D01*
X193951719Y-66098350D01*
X193958951Y-66078138D01*
X193968130Y-66058732D01*
X193979166Y-66040319D01*
X193991954Y-66023076D01*
X194006370Y-66007170D01*
X194022276Y-65992754D01*
X194039519Y-65979966D01*
X194057932Y-65968930D01*
X194077338Y-65959751D01*
X194097550Y-65952519D01*
X194118374Y-65947303D01*
X194139609Y-65944153D01*
X194161050Y-65943100D01*
X194673550Y-65943100D01*
X194694991Y-65944153D01*
X194694991Y-65944153D01*
G37*
D12*
X194417300Y-66380600D03*
D11*
G36*
X194694991Y-64369153D02*
X194716226Y-64372303D01*
X194737050Y-64377519D01*
X194757262Y-64384751D01*
X194776668Y-64393930D01*
X194795081Y-64404966D01*
X194812324Y-64417754D01*
X194828230Y-64432170D01*
X194842646Y-64448076D01*
X194855434Y-64465319D01*
X194866470Y-64483732D01*
X194875649Y-64503138D01*
X194882881Y-64523350D01*
X194888097Y-64544174D01*
X194891247Y-64565409D01*
X194892300Y-64586850D01*
X194892300Y-65024350D01*
X194891247Y-65045791D01*
X194888097Y-65067026D01*
X194882881Y-65087850D01*
X194875649Y-65108062D01*
X194866470Y-65127468D01*
X194855434Y-65145881D01*
X194842646Y-65163124D01*
X194828230Y-65179030D01*
X194812324Y-65193446D01*
X194795081Y-65206234D01*
X194776668Y-65217270D01*
X194757262Y-65226449D01*
X194737050Y-65233681D01*
X194716226Y-65238897D01*
X194694991Y-65242047D01*
X194673550Y-65243100D01*
X194161050Y-65243100D01*
X194139609Y-65242047D01*
X194118374Y-65238897D01*
X194097550Y-65233681D01*
X194077338Y-65226449D01*
X194057932Y-65217270D01*
X194039519Y-65206234D01*
X194022276Y-65193446D01*
X194006370Y-65179030D01*
X193991954Y-65163124D01*
X193979166Y-65145881D01*
X193968130Y-65127468D01*
X193958951Y-65108062D01*
X193951719Y-65087850D01*
X193946503Y-65067026D01*
X193943353Y-65045791D01*
X193942300Y-65024350D01*
X193942300Y-64586850D01*
X193943353Y-64565409D01*
X193946503Y-64544174D01*
X193951719Y-64523350D01*
X193958951Y-64503138D01*
X193968130Y-64483732D01*
X193979166Y-64465319D01*
X193991954Y-64448076D01*
X194006370Y-64432170D01*
X194022276Y-64417754D01*
X194039519Y-64404966D01*
X194057932Y-64393930D01*
X194077338Y-64384751D01*
X194097550Y-64377519D01*
X194118374Y-64372303D01*
X194139609Y-64369153D01*
X194161050Y-64368100D01*
X194673550Y-64368100D01*
X194694991Y-64369153D01*
X194694991Y-64369153D01*
G37*
D12*
X194417300Y-64805600D03*
G04 #@! TD*
D11*
G04 #@! TO.C,C8*
G36*
X211601991Y-81393253D02*
X211623226Y-81396403D01*
X211644050Y-81401619D01*
X211664262Y-81408851D01*
X211683668Y-81418030D01*
X211702081Y-81429066D01*
X211719324Y-81441854D01*
X211735230Y-81456270D01*
X211749646Y-81472176D01*
X211762434Y-81489419D01*
X211773470Y-81507832D01*
X211782649Y-81527238D01*
X211789881Y-81547450D01*
X211795097Y-81568274D01*
X211798247Y-81589509D01*
X211799300Y-81610950D01*
X211799300Y-82123450D01*
X211798247Y-82144891D01*
X211795097Y-82166126D01*
X211789881Y-82186950D01*
X211782649Y-82207162D01*
X211773470Y-82226568D01*
X211762434Y-82244981D01*
X211749646Y-82262224D01*
X211735230Y-82278130D01*
X211719324Y-82292546D01*
X211702081Y-82305334D01*
X211683668Y-82316370D01*
X211664262Y-82325549D01*
X211644050Y-82332781D01*
X211623226Y-82337997D01*
X211601991Y-82341147D01*
X211580550Y-82342200D01*
X211143050Y-82342200D01*
X211121609Y-82341147D01*
X211100374Y-82337997D01*
X211079550Y-82332781D01*
X211059338Y-82325549D01*
X211039932Y-82316370D01*
X211021519Y-82305334D01*
X211004276Y-82292546D01*
X210988370Y-82278130D01*
X210973954Y-82262224D01*
X210961166Y-82244981D01*
X210950130Y-82226568D01*
X210940951Y-82207162D01*
X210933719Y-82186950D01*
X210928503Y-82166126D01*
X210925353Y-82144891D01*
X210924300Y-82123450D01*
X210924300Y-81610950D01*
X210925353Y-81589509D01*
X210928503Y-81568274D01*
X210933719Y-81547450D01*
X210940951Y-81527238D01*
X210950130Y-81507832D01*
X210961166Y-81489419D01*
X210973954Y-81472176D01*
X210988370Y-81456270D01*
X211004276Y-81441854D01*
X211021519Y-81429066D01*
X211039932Y-81418030D01*
X211059338Y-81408851D01*
X211079550Y-81401619D01*
X211100374Y-81396403D01*
X211121609Y-81393253D01*
X211143050Y-81392200D01*
X211580550Y-81392200D01*
X211601991Y-81393253D01*
X211601991Y-81393253D01*
G37*
D12*
X211361800Y-81867200D03*
D11*
G36*
X210026991Y-81393253D02*
X210048226Y-81396403D01*
X210069050Y-81401619D01*
X210089262Y-81408851D01*
X210108668Y-81418030D01*
X210127081Y-81429066D01*
X210144324Y-81441854D01*
X210160230Y-81456270D01*
X210174646Y-81472176D01*
X210187434Y-81489419D01*
X210198470Y-81507832D01*
X210207649Y-81527238D01*
X210214881Y-81547450D01*
X210220097Y-81568274D01*
X210223247Y-81589509D01*
X210224300Y-81610950D01*
X210224300Y-82123450D01*
X210223247Y-82144891D01*
X210220097Y-82166126D01*
X210214881Y-82186950D01*
X210207649Y-82207162D01*
X210198470Y-82226568D01*
X210187434Y-82244981D01*
X210174646Y-82262224D01*
X210160230Y-82278130D01*
X210144324Y-82292546D01*
X210127081Y-82305334D01*
X210108668Y-82316370D01*
X210089262Y-82325549D01*
X210069050Y-82332781D01*
X210048226Y-82337997D01*
X210026991Y-82341147D01*
X210005550Y-82342200D01*
X209568050Y-82342200D01*
X209546609Y-82341147D01*
X209525374Y-82337997D01*
X209504550Y-82332781D01*
X209484338Y-82325549D01*
X209464932Y-82316370D01*
X209446519Y-82305334D01*
X209429276Y-82292546D01*
X209413370Y-82278130D01*
X209398954Y-82262224D01*
X209386166Y-82244981D01*
X209375130Y-82226568D01*
X209365951Y-82207162D01*
X209358719Y-82186950D01*
X209353503Y-82166126D01*
X209350353Y-82144891D01*
X209349300Y-82123450D01*
X209349300Y-81610950D01*
X209350353Y-81589509D01*
X209353503Y-81568274D01*
X209358719Y-81547450D01*
X209365951Y-81527238D01*
X209375130Y-81507832D01*
X209386166Y-81489419D01*
X209398954Y-81472176D01*
X209413370Y-81456270D01*
X209429276Y-81441854D01*
X209446519Y-81429066D01*
X209464932Y-81418030D01*
X209484338Y-81408851D01*
X209504550Y-81401619D01*
X209525374Y-81396403D01*
X209546609Y-81393253D01*
X209568050Y-81392200D01*
X210005550Y-81392200D01*
X210026991Y-81393253D01*
X210026991Y-81393253D01*
G37*
D12*
X209786800Y-81867200D03*
G04 #@! TD*
D11*
G04 #@! TO.C,C9*
G36*
X201695791Y-76719653D02*
X201717026Y-76722803D01*
X201737850Y-76728019D01*
X201758062Y-76735251D01*
X201777468Y-76744430D01*
X201795881Y-76755466D01*
X201813124Y-76768254D01*
X201829030Y-76782670D01*
X201843446Y-76798576D01*
X201856234Y-76815819D01*
X201867270Y-76834232D01*
X201876449Y-76853638D01*
X201883681Y-76873850D01*
X201888897Y-76894674D01*
X201892047Y-76915909D01*
X201893100Y-76937350D01*
X201893100Y-77449850D01*
X201892047Y-77471291D01*
X201888897Y-77492526D01*
X201883681Y-77513350D01*
X201876449Y-77533562D01*
X201867270Y-77552968D01*
X201856234Y-77571381D01*
X201843446Y-77588624D01*
X201829030Y-77604530D01*
X201813124Y-77618946D01*
X201795881Y-77631734D01*
X201777468Y-77642770D01*
X201758062Y-77651949D01*
X201737850Y-77659181D01*
X201717026Y-77664397D01*
X201695791Y-77667547D01*
X201674350Y-77668600D01*
X201236850Y-77668600D01*
X201215409Y-77667547D01*
X201194174Y-77664397D01*
X201173350Y-77659181D01*
X201153138Y-77651949D01*
X201133732Y-77642770D01*
X201115319Y-77631734D01*
X201098076Y-77618946D01*
X201082170Y-77604530D01*
X201067754Y-77588624D01*
X201054966Y-77571381D01*
X201043930Y-77552968D01*
X201034751Y-77533562D01*
X201027519Y-77513350D01*
X201022303Y-77492526D01*
X201019153Y-77471291D01*
X201018100Y-77449850D01*
X201018100Y-76937350D01*
X201019153Y-76915909D01*
X201022303Y-76894674D01*
X201027519Y-76873850D01*
X201034751Y-76853638D01*
X201043930Y-76834232D01*
X201054966Y-76815819D01*
X201067754Y-76798576D01*
X201082170Y-76782670D01*
X201098076Y-76768254D01*
X201115319Y-76755466D01*
X201133732Y-76744430D01*
X201153138Y-76735251D01*
X201173350Y-76728019D01*
X201194174Y-76722803D01*
X201215409Y-76719653D01*
X201236850Y-76718600D01*
X201674350Y-76718600D01*
X201695791Y-76719653D01*
X201695791Y-76719653D01*
G37*
D12*
X201455600Y-77193600D03*
D11*
G36*
X203270791Y-76719653D02*
X203292026Y-76722803D01*
X203312850Y-76728019D01*
X203333062Y-76735251D01*
X203352468Y-76744430D01*
X203370881Y-76755466D01*
X203388124Y-76768254D01*
X203404030Y-76782670D01*
X203418446Y-76798576D01*
X203431234Y-76815819D01*
X203442270Y-76834232D01*
X203451449Y-76853638D01*
X203458681Y-76873850D01*
X203463897Y-76894674D01*
X203467047Y-76915909D01*
X203468100Y-76937350D01*
X203468100Y-77449850D01*
X203467047Y-77471291D01*
X203463897Y-77492526D01*
X203458681Y-77513350D01*
X203451449Y-77533562D01*
X203442270Y-77552968D01*
X203431234Y-77571381D01*
X203418446Y-77588624D01*
X203404030Y-77604530D01*
X203388124Y-77618946D01*
X203370881Y-77631734D01*
X203352468Y-77642770D01*
X203333062Y-77651949D01*
X203312850Y-77659181D01*
X203292026Y-77664397D01*
X203270791Y-77667547D01*
X203249350Y-77668600D01*
X202811850Y-77668600D01*
X202790409Y-77667547D01*
X202769174Y-77664397D01*
X202748350Y-77659181D01*
X202728138Y-77651949D01*
X202708732Y-77642770D01*
X202690319Y-77631734D01*
X202673076Y-77618946D01*
X202657170Y-77604530D01*
X202642754Y-77588624D01*
X202629966Y-77571381D01*
X202618930Y-77552968D01*
X202609751Y-77533562D01*
X202602519Y-77513350D01*
X202597303Y-77492526D01*
X202594153Y-77471291D01*
X202593100Y-77449850D01*
X202593100Y-76937350D01*
X202594153Y-76915909D01*
X202597303Y-76894674D01*
X202602519Y-76873850D01*
X202609751Y-76853638D01*
X202618930Y-76834232D01*
X202629966Y-76815819D01*
X202642754Y-76798576D01*
X202657170Y-76782670D01*
X202673076Y-76768254D01*
X202690319Y-76755466D01*
X202708732Y-76744430D01*
X202728138Y-76735251D01*
X202748350Y-76728019D01*
X202769174Y-76722803D01*
X202790409Y-76719653D01*
X202811850Y-76718600D01*
X203249350Y-76718600D01*
X203270791Y-76719653D01*
X203270791Y-76719653D01*
G37*
D12*
X203030600Y-77193600D03*
G04 #@! TD*
D11*
G04 #@! TO.C,C1*
G36*
X227377691Y-48813553D02*
X227398926Y-48816703D01*
X227419750Y-48821919D01*
X227439962Y-48829151D01*
X227459368Y-48838330D01*
X227477781Y-48849366D01*
X227495024Y-48862154D01*
X227510930Y-48876570D01*
X227525346Y-48892476D01*
X227538134Y-48909719D01*
X227549170Y-48928132D01*
X227558349Y-48947538D01*
X227565581Y-48967750D01*
X227570797Y-48988574D01*
X227573947Y-49009809D01*
X227575000Y-49031250D01*
X227575000Y-49468750D01*
X227573947Y-49490191D01*
X227570797Y-49511426D01*
X227565581Y-49532250D01*
X227558349Y-49552462D01*
X227549170Y-49571868D01*
X227538134Y-49590281D01*
X227525346Y-49607524D01*
X227510930Y-49623430D01*
X227495024Y-49637846D01*
X227477781Y-49650634D01*
X227459368Y-49661670D01*
X227439962Y-49670849D01*
X227419750Y-49678081D01*
X227398926Y-49683297D01*
X227377691Y-49686447D01*
X227356250Y-49687500D01*
X226843750Y-49687500D01*
X226822309Y-49686447D01*
X226801074Y-49683297D01*
X226780250Y-49678081D01*
X226760038Y-49670849D01*
X226740632Y-49661670D01*
X226722219Y-49650634D01*
X226704976Y-49637846D01*
X226689070Y-49623430D01*
X226674654Y-49607524D01*
X226661866Y-49590281D01*
X226650830Y-49571868D01*
X226641651Y-49552462D01*
X226634419Y-49532250D01*
X226629203Y-49511426D01*
X226626053Y-49490191D01*
X226625000Y-49468750D01*
X226625000Y-49031250D01*
X226626053Y-49009809D01*
X226629203Y-48988574D01*
X226634419Y-48967750D01*
X226641651Y-48947538D01*
X226650830Y-48928132D01*
X226661866Y-48909719D01*
X226674654Y-48892476D01*
X226689070Y-48876570D01*
X226704976Y-48862154D01*
X226722219Y-48849366D01*
X226740632Y-48838330D01*
X226760038Y-48829151D01*
X226780250Y-48821919D01*
X226801074Y-48816703D01*
X226822309Y-48813553D01*
X226843750Y-48812500D01*
X227356250Y-48812500D01*
X227377691Y-48813553D01*
X227377691Y-48813553D01*
G37*
D12*
X227100000Y-49250000D03*
D11*
G36*
X227377691Y-47238553D02*
X227398926Y-47241703D01*
X227419750Y-47246919D01*
X227439962Y-47254151D01*
X227459368Y-47263330D01*
X227477781Y-47274366D01*
X227495024Y-47287154D01*
X227510930Y-47301570D01*
X227525346Y-47317476D01*
X227538134Y-47334719D01*
X227549170Y-47353132D01*
X227558349Y-47372538D01*
X227565581Y-47392750D01*
X227570797Y-47413574D01*
X227573947Y-47434809D01*
X227575000Y-47456250D01*
X227575000Y-47893750D01*
X227573947Y-47915191D01*
X227570797Y-47936426D01*
X227565581Y-47957250D01*
X227558349Y-47977462D01*
X227549170Y-47996868D01*
X227538134Y-48015281D01*
X227525346Y-48032524D01*
X227510930Y-48048430D01*
X227495024Y-48062846D01*
X227477781Y-48075634D01*
X227459368Y-48086670D01*
X227439962Y-48095849D01*
X227419750Y-48103081D01*
X227398926Y-48108297D01*
X227377691Y-48111447D01*
X227356250Y-48112500D01*
X226843750Y-48112500D01*
X226822309Y-48111447D01*
X226801074Y-48108297D01*
X226780250Y-48103081D01*
X226760038Y-48095849D01*
X226740632Y-48086670D01*
X226722219Y-48075634D01*
X226704976Y-48062846D01*
X226689070Y-48048430D01*
X226674654Y-48032524D01*
X226661866Y-48015281D01*
X226650830Y-47996868D01*
X226641651Y-47977462D01*
X226634419Y-47957250D01*
X226629203Y-47936426D01*
X226626053Y-47915191D01*
X226625000Y-47893750D01*
X226625000Y-47456250D01*
X226626053Y-47434809D01*
X226629203Y-47413574D01*
X226634419Y-47392750D01*
X226641651Y-47372538D01*
X226650830Y-47353132D01*
X226661866Y-47334719D01*
X226674654Y-47317476D01*
X226689070Y-47301570D01*
X226704976Y-47287154D01*
X226722219Y-47274366D01*
X226740632Y-47263330D01*
X226760038Y-47254151D01*
X226780250Y-47246919D01*
X226801074Y-47241703D01*
X226822309Y-47238553D01*
X226843750Y-47237500D01*
X227356250Y-47237500D01*
X227377691Y-47238553D01*
X227377691Y-47238553D01*
G37*
D12*
X227100000Y-47675000D03*
G04 #@! TD*
D11*
G04 #@! TO.C,R15*
G36*
X210737991Y-62444853D02*
X210759226Y-62448003D01*
X210780050Y-62453219D01*
X210800262Y-62460451D01*
X210819668Y-62469630D01*
X210838081Y-62480666D01*
X210855324Y-62493454D01*
X210871230Y-62507870D01*
X210885646Y-62523776D01*
X210898434Y-62541019D01*
X210909470Y-62559432D01*
X210918649Y-62578838D01*
X210925881Y-62599050D01*
X210931097Y-62619874D01*
X210934247Y-62641109D01*
X210935300Y-62662550D01*
X210935300Y-63175050D01*
X210934247Y-63196491D01*
X210931097Y-63217726D01*
X210925881Y-63238550D01*
X210918649Y-63258762D01*
X210909470Y-63278168D01*
X210898434Y-63296581D01*
X210885646Y-63313824D01*
X210871230Y-63329730D01*
X210855324Y-63344146D01*
X210838081Y-63356934D01*
X210819668Y-63367970D01*
X210800262Y-63377149D01*
X210780050Y-63384381D01*
X210759226Y-63389597D01*
X210737991Y-63392747D01*
X210716550Y-63393800D01*
X210279050Y-63393800D01*
X210257609Y-63392747D01*
X210236374Y-63389597D01*
X210215550Y-63384381D01*
X210195338Y-63377149D01*
X210175932Y-63367970D01*
X210157519Y-63356934D01*
X210140276Y-63344146D01*
X210124370Y-63329730D01*
X210109954Y-63313824D01*
X210097166Y-63296581D01*
X210086130Y-63278168D01*
X210076951Y-63258762D01*
X210069719Y-63238550D01*
X210064503Y-63217726D01*
X210061353Y-63196491D01*
X210060300Y-63175050D01*
X210060300Y-62662550D01*
X210061353Y-62641109D01*
X210064503Y-62619874D01*
X210069719Y-62599050D01*
X210076951Y-62578838D01*
X210086130Y-62559432D01*
X210097166Y-62541019D01*
X210109954Y-62523776D01*
X210124370Y-62507870D01*
X210140276Y-62493454D01*
X210157519Y-62480666D01*
X210175932Y-62469630D01*
X210195338Y-62460451D01*
X210215550Y-62453219D01*
X210236374Y-62448003D01*
X210257609Y-62444853D01*
X210279050Y-62443800D01*
X210716550Y-62443800D01*
X210737991Y-62444853D01*
X210737991Y-62444853D01*
G37*
D12*
X210497800Y-62918800D03*
D11*
G36*
X212312991Y-62444853D02*
X212334226Y-62448003D01*
X212355050Y-62453219D01*
X212375262Y-62460451D01*
X212394668Y-62469630D01*
X212413081Y-62480666D01*
X212430324Y-62493454D01*
X212446230Y-62507870D01*
X212460646Y-62523776D01*
X212473434Y-62541019D01*
X212484470Y-62559432D01*
X212493649Y-62578838D01*
X212500881Y-62599050D01*
X212506097Y-62619874D01*
X212509247Y-62641109D01*
X212510300Y-62662550D01*
X212510300Y-63175050D01*
X212509247Y-63196491D01*
X212506097Y-63217726D01*
X212500881Y-63238550D01*
X212493649Y-63258762D01*
X212484470Y-63278168D01*
X212473434Y-63296581D01*
X212460646Y-63313824D01*
X212446230Y-63329730D01*
X212430324Y-63344146D01*
X212413081Y-63356934D01*
X212394668Y-63367970D01*
X212375262Y-63377149D01*
X212355050Y-63384381D01*
X212334226Y-63389597D01*
X212312991Y-63392747D01*
X212291550Y-63393800D01*
X211854050Y-63393800D01*
X211832609Y-63392747D01*
X211811374Y-63389597D01*
X211790550Y-63384381D01*
X211770338Y-63377149D01*
X211750932Y-63367970D01*
X211732519Y-63356934D01*
X211715276Y-63344146D01*
X211699370Y-63329730D01*
X211684954Y-63313824D01*
X211672166Y-63296581D01*
X211661130Y-63278168D01*
X211651951Y-63258762D01*
X211644719Y-63238550D01*
X211639503Y-63217726D01*
X211636353Y-63196491D01*
X211635300Y-63175050D01*
X211635300Y-62662550D01*
X211636353Y-62641109D01*
X211639503Y-62619874D01*
X211644719Y-62599050D01*
X211651951Y-62578838D01*
X211661130Y-62559432D01*
X211672166Y-62541019D01*
X211684954Y-62523776D01*
X211699370Y-62507870D01*
X211715276Y-62493454D01*
X211732519Y-62480666D01*
X211750932Y-62469630D01*
X211770338Y-62460451D01*
X211790550Y-62453219D01*
X211811374Y-62448003D01*
X211832609Y-62444853D01*
X211854050Y-62443800D01*
X212291550Y-62443800D01*
X212312991Y-62444853D01*
X212312991Y-62444853D01*
G37*
D12*
X212072800Y-62918800D03*
G04 #@! TD*
D11*
G04 #@! TO.C,R2*
G36*
X211915191Y-87046053D02*
X211936426Y-87049203D01*
X211957250Y-87054419D01*
X211977462Y-87061651D01*
X211996868Y-87070830D01*
X212015281Y-87081866D01*
X212032524Y-87094654D01*
X212048430Y-87109070D01*
X212062846Y-87124976D01*
X212075634Y-87142219D01*
X212086670Y-87160632D01*
X212095849Y-87180038D01*
X212103081Y-87200250D01*
X212108297Y-87221074D01*
X212111447Y-87242309D01*
X212112500Y-87263750D01*
X212112500Y-87776250D01*
X212111447Y-87797691D01*
X212108297Y-87818926D01*
X212103081Y-87839750D01*
X212095849Y-87859962D01*
X212086670Y-87879368D01*
X212075634Y-87897781D01*
X212062846Y-87915024D01*
X212048430Y-87930930D01*
X212032524Y-87945346D01*
X212015281Y-87958134D01*
X211996868Y-87969170D01*
X211977462Y-87978349D01*
X211957250Y-87985581D01*
X211936426Y-87990797D01*
X211915191Y-87993947D01*
X211893750Y-87995000D01*
X211456250Y-87995000D01*
X211434809Y-87993947D01*
X211413574Y-87990797D01*
X211392750Y-87985581D01*
X211372538Y-87978349D01*
X211353132Y-87969170D01*
X211334719Y-87958134D01*
X211317476Y-87945346D01*
X211301570Y-87930930D01*
X211287154Y-87915024D01*
X211274366Y-87897781D01*
X211263330Y-87879368D01*
X211254151Y-87859962D01*
X211246919Y-87839750D01*
X211241703Y-87818926D01*
X211238553Y-87797691D01*
X211237500Y-87776250D01*
X211237500Y-87263750D01*
X211238553Y-87242309D01*
X211241703Y-87221074D01*
X211246919Y-87200250D01*
X211254151Y-87180038D01*
X211263330Y-87160632D01*
X211274366Y-87142219D01*
X211287154Y-87124976D01*
X211301570Y-87109070D01*
X211317476Y-87094654D01*
X211334719Y-87081866D01*
X211353132Y-87070830D01*
X211372538Y-87061651D01*
X211392750Y-87054419D01*
X211413574Y-87049203D01*
X211434809Y-87046053D01*
X211456250Y-87045000D01*
X211893750Y-87045000D01*
X211915191Y-87046053D01*
X211915191Y-87046053D01*
G37*
D12*
X211675000Y-87520000D03*
D11*
G36*
X210340191Y-87046053D02*
X210361426Y-87049203D01*
X210382250Y-87054419D01*
X210402462Y-87061651D01*
X210421868Y-87070830D01*
X210440281Y-87081866D01*
X210457524Y-87094654D01*
X210473430Y-87109070D01*
X210487846Y-87124976D01*
X210500634Y-87142219D01*
X210511670Y-87160632D01*
X210520849Y-87180038D01*
X210528081Y-87200250D01*
X210533297Y-87221074D01*
X210536447Y-87242309D01*
X210537500Y-87263750D01*
X210537500Y-87776250D01*
X210536447Y-87797691D01*
X210533297Y-87818926D01*
X210528081Y-87839750D01*
X210520849Y-87859962D01*
X210511670Y-87879368D01*
X210500634Y-87897781D01*
X210487846Y-87915024D01*
X210473430Y-87930930D01*
X210457524Y-87945346D01*
X210440281Y-87958134D01*
X210421868Y-87969170D01*
X210402462Y-87978349D01*
X210382250Y-87985581D01*
X210361426Y-87990797D01*
X210340191Y-87993947D01*
X210318750Y-87995000D01*
X209881250Y-87995000D01*
X209859809Y-87993947D01*
X209838574Y-87990797D01*
X209817750Y-87985581D01*
X209797538Y-87978349D01*
X209778132Y-87969170D01*
X209759719Y-87958134D01*
X209742476Y-87945346D01*
X209726570Y-87930930D01*
X209712154Y-87915024D01*
X209699366Y-87897781D01*
X209688330Y-87879368D01*
X209679151Y-87859962D01*
X209671919Y-87839750D01*
X209666703Y-87818926D01*
X209663553Y-87797691D01*
X209662500Y-87776250D01*
X209662500Y-87263750D01*
X209663553Y-87242309D01*
X209666703Y-87221074D01*
X209671919Y-87200250D01*
X209679151Y-87180038D01*
X209688330Y-87160632D01*
X209699366Y-87142219D01*
X209712154Y-87124976D01*
X209726570Y-87109070D01*
X209742476Y-87094654D01*
X209759719Y-87081866D01*
X209778132Y-87070830D01*
X209797538Y-87061651D01*
X209817750Y-87054419D01*
X209838574Y-87049203D01*
X209859809Y-87046053D01*
X209881250Y-87045000D01*
X210318750Y-87045000D01*
X210340191Y-87046053D01*
X210340191Y-87046053D01*
G37*
D12*
X210100000Y-87520000D03*
G04 #@! TD*
D11*
G04 #@! TO.C,R3*
G36*
X225077691Y-47238553D02*
X225098926Y-47241703D01*
X225119750Y-47246919D01*
X225139962Y-47254151D01*
X225159368Y-47263330D01*
X225177781Y-47274366D01*
X225195024Y-47287154D01*
X225210930Y-47301570D01*
X225225346Y-47317476D01*
X225238134Y-47334719D01*
X225249170Y-47353132D01*
X225258349Y-47372538D01*
X225265581Y-47392750D01*
X225270797Y-47413574D01*
X225273947Y-47434809D01*
X225275000Y-47456250D01*
X225275000Y-47893750D01*
X225273947Y-47915191D01*
X225270797Y-47936426D01*
X225265581Y-47957250D01*
X225258349Y-47977462D01*
X225249170Y-47996868D01*
X225238134Y-48015281D01*
X225225346Y-48032524D01*
X225210930Y-48048430D01*
X225195024Y-48062846D01*
X225177781Y-48075634D01*
X225159368Y-48086670D01*
X225139962Y-48095849D01*
X225119750Y-48103081D01*
X225098926Y-48108297D01*
X225077691Y-48111447D01*
X225056250Y-48112500D01*
X224543750Y-48112500D01*
X224522309Y-48111447D01*
X224501074Y-48108297D01*
X224480250Y-48103081D01*
X224460038Y-48095849D01*
X224440632Y-48086670D01*
X224422219Y-48075634D01*
X224404976Y-48062846D01*
X224389070Y-48048430D01*
X224374654Y-48032524D01*
X224361866Y-48015281D01*
X224350830Y-47996868D01*
X224341651Y-47977462D01*
X224334419Y-47957250D01*
X224329203Y-47936426D01*
X224326053Y-47915191D01*
X224325000Y-47893750D01*
X224325000Y-47456250D01*
X224326053Y-47434809D01*
X224329203Y-47413574D01*
X224334419Y-47392750D01*
X224341651Y-47372538D01*
X224350830Y-47353132D01*
X224361866Y-47334719D01*
X224374654Y-47317476D01*
X224389070Y-47301570D01*
X224404976Y-47287154D01*
X224422219Y-47274366D01*
X224440632Y-47263330D01*
X224460038Y-47254151D01*
X224480250Y-47246919D01*
X224501074Y-47241703D01*
X224522309Y-47238553D01*
X224543750Y-47237500D01*
X225056250Y-47237500D01*
X225077691Y-47238553D01*
X225077691Y-47238553D01*
G37*
D12*
X224800000Y-47675000D03*
D11*
G36*
X225077691Y-48813553D02*
X225098926Y-48816703D01*
X225119750Y-48821919D01*
X225139962Y-48829151D01*
X225159368Y-48838330D01*
X225177781Y-48849366D01*
X225195024Y-48862154D01*
X225210930Y-48876570D01*
X225225346Y-48892476D01*
X225238134Y-48909719D01*
X225249170Y-48928132D01*
X225258349Y-48947538D01*
X225265581Y-48967750D01*
X225270797Y-48988574D01*
X225273947Y-49009809D01*
X225275000Y-49031250D01*
X225275000Y-49468750D01*
X225273947Y-49490191D01*
X225270797Y-49511426D01*
X225265581Y-49532250D01*
X225258349Y-49552462D01*
X225249170Y-49571868D01*
X225238134Y-49590281D01*
X225225346Y-49607524D01*
X225210930Y-49623430D01*
X225195024Y-49637846D01*
X225177781Y-49650634D01*
X225159368Y-49661670D01*
X225139962Y-49670849D01*
X225119750Y-49678081D01*
X225098926Y-49683297D01*
X225077691Y-49686447D01*
X225056250Y-49687500D01*
X224543750Y-49687500D01*
X224522309Y-49686447D01*
X224501074Y-49683297D01*
X224480250Y-49678081D01*
X224460038Y-49670849D01*
X224440632Y-49661670D01*
X224422219Y-49650634D01*
X224404976Y-49637846D01*
X224389070Y-49623430D01*
X224374654Y-49607524D01*
X224361866Y-49590281D01*
X224350830Y-49571868D01*
X224341651Y-49552462D01*
X224334419Y-49532250D01*
X224329203Y-49511426D01*
X224326053Y-49490191D01*
X224325000Y-49468750D01*
X224325000Y-49031250D01*
X224326053Y-49009809D01*
X224329203Y-48988574D01*
X224334419Y-48967750D01*
X224341651Y-48947538D01*
X224350830Y-48928132D01*
X224361866Y-48909719D01*
X224374654Y-48892476D01*
X224389070Y-48876570D01*
X224404976Y-48862154D01*
X224422219Y-48849366D01*
X224440632Y-48838330D01*
X224460038Y-48829151D01*
X224480250Y-48821919D01*
X224501074Y-48816703D01*
X224522309Y-48813553D01*
X224543750Y-48812500D01*
X225056250Y-48812500D01*
X225077691Y-48813553D01*
X225077691Y-48813553D01*
G37*
D12*
X224800000Y-49250000D03*
G04 #@! TD*
D11*
G04 #@! TO.C,R1*
G36*
X211915191Y-84506053D02*
X211936426Y-84509203D01*
X211957250Y-84514419D01*
X211977462Y-84521651D01*
X211996868Y-84530830D01*
X212015281Y-84541866D01*
X212032524Y-84554654D01*
X212048430Y-84569070D01*
X212062846Y-84584976D01*
X212075634Y-84602219D01*
X212086670Y-84620632D01*
X212095849Y-84640038D01*
X212103081Y-84660250D01*
X212108297Y-84681074D01*
X212111447Y-84702309D01*
X212112500Y-84723750D01*
X212112500Y-85236250D01*
X212111447Y-85257691D01*
X212108297Y-85278926D01*
X212103081Y-85299750D01*
X212095849Y-85319962D01*
X212086670Y-85339368D01*
X212075634Y-85357781D01*
X212062846Y-85375024D01*
X212048430Y-85390930D01*
X212032524Y-85405346D01*
X212015281Y-85418134D01*
X211996868Y-85429170D01*
X211977462Y-85438349D01*
X211957250Y-85445581D01*
X211936426Y-85450797D01*
X211915191Y-85453947D01*
X211893750Y-85455000D01*
X211456250Y-85455000D01*
X211434809Y-85453947D01*
X211413574Y-85450797D01*
X211392750Y-85445581D01*
X211372538Y-85438349D01*
X211353132Y-85429170D01*
X211334719Y-85418134D01*
X211317476Y-85405346D01*
X211301570Y-85390930D01*
X211287154Y-85375024D01*
X211274366Y-85357781D01*
X211263330Y-85339368D01*
X211254151Y-85319962D01*
X211246919Y-85299750D01*
X211241703Y-85278926D01*
X211238553Y-85257691D01*
X211237500Y-85236250D01*
X211237500Y-84723750D01*
X211238553Y-84702309D01*
X211241703Y-84681074D01*
X211246919Y-84660250D01*
X211254151Y-84640038D01*
X211263330Y-84620632D01*
X211274366Y-84602219D01*
X211287154Y-84584976D01*
X211301570Y-84569070D01*
X211317476Y-84554654D01*
X211334719Y-84541866D01*
X211353132Y-84530830D01*
X211372538Y-84521651D01*
X211392750Y-84514419D01*
X211413574Y-84509203D01*
X211434809Y-84506053D01*
X211456250Y-84505000D01*
X211893750Y-84505000D01*
X211915191Y-84506053D01*
X211915191Y-84506053D01*
G37*
D12*
X211675000Y-84980000D03*
D11*
G36*
X210340191Y-84506053D02*
X210361426Y-84509203D01*
X210382250Y-84514419D01*
X210402462Y-84521651D01*
X210421868Y-84530830D01*
X210440281Y-84541866D01*
X210457524Y-84554654D01*
X210473430Y-84569070D01*
X210487846Y-84584976D01*
X210500634Y-84602219D01*
X210511670Y-84620632D01*
X210520849Y-84640038D01*
X210528081Y-84660250D01*
X210533297Y-84681074D01*
X210536447Y-84702309D01*
X210537500Y-84723750D01*
X210537500Y-85236250D01*
X210536447Y-85257691D01*
X210533297Y-85278926D01*
X210528081Y-85299750D01*
X210520849Y-85319962D01*
X210511670Y-85339368D01*
X210500634Y-85357781D01*
X210487846Y-85375024D01*
X210473430Y-85390930D01*
X210457524Y-85405346D01*
X210440281Y-85418134D01*
X210421868Y-85429170D01*
X210402462Y-85438349D01*
X210382250Y-85445581D01*
X210361426Y-85450797D01*
X210340191Y-85453947D01*
X210318750Y-85455000D01*
X209881250Y-85455000D01*
X209859809Y-85453947D01*
X209838574Y-85450797D01*
X209817750Y-85445581D01*
X209797538Y-85438349D01*
X209778132Y-85429170D01*
X209759719Y-85418134D01*
X209742476Y-85405346D01*
X209726570Y-85390930D01*
X209712154Y-85375024D01*
X209699366Y-85357781D01*
X209688330Y-85339368D01*
X209679151Y-85319962D01*
X209671919Y-85299750D01*
X209666703Y-85278926D01*
X209663553Y-85257691D01*
X209662500Y-85236250D01*
X209662500Y-84723750D01*
X209663553Y-84702309D01*
X209666703Y-84681074D01*
X209671919Y-84660250D01*
X209679151Y-84640038D01*
X209688330Y-84620632D01*
X209699366Y-84602219D01*
X209712154Y-84584976D01*
X209726570Y-84569070D01*
X209742476Y-84554654D01*
X209759719Y-84541866D01*
X209778132Y-84530830D01*
X209797538Y-84521651D01*
X209817750Y-84514419D01*
X209838574Y-84509203D01*
X209859809Y-84506053D01*
X209881250Y-84505000D01*
X210318750Y-84505000D01*
X210340191Y-84506053D01*
X210340191Y-84506053D01*
G37*
D12*
X210100000Y-84980000D03*
G04 #@! TD*
D11*
G04 #@! TO.C,R16*
G36*
X207777691Y-83051053D02*
X207798926Y-83054203D01*
X207819750Y-83059419D01*
X207839962Y-83066651D01*
X207859368Y-83075830D01*
X207877781Y-83086866D01*
X207895024Y-83099654D01*
X207910930Y-83114070D01*
X207925346Y-83129976D01*
X207938134Y-83147219D01*
X207949170Y-83165632D01*
X207958349Y-83185038D01*
X207965581Y-83205250D01*
X207970797Y-83226074D01*
X207973947Y-83247309D01*
X207975000Y-83268750D01*
X207975000Y-83706250D01*
X207973947Y-83727691D01*
X207970797Y-83748926D01*
X207965581Y-83769750D01*
X207958349Y-83789962D01*
X207949170Y-83809368D01*
X207938134Y-83827781D01*
X207925346Y-83845024D01*
X207910930Y-83860930D01*
X207895024Y-83875346D01*
X207877781Y-83888134D01*
X207859368Y-83899170D01*
X207839962Y-83908349D01*
X207819750Y-83915581D01*
X207798926Y-83920797D01*
X207777691Y-83923947D01*
X207756250Y-83925000D01*
X207243750Y-83925000D01*
X207222309Y-83923947D01*
X207201074Y-83920797D01*
X207180250Y-83915581D01*
X207160038Y-83908349D01*
X207140632Y-83899170D01*
X207122219Y-83888134D01*
X207104976Y-83875346D01*
X207089070Y-83860930D01*
X207074654Y-83845024D01*
X207061866Y-83827781D01*
X207050830Y-83809368D01*
X207041651Y-83789962D01*
X207034419Y-83769750D01*
X207029203Y-83748926D01*
X207026053Y-83727691D01*
X207025000Y-83706250D01*
X207025000Y-83268750D01*
X207026053Y-83247309D01*
X207029203Y-83226074D01*
X207034419Y-83205250D01*
X207041651Y-83185038D01*
X207050830Y-83165632D01*
X207061866Y-83147219D01*
X207074654Y-83129976D01*
X207089070Y-83114070D01*
X207104976Y-83099654D01*
X207122219Y-83086866D01*
X207140632Y-83075830D01*
X207160038Y-83066651D01*
X207180250Y-83059419D01*
X207201074Y-83054203D01*
X207222309Y-83051053D01*
X207243750Y-83050000D01*
X207756250Y-83050000D01*
X207777691Y-83051053D01*
X207777691Y-83051053D01*
G37*
D12*
X207500000Y-83487500D03*
D11*
G36*
X207777691Y-81476053D02*
X207798926Y-81479203D01*
X207819750Y-81484419D01*
X207839962Y-81491651D01*
X207859368Y-81500830D01*
X207877781Y-81511866D01*
X207895024Y-81524654D01*
X207910930Y-81539070D01*
X207925346Y-81554976D01*
X207938134Y-81572219D01*
X207949170Y-81590632D01*
X207958349Y-81610038D01*
X207965581Y-81630250D01*
X207970797Y-81651074D01*
X207973947Y-81672309D01*
X207975000Y-81693750D01*
X207975000Y-82131250D01*
X207973947Y-82152691D01*
X207970797Y-82173926D01*
X207965581Y-82194750D01*
X207958349Y-82214962D01*
X207949170Y-82234368D01*
X207938134Y-82252781D01*
X207925346Y-82270024D01*
X207910930Y-82285930D01*
X207895024Y-82300346D01*
X207877781Y-82313134D01*
X207859368Y-82324170D01*
X207839962Y-82333349D01*
X207819750Y-82340581D01*
X207798926Y-82345797D01*
X207777691Y-82348947D01*
X207756250Y-82350000D01*
X207243750Y-82350000D01*
X207222309Y-82348947D01*
X207201074Y-82345797D01*
X207180250Y-82340581D01*
X207160038Y-82333349D01*
X207140632Y-82324170D01*
X207122219Y-82313134D01*
X207104976Y-82300346D01*
X207089070Y-82285930D01*
X207074654Y-82270024D01*
X207061866Y-82252781D01*
X207050830Y-82234368D01*
X207041651Y-82214962D01*
X207034419Y-82194750D01*
X207029203Y-82173926D01*
X207026053Y-82152691D01*
X207025000Y-82131250D01*
X207025000Y-81693750D01*
X207026053Y-81672309D01*
X207029203Y-81651074D01*
X207034419Y-81630250D01*
X207041651Y-81610038D01*
X207050830Y-81590632D01*
X207061866Y-81572219D01*
X207074654Y-81554976D01*
X207089070Y-81539070D01*
X207104976Y-81524654D01*
X207122219Y-81511866D01*
X207140632Y-81500830D01*
X207160038Y-81491651D01*
X207180250Y-81484419D01*
X207201074Y-81479203D01*
X207222309Y-81476053D01*
X207243750Y-81475000D01*
X207756250Y-81475000D01*
X207777691Y-81476053D01*
X207777691Y-81476053D01*
G37*
D12*
X207500000Y-81912500D03*
G04 #@! TD*
D11*
G04 #@! TO.C,R4*
G36*
X222890191Y-48776053D02*
X222911426Y-48779203D01*
X222932250Y-48784419D01*
X222952462Y-48791651D01*
X222971868Y-48800830D01*
X222990281Y-48811866D01*
X223007524Y-48824654D01*
X223023430Y-48839070D01*
X223037846Y-48854976D01*
X223050634Y-48872219D01*
X223061670Y-48890632D01*
X223070849Y-48910038D01*
X223078081Y-48930250D01*
X223083297Y-48951074D01*
X223086447Y-48972309D01*
X223087500Y-48993750D01*
X223087500Y-49506250D01*
X223086447Y-49527691D01*
X223083297Y-49548926D01*
X223078081Y-49569750D01*
X223070849Y-49589962D01*
X223061670Y-49609368D01*
X223050634Y-49627781D01*
X223037846Y-49645024D01*
X223023430Y-49660930D01*
X223007524Y-49675346D01*
X222990281Y-49688134D01*
X222971868Y-49699170D01*
X222952462Y-49708349D01*
X222932250Y-49715581D01*
X222911426Y-49720797D01*
X222890191Y-49723947D01*
X222868750Y-49725000D01*
X222431250Y-49725000D01*
X222409809Y-49723947D01*
X222388574Y-49720797D01*
X222367750Y-49715581D01*
X222347538Y-49708349D01*
X222328132Y-49699170D01*
X222309719Y-49688134D01*
X222292476Y-49675346D01*
X222276570Y-49660930D01*
X222262154Y-49645024D01*
X222249366Y-49627781D01*
X222238330Y-49609368D01*
X222229151Y-49589962D01*
X222221919Y-49569750D01*
X222216703Y-49548926D01*
X222213553Y-49527691D01*
X222212500Y-49506250D01*
X222212500Y-48993750D01*
X222213553Y-48972309D01*
X222216703Y-48951074D01*
X222221919Y-48930250D01*
X222229151Y-48910038D01*
X222238330Y-48890632D01*
X222249366Y-48872219D01*
X222262154Y-48854976D01*
X222276570Y-48839070D01*
X222292476Y-48824654D01*
X222309719Y-48811866D01*
X222328132Y-48800830D01*
X222347538Y-48791651D01*
X222367750Y-48784419D01*
X222388574Y-48779203D01*
X222409809Y-48776053D01*
X222431250Y-48775000D01*
X222868750Y-48775000D01*
X222890191Y-48776053D01*
X222890191Y-48776053D01*
G37*
D12*
X222650000Y-49250000D03*
D11*
G36*
X221315191Y-48776053D02*
X221336426Y-48779203D01*
X221357250Y-48784419D01*
X221377462Y-48791651D01*
X221396868Y-48800830D01*
X221415281Y-48811866D01*
X221432524Y-48824654D01*
X221448430Y-48839070D01*
X221462846Y-48854976D01*
X221475634Y-48872219D01*
X221486670Y-48890632D01*
X221495849Y-48910038D01*
X221503081Y-48930250D01*
X221508297Y-48951074D01*
X221511447Y-48972309D01*
X221512500Y-48993750D01*
X221512500Y-49506250D01*
X221511447Y-49527691D01*
X221508297Y-49548926D01*
X221503081Y-49569750D01*
X221495849Y-49589962D01*
X221486670Y-49609368D01*
X221475634Y-49627781D01*
X221462846Y-49645024D01*
X221448430Y-49660930D01*
X221432524Y-49675346D01*
X221415281Y-49688134D01*
X221396868Y-49699170D01*
X221377462Y-49708349D01*
X221357250Y-49715581D01*
X221336426Y-49720797D01*
X221315191Y-49723947D01*
X221293750Y-49725000D01*
X220856250Y-49725000D01*
X220834809Y-49723947D01*
X220813574Y-49720797D01*
X220792750Y-49715581D01*
X220772538Y-49708349D01*
X220753132Y-49699170D01*
X220734719Y-49688134D01*
X220717476Y-49675346D01*
X220701570Y-49660930D01*
X220687154Y-49645024D01*
X220674366Y-49627781D01*
X220663330Y-49609368D01*
X220654151Y-49589962D01*
X220646919Y-49569750D01*
X220641703Y-49548926D01*
X220638553Y-49527691D01*
X220637500Y-49506250D01*
X220637500Y-48993750D01*
X220638553Y-48972309D01*
X220641703Y-48951074D01*
X220646919Y-48930250D01*
X220654151Y-48910038D01*
X220663330Y-48890632D01*
X220674366Y-48872219D01*
X220687154Y-48854976D01*
X220701570Y-48839070D01*
X220717476Y-48824654D01*
X220734719Y-48811866D01*
X220753132Y-48800830D01*
X220772538Y-48791651D01*
X220792750Y-48784419D01*
X220813574Y-48779203D01*
X220834809Y-48776053D01*
X220856250Y-48775000D01*
X221293750Y-48775000D01*
X221315191Y-48776053D01*
X221315191Y-48776053D01*
G37*
D12*
X221075000Y-49250000D03*
G04 #@! TD*
D11*
G04 #@! TO.C,R14*
G36*
X210737991Y-64375253D02*
X210759226Y-64378403D01*
X210780050Y-64383619D01*
X210800262Y-64390851D01*
X210819668Y-64400030D01*
X210838081Y-64411066D01*
X210855324Y-64423854D01*
X210871230Y-64438270D01*
X210885646Y-64454176D01*
X210898434Y-64471419D01*
X210909470Y-64489832D01*
X210918649Y-64509238D01*
X210925881Y-64529450D01*
X210931097Y-64550274D01*
X210934247Y-64571509D01*
X210935300Y-64592950D01*
X210935300Y-65105450D01*
X210934247Y-65126891D01*
X210931097Y-65148126D01*
X210925881Y-65168950D01*
X210918649Y-65189162D01*
X210909470Y-65208568D01*
X210898434Y-65226981D01*
X210885646Y-65244224D01*
X210871230Y-65260130D01*
X210855324Y-65274546D01*
X210838081Y-65287334D01*
X210819668Y-65298370D01*
X210800262Y-65307549D01*
X210780050Y-65314781D01*
X210759226Y-65319997D01*
X210737991Y-65323147D01*
X210716550Y-65324200D01*
X210279050Y-65324200D01*
X210257609Y-65323147D01*
X210236374Y-65319997D01*
X210215550Y-65314781D01*
X210195338Y-65307549D01*
X210175932Y-65298370D01*
X210157519Y-65287334D01*
X210140276Y-65274546D01*
X210124370Y-65260130D01*
X210109954Y-65244224D01*
X210097166Y-65226981D01*
X210086130Y-65208568D01*
X210076951Y-65189162D01*
X210069719Y-65168950D01*
X210064503Y-65148126D01*
X210061353Y-65126891D01*
X210060300Y-65105450D01*
X210060300Y-64592950D01*
X210061353Y-64571509D01*
X210064503Y-64550274D01*
X210069719Y-64529450D01*
X210076951Y-64509238D01*
X210086130Y-64489832D01*
X210097166Y-64471419D01*
X210109954Y-64454176D01*
X210124370Y-64438270D01*
X210140276Y-64423854D01*
X210157519Y-64411066D01*
X210175932Y-64400030D01*
X210195338Y-64390851D01*
X210215550Y-64383619D01*
X210236374Y-64378403D01*
X210257609Y-64375253D01*
X210279050Y-64374200D01*
X210716550Y-64374200D01*
X210737991Y-64375253D01*
X210737991Y-64375253D01*
G37*
D12*
X210497800Y-64849200D03*
D11*
G36*
X212312991Y-64375253D02*
X212334226Y-64378403D01*
X212355050Y-64383619D01*
X212375262Y-64390851D01*
X212394668Y-64400030D01*
X212413081Y-64411066D01*
X212430324Y-64423854D01*
X212446230Y-64438270D01*
X212460646Y-64454176D01*
X212473434Y-64471419D01*
X212484470Y-64489832D01*
X212493649Y-64509238D01*
X212500881Y-64529450D01*
X212506097Y-64550274D01*
X212509247Y-64571509D01*
X212510300Y-64592950D01*
X212510300Y-65105450D01*
X212509247Y-65126891D01*
X212506097Y-65148126D01*
X212500881Y-65168950D01*
X212493649Y-65189162D01*
X212484470Y-65208568D01*
X212473434Y-65226981D01*
X212460646Y-65244224D01*
X212446230Y-65260130D01*
X212430324Y-65274546D01*
X212413081Y-65287334D01*
X212394668Y-65298370D01*
X212375262Y-65307549D01*
X212355050Y-65314781D01*
X212334226Y-65319997D01*
X212312991Y-65323147D01*
X212291550Y-65324200D01*
X211854050Y-65324200D01*
X211832609Y-65323147D01*
X211811374Y-65319997D01*
X211790550Y-65314781D01*
X211770338Y-65307549D01*
X211750932Y-65298370D01*
X211732519Y-65287334D01*
X211715276Y-65274546D01*
X211699370Y-65260130D01*
X211684954Y-65244224D01*
X211672166Y-65226981D01*
X211661130Y-65208568D01*
X211651951Y-65189162D01*
X211644719Y-65168950D01*
X211639503Y-65148126D01*
X211636353Y-65126891D01*
X211635300Y-65105450D01*
X211635300Y-64592950D01*
X211636353Y-64571509D01*
X211639503Y-64550274D01*
X211644719Y-64529450D01*
X211651951Y-64509238D01*
X211661130Y-64489832D01*
X211672166Y-64471419D01*
X211684954Y-64454176D01*
X211699370Y-64438270D01*
X211715276Y-64423854D01*
X211732519Y-64411066D01*
X211750932Y-64400030D01*
X211770338Y-64390851D01*
X211790550Y-64383619D01*
X211811374Y-64378403D01*
X211832609Y-64375253D01*
X211854050Y-64374200D01*
X212291550Y-64374200D01*
X212312991Y-64375253D01*
X212312991Y-64375253D01*
G37*
D12*
X212072800Y-64849200D03*
G04 #@! TD*
D11*
G04 #@! TO.C,R9*
G36*
X203445291Y-107422153D02*
X203466526Y-107425303D01*
X203487350Y-107430519D01*
X203507562Y-107437751D01*
X203526968Y-107446930D01*
X203545381Y-107457966D01*
X203562624Y-107470754D01*
X203578530Y-107485170D01*
X203592946Y-107501076D01*
X203605734Y-107518319D01*
X203616770Y-107536732D01*
X203625949Y-107556138D01*
X203633181Y-107576350D01*
X203638397Y-107597174D01*
X203641547Y-107618409D01*
X203642600Y-107639850D01*
X203642600Y-108077350D01*
X203641547Y-108098791D01*
X203638397Y-108120026D01*
X203633181Y-108140850D01*
X203625949Y-108161062D01*
X203616770Y-108180468D01*
X203605734Y-108198881D01*
X203592946Y-108216124D01*
X203578530Y-108232030D01*
X203562624Y-108246446D01*
X203545381Y-108259234D01*
X203526968Y-108270270D01*
X203507562Y-108279449D01*
X203487350Y-108286681D01*
X203466526Y-108291897D01*
X203445291Y-108295047D01*
X203423850Y-108296100D01*
X202911350Y-108296100D01*
X202889909Y-108295047D01*
X202868674Y-108291897D01*
X202847850Y-108286681D01*
X202827638Y-108279449D01*
X202808232Y-108270270D01*
X202789819Y-108259234D01*
X202772576Y-108246446D01*
X202756670Y-108232030D01*
X202742254Y-108216124D01*
X202729466Y-108198881D01*
X202718430Y-108180468D01*
X202709251Y-108161062D01*
X202702019Y-108140850D01*
X202696803Y-108120026D01*
X202693653Y-108098791D01*
X202692600Y-108077350D01*
X202692600Y-107639850D01*
X202693653Y-107618409D01*
X202696803Y-107597174D01*
X202702019Y-107576350D01*
X202709251Y-107556138D01*
X202718430Y-107536732D01*
X202729466Y-107518319D01*
X202742254Y-107501076D01*
X202756670Y-107485170D01*
X202772576Y-107470754D01*
X202789819Y-107457966D01*
X202808232Y-107446930D01*
X202827638Y-107437751D01*
X202847850Y-107430519D01*
X202868674Y-107425303D01*
X202889909Y-107422153D01*
X202911350Y-107421100D01*
X203423850Y-107421100D01*
X203445291Y-107422153D01*
X203445291Y-107422153D01*
G37*
D12*
X203167600Y-107858600D03*
D11*
G36*
X203445291Y-108997153D02*
X203466526Y-109000303D01*
X203487350Y-109005519D01*
X203507562Y-109012751D01*
X203526968Y-109021930D01*
X203545381Y-109032966D01*
X203562624Y-109045754D01*
X203578530Y-109060170D01*
X203592946Y-109076076D01*
X203605734Y-109093319D01*
X203616770Y-109111732D01*
X203625949Y-109131138D01*
X203633181Y-109151350D01*
X203638397Y-109172174D01*
X203641547Y-109193409D01*
X203642600Y-109214850D01*
X203642600Y-109652350D01*
X203641547Y-109673791D01*
X203638397Y-109695026D01*
X203633181Y-109715850D01*
X203625949Y-109736062D01*
X203616770Y-109755468D01*
X203605734Y-109773881D01*
X203592946Y-109791124D01*
X203578530Y-109807030D01*
X203562624Y-109821446D01*
X203545381Y-109834234D01*
X203526968Y-109845270D01*
X203507562Y-109854449D01*
X203487350Y-109861681D01*
X203466526Y-109866897D01*
X203445291Y-109870047D01*
X203423850Y-109871100D01*
X202911350Y-109871100D01*
X202889909Y-109870047D01*
X202868674Y-109866897D01*
X202847850Y-109861681D01*
X202827638Y-109854449D01*
X202808232Y-109845270D01*
X202789819Y-109834234D01*
X202772576Y-109821446D01*
X202756670Y-109807030D01*
X202742254Y-109791124D01*
X202729466Y-109773881D01*
X202718430Y-109755468D01*
X202709251Y-109736062D01*
X202702019Y-109715850D01*
X202696803Y-109695026D01*
X202693653Y-109673791D01*
X202692600Y-109652350D01*
X202692600Y-109214850D01*
X202693653Y-109193409D01*
X202696803Y-109172174D01*
X202702019Y-109151350D01*
X202709251Y-109131138D01*
X202718430Y-109111732D01*
X202729466Y-109093319D01*
X202742254Y-109076076D01*
X202756670Y-109060170D01*
X202772576Y-109045754D01*
X202789819Y-109032966D01*
X202808232Y-109021930D01*
X202827638Y-109012751D01*
X202847850Y-109005519D01*
X202868674Y-109000303D01*
X202889909Y-108997153D01*
X202911350Y-108996100D01*
X203423850Y-108996100D01*
X203445291Y-108997153D01*
X203445291Y-108997153D01*
G37*
D12*
X203167600Y-109433600D03*
G04 #@! TD*
D20*
G04 #@! TO.C,R8*
X189600000Y-81400000D03*
X188800000Y-81400000D03*
X188000000Y-81400000D03*
X187200000Y-81400000D03*
X189600000Y-83200000D03*
X188800000Y-83200000D03*
X188000000Y-83200000D03*
X187200000Y-83200000D03*
G04 #@! TD*
D16*
G04 #@! TO.C,R7*
X210200000Y-100600000D03*
X210200000Y-101400000D03*
X210200000Y-102200000D03*
X210200000Y-103000000D03*
X212000000Y-100600000D03*
X212000000Y-101400000D03*
X212000000Y-102200000D03*
X212000000Y-103000000D03*
G04 #@! TD*
G04 #@! TO.C,R11*
X212000000Y-98200000D03*
X212000000Y-97400000D03*
X212000000Y-96600000D03*
X212000000Y-95800000D03*
X210200000Y-98200000D03*
X210200000Y-97400000D03*
X210200000Y-96600000D03*
X210200000Y-95800000D03*
G04 #@! TD*
G04 #@! TO.C,R12*
X196900000Y-98200000D03*
X196900000Y-97400000D03*
X196900000Y-96600000D03*
X196900000Y-95800000D03*
X195100000Y-98200000D03*
X195100000Y-97400000D03*
X195100000Y-96600000D03*
X195100000Y-95800000D03*
G04 #@! TD*
G04 #@! TO.C,R6*
X196900000Y-103000000D03*
X196900000Y-102200000D03*
X196900000Y-101400000D03*
X196900000Y-100600000D03*
X195100000Y-103000000D03*
X195100000Y-102200000D03*
X195100000Y-101400000D03*
X195100000Y-100600000D03*
G04 #@! TD*
M02*
