M48
;DRILL file {KiCad (5.0.0-rc2-190-gf634b7565)} date 07/18/18 22:59:16
;FORMAT={-:-/ absolute / metric / decimal}
FMAT,2
METRIC,TZ
T1C0.400
T2C0.406
T3C0.610
T4C0.800
T5C0.835
T6C0.900
T7C1.000
%
G90
G05
M71
T1
X179.129Y-73.79
X180.021Y-72.904
X180.2Y-47.1
X181.692Y-89.793
X181.745Y-90.91
X182.035Y-97.422
X182.036Y-99.561
X182.039Y-98.49
X182.279Y-101.299
X182.898Y-92.466
X183.033Y-102.053
X183.144Y-99.921
X184.372Y-97.242
X185.617Y-104.506
X185.743Y-93.686
X186.289Y-103.668
X187.572Y-96.988
X190.023Y-106.525
X190.198Y-104.08
X192.509Y-61.793
X192.55Y-62.92
X193.998Y-109.18
X198.646Y-80.147
X198.763Y-51.336
X199.116Y-76.121
X200.494Y-104.963
X200.501Y-106.36
X200.856Y-58.753
X200.932Y-93.33
X202.075Y-110.958
X202.089Y-93.385
X202.102Y-94.452
X203.853Y-75.201
X204.097Y-70.082
X204.488Y-74.345
X205.141Y-73.5
X205.4Y-83.2
X206.139Y-109.434
X207.039Y-89.556
X207.55Y-92.839
X208.095Y-112.736
X208.11Y-62.057
X208.11Y-63.211
X208.121Y-89.533
X208.396Y-92.189
X209.81Y-90.892
X209.85Y-92.504
X210.432Y-110.399
X210.953Y-90.879
X210.965Y-92.504
X211.108Y-80.699
X211.666Y-77.194
X213.546Y-76.127
X214.547Y-52.491
X215.781Y-62.919
X216.142Y-50.731
X216.198Y-73.226
X216.325Y-114.247
X218.954Y-88.58
X218.982Y-84.61
X219.7Y-49.25
X220.046Y-88.58
X220.201Y-84.61
X220.274Y-90.307
X228.7Y-84.6
T2
X189.121Y-101.306
X191.245Y-67.491
X191.854Y-68.1
X192.464Y-68.71
T3
X197.275Y-92.771
X197.275Y-111.44
X198.494Y-85.086
X199.129Y-107.783
X200.9Y-91.8
X202.037Y-90.702
X204.5Y-79.08
X206.495Y-79.6
X208.2Y-102.3
X211.9Y-71.68
X212.007Y-99.375
X215.305Y-74.135
X222.385Y-68.1
T4
X180.5Y-105.3
X180.5Y-107.84
X180.5Y-110.38
X180.5Y-112.92
X188.12Y-105.3
X188.12Y-107.84
X188.12Y-110.38
X188.12Y-112.92
T5
X191.57Y-82.44
X191.57Y-84.98
X191.57Y-87.52
X191.57Y-90.06
X191.57Y-92.6
X191.57Y-95.14
X191.57Y-97.68
X191.57Y-100.22
X191.57Y-102.76
X191.57Y-105.3
X191.57Y-107.84
X191.57Y-110.38
X191.57Y-112.92
X191.57Y-115.46
X191.57Y-118.
X214.43Y-82.44
X214.43Y-84.98
X214.43Y-87.52
X214.43Y-90.06
X214.43Y-92.6
X214.43Y-95.14
X214.43Y-97.68
X214.43Y-100.22
X214.43Y-102.76
X214.43Y-105.3
X214.43Y-107.84
X214.43Y-110.38
X214.43Y-112.92
X214.43Y-115.46
X214.43Y-118.
T6
X219.Y-103.
X221.Y-103.
X223.Y-103.
X225.Y-103.
X227.Y-103.
X229.Y-103.
X218.Y-59.5
X220.Y-59.5
X222.Y-59.5
X224.Y-59.5
X226.Y-59.5
X228.Y-59.5
X219.Y-75.5
X221.Y-75.5
X223.Y-75.5
X225.Y-75.5
X227.Y-75.5
X229.Y-75.5
X219.Y-108.5
X221.Y-108.5
X223.Y-108.5
X225.Y-108.5
X227.Y-108.5
X229.Y-108.5
X219.Y-92.
X221.Y-92.
X223.Y-92.
X225.Y-92.
X227.Y-92.
X229.Y-92.
X219.Y-97.5
X221.Y-97.5
X223.Y-97.5
X225.Y-97.5
X227.Y-97.5
X229.Y-97.5
X203.Y-50.
X203.Y-52.
X203.Y-54.
X203.Y-56.
X203.Y-58.
X203.Y-60.
X219.Y-81.
X221.Y-81.
X223.Y-81.
X225.Y-81.
X227.Y-81.
X229.Y-81.
X219.Y-86.5
X221.Y-86.5
X223.Y-86.5
X225.Y-86.5
X227.Y-86.5
X229.Y-86.5
X208.5Y-50.
X208.5Y-52.
X208.5Y-54.
X208.5Y-56.
X208.5Y-58.
X208.5Y-60.
X219.Y-114.
X221.Y-114.
X223.Y-114.
X225.Y-114.
X227.Y-114.
X229.Y-114.
T7
X182.Y-77.
X182.Y-79.54
X182.Y-82.08
X182.Y-84.62
X182.Y-87.16
X184.54Y-77.
X184.54Y-79.54
X184.54Y-82.08
X184.54Y-84.62
X184.54Y-87.16
X230.5Y-48.92
X230.5Y-51.46
X230.5Y-54.
X182.Y-49.
X182.Y-51.54
X182.Y-54.08
X182.Y-56.62
X182.Y-59.16
X184.54Y-49.
X184.54Y-51.54
X184.54Y-54.08
X184.54Y-56.62
X184.54Y-59.16
X201.735Y-64.392
X204.275Y-64.392
X206.815Y-64.392
X188.182Y-120.61
X188.182Y-123.15
X220.92Y-54.
X223.46Y-54.
X226.Y-54.
X192.96Y-48.84
X192.96Y-51.38
X192.96Y-53.92
X192.96Y-56.46
X192.96Y-59.
X195.5Y-48.84
X195.5Y-51.38
X195.5Y-53.92
X195.5Y-56.46
X195.5Y-59.
X230.7Y-64.32
X230.7Y-66.86
X230.7Y-69.4
T0
M30
