G04 #@! TF.GenerationSoftware,KiCad,Pcbnew,(5.0.0-rc2-190-gf634b7565)*
G04 #@! TF.CreationDate,2018-07-18T23:06:55+02:00*
G04 #@! TF.ProjectId,IoP-mux8-1C,496F502D6D7578382D31432E6B696361,rev?*
G04 #@! TF.SameCoordinates,Original*
G04 #@! TF.FileFunction,Drawing*
%FSLAX46Y46*%
G04 Gerber Fmt 4.6, Leading zero omitted, Abs format (unit mm)*
G04 Created by KiCad (PCBNEW (5.0.0-rc2-190-gf634b7565)) date 07/18/18 23:06:55*
%MOMM*%
%LPD*%
G01*
G04 APERTURE LIST*
%ADD10C,0.300000*%
%ADD11C,0.200000*%
%ADD12C,0.100000*%
%ADD13C,0.050000*%
%ADD14C,0.254000*%
G04 APERTURE END LIST*
D10*
X175785714Y-39078571D02*
X175071428Y-39078571D01*
X175000000Y-39792857D01*
X175071428Y-39721428D01*
X175214285Y-39650000D01*
X175571428Y-39650000D01*
X175714285Y-39721428D01*
X175785714Y-39792857D01*
X175857142Y-39935714D01*
X175857142Y-40292857D01*
X175785714Y-40435714D01*
X175714285Y-40507142D01*
X175571428Y-40578571D01*
X175214285Y-40578571D01*
X175071428Y-40507142D01*
X175000000Y-40435714D01*
X176500000Y-40435714D02*
X176571428Y-40507142D01*
X176500000Y-40578571D01*
X176428571Y-40507142D01*
X176500000Y-40435714D01*
X176500000Y-40578571D01*
X177500000Y-39078571D02*
X177642857Y-39078571D01*
X177785714Y-39150000D01*
X177857142Y-39221428D01*
X177928571Y-39364285D01*
X178000000Y-39650000D01*
X178000000Y-40007142D01*
X177928571Y-40292857D01*
X177857142Y-40435714D01*
X177785714Y-40507142D01*
X177642857Y-40578571D01*
X177500000Y-40578571D01*
X177357142Y-40507142D01*
X177285714Y-40435714D01*
X177214285Y-40292857D01*
X177142857Y-40007142D01*
X177142857Y-39650000D01*
X177214285Y-39364285D01*
X177285714Y-39221428D01*
X177357142Y-39150000D01*
X177500000Y-39078571D01*
X178928571Y-39078571D02*
X179071428Y-39078571D01*
X179214285Y-39150000D01*
X179285714Y-39221428D01*
X179357142Y-39364285D01*
X179428571Y-39650000D01*
X179428571Y-40007142D01*
X179357142Y-40292857D01*
X179285714Y-40435714D01*
X179214285Y-40507142D01*
X179071428Y-40578571D01*
X178928571Y-40578571D01*
X178785714Y-40507142D01*
X178714285Y-40435714D01*
X178642857Y-40292857D01*
X178571428Y-40007142D01*
X178571428Y-39650000D01*
X178642857Y-39364285D01*
X178714285Y-39221428D01*
X178785714Y-39150000D01*
X178928571Y-39078571D01*
X180357142Y-39078571D02*
X180500000Y-39078571D01*
X180642857Y-39150000D01*
X180714285Y-39221428D01*
X180785714Y-39364285D01*
X180857142Y-39650000D01*
X180857142Y-40007142D01*
X180785714Y-40292857D01*
X180714285Y-40435714D01*
X180642857Y-40507142D01*
X180500000Y-40578571D01*
X180357142Y-40578571D01*
X180214285Y-40507142D01*
X180142857Y-40435714D01*
X180071428Y-40292857D01*
X180000000Y-40007142D01*
X180000000Y-39650000D01*
X180071428Y-39364285D01*
X180142857Y-39221428D01*
X180214285Y-39150000D01*
X180357142Y-39078571D01*
X182642857Y-40578571D02*
X182642857Y-39578571D01*
X182642857Y-39721428D02*
X182714285Y-39650000D01*
X182857142Y-39578571D01*
X183071428Y-39578571D01*
X183214285Y-39650000D01*
X183285714Y-39792857D01*
X183285714Y-40578571D01*
X183285714Y-39792857D02*
X183357142Y-39650000D01*
X183500000Y-39578571D01*
X183714285Y-39578571D01*
X183857142Y-39650000D01*
X183928571Y-39792857D01*
X183928571Y-40578571D01*
X184642857Y-40578571D02*
X184642857Y-39578571D01*
X184642857Y-39721428D02*
X184714285Y-39650000D01*
X184857142Y-39578571D01*
X185071428Y-39578571D01*
X185214285Y-39650000D01*
X185285714Y-39792857D01*
X185285714Y-40578571D01*
X185285714Y-39792857D02*
X185357142Y-39650000D01*
X185500000Y-39578571D01*
X185714285Y-39578571D01*
X185857142Y-39650000D01*
X185928571Y-39792857D01*
X185928571Y-40578571D01*
X183000000Y-42000000D02*
X178000000Y-42000000D01*
X183000000Y-45000000D02*
X183000000Y-41413579D01*
X178000000Y-45000000D02*
X178000000Y-41413579D01*
X178000000Y-42000000D02*
X179126504Y-41413579D01*
X178000000Y-42000000D02*
X179126504Y-42586421D01*
X183000000Y-42000000D02*
X181873496Y-41413579D01*
X183000000Y-42000000D02*
X181873496Y-42586421D01*
X194214285Y-39078571D02*
X195142857Y-39078571D01*
X194642857Y-39650000D01*
X194857142Y-39650000D01*
X195000000Y-39721428D01*
X195071428Y-39792857D01*
X195142857Y-39935714D01*
X195142857Y-40292857D01*
X195071428Y-40435714D01*
X195000000Y-40507142D01*
X194857142Y-40578571D01*
X194428571Y-40578571D01*
X194285714Y-40507142D01*
X194214285Y-40435714D01*
X196500000Y-39078571D02*
X195785714Y-39078571D01*
X195714285Y-39792857D01*
X195785714Y-39721428D01*
X195928571Y-39650000D01*
X196285714Y-39650000D01*
X196428571Y-39721428D01*
X196500000Y-39792857D01*
X196571428Y-39935714D01*
X196571428Y-40292857D01*
X196500000Y-40435714D01*
X196428571Y-40507142D01*
X196285714Y-40578571D01*
X195928571Y-40578571D01*
X195785714Y-40507142D01*
X195714285Y-40435714D01*
X197214285Y-40435714D02*
X197285714Y-40507142D01*
X197214285Y-40578571D01*
X197142857Y-40507142D01*
X197214285Y-40435714D01*
X197214285Y-40578571D01*
X198214285Y-39078571D02*
X198357142Y-39078571D01*
X198500000Y-39150000D01*
X198571428Y-39221428D01*
X198642857Y-39364285D01*
X198714285Y-39650000D01*
X198714285Y-40007142D01*
X198642857Y-40292857D01*
X198571428Y-40435714D01*
X198500000Y-40507142D01*
X198357142Y-40578571D01*
X198214285Y-40578571D01*
X198071428Y-40507142D01*
X198000000Y-40435714D01*
X197928571Y-40292857D01*
X197857142Y-40007142D01*
X197857142Y-39650000D01*
X197928571Y-39364285D01*
X198000000Y-39221428D01*
X198071428Y-39150000D01*
X198214285Y-39078571D01*
X199642857Y-39078571D02*
X199785714Y-39078571D01*
X199928571Y-39150000D01*
X200000000Y-39221428D01*
X200071428Y-39364285D01*
X200142857Y-39650000D01*
X200142857Y-40007142D01*
X200071428Y-40292857D01*
X200000000Y-40435714D01*
X199928571Y-40507142D01*
X199785714Y-40578571D01*
X199642857Y-40578571D01*
X199500000Y-40507142D01*
X199428571Y-40435714D01*
X199357142Y-40292857D01*
X199285714Y-40007142D01*
X199285714Y-39650000D01*
X199357142Y-39364285D01*
X199428571Y-39221428D01*
X199500000Y-39150000D01*
X199642857Y-39078571D01*
X201071428Y-39078571D02*
X201214285Y-39078571D01*
X201357142Y-39150000D01*
X201428571Y-39221428D01*
X201500000Y-39364285D01*
X201571428Y-39650000D01*
X201571428Y-40007142D01*
X201500000Y-40292857D01*
X201428571Y-40435714D01*
X201357142Y-40507142D01*
X201214285Y-40578571D01*
X201071428Y-40578571D01*
X200928571Y-40507142D01*
X200857142Y-40435714D01*
X200785714Y-40292857D01*
X200714285Y-40007142D01*
X200714285Y-39650000D01*
X200785714Y-39364285D01*
X200857142Y-39221428D01*
X200928571Y-39150000D01*
X201071428Y-39078571D01*
X203357142Y-40578571D02*
X203357142Y-39578571D01*
X203357142Y-39721428D02*
X203428571Y-39650000D01*
X203571428Y-39578571D01*
X203785714Y-39578571D01*
X203928571Y-39650000D01*
X204000000Y-39792857D01*
X204000000Y-40578571D01*
X204000000Y-39792857D02*
X204071428Y-39650000D01*
X204214285Y-39578571D01*
X204428571Y-39578571D01*
X204571428Y-39650000D01*
X204642857Y-39792857D01*
X204642857Y-40578571D01*
X205357142Y-40578571D02*
X205357142Y-39578571D01*
X205357142Y-39721428D02*
X205428571Y-39650000D01*
X205571428Y-39578571D01*
X205785714Y-39578571D01*
X205928571Y-39650000D01*
X206000000Y-39792857D01*
X206000000Y-40578571D01*
X206000000Y-39792857D02*
X206071428Y-39650000D01*
X206214285Y-39578571D01*
X206428571Y-39578571D01*
X206571428Y-39650000D01*
X206642857Y-39792857D01*
X206642857Y-40578571D01*
X183000000Y-42000000D02*
X218000000Y-42000000D01*
X183000000Y-45000000D02*
X183000000Y-41413579D01*
X218000000Y-45000000D02*
X218000000Y-41413579D01*
X218000000Y-42000000D02*
X216873496Y-42586421D01*
X218000000Y-42000000D02*
X216873496Y-41413579D01*
X183000000Y-42000000D02*
X184126504Y-42586421D01*
X183000000Y-42000000D02*
X184126504Y-41413579D01*
X173221428Y-62714285D02*
X173150000Y-62642857D01*
X173078571Y-62500000D01*
X173078571Y-62142857D01*
X173150000Y-62000000D01*
X173221428Y-61928571D01*
X173364285Y-61857142D01*
X173507142Y-61857142D01*
X173721428Y-61928571D01*
X174578571Y-62785714D01*
X174578571Y-61857142D01*
X173078571Y-61357142D02*
X173078571Y-60428571D01*
X173650000Y-60928571D01*
X173650000Y-60714285D01*
X173721428Y-60571428D01*
X173792857Y-60500000D01*
X173935714Y-60428571D01*
X174292857Y-60428571D01*
X174435714Y-60500000D01*
X174507142Y-60571428D01*
X174578571Y-60714285D01*
X174578571Y-61142857D01*
X174507142Y-61285714D01*
X174435714Y-61357142D01*
X174435714Y-59785714D02*
X174507142Y-59714285D01*
X174578571Y-59785714D01*
X174507142Y-59857142D01*
X174435714Y-59785714D01*
X174578571Y-59785714D01*
X173078571Y-58785714D02*
X173078571Y-58642857D01*
X173150000Y-58500000D01*
X173221428Y-58428571D01*
X173364285Y-58357142D01*
X173650000Y-58285714D01*
X174007142Y-58285714D01*
X174292857Y-58357142D01*
X174435714Y-58428571D01*
X174507142Y-58500000D01*
X174578571Y-58642857D01*
X174578571Y-58785714D01*
X174507142Y-58928571D01*
X174435714Y-59000000D01*
X174292857Y-59071428D01*
X174007142Y-59142857D01*
X173650000Y-59142857D01*
X173364285Y-59071428D01*
X173221428Y-59000000D01*
X173150000Y-58928571D01*
X173078571Y-58785714D01*
X173078571Y-57357142D02*
X173078571Y-57214285D01*
X173150000Y-57071428D01*
X173221428Y-57000000D01*
X173364285Y-56928571D01*
X173650000Y-56857142D01*
X174007142Y-56857142D01*
X174292857Y-56928571D01*
X174435714Y-57000000D01*
X174507142Y-57071428D01*
X174578571Y-57214285D01*
X174578571Y-57357142D01*
X174507142Y-57500000D01*
X174435714Y-57571428D01*
X174292857Y-57642857D01*
X174007142Y-57714285D01*
X173650000Y-57714285D01*
X173364285Y-57642857D01*
X173221428Y-57571428D01*
X173150000Y-57500000D01*
X173078571Y-57357142D01*
X173078571Y-55928571D02*
X173078571Y-55785714D01*
X173150000Y-55642857D01*
X173221428Y-55571428D01*
X173364285Y-55500000D01*
X173650000Y-55428571D01*
X174007142Y-55428571D01*
X174292857Y-55500000D01*
X174435714Y-55571428D01*
X174507142Y-55642857D01*
X174578571Y-55785714D01*
X174578571Y-55928571D01*
X174507142Y-56071428D01*
X174435714Y-56142857D01*
X174292857Y-56214285D01*
X174007142Y-56285714D01*
X173650000Y-56285714D01*
X173364285Y-56214285D01*
X173221428Y-56142857D01*
X173150000Y-56071428D01*
X173078571Y-55928571D01*
X174578571Y-53642857D02*
X173578571Y-53642857D01*
X173721428Y-53642857D02*
X173650000Y-53571428D01*
X173578571Y-53428571D01*
X173578571Y-53214285D01*
X173650000Y-53071428D01*
X173792857Y-53000000D01*
X174578571Y-53000000D01*
X173792857Y-53000000D02*
X173650000Y-52928571D01*
X173578571Y-52785714D01*
X173578571Y-52571428D01*
X173650000Y-52428571D01*
X173792857Y-52357142D01*
X174578571Y-52357142D01*
X174578571Y-51642857D02*
X173578571Y-51642857D01*
X173721428Y-51642857D02*
X173650000Y-51571428D01*
X173578571Y-51428571D01*
X173578571Y-51214285D01*
X173650000Y-51071428D01*
X173792857Y-51000000D01*
X174578571Y-51000000D01*
X173792857Y-51000000D02*
X173650000Y-50928571D01*
X173578571Y-50785714D01*
X173578571Y-50571428D01*
X173650000Y-50428571D01*
X173792857Y-50357142D01*
X174578571Y-50357142D01*
X176000000Y-68000000D02*
X176000000Y-45000000D01*
X183000000Y-68000000D02*
X175413579Y-68000000D01*
X183000000Y-45000000D02*
X175413579Y-45000000D01*
X176000000Y-45000000D02*
X176586421Y-46126504D01*
X176000000Y-45000000D02*
X175413579Y-46126504D01*
X176000000Y-68000000D02*
X176586421Y-66873496D01*
X176000000Y-68000000D02*
X175413579Y-66873496D01*
X220142857Y-40601189D02*
X219285714Y-40601189D01*
X219714285Y-40601189D02*
X219714285Y-39101189D01*
X219571428Y-39315475D01*
X219428571Y-39458332D01*
X219285714Y-39529760D01*
X221500000Y-39101189D02*
X220785714Y-39101189D01*
X220714285Y-39815475D01*
X220785714Y-39744046D01*
X220928571Y-39672618D01*
X221285714Y-39672618D01*
X221428571Y-39744046D01*
X221500000Y-39815475D01*
X221571428Y-39958332D01*
X221571428Y-40315475D01*
X221500000Y-40458332D01*
X221428571Y-40529760D01*
X221285714Y-40601189D01*
X220928571Y-40601189D01*
X220785714Y-40529760D01*
X220714285Y-40458332D01*
X222214285Y-40458332D02*
X222285714Y-40529760D01*
X222214285Y-40601189D01*
X222142857Y-40529760D01*
X222214285Y-40458332D01*
X222214285Y-40601189D01*
X223214285Y-39101189D02*
X223357142Y-39101189D01*
X223500000Y-39172618D01*
X223571428Y-39244046D01*
X223642857Y-39386903D01*
X223714285Y-39672618D01*
X223714285Y-40029760D01*
X223642857Y-40315475D01*
X223571428Y-40458332D01*
X223500000Y-40529760D01*
X223357142Y-40601189D01*
X223214285Y-40601189D01*
X223071428Y-40529760D01*
X223000000Y-40458332D01*
X222928571Y-40315475D01*
X222857142Y-40029760D01*
X222857142Y-39672618D01*
X222928571Y-39386903D01*
X223000000Y-39244046D01*
X223071428Y-39172618D01*
X223214285Y-39101189D01*
X224642857Y-39101189D02*
X224785714Y-39101189D01*
X224928571Y-39172618D01*
X225000000Y-39244046D01*
X225071428Y-39386903D01*
X225142857Y-39672618D01*
X225142857Y-40029760D01*
X225071428Y-40315475D01*
X225000000Y-40458332D01*
X224928571Y-40529760D01*
X224785714Y-40601189D01*
X224642857Y-40601189D01*
X224500000Y-40529760D01*
X224428571Y-40458332D01*
X224357142Y-40315475D01*
X224285714Y-40029760D01*
X224285714Y-39672618D01*
X224357142Y-39386903D01*
X224428571Y-39244046D01*
X224500000Y-39172618D01*
X224642857Y-39101189D01*
X226071428Y-39101189D02*
X226214285Y-39101189D01*
X226357142Y-39172618D01*
X226428571Y-39244046D01*
X226500000Y-39386903D01*
X226571428Y-39672618D01*
X226571428Y-40029760D01*
X226500000Y-40315475D01*
X226428571Y-40458332D01*
X226357142Y-40529760D01*
X226214285Y-40601189D01*
X226071428Y-40601189D01*
X225928571Y-40529760D01*
X225857142Y-40458332D01*
X225785714Y-40315475D01*
X225714285Y-40029760D01*
X225714285Y-39672618D01*
X225785714Y-39386903D01*
X225857142Y-39244046D01*
X225928571Y-39172618D01*
X226071428Y-39101189D01*
X228357142Y-40601189D02*
X228357142Y-39601189D01*
X228357142Y-39744046D02*
X228428571Y-39672618D01*
X228571428Y-39601189D01*
X228785714Y-39601189D01*
X228928571Y-39672618D01*
X229000000Y-39815475D01*
X229000000Y-40601189D01*
X229000000Y-39815475D02*
X229071428Y-39672618D01*
X229214285Y-39601189D01*
X229428571Y-39601189D01*
X229571428Y-39672618D01*
X229642857Y-39815475D01*
X229642857Y-40601189D01*
X230357142Y-40601189D02*
X230357142Y-39601189D01*
X230357142Y-39744046D02*
X230428571Y-39672618D01*
X230571428Y-39601189D01*
X230785714Y-39601189D01*
X230928571Y-39672618D01*
X231000000Y-39815475D01*
X231000000Y-40601189D01*
X231000000Y-39815475D02*
X231071428Y-39672618D01*
X231214285Y-39601189D01*
X231428571Y-39601189D01*
X231571428Y-39672618D01*
X231642857Y-39815475D01*
X231642857Y-40601189D01*
X218000000Y-42022618D02*
X233000000Y-42022618D01*
X218000000Y-45022618D02*
X218000000Y-41436197D01*
X233000000Y-45022618D02*
X233000000Y-41436197D01*
X233000000Y-42022618D02*
X231873496Y-42609039D01*
X233000000Y-42022618D02*
X231873496Y-41436197D01*
X218000000Y-42022618D02*
X219126504Y-42609039D01*
X218000000Y-42022618D02*
X219126504Y-41436197D01*
X173078571Y-99428571D02*
X173078571Y-100142857D01*
X173792857Y-100214285D01*
X173721428Y-100142857D01*
X173650000Y-100000000D01*
X173650000Y-99642857D01*
X173721428Y-99500000D01*
X173792857Y-99428571D01*
X173935714Y-99357142D01*
X174292857Y-99357142D01*
X174435714Y-99428571D01*
X174507142Y-99500000D01*
X174578571Y-99642857D01*
X174578571Y-100000000D01*
X174507142Y-100142857D01*
X174435714Y-100214285D01*
X173221428Y-98785714D02*
X173150000Y-98714285D01*
X173078571Y-98571428D01*
X173078571Y-98214285D01*
X173150000Y-98071428D01*
X173221428Y-98000000D01*
X173364285Y-97928571D01*
X173507142Y-97928571D01*
X173721428Y-98000000D01*
X174578571Y-98857142D01*
X174578571Y-97928571D01*
X174435714Y-97285714D02*
X174507142Y-97214285D01*
X174578571Y-97285714D01*
X174507142Y-97357142D01*
X174435714Y-97285714D01*
X174578571Y-97285714D01*
X173078571Y-96285714D02*
X173078571Y-96142857D01*
X173150000Y-96000000D01*
X173221428Y-95928571D01*
X173364285Y-95857142D01*
X173650000Y-95785714D01*
X174007142Y-95785714D01*
X174292857Y-95857142D01*
X174435714Y-95928571D01*
X174507142Y-96000000D01*
X174578571Y-96142857D01*
X174578571Y-96285714D01*
X174507142Y-96428571D01*
X174435714Y-96500000D01*
X174292857Y-96571428D01*
X174007142Y-96642857D01*
X173650000Y-96642857D01*
X173364285Y-96571428D01*
X173221428Y-96500000D01*
X173150000Y-96428571D01*
X173078571Y-96285714D01*
X173078571Y-94857142D02*
X173078571Y-94714285D01*
X173150000Y-94571428D01*
X173221428Y-94500000D01*
X173364285Y-94428571D01*
X173650000Y-94357142D01*
X174007142Y-94357142D01*
X174292857Y-94428571D01*
X174435714Y-94500000D01*
X174507142Y-94571428D01*
X174578571Y-94714285D01*
X174578571Y-94857142D01*
X174507142Y-95000000D01*
X174435714Y-95071428D01*
X174292857Y-95142857D01*
X174007142Y-95214285D01*
X173650000Y-95214285D01*
X173364285Y-95142857D01*
X173221428Y-95071428D01*
X173150000Y-95000000D01*
X173078571Y-94857142D01*
X173078571Y-93428571D02*
X173078571Y-93285714D01*
X173150000Y-93142857D01*
X173221428Y-93071428D01*
X173364285Y-93000000D01*
X173650000Y-92928571D01*
X174007142Y-92928571D01*
X174292857Y-93000000D01*
X174435714Y-93071428D01*
X174507142Y-93142857D01*
X174578571Y-93285714D01*
X174578571Y-93428571D01*
X174507142Y-93571428D01*
X174435714Y-93642857D01*
X174292857Y-93714285D01*
X174007142Y-93785714D01*
X173650000Y-93785714D01*
X173364285Y-93714285D01*
X173221428Y-93642857D01*
X173150000Y-93571428D01*
X173078571Y-93428571D01*
X174578571Y-91142857D02*
X173578571Y-91142857D01*
X173721428Y-91142857D02*
X173650000Y-91071428D01*
X173578571Y-90928571D01*
X173578571Y-90714285D01*
X173650000Y-90571428D01*
X173792857Y-90500000D01*
X174578571Y-90500000D01*
X173792857Y-90500000D02*
X173650000Y-90428571D01*
X173578571Y-90285714D01*
X173578571Y-90071428D01*
X173650000Y-89928571D01*
X173792857Y-89857142D01*
X174578571Y-89857142D01*
X174578571Y-89142857D02*
X173578571Y-89142857D01*
X173721428Y-89142857D02*
X173650000Y-89071428D01*
X173578571Y-88928571D01*
X173578571Y-88714285D01*
X173650000Y-88571428D01*
X173792857Y-88500000D01*
X174578571Y-88500000D01*
X173792857Y-88500000D02*
X173650000Y-88428571D01*
X173578571Y-88285714D01*
X173578571Y-88071428D01*
X173650000Y-87928571D01*
X173792857Y-87857142D01*
X174578571Y-87857142D01*
X176000000Y-120000000D02*
X176000000Y-68000000D01*
X183000000Y-120000000D02*
X175413579Y-120000000D01*
X183000000Y-68000000D02*
X175413579Y-68000000D01*
X176000000Y-68000000D02*
X176586421Y-69126504D01*
X176000000Y-68000000D02*
X175413579Y-69126504D01*
X176000000Y-120000000D02*
X176586421Y-118873496D01*
X176000000Y-120000000D02*
X175413579Y-118873496D01*
X238092519Y-117785714D02*
X238092519Y-117071428D01*
X237378233Y-117000000D01*
X237449662Y-117071428D01*
X237521091Y-117214285D01*
X237521091Y-117571428D01*
X237449662Y-117714285D01*
X237378233Y-117785714D01*
X237235376Y-117857142D01*
X236878233Y-117857142D01*
X236735376Y-117785714D01*
X236663948Y-117714285D01*
X236592519Y-117571428D01*
X236592519Y-117214285D01*
X236663948Y-117071428D01*
X236735376Y-117000000D01*
X236735376Y-118500000D02*
X236663948Y-118571428D01*
X236592519Y-118500000D01*
X236663948Y-118428571D01*
X236735376Y-118500000D01*
X236592519Y-118500000D01*
X238092519Y-119500000D02*
X238092519Y-119642857D01*
X238021091Y-119785714D01*
X237949662Y-119857142D01*
X237806805Y-119928571D01*
X237521091Y-120000000D01*
X237163948Y-120000000D01*
X236878233Y-119928571D01*
X236735376Y-119857142D01*
X236663948Y-119785714D01*
X236592519Y-119642857D01*
X236592519Y-119500000D01*
X236663948Y-119357142D01*
X236735376Y-119285714D01*
X236878233Y-119214285D01*
X237163948Y-119142857D01*
X237521091Y-119142857D01*
X237806805Y-119214285D01*
X237949662Y-119285714D01*
X238021091Y-119357142D01*
X238092519Y-119500000D01*
X238092519Y-120928571D02*
X238092519Y-121071428D01*
X238021091Y-121214285D01*
X237949662Y-121285714D01*
X237806805Y-121357142D01*
X237521091Y-121428571D01*
X237163948Y-121428571D01*
X236878233Y-121357142D01*
X236735376Y-121285714D01*
X236663948Y-121214285D01*
X236592519Y-121071428D01*
X236592519Y-120928571D01*
X236663948Y-120785714D01*
X236735376Y-120714285D01*
X236878233Y-120642857D01*
X237163948Y-120571428D01*
X237521091Y-120571428D01*
X237806805Y-120642857D01*
X237949662Y-120714285D01*
X238021091Y-120785714D01*
X238092519Y-120928571D01*
X238092519Y-122357142D02*
X238092519Y-122500000D01*
X238021091Y-122642857D01*
X237949662Y-122714285D01*
X237806805Y-122785714D01*
X237521091Y-122857142D01*
X237163948Y-122857142D01*
X236878233Y-122785714D01*
X236735376Y-122714285D01*
X236663948Y-122642857D01*
X236592519Y-122500000D01*
X236592519Y-122357142D01*
X236663948Y-122214285D01*
X236735376Y-122142857D01*
X236878233Y-122071428D01*
X237163948Y-122000000D01*
X237521091Y-122000000D01*
X237806805Y-122071428D01*
X237949662Y-122142857D01*
X238021091Y-122214285D01*
X238092519Y-122357142D01*
X236592519Y-124642857D02*
X237592519Y-124642857D01*
X237449662Y-124642857D02*
X237521091Y-124714285D01*
X237592519Y-124857142D01*
X237592519Y-125071428D01*
X237521091Y-125214285D01*
X237378233Y-125285714D01*
X236592519Y-125285714D01*
X237378233Y-125285714D02*
X237521091Y-125357142D01*
X237592519Y-125500000D01*
X237592519Y-125714285D01*
X237521091Y-125857142D01*
X237378233Y-125928571D01*
X236592519Y-125928571D01*
X236592519Y-126642857D02*
X237592519Y-126642857D01*
X237449662Y-126642857D02*
X237521091Y-126714285D01*
X237592519Y-126857142D01*
X237592519Y-127071428D01*
X237521091Y-127214285D01*
X237378233Y-127285714D01*
X236592519Y-127285714D01*
X237378233Y-127285714D02*
X237521091Y-127357142D01*
X237592519Y-127500000D01*
X237592519Y-127714285D01*
X237521091Y-127857142D01*
X237378233Y-127928571D01*
X236592519Y-127928571D01*
X235171091Y-120000000D02*
X235171091Y-125000000D01*
X228171091Y-120000000D02*
X235757512Y-120000000D01*
X228171091Y-125000000D02*
X235757512Y-125000000D01*
X235171091Y-125000000D02*
X234584670Y-123873496D01*
X235171091Y-125000000D02*
X235757512Y-123873496D01*
X235171091Y-120000000D02*
X234584670Y-121126504D01*
X235171091Y-120000000D02*
X235757512Y-121126504D01*
X225785714Y-128278571D02*
X225071428Y-128278571D01*
X225000000Y-128992857D01*
X225071428Y-128921428D01*
X225214285Y-128850000D01*
X225571428Y-128850000D01*
X225714285Y-128921428D01*
X225785714Y-128992857D01*
X225857142Y-129135714D01*
X225857142Y-129492857D01*
X225785714Y-129635714D01*
X225714285Y-129707142D01*
X225571428Y-129778571D01*
X225214285Y-129778571D01*
X225071428Y-129707142D01*
X225000000Y-129635714D01*
X226500000Y-129635714D02*
X226571428Y-129707142D01*
X226500000Y-129778571D01*
X226428571Y-129707142D01*
X226500000Y-129635714D01*
X226500000Y-129778571D01*
X227500000Y-128278571D02*
X227642857Y-128278571D01*
X227785714Y-128350000D01*
X227857142Y-128421428D01*
X227928571Y-128564285D01*
X228000000Y-128850000D01*
X228000000Y-129207142D01*
X227928571Y-129492857D01*
X227857142Y-129635714D01*
X227785714Y-129707142D01*
X227642857Y-129778571D01*
X227500000Y-129778571D01*
X227357142Y-129707142D01*
X227285714Y-129635714D01*
X227214285Y-129492857D01*
X227142857Y-129207142D01*
X227142857Y-128850000D01*
X227214285Y-128564285D01*
X227285714Y-128421428D01*
X227357142Y-128350000D01*
X227500000Y-128278571D01*
X228928571Y-128278571D02*
X229071428Y-128278571D01*
X229214285Y-128350000D01*
X229285714Y-128421428D01*
X229357142Y-128564285D01*
X229428571Y-128850000D01*
X229428571Y-129207142D01*
X229357142Y-129492857D01*
X229285714Y-129635714D01*
X229214285Y-129707142D01*
X229071428Y-129778571D01*
X228928571Y-129778571D01*
X228785714Y-129707142D01*
X228714285Y-129635714D01*
X228642857Y-129492857D01*
X228571428Y-129207142D01*
X228571428Y-128850000D01*
X228642857Y-128564285D01*
X228714285Y-128421428D01*
X228785714Y-128350000D01*
X228928571Y-128278571D01*
X230357142Y-128278571D02*
X230500000Y-128278571D01*
X230642857Y-128350000D01*
X230714285Y-128421428D01*
X230785714Y-128564285D01*
X230857142Y-128850000D01*
X230857142Y-129207142D01*
X230785714Y-129492857D01*
X230714285Y-129635714D01*
X230642857Y-129707142D01*
X230500000Y-129778571D01*
X230357142Y-129778571D01*
X230214285Y-129707142D01*
X230142857Y-129635714D01*
X230071428Y-129492857D01*
X230000000Y-129207142D01*
X230000000Y-128850000D01*
X230071428Y-128564285D01*
X230142857Y-128421428D01*
X230214285Y-128350000D01*
X230357142Y-128278571D01*
X232642857Y-129778571D02*
X232642857Y-128778571D01*
X232642857Y-128921428D02*
X232714285Y-128850000D01*
X232857142Y-128778571D01*
X233071428Y-128778571D01*
X233214285Y-128850000D01*
X233285714Y-128992857D01*
X233285714Y-129778571D01*
X233285714Y-128992857D02*
X233357142Y-128850000D01*
X233500000Y-128778571D01*
X233714285Y-128778571D01*
X233857142Y-128850000D01*
X233928571Y-128992857D01*
X233928571Y-129778571D01*
X234642857Y-129778571D02*
X234642857Y-128778571D01*
X234642857Y-128921428D02*
X234714285Y-128850000D01*
X234857142Y-128778571D01*
X235071428Y-128778571D01*
X235214285Y-128850000D01*
X235285714Y-128992857D01*
X235285714Y-129778571D01*
X235285714Y-128992857D02*
X235357142Y-128850000D01*
X235500000Y-128778571D01*
X235714285Y-128778571D01*
X235857142Y-128850000D01*
X235928571Y-128992857D01*
X235928571Y-129778571D01*
X228000000Y-127000000D02*
X233000000Y-127000000D01*
X228000000Y-120000000D02*
X228000000Y-127586421D01*
X233000000Y-120000000D02*
X233000000Y-127586421D01*
X233000000Y-127000000D02*
X231873496Y-127586421D01*
X233000000Y-127000000D02*
X231873496Y-126413579D01*
X228000000Y-127000000D02*
X229126504Y-127586421D01*
X228000000Y-127000000D02*
X229126504Y-126413579D01*
X200000000Y-128778571D02*
X200000000Y-129778571D01*
X199642857Y-128207142D02*
X199285714Y-129278571D01*
X200214285Y-129278571D01*
X201500000Y-128278571D02*
X200785714Y-128278571D01*
X200714285Y-128992857D01*
X200785714Y-128921428D01*
X200928571Y-128850000D01*
X201285714Y-128850000D01*
X201428571Y-128921428D01*
X201500000Y-128992857D01*
X201571428Y-129135714D01*
X201571428Y-129492857D01*
X201500000Y-129635714D01*
X201428571Y-129707142D01*
X201285714Y-129778571D01*
X200928571Y-129778571D01*
X200785714Y-129707142D01*
X200714285Y-129635714D01*
X202214285Y-129635714D02*
X202285714Y-129707142D01*
X202214285Y-129778571D01*
X202142857Y-129707142D01*
X202214285Y-129635714D01*
X202214285Y-129778571D01*
X203214285Y-128278571D02*
X203357142Y-128278571D01*
X203500000Y-128350000D01*
X203571428Y-128421428D01*
X203642857Y-128564285D01*
X203714285Y-128850000D01*
X203714285Y-129207142D01*
X203642857Y-129492857D01*
X203571428Y-129635714D01*
X203500000Y-129707142D01*
X203357142Y-129778571D01*
X203214285Y-129778571D01*
X203071428Y-129707142D01*
X203000000Y-129635714D01*
X202928571Y-129492857D01*
X202857142Y-129207142D01*
X202857142Y-128850000D01*
X202928571Y-128564285D01*
X203000000Y-128421428D01*
X203071428Y-128350000D01*
X203214285Y-128278571D01*
X204642857Y-128278571D02*
X204785714Y-128278571D01*
X204928571Y-128350000D01*
X205000000Y-128421428D01*
X205071428Y-128564285D01*
X205142857Y-128850000D01*
X205142857Y-129207142D01*
X205071428Y-129492857D01*
X205000000Y-129635714D01*
X204928571Y-129707142D01*
X204785714Y-129778571D01*
X204642857Y-129778571D01*
X204500000Y-129707142D01*
X204428571Y-129635714D01*
X204357142Y-129492857D01*
X204285714Y-129207142D01*
X204285714Y-128850000D01*
X204357142Y-128564285D01*
X204428571Y-128421428D01*
X204500000Y-128350000D01*
X204642857Y-128278571D01*
X206071428Y-128278571D02*
X206214285Y-128278571D01*
X206357142Y-128350000D01*
X206428571Y-128421428D01*
X206500000Y-128564285D01*
X206571428Y-128850000D01*
X206571428Y-129207142D01*
X206500000Y-129492857D01*
X206428571Y-129635714D01*
X206357142Y-129707142D01*
X206214285Y-129778571D01*
X206071428Y-129778571D01*
X205928571Y-129707142D01*
X205857142Y-129635714D01*
X205785714Y-129492857D01*
X205714285Y-129207142D01*
X205714285Y-128850000D01*
X205785714Y-128564285D01*
X205857142Y-128421428D01*
X205928571Y-128350000D01*
X206071428Y-128278571D01*
X208357142Y-129778571D02*
X208357142Y-128778571D01*
X208357142Y-128921428D02*
X208428571Y-128850000D01*
X208571428Y-128778571D01*
X208785714Y-128778571D01*
X208928571Y-128850000D01*
X209000000Y-128992857D01*
X209000000Y-129778571D01*
X209000000Y-128992857D02*
X209071428Y-128850000D01*
X209214285Y-128778571D01*
X209428571Y-128778571D01*
X209571428Y-128850000D01*
X209642857Y-128992857D01*
X209642857Y-129778571D01*
X210357142Y-129778571D02*
X210357142Y-128778571D01*
X210357142Y-128921428D02*
X210428571Y-128850000D01*
X210571428Y-128778571D01*
X210785714Y-128778571D01*
X210928571Y-128850000D01*
X211000000Y-128992857D01*
X211000000Y-129778571D01*
X211000000Y-128992857D02*
X211071428Y-128850000D01*
X211214285Y-128778571D01*
X211428571Y-128778571D01*
X211571428Y-128850000D01*
X211642857Y-128992857D01*
X211642857Y-129778571D01*
X228000000Y-127000000D02*
X183000000Y-127000000D01*
X228000000Y-120000000D02*
X228000000Y-127586421D01*
X183000000Y-120000000D02*
X183000000Y-127586421D01*
X183000000Y-127000000D02*
X184126504Y-126413579D01*
X183000000Y-127000000D02*
X184126504Y-127586421D01*
X228000000Y-127000000D02*
X226873496Y-126413579D01*
X228000000Y-127000000D02*
X226873496Y-127586421D01*
X174721428Y-117785714D02*
X174721428Y-117071428D01*
X174007142Y-117000000D01*
X174078571Y-117071428D01*
X174150000Y-117214285D01*
X174150000Y-117571428D01*
X174078571Y-117714285D01*
X174007142Y-117785714D01*
X173864285Y-117857142D01*
X173507142Y-117857142D01*
X173364285Y-117785714D01*
X173292857Y-117714285D01*
X173221428Y-117571428D01*
X173221428Y-117214285D01*
X173292857Y-117071428D01*
X173364285Y-117000000D01*
X173364285Y-118500000D02*
X173292857Y-118571428D01*
X173221428Y-118500000D01*
X173292857Y-118428571D01*
X173364285Y-118500000D01*
X173221428Y-118500000D01*
X174721428Y-119500000D02*
X174721428Y-119642857D01*
X174650000Y-119785714D01*
X174578571Y-119857142D01*
X174435714Y-119928571D01*
X174150000Y-120000000D01*
X173792857Y-120000000D01*
X173507142Y-119928571D01*
X173364285Y-119857142D01*
X173292857Y-119785714D01*
X173221428Y-119642857D01*
X173221428Y-119500000D01*
X173292857Y-119357142D01*
X173364285Y-119285714D01*
X173507142Y-119214285D01*
X173792857Y-119142857D01*
X174150000Y-119142857D01*
X174435714Y-119214285D01*
X174578571Y-119285714D01*
X174650000Y-119357142D01*
X174721428Y-119500000D01*
X174721428Y-120928571D02*
X174721428Y-121071428D01*
X174650000Y-121214285D01*
X174578571Y-121285714D01*
X174435714Y-121357142D01*
X174150000Y-121428571D01*
X173792857Y-121428571D01*
X173507142Y-121357142D01*
X173364285Y-121285714D01*
X173292857Y-121214285D01*
X173221428Y-121071428D01*
X173221428Y-120928571D01*
X173292857Y-120785714D01*
X173364285Y-120714285D01*
X173507142Y-120642857D01*
X173792857Y-120571428D01*
X174150000Y-120571428D01*
X174435714Y-120642857D01*
X174578571Y-120714285D01*
X174650000Y-120785714D01*
X174721428Y-120928571D01*
X174721428Y-122357142D02*
X174721428Y-122500000D01*
X174650000Y-122642857D01*
X174578571Y-122714285D01*
X174435714Y-122785714D01*
X174150000Y-122857142D01*
X173792857Y-122857142D01*
X173507142Y-122785714D01*
X173364285Y-122714285D01*
X173292857Y-122642857D01*
X173221428Y-122500000D01*
X173221428Y-122357142D01*
X173292857Y-122214285D01*
X173364285Y-122142857D01*
X173507142Y-122071428D01*
X173792857Y-122000000D01*
X174150000Y-122000000D01*
X174435714Y-122071428D01*
X174578571Y-122142857D01*
X174650000Y-122214285D01*
X174721428Y-122357142D01*
X173221428Y-124642857D02*
X174221428Y-124642857D01*
X174078571Y-124642857D02*
X174150000Y-124714285D01*
X174221428Y-124857142D01*
X174221428Y-125071428D01*
X174150000Y-125214285D01*
X174007142Y-125285714D01*
X173221428Y-125285714D01*
X174007142Y-125285714D02*
X174150000Y-125357142D01*
X174221428Y-125500000D01*
X174221428Y-125714285D01*
X174150000Y-125857142D01*
X174007142Y-125928571D01*
X173221428Y-125928571D01*
X173221428Y-126642857D02*
X174221428Y-126642857D01*
X174078571Y-126642857D02*
X174150000Y-126714285D01*
X174221428Y-126857142D01*
X174221428Y-127071428D01*
X174150000Y-127214285D01*
X174007142Y-127285714D01*
X173221428Y-127285714D01*
X174007142Y-127285714D02*
X174150000Y-127357142D01*
X174221428Y-127500000D01*
X174221428Y-127714285D01*
X174150000Y-127857142D01*
X174007142Y-127928571D01*
X173221428Y-127928571D01*
X176000000Y-120000000D02*
X176000000Y-125000000D01*
X183000000Y-120000000D02*
X175413579Y-120000000D01*
X183000000Y-125000000D02*
X175413579Y-125000000D01*
X176000000Y-125000000D02*
X175413579Y-123873496D01*
X176000000Y-125000000D02*
X176586421Y-123873496D01*
X176000000Y-120000000D02*
X175413579Y-121126504D01*
X176000000Y-120000000D02*
X176586421Y-121126504D01*
X175785714Y-128278571D02*
X175071428Y-128278571D01*
X175000000Y-128992857D01*
X175071428Y-128921428D01*
X175214285Y-128850000D01*
X175571428Y-128850000D01*
X175714285Y-128921428D01*
X175785714Y-128992857D01*
X175857142Y-129135714D01*
X175857142Y-129492857D01*
X175785714Y-129635714D01*
X175714285Y-129707142D01*
X175571428Y-129778571D01*
X175214285Y-129778571D01*
X175071428Y-129707142D01*
X175000000Y-129635714D01*
X176500000Y-129635714D02*
X176571428Y-129707142D01*
X176500000Y-129778571D01*
X176428571Y-129707142D01*
X176500000Y-129635714D01*
X176500000Y-129778571D01*
X177500000Y-128278571D02*
X177642857Y-128278571D01*
X177785714Y-128350000D01*
X177857142Y-128421428D01*
X177928571Y-128564285D01*
X178000000Y-128850000D01*
X178000000Y-129207142D01*
X177928571Y-129492857D01*
X177857142Y-129635714D01*
X177785714Y-129707142D01*
X177642857Y-129778571D01*
X177500000Y-129778571D01*
X177357142Y-129707142D01*
X177285714Y-129635714D01*
X177214285Y-129492857D01*
X177142857Y-129207142D01*
X177142857Y-128850000D01*
X177214285Y-128564285D01*
X177285714Y-128421428D01*
X177357142Y-128350000D01*
X177500000Y-128278571D01*
X178928571Y-128278571D02*
X179071428Y-128278571D01*
X179214285Y-128350000D01*
X179285714Y-128421428D01*
X179357142Y-128564285D01*
X179428571Y-128850000D01*
X179428571Y-129207142D01*
X179357142Y-129492857D01*
X179285714Y-129635714D01*
X179214285Y-129707142D01*
X179071428Y-129778571D01*
X178928571Y-129778571D01*
X178785714Y-129707142D01*
X178714285Y-129635714D01*
X178642857Y-129492857D01*
X178571428Y-129207142D01*
X178571428Y-128850000D01*
X178642857Y-128564285D01*
X178714285Y-128421428D01*
X178785714Y-128350000D01*
X178928571Y-128278571D01*
X180357142Y-128278571D02*
X180500000Y-128278571D01*
X180642857Y-128350000D01*
X180714285Y-128421428D01*
X180785714Y-128564285D01*
X180857142Y-128850000D01*
X180857142Y-129207142D01*
X180785714Y-129492857D01*
X180714285Y-129635714D01*
X180642857Y-129707142D01*
X180500000Y-129778571D01*
X180357142Y-129778571D01*
X180214285Y-129707142D01*
X180142857Y-129635714D01*
X180071428Y-129492857D01*
X180000000Y-129207142D01*
X180000000Y-128850000D01*
X180071428Y-128564285D01*
X180142857Y-128421428D01*
X180214285Y-128350000D01*
X180357142Y-128278571D01*
X182642857Y-129778571D02*
X182642857Y-128778571D01*
X182642857Y-128921428D02*
X182714285Y-128850000D01*
X182857142Y-128778571D01*
X183071428Y-128778571D01*
X183214285Y-128850000D01*
X183285714Y-128992857D01*
X183285714Y-129778571D01*
X183285714Y-128992857D02*
X183357142Y-128850000D01*
X183500000Y-128778571D01*
X183714285Y-128778571D01*
X183857142Y-128850000D01*
X183928571Y-128992857D01*
X183928571Y-129778571D01*
X184642857Y-129778571D02*
X184642857Y-128778571D01*
X184642857Y-128921428D02*
X184714285Y-128850000D01*
X184857142Y-128778571D01*
X185071428Y-128778571D01*
X185214285Y-128850000D01*
X185285714Y-128992857D01*
X185285714Y-129778571D01*
X185285714Y-128992857D02*
X185357142Y-128850000D01*
X185500000Y-128778571D01*
X185714285Y-128778571D01*
X185857142Y-128850000D01*
X185928571Y-128992857D01*
X185928571Y-129778571D01*
X183000000Y-127000000D02*
X178000000Y-127000000D01*
X183000000Y-120000000D02*
X183000000Y-127586421D01*
X178000000Y-120000000D02*
X178000000Y-127586421D01*
X178000000Y-127000000D02*
X179126504Y-126413579D01*
X178000000Y-127000000D02*
X179126504Y-127586421D01*
X183000000Y-127000000D02*
X181873496Y-126413579D01*
X183000000Y-127000000D02*
X181873496Y-127586421D01*
X200071428Y-132278571D02*
X199357142Y-132278571D01*
X199285714Y-132992857D01*
X199357142Y-132921428D01*
X199500000Y-132850000D01*
X199857142Y-132850000D01*
X200000000Y-132921428D01*
X200071428Y-132992857D01*
X200142857Y-133135714D01*
X200142857Y-133492857D01*
X200071428Y-133635714D01*
X200000000Y-133707142D01*
X199857142Y-133778571D01*
X199500000Y-133778571D01*
X199357142Y-133707142D01*
X199285714Y-133635714D01*
X201500000Y-132278571D02*
X200785714Y-132278571D01*
X200714285Y-132992857D01*
X200785714Y-132921428D01*
X200928571Y-132850000D01*
X201285714Y-132850000D01*
X201428571Y-132921428D01*
X201500000Y-132992857D01*
X201571428Y-133135714D01*
X201571428Y-133492857D01*
X201500000Y-133635714D01*
X201428571Y-133707142D01*
X201285714Y-133778571D01*
X200928571Y-133778571D01*
X200785714Y-133707142D01*
X200714285Y-133635714D01*
X202214285Y-133635714D02*
X202285714Y-133707142D01*
X202214285Y-133778571D01*
X202142857Y-133707142D01*
X202214285Y-133635714D01*
X202214285Y-133778571D01*
X203214285Y-132278571D02*
X203357142Y-132278571D01*
X203500000Y-132350000D01*
X203571428Y-132421428D01*
X203642857Y-132564285D01*
X203714285Y-132850000D01*
X203714285Y-133207142D01*
X203642857Y-133492857D01*
X203571428Y-133635714D01*
X203500000Y-133707142D01*
X203357142Y-133778571D01*
X203214285Y-133778571D01*
X203071428Y-133707142D01*
X203000000Y-133635714D01*
X202928571Y-133492857D01*
X202857142Y-133207142D01*
X202857142Y-132850000D01*
X202928571Y-132564285D01*
X203000000Y-132421428D01*
X203071428Y-132350000D01*
X203214285Y-132278571D01*
X204642857Y-132278571D02*
X204785714Y-132278571D01*
X204928571Y-132350000D01*
X205000000Y-132421428D01*
X205071428Y-132564285D01*
X205142857Y-132850000D01*
X205142857Y-133207142D01*
X205071428Y-133492857D01*
X205000000Y-133635714D01*
X204928571Y-133707142D01*
X204785714Y-133778571D01*
X204642857Y-133778571D01*
X204500000Y-133707142D01*
X204428571Y-133635714D01*
X204357142Y-133492857D01*
X204285714Y-133207142D01*
X204285714Y-132850000D01*
X204357142Y-132564285D01*
X204428571Y-132421428D01*
X204500000Y-132350000D01*
X204642857Y-132278571D01*
X206071428Y-132278571D02*
X206214285Y-132278571D01*
X206357142Y-132350000D01*
X206428571Y-132421428D01*
X206500000Y-132564285D01*
X206571428Y-132850000D01*
X206571428Y-133207142D01*
X206500000Y-133492857D01*
X206428571Y-133635714D01*
X206357142Y-133707142D01*
X206214285Y-133778571D01*
X206071428Y-133778571D01*
X205928571Y-133707142D01*
X205857142Y-133635714D01*
X205785714Y-133492857D01*
X205714285Y-133207142D01*
X205714285Y-132850000D01*
X205785714Y-132564285D01*
X205857142Y-132421428D01*
X205928571Y-132350000D01*
X206071428Y-132278571D01*
X208357142Y-133778571D02*
X208357142Y-132778571D01*
X208357142Y-132921428D02*
X208428571Y-132850000D01*
X208571428Y-132778571D01*
X208785714Y-132778571D01*
X208928571Y-132850000D01*
X209000000Y-132992857D01*
X209000000Y-133778571D01*
X209000000Y-132992857D02*
X209071428Y-132850000D01*
X209214285Y-132778571D01*
X209428571Y-132778571D01*
X209571428Y-132850000D01*
X209642857Y-132992857D01*
X209642857Y-133778571D01*
X210357142Y-133778571D02*
X210357142Y-132778571D01*
X210357142Y-132921428D02*
X210428571Y-132850000D01*
X210571428Y-132778571D01*
X210785714Y-132778571D01*
X210928571Y-132850000D01*
X211000000Y-132992857D01*
X211000000Y-133778571D01*
X211000000Y-132992857D02*
X211071428Y-132850000D01*
X211214285Y-132778571D01*
X211428571Y-132778571D01*
X211571428Y-132850000D01*
X211642857Y-132992857D01*
X211642857Y-133778571D01*
X178000000Y-131000000D02*
X233000000Y-131000000D01*
X178000000Y-123000000D02*
X178000000Y-131586421D01*
X233000000Y-123000000D02*
X233000000Y-131586421D01*
X233000000Y-131000000D02*
X231873496Y-131586421D01*
X233000000Y-131000000D02*
X231873496Y-130413579D01*
X178000000Y-131000000D02*
X179126504Y-131586421D01*
X178000000Y-131000000D02*
X179126504Y-130413579D01*
X170078571Y-79071428D02*
X170150000Y-78928571D01*
X170221428Y-78857142D01*
X170364285Y-78785714D01*
X170435714Y-78785714D01*
X170578571Y-78857142D01*
X170650000Y-78928571D01*
X170721428Y-79071428D01*
X170721428Y-79357142D01*
X170650000Y-79500000D01*
X170578571Y-79571428D01*
X170435714Y-79642857D01*
X170364285Y-79642857D01*
X170221428Y-79571428D01*
X170150000Y-79500000D01*
X170078571Y-79357142D01*
X170078571Y-79071428D01*
X170007142Y-78928571D01*
X169935714Y-78857142D01*
X169792857Y-78785714D01*
X169507142Y-78785714D01*
X169364285Y-78857142D01*
X169292857Y-78928571D01*
X169221428Y-79071428D01*
X169221428Y-79357142D01*
X169292857Y-79500000D01*
X169364285Y-79571428D01*
X169507142Y-79642857D01*
X169792857Y-79642857D01*
X169935714Y-79571428D01*
X170007142Y-79500000D01*
X170078571Y-79357142D01*
X170721428Y-80571428D02*
X170721428Y-80714285D01*
X170650000Y-80857142D01*
X170578571Y-80928571D01*
X170435714Y-81000000D01*
X170150000Y-81071428D01*
X169792857Y-81071428D01*
X169507142Y-81000000D01*
X169364285Y-80928571D01*
X169292857Y-80857142D01*
X169221428Y-80714285D01*
X169221428Y-80571428D01*
X169292857Y-80428571D01*
X169364285Y-80357142D01*
X169507142Y-80285714D01*
X169792857Y-80214285D01*
X170150000Y-80214285D01*
X170435714Y-80285714D01*
X170578571Y-80357142D01*
X170650000Y-80428571D01*
X170721428Y-80571428D01*
X169364285Y-81714285D02*
X169292857Y-81785714D01*
X169221428Y-81714285D01*
X169292857Y-81642857D01*
X169364285Y-81714285D01*
X169221428Y-81714285D01*
X170721428Y-82714285D02*
X170721428Y-82857142D01*
X170650000Y-83000000D01*
X170578571Y-83071428D01*
X170435714Y-83142857D01*
X170150000Y-83214285D01*
X169792857Y-83214285D01*
X169507142Y-83142857D01*
X169364285Y-83071428D01*
X169292857Y-83000000D01*
X169221428Y-82857142D01*
X169221428Y-82714285D01*
X169292857Y-82571428D01*
X169364285Y-82500000D01*
X169507142Y-82428571D01*
X169792857Y-82357142D01*
X170150000Y-82357142D01*
X170435714Y-82428571D01*
X170578571Y-82500000D01*
X170650000Y-82571428D01*
X170721428Y-82714285D01*
X170721428Y-84142857D02*
X170721428Y-84285714D01*
X170650000Y-84428571D01*
X170578571Y-84500000D01*
X170435714Y-84571428D01*
X170150000Y-84642857D01*
X169792857Y-84642857D01*
X169507142Y-84571428D01*
X169364285Y-84500000D01*
X169292857Y-84428571D01*
X169221428Y-84285714D01*
X169221428Y-84142857D01*
X169292857Y-84000000D01*
X169364285Y-83928571D01*
X169507142Y-83857142D01*
X169792857Y-83785714D01*
X170150000Y-83785714D01*
X170435714Y-83857142D01*
X170578571Y-83928571D01*
X170650000Y-84000000D01*
X170721428Y-84142857D01*
X170721428Y-85571428D02*
X170721428Y-85714285D01*
X170650000Y-85857142D01*
X170578571Y-85928571D01*
X170435714Y-86000000D01*
X170150000Y-86071428D01*
X169792857Y-86071428D01*
X169507142Y-86000000D01*
X169364285Y-85928571D01*
X169292857Y-85857142D01*
X169221428Y-85714285D01*
X169221428Y-85571428D01*
X169292857Y-85428571D01*
X169364285Y-85357142D01*
X169507142Y-85285714D01*
X169792857Y-85214285D01*
X170150000Y-85214285D01*
X170435714Y-85285714D01*
X170578571Y-85357142D01*
X170650000Y-85428571D01*
X170721428Y-85571428D01*
X169221428Y-87857142D02*
X170221428Y-87857142D01*
X170078571Y-87857142D02*
X170150000Y-87928571D01*
X170221428Y-88071428D01*
X170221428Y-88285714D01*
X170150000Y-88428571D01*
X170007142Y-88500000D01*
X169221428Y-88500000D01*
X170007142Y-88500000D02*
X170150000Y-88571428D01*
X170221428Y-88714285D01*
X170221428Y-88928571D01*
X170150000Y-89071428D01*
X170007142Y-89142857D01*
X169221428Y-89142857D01*
X169221428Y-89857142D02*
X170221428Y-89857142D01*
X170078571Y-89857142D02*
X170150000Y-89928571D01*
X170221428Y-90071428D01*
X170221428Y-90285714D01*
X170150000Y-90428571D01*
X170007142Y-90500000D01*
X169221428Y-90500000D01*
X170007142Y-90500000D02*
X170150000Y-90571428D01*
X170221428Y-90714285D01*
X170221428Y-90928571D01*
X170150000Y-91071428D01*
X170007142Y-91142857D01*
X169221428Y-91142857D01*
X172000000Y-45000000D02*
X172000000Y-125000000D01*
X181000000Y-45000000D02*
X171413579Y-45000000D01*
X181000000Y-125000000D02*
X171413579Y-125000000D01*
X172000000Y-125000000D02*
X171413579Y-123873496D01*
X172000000Y-125000000D02*
X172586421Y-123873496D01*
X172000000Y-45000000D02*
X171413579Y-46126504D01*
X172000000Y-45000000D02*
X172586421Y-46126504D01*
D11*
X180000000Y-125000000D02*
G75*
G02X178000000Y-123000000I0J2000000D01*
G01*
X231000000Y-45000000D02*
G75*
G02X233000000Y-47000000I0J-2000000D01*
G01*
X233000000Y-123000000D02*
G75*
G02X231000000Y-125000000I-2000000J0D01*
G01*
X178000000Y-47000000D02*
G75*
G02X180000000Y-45000000I2000000J0D01*
G01*
X178000000Y-47000000D02*
X178000000Y-123000000D01*
X231000000Y-45000000D02*
X180000000Y-45000000D01*
X233000000Y-123000000D02*
X233000000Y-47000000D01*
X180000000Y-125000000D02*
X231000000Y-125000000D01*
D12*
G04 #@! TO.C,IC4*
X226180000Y-66450000D02*
X227450000Y-67720000D01*
X222550000Y-66450000D02*
X227450000Y-66450000D01*
X222550000Y-70350000D02*
X222550000Y-66450000D01*
X227450000Y-70350000D02*
X222550000Y-70350000D01*
X227450000Y-66450000D02*
X227450000Y-70350000D01*
D13*
X222250000Y-64675000D02*
X227750000Y-64675000D01*
X222250000Y-72125000D02*
X222250000Y-64675000D01*
X227750000Y-72125000D02*
X222250000Y-72125000D01*
X227750000Y-64675000D02*
X227750000Y-72125000D01*
G04 #@! TO.C,IC8*
X218425000Y-55565000D02*
X210975000Y-55565000D01*
X210975000Y-55565000D02*
X210975000Y-50065000D01*
X210975000Y-50065000D02*
X218425000Y-50065000D01*
X218425000Y-50065000D02*
X218425000Y-55565000D01*
D12*
X216650000Y-55265000D02*
X212750000Y-55265000D01*
X212750000Y-55265000D02*
X212750000Y-50365000D01*
X212750000Y-50365000D02*
X216650000Y-50365000D01*
X216650000Y-50365000D02*
X216650000Y-55265000D01*
X216650000Y-53995000D02*
X215380000Y-55265000D01*
D13*
G04 #@! TO.C,EXT4*
X216800000Y-93950000D02*
X216800000Y-88950000D01*
X216800000Y-88950000D02*
X231200000Y-88950000D01*
X231200000Y-88950000D02*
X231200000Y-93950000D01*
X231200000Y-93950000D02*
X216800000Y-93950000D01*
D12*
X217050000Y-93700000D02*
X217050000Y-89200000D01*
X217050000Y-89200000D02*
X230950000Y-89200000D01*
X230950000Y-89200000D02*
X230950000Y-93700000D01*
X230950000Y-93700000D02*
X217050000Y-93700000D01*
D14*
G04 #@! TO.C,R13*
X212925000Y-61225000D02*
X212925000Y-58025000D01*
X214525000Y-61225000D02*
X212925000Y-61225000D01*
X214525000Y-58025000D02*
X214525000Y-61225000D01*
X212925000Y-58025000D02*
X214525000Y-58025000D01*
G04 #@! TO.C,R5*
X189300000Y-115000000D02*
X189300000Y-118200000D01*
X187700000Y-115000000D02*
X189300000Y-115000000D01*
X187700000Y-118200000D02*
X187700000Y-115000000D01*
X189300000Y-118200000D02*
X187700000Y-118200000D01*
D12*
G04 #@! TO.C,LINK0*
X229950000Y-61200000D02*
X216050000Y-61200000D01*
X229950000Y-56700000D02*
X229950000Y-61200000D01*
X216050000Y-56700000D02*
X229950000Y-56700000D01*
X216050000Y-61200000D02*
X216050000Y-56700000D01*
D13*
X230200000Y-61450000D02*
X215800000Y-61450000D01*
X230200000Y-56450000D02*
X230200000Y-61450000D01*
X215800000Y-56450000D02*
X230200000Y-56450000D01*
X215800000Y-61450000D02*
X215800000Y-56450000D01*
G04 #@! TO.C,IC3*
X199350000Y-103325000D02*
X199350000Y-95475000D01*
X199350000Y-95475000D02*
X207750000Y-95475000D01*
X207750000Y-95475000D02*
X207750000Y-103325000D01*
X207750000Y-103325000D02*
X199350000Y-103325000D01*
D12*
X199650000Y-101600000D02*
X199650000Y-97200000D01*
X199650000Y-97200000D02*
X207450000Y-97200000D01*
X207450000Y-97200000D02*
X207450000Y-101600000D01*
X207450000Y-101600000D02*
X199650000Y-101600000D01*
X200300000Y-101600000D02*
X199650000Y-100950000D01*
G04 #@! TO.C,IC7*
X214450000Y-79315000D02*
X213815000Y-79950000D01*
X214450000Y-75050000D02*
X214450000Y-79950000D01*
X210550000Y-75050000D02*
X214450000Y-75050000D01*
X210550000Y-79950000D02*
X210550000Y-75050000D01*
X214450000Y-79950000D02*
X210550000Y-79950000D01*
D13*
X216225000Y-74750000D02*
X216225000Y-80250000D01*
X208775000Y-74750000D02*
X216225000Y-74750000D01*
X208775000Y-80250000D02*
X208775000Y-74750000D01*
X216225000Y-80250000D02*
X208775000Y-80250000D01*
G04 #@! TO.C,IC6*
X203650000Y-81375000D02*
X200050000Y-81375000D01*
X200050000Y-81375000D02*
X200050000Y-78725000D01*
X200050000Y-78725000D02*
X203650000Y-78725000D01*
X203650000Y-78725000D02*
X203650000Y-81375000D01*
D12*
X202475000Y-81050000D02*
X201225000Y-81050000D01*
X201225000Y-81050000D02*
X201225000Y-79050000D01*
X201225000Y-79050000D02*
X202475000Y-79050000D01*
X202475000Y-79050000D02*
X202475000Y-81050000D01*
X202475000Y-80400000D02*
X201825000Y-81050000D01*
D13*
G04 #@! TO.C,IC2*
X187500000Y-71975000D02*
X187500000Y-64125000D01*
X187500000Y-64125000D02*
X193100000Y-64125000D01*
X193100000Y-64125000D02*
X193100000Y-71975000D01*
X193100000Y-71975000D02*
X187500000Y-71975000D01*
D12*
X187800000Y-70250000D02*
X187800000Y-65850000D01*
X187800000Y-65850000D02*
X192800000Y-65850000D01*
X192800000Y-65850000D02*
X192800000Y-70250000D01*
X192800000Y-70250000D02*
X187800000Y-70250000D01*
X188450000Y-70249999D02*
X187800001Y-69600000D01*
D13*
G04 #@! TO.C,IC5*
X200463000Y-70303000D02*
X207913000Y-70303000D01*
X207913000Y-70303000D02*
X207913000Y-75803000D01*
X207913000Y-75803000D02*
X200463000Y-75803000D01*
X200463000Y-75803000D02*
X200463000Y-70303000D01*
D12*
X202238000Y-70603000D02*
X206138000Y-70603000D01*
X206138000Y-70603000D02*
X206138000Y-75503000D01*
X206138000Y-75503000D02*
X202238000Y-75503000D01*
X202238000Y-75503000D02*
X202238000Y-70603000D01*
X202238000Y-71238000D02*
X202873000Y-70603000D01*
D13*
G04 #@! TO.C,U1*
X190702000Y-75840000D02*
X215298000Y-75840000D01*
X215298000Y-75840000D02*
X215298000Y-124600000D01*
X215298000Y-124600000D02*
X190702000Y-124600000D01*
X190702000Y-124600000D02*
X190702000Y-75840000D01*
D12*
X190300000Y-76090000D02*
X215700000Y-76090000D01*
X215700000Y-76090000D02*
X215700000Y-124350000D01*
X215700000Y-124350000D02*
X190300000Y-124350000D01*
X190300000Y-124350000D02*
X190300000Y-76090000D01*
X190300000Y-77360000D02*
X191570000Y-76090000D01*
D13*
G04 #@! TO.C,EXT2*
X216800000Y-104950000D02*
X216800000Y-99950000D01*
X216800000Y-99950000D02*
X231200000Y-99950000D01*
X231200000Y-99950000D02*
X231200000Y-104950000D01*
X231200000Y-104950000D02*
X216800000Y-104950000D01*
D12*
X217050000Y-104700000D02*
X217050000Y-100200000D01*
X217050000Y-100200000D02*
X230950000Y-100200000D01*
X230950000Y-100200000D02*
X230950000Y-104700000D01*
X230950000Y-104700000D02*
X217050000Y-104700000D01*
G04 #@! TO.C,LOC1*
X204700000Y-48050000D02*
X204700000Y-61950000D01*
X200200000Y-48050000D02*
X204700000Y-48050000D01*
X200200000Y-61950000D02*
X200200000Y-48050000D01*
X204700000Y-61950000D02*
X200200000Y-61950000D01*
D13*
X204950000Y-47800000D02*
X204950000Y-62200000D01*
X199950000Y-47800000D02*
X204950000Y-47800000D01*
X199950000Y-62200000D02*
X199950000Y-47800000D01*
X204950000Y-62200000D02*
X199950000Y-62200000D01*
G04 #@! TO.C,LOC0*
X210450000Y-62200000D02*
X205450000Y-62200000D01*
X205450000Y-62200000D02*
X205450000Y-47800000D01*
X205450000Y-47800000D02*
X210450000Y-47800000D01*
X210450000Y-47800000D02*
X210450000Y-62200000D01*
D12*
X210200000Y-61950000D02*
X205700000Y-61950000D01*
X205700000Y-61950000D02*
X205700000Y-48050000D01*
X205700000Y-48050000D02*
X210200000Y-48050000D01*
X210200000Y-48050000D02*
X210200000Y-61950000D01*
D13*
G04 #@! TO.C,EXT0*
X216800000Y-115950000D02*
X216800000Y-110950000D01*
X216800000Y-110950000D02*
X231200000Y-110950000D01*
X231200000Y-110950000D02*
X231200000Y-115950000D01*
X231200000Y-115950000D02*
X216800000Y-115950000D01*
D12*
X217050000Y-115700000D02*
X217050000Y-111200000D01*
X217050000Y-111200000D02*
X230950000Y-111200000D01*
X230950000Y-111200000D02*
X230950000Y-115700000D01*
X230950000Y-115700000D02*
X217050000Y-115700000D01*
G04 #@! TO.C,EXT3*
X230950000Y-99200000D02*
X217050000Y-99200000D01*
X230950000Y-94700000D02*
X230950000Y-99200000D01*
X217050000Y-94700000D02*
X230950000Y-94700000D01*
X217050000Y-99200000D02*
X217050000Y-94700000D01*
D13*
X231200000Y-99450000D02*
X216800000Y-99450000D01*
X231200000Y-94450000D02*
X231200000Y-99450000D01*
X216800000Y-94450000D02*
X231200000Y-94450000D01*
X216800000Y-99450000D02*
X216800000Y-94450000D01*
D12*
G04 #@! TO.C,EXT6*
X230950000Y-82700000D02*
X217050000Y-82700000D01*
X230950000Y-78200000D02*
X230950000Y-82700000D01*
X217050000Y-78200000D02*
X230950000Y-78200000D01*
X217050000Y-82700000D02*
X217050000Y-78200000D01*
D13*
X231200000Y-82950000D02*
X216800000Y-82950000D01*
X231200000Y-77950000D02*
X231200000Y-82950000D01*
X216800000Y-77950000D02*
X231200000Y-77950000D01*
X216800000Y-82950000D02*
X216800000Y-77950000D01*
G04 #@! TO.C,EXT7*
X216800000Y-77450000D02*
X216800000Y-72450000D01*
X216800000Y-72450000D02*
X231200000Y-72450000D01*
X231200000Y-72450000D02*
X231200000Y-77450000D01*
X231200000Y-77450000D02*
X216800000Y-77450000D01*
D12*
X217050000Y-77200000D02*
X217050000Y-72700000D01*
X217050000Y-72700000D02*
X230950000Y-72700000D01*
X230950000Y-72700000D02*
X230950000Y-77200000D01*
X230950000Y-77200000D02*
X217050000Y-77200000D01*
G04 #@! TO.C,EXT5*
X230950000Y-88200000D02*
X217050000Y-88200000D01*
X230950000Y-83700000D02*
X230950000Y-88200000D01*
X217050000Y-83700000D02*
X230950000Y-83700000D01*
X217050000Y-88200000D02*
X217050000Y-83700000D01*
D13*
X231200000Y-88450000D02*
X216800000Y-88450000D01*
X231200000Y-83450000D02*
X231200000Y-88450000D01*
X216800000Y-83450000D02*
X231200000Y-83450000D01*
X216800000Y-88450000D02*
X216800000Y-83450000D01*
G04 #@! TO.C,EXT1*
X216800000Y-110450000D02*
X216800000Y-105450000D01*
X216800000Y-105450000D02*
X231200000Y-105450000D01*
X231200000Y-105450000D02*
X231200000Y-110450000D01*
X231200000Y-110450000D02*
X216800000Y-110450000D01*
D12*
X217050000Y-110200000D02*
X217050000Y-105700000D01*
X217050000Y-105700000D02*
X230950000Y-105700000D01*
X230950000Y-105700000D02*
X230950000Y-110200000D01*
X230950000Y-110200000D02*
X217050000Y-110200000D01*
D14*
G04 #@! TO.C,R8*
X190000000Y-83100000D02*
X186800000Y-83100000D01*
X190000000Y-81500000D02*
X190000000Y-83100000D01*
X186800000Y-81500000D02*
X190000000Y-81500000D01*
X186800000Y-83100000D02*
X186800000Y-81500000D01*
G04 #@! TO.C,R7*
X210300000Y-100200000D02*
X211900000Y-100200000D01*
X211900000Y-100200000D02*
X211900000Y-103400000D01*
X211900000Y-103400000D02*
X210300000Y-103400000D01*
X210300000Y-103400000D02*
X210300000Y-100200000D01*
G04 #@! TO.C,R11*
X210300000Y-98600000D02*
X210300000Y-95400000D01*
X211900000Y-98600000D02*
X210300000Y-98600000D01*
X211900000Y-95400000D02*
X211900000Y-98600000D01*
X210300000Y-95400000D02*
X211900000Y-95400000D01*
G04 #@! TO.C,R12*
X196800000Y-98600000D02*
X195200000Y-98600000D01*
X195200000Y-98600000D02*
X195200000Y-95400000D01*
X195200000Y-95400000D02*
X196800000Y-95400000D01*
X196800000Y-95400000D02*
X196800000Y-98600000D01*
G04 #@! TO.C,R6*
X196800000Y-103400000D02*
X195200000Y-103400000D01*
X195200000Y-103400000D02*
X195200000Y-100200000D01*
X195200000Y-100200000D02*
X196800000Y-100200000D01*
X196800000Y-100200000D02*
X196800000Y-103400000D01*
G04 #@! TD*
M02*
