G04 #@! TF.GenerationSoftware,KiCad,Pcbnew,(5.0.0-rc2-190-gf634b7565)*
G04 #@! TF.CreationDate,2018-07-18T23:06:55+02:00*
G04 #@! TF.ProjectId,IoP-mux8-1C,496F502D6D7578382D31432E6B696361,rev?*
G04 #@! TF.SameCoordinates,Original*
G04 #@! TF.FileFunction,Soldermask,Top*
G04 #@! TF.FilePolarity,Negative*
%FSLAX46Y46*%
G04 Gerber Fmt 4.6, Leading zero omitted, Abs format (unit mm)*
G04 Created by KiCad (PCBNEW (5.0.0-rc2-190-gf634b7565)) date 07/18/18 23:06:55*
%MOMM*%
%LPD*%
G01*
G04 APERTURE LIST*
%ADD10C,0.200000*%
%ADD11O,2.100000X2.100000*%
%ADD12R,2.100000X2.100000*%
%ADD13C,0.100000*%
%ADD14C,1.275000*%
%ADD15R,1.100000X1.925000*%
%ADD16R,1.925000X1.100000*%
%ADD17R,1.750000X1.750000*%
%ADD18C,1.750000*%
%ADD19R,2.000000X2.000000*%
%ADD20O,2.000000X2.000000*%
%ADD21R,1.500000X0.800000*%
%ADD22R,1.300000X1.000000*%
%ADD23R,0.850000X1.875000*%
%ADD24R,1.925000X0.835000*%
%ADD25R,1.600000X0.800000*%
%ADD26R,1.635000X1.635000*%
%ADD27C,1.635000*%
%ADD28C,3.600000*%
%ADD29R,1.000000X1.300000*%
G04 APERTURE END LIST*
D10*
X180000000Y-125000000D02*
G75*
G02X178000000Y-123000000I0J2000000D01*
G01*
X231000000Y-45000000D02*
G75*
G02X233000000Y-47000000I0J-2000000D01*
G01*
X233000000Y-123000000D02*
G75*
G02X231000000Y-125000000I-2000000J0D01*
G01*
X178000000Y-47000000D02*
G75*
G02X180000000Y-45000000I2000000J0D01*
G01*
X178000000Y-47000000D02*
X178000000Y-123000000D01*
X231000000Y-45000000D02*
X180000000Y-45000000D01*
X233000000Y-123000000D02*
X233000000Y-47000000D01*
X180000000Y-125000000D02*
X231000000Y-125000000D01*
D11*
G04 #@! TO.C,J4*
X188181600Y-120609600D03*
D12*
X188181600Y-123149600D03*
G04 #@! TD*
D13*
G04 #@! TO.C,R20*
G36*
X196837193Y-108798235D02*
X196868135Y-108802825D01*
X196898478Y-108810425D01*
X196927930Y-108820963D01*
X196956208Y-108834338D01*
X196983038Y-108850419D01*
X197008163Y-108869053D01*
X197031340Y-108890060D01*
X197052347Y-108913237D01*
X197070981Y-108938362D01*
X197087062Y-108965192D01*
X197100437Y-108993470D01*
X197110975Y-109022922D01*
X197118575Y-109053265D01*
X197123165Y-109084207D01*
X197124700Y-109115450D01*
X197124700Y-109827950D01*
X197123165Y-109859193D01*
X197118575Y-109890135D01*
X197110975Y-109920478D01*
X197100437Y-109949930D01*
X197087062Y-109978208D01*
X197070981Y-110005038D01*
X197052347Y-110030163D01*
X197031340Y-110053340D01*
X197008163Y-110074347D01*
X196983038Y-110092981D01*
X196956208Y-110109062D01*
X196927930Y-110122437D01*
X196898478Y-110132975D01*
X196868135Y-110140575D01*
X196837193Y-110145165D01*
X196805950Y-110146700D01*
X196168450Y-110146700D01*
X196137207Y-110145165D01*
X196106265Y-110140575D01*
X196075922Y-110132975D01*
X196046470Y-110122437D01*
X196018192Y-110109062D01*
X195991362Y-110092981D01*
X195966237Y-110074347D01*
X195943060Y-110053340D01*
X195922053Y-110030163D01*
X195903419Y-110005038D01*
X195887338Y-109978208D01*
X195873963Y-109949930D01*
X195863425Y-109920478D01*
X195855825Y-109890135D01*
X195851235Y-109859193D01*
X195849700Y-109827950D01*
X195849700Y-109115450D01*
X195851235Y-109084207D01*
X195855825Y-109053265D01*
X195863425Y-109022922D01*
X195873963Y-108993470D01*
X195887338Y-108965192D01*
X195903419Y-108938362D01*
X195922053Y-108913237D01*
X195943060Y-108890060D01*
X195966237Y-108869053D01*
X195991362Y-108850419D01*
X196018192Y-108834338D01*
X196046470Y-108820963D01*
X196075922Y-108810425D01*
X196106265Y-108802825D01*
X196137207Y-108798235D01*
X196168450Y-108796700D01*
X196805950Y-108796700D01*
X196837193Y-108798235D01*
X196837193Y-108798235D01*
G37*
D14*
X196487200Y-109471700D03*
D13*
G36*
X198412193Y-108798235D02*
X198443135Y-108802825D01*
X198473478Y-108810425D01*
X198502930Y-108820963D01*
X198531208Y-108834338D01*
X198558038Y-108850419D01*
X198583163Y-108869053D01*
X198606340Y-108890060D01*
X198627347Y-108913237D01*
X198645981Y-108938362D01*
X198662062Y-108965192D01*
X198675437Y-108993470D01*
X198685975Y-109022922D01*
X198693575Y-109053265D01*
X198698165Y-109084207D01*
X198699700Y-109115450D01*
X198699700Y-109827950D01*
X198698165Y-109859193D01*
X198693575Y-109890135D01*
X198685975Y-109920478D01*
X198675437Y-109949930D01*
X198662062Y-109978208D01*
X198645981Y-110005038D01*
X198627347Y-110030163D01*
X198606340Y-110053340D01*
X198583163Y-110074347D01*
X198558038Y-110092981D01*
X198531208Y-110109062D01*
X198502930Y-110122437D01*
X198473478Y-110132975D01*
X198443135Y-110140575D01*
X198412193Y-110145165D01*
X198380950Y-110146700D01*
X197743450Y-110146700D01*
X197712207Y-110145165D01*
X197681265Y-110140575D01*
X197650922Y-110132975D01*
X197621470Y-110122437D01*
X197593192Y-110109062D01*
X197566362Y-110092981D01*
X197541237Y-110074347D01*
X197518060Y-110053340D01*
X197497053Y-110030163D01*
X197478419Y-110005038D01*
X197462338Y-109978208D01*
X197448963Y-109949930D01*
X197438425Y-109920478D01*
X197430825Y-109890135D01*
X197426235Y-109859193D01*
X197424700Y-109827950D01*
X197424700Y-109115450D01*
X197426235Y-109084207D01*
X197430825Y-109053265D01*
X197438425Y-109022922D01*
X197448963Y-108993470D01*
X197462338Y-108965192D01*
X197478419Y-108938362D01*
X197497053Y-108913237D01*
X197518060Y-108890060D01*
X197541237Y-108869053D01*
X197566362Y-108850419D01*
X197593192Y-108834338D01*
X197621470Y-108820963D01*
X197650922Y-108810425D01*
X197681265Y-108802825D01*
X197712207Y-108798235D01*
X197743450Y-108796700D01*
X198380950Y-108796700D01*
X198412193Y-108798235D01*
X198412193Y-108798235D01*
G37*
D14*
X198062200Y-109471700D03*
G04 #@! TD*
D15*
G04 #@! TO.C,IC4*
X226905000Y-71112000D03*
X225635000Y-71112000D03*
X224365000Y-71112000D03*
X223095000Y-71112000D03*
X223095000Y-65688000D03*
X224365000Y-65688000D03*
X225635000Y-65688000D03*
X226905000Y-65688000D03*
G04 #@! TD*
D16*
G04 #@! TO.C,IC8*
X217412000Y-54720000D03*
X217412000Y-53450000D03*
X217412000Y-52180000D03*
X217412000Y-50910000D03*
X211988000Y-50910000D03*
X211988000Y-52180000D03*
X211988000Y-53450000D03*
X211988000Y-54720000D03*
G04 #@! TD*
D17*
G04 #@! TO.C,EXT4*
X219000000Y-92000000D03*
D18*
X221000000Y-92000000D03*
X223000000Y-92000000D03*
X225000000Y-92000000D03*
X227000000Y-92000000D03*
X229000000Y-92000000D03*
G04 #@! TD*
D12*
G04 #@! TO.C,JP4*
X201735000Y-64392000D03*
D11*
X204275000Y-64392000D03*
X206815000Y-64392000D03*
G04 #@! TD*
D19*
G04 #@! TO.C,SW1*
X180500000Y-105300000D03*
D20*
X188120000Y-112920000D03*
X180500000Y-107840000D03*
X188120000Y-110380000D03*
X180500000Y-110380000D03*
X188120000Y-107840000D03*
X180500000Y-112920000D03*
X188120000Y-105300000D03*
G04 #@! TD*
D21*
G04 #@! TO.C,IC1*
X185600000Y-101850000D03*
X185600000Y-101200000D03*
X185600000Y-100550000D03*
X185600000Y-99900000D03*
X185600000Y-99250000D03*
X185600000Y-98600000D03*
X185600000Y-97950000D03*
X185600000Y-97300000D03*
X185600000Y-96650000D03*
X185600000Y-96000000D03*
X185600000Y-95350000D03*
X185600000Y-94700000D03*
X179900000Y-94700000D03*
X179900000Y-95350000D03*
X179900000Y-96000000D03*
X179900000Y-96650000D03*
X179900000Y-97300000D03*
X179900000Y-97950000D03*
X179900000Y-98600000D03*
X179900000Y-99250000D03*
X179900000Y-99900000D03*
X179900000Y-100550000D03*
X179900000Y-101200000D03*
X179900000Y-101850000D03*
G04 #@! TD*
D13*
G04 #@! TO.C,R10*
G36*
X185047493Y-89976535D02*
X185078435Y-89981125D01*
X185108778Y-89988725D01*
X185138230Y-89999263D01*
X185166508Y-90012638D01*
X185193338Y-90028719D01*
X185218463Y-90047353D01*
X185241640Y-90068360D01*
X185262647Y-90091537D01*
X185281281Y-90116662D01*
X185297362Y-90143492D01*
X185310737Y-90171770D01*
X185321275Y-90201222D01*
X185328875Y-90231565D01*
X185333465Y-90262507D01*
X185335000Y-90293750D01*
X185335000Y-90931250D01*
X185333465Y-90962493D01*
X185328875Y-90993435D01*
X185321275Y-91023778D01*
X185310737Y-91053230D01*
X185297362Y-91081508D01*
X185281281Y-91108338D01*
X185262647Y-91133463D01*
X185241640Y-91156640D01*
X185218463Y-91177647D01*
X185193338Y-91196281D01*
X185166508Y-91212362D01*
X185138230Y-91225737D01*
X185108778Y-91236275D01*
X185078435Y-91243875D01*
X185047493Y-91248465D01*
X185016250Y-91250000D01*
X184303750Y-91250000D01*
X184272507Y-91248465D01*
X184241565Y-91243875D01*
X184211222Y-91236275D01*
X184181770Y-91225737D01*
X184153492Y-91212362D01*
X184126662Y-91196281D01*
X184101537Y-91177647D01*
X184078360Y-91156640D01*
X184057353Y-91133463D01*
X184038719Y-91108338D01*
X184022638Y-91081508D01*
X184009263Y-91053230D01*
X183998725Y-91023778D01*
X183991125Y-90993435D01*
X183986535Y-90962493D01*
X183985000Y-90931250D01*
X183985000Y-90293750D01*
X183986535Y-90262507D01*
X183991125Y-90231565D01*
X183998725Y-90201222D01*
X184009263Y-90171770D01*
X184022638Y-90143492D01*
X184038719Y-90116662D01*
X184057353Y-90091537D01*
X184078360Y-90068360D01*
X184101537Y-90047353D01*
X184126662Y-90028719D01*
X184153492Y-90012638D01*
X184181770Y-89999263D01*
X184211222Y-89988725D01*
X184241565Y-89981125D01*
X184272507Y-89976535D01*
X184303750Y-89975000D01*
X185016250Y-89975000D01*
X185047493Y-89976535D01*
X185047493Y-89976535D01*
G37*
D14*
X184660000Y-90612500D03*
D13*
G36*
X185047493Y-91551535D02*
X185078435Y-91556125D01*
X185108778Y-91563725D01*
X185138230Y-91574263D01*
X185166508Y-91587638D01*
X185193338Y-91603719D01*
X185218463Y-91622353D01*
X185241640Y-91643360D01*
X185262647Y-91666537D01*
X185281281Y-91691662D01*
X185297362Y-91718492D01*
X185310737Y-91746770D01*
X185321275Y-91776222D01*
X185328875Y-91806565D01*
X185333465Y-91837507D01*
X185335000Y-91868750D01*
X185335000Y-92506250D01*
X185333465Y-92537493D01*
X185328875Y-92568435D01*
X185321275Y-92598778D01*
X185310737Y-92628230D01*
X185297362Y-92656508D01*
X185281281Y-92683338D01*
X185262647Y-92708463D01*
X185241640Y-92731640D01*
X185218463Y-92752647D01*
X185193338Y-92771281D01*
X185166508Y-92787362D01*
X185138230Y-92800737D01*
X185108778Y-92811275D01*
X185078435Y-92818875D01*
X185047493Y-92823465D01*
X185016250Y-92825000D01*
X184303750Y-92825000D01*
X184272507Y-92823465D01*
X184241565Y-92818875D01*
X184211222Y-92811275D01*
X184181770Y-92800737D01*
X184153492Y-92787362D01*
X184126662Y-92771281D01*
X184101537Y-92752647D01*
X184078360Y-92731640D01*
X184057353Y-92708463D01*
X184038719Y-92683338D01*
X184022638Y-92656508D01*
X184009263Y-92628230D01*
X183998725Y-92598778D01*
X183991125Y-92568435D01*
X183986535Y-92537493D01*
X183985000Y-92506250D01*
X183985000Y-91868750D01*
X183986535Y-91837507D01*
X183991125Y-91806565D01*
X183998725Y-91776222D01*
X184009263Y-91746770D01*
X184022638Y-91718492D01*
X184038719Y-91691662D01*
X184057353Y-91666537D01*
X184078360Y-91643360D01*
X184101537Y-91622353D01*
X184126662Y-91603719D01*
X184153492Y-91587638D01*
X184181770Y-91574263D01*
X184211222Y-91563725D01*
X184241565Y-91556125D01*
X184272507Y-91551535D01*
X184303750Y-91550000D01*
X185016250Y-91550000D01*
X185047493Y-91551535D01*
X185047493Y-91551535D01*
G37*
D14*
X184660000Y-92187500D03*
G04 #@! TD*
D13*
G04 #@! TO.C,R19*
G36*
X205259993Y-76520135D02*
X205290935Y-76524725D01*
X205321278Y-76532325D01*
X205350730Y-76542863D01*
X205379008Y-76556238D01*
X205405838Y-76572319D01*
X205430963Y-76590953D01*
X205454140Y-76611960D01*
X205475147Y-76635137D01*
X205493781Y-76660262D01*
X205509862Y-76687092D01*
X205523237Y-76715370D01*
X205533775Y-76744822D01*
X205541375Y-76775165D01*
X205545965Y-76806107D01*
X205547500Y-76837350D01*
X205547500Y-77549850D01*
X205545965Y-77581093D01*
X205541375Y-77612035D01*
X205533775Y-77642378D01*
X205523237Y-77671830D01*
X205509862Y-77700108D01*
X205493781Y-77726938D01*
X205475147Y-77752063D01*
X205454140Y-77775240D01*
X205430963Y-77796247D01*
X205405838Y-77814881D01*
X205379008Y-77830962D01*
X205350730Y-77844337D01*
X205321278Y-77854875D01*
X205290935Y-77862475D01*
X205259993Y-77867065D01*
X205228750Y-77868600D01*
X204591250Y-77868600D01*
X204560007Y-77867065D01*
X204529065Y-77862475D01*
X204498722Y-77854875D01*
X204469270Y-77844337D01*
X204440992Y-77830962D01*
X204414162Y-77814881D01*
X204389037Y-77796247D01*
X204365860Y-77775240D01*
X204344853Y-77752063D01*
X204326219Y-77726938D01*
X204310138Y-77700108D01*
X204296763Y-77671830D01*
X204286225Y-77642378D01*
X204278625Y-77612035D01*
X204274035Y-77581093D01*
X204272500Y-77549850D01*
X204272500Y-76837350D01*
X204274035Y-76806107D01*
X204278625Y-76775165D01*
X204286225Y-76744822D01*
X204296763Y-76715370D01*
X204310138Y-76687092D01*
X204326219Y-76660262D01*
X204344853Y-76635137D01*
X204365860Y-76611960D01*
X204389037Y-76590953D01*
X204414162Y-76572319D01*
X204440992Y-76556238D01*
X204469270Y-76542863D01*
X204498722Y-76532325D01*
X204529065Y-76524725D01*
X204560007Y-76520135D01*
X204591250Y-76518600D01*
X205228750Y-76518600D01*
X205259993Y-76520135D01*
X205259993Y-76520135D01*
G37*
D14*
X204910000Y-77193600D03*
D13*
G36*
X206834993Y-76520135D02*
X206865935Y-76524725D01*
X206896278Y-76532325D01*
X206925730Y-76542863D01*
X206954008Y-76556238D01*
X206980838Y-76572319D01*
X207005963Y-76590953D01*
X207029140Y-76611960D01*
X207050147Y-76635137D01*
X207068781Y-76660262D01*
X207084862Y-76687092D01*
X207098237Y-76715370D01*
X207108775Y-76744822D01*
X207116375Y-76775165D01*
X207120965Y-76806107D01*
X207122500Y-76837350D01*
X207122500Y-77549850D01*
X207120965Y-77581093D01*
X207116375Y-77612035D01*
X207108775Y-77642378D01*
X207098237Y-77671830D01*
X207084862Y-77700108D01*
X207068781Y-77726938D01*
X207050147Y-77752063D01*
X207029140Y-77775240D01*
X207005963Y-77796247D01*
X206980838Y-77814881D01*
X206954008Y-77830962D01*
X206925730Y-77844337D01*
X206896278Y-77854875D01*
X206865935Y-77862475D01*
X206834993Y-77867065D01*
X206803750Y-77868600D01*
X206166250Y-77868600D01*
X206135007Y-77867065D01*
X206104065Y-77862475D01*
X206073722Y-77854875D01*
X206044270Y-77844337D01*
X206015992Y-77830962D01*
X205989162Y-77814881D01*
X205964037Y-77796247D01*
X205940860Y-77775240D01*
X205919853Y-77752063D01*
X205901219Y-77726938D01*
X205885138Y-77700108D01*
X205871763Y-77671830D01*
X205861225Y-77642378D01*
X205853625Y-77612035D01*
X205849035Y-77581093D01*
X205847500Y-77549850D01*
X205847500Y-76837350D01*
X205849035Y-76806107D01*
X205853625Y-76775165D01*
X205861225Y-76744822D01*
X205871763Y-76715370D01*
X205885138Y-76687092D01*
X205901219Y-76660262D01*
X205919853Y-76635137D01*
X205940860Y-76611960D01*
X205964037Y-76590953D01*
X205989162Y-76572319D01*
X206015992Y-76556238D01*
X206044270Y-76542863D01*
X206073722Y-76532325D01*
X206104065Y-76524725D01*
X206135007Y-76520135D01*
X206166250Y-76518600D01*
X206803750Y-76518600D01*
X206834993Y-76520135D01*
X206834993Y-76520135D01*
G37*
D14*
X206485000Y-77193600D03*
G04 #@! TD*
D22*
G04 #@! TO.C,R13*
X214625000Y-60825000D03*
X214625000Y-60025000D03*
X214625000Y-59225000D03*
X214625000Y-58425000D03*
X212825000Y-60825000D03*
X212825000Y-60025000D03*
X212825000Y-59225000D03*
X212825000Y-58425000D03*
G04 #@! TD*
G04 #@! TO.C,R5*
X187600000Y-115400000D03*
X187600000Y-116200000D03*
X187600000Y-117000000D03*
X187600000Y-117800000D03*
X189400000Y-115400000D03*
X189400000Y-116200000D03*
X189400000Y-117000000D03*
X189400000Y-117800000D03*
G04 #@! TD*
D18*
G04 #@! TO.C,LINK0*
X228000000Y-59500000D03*
X226000000Y-59500000D03*
X224000000Y-59500000D03*
X222000000Y-59500000D03*
X220000000Y-59500000D03*
D17*
X218000000Y-59500000D03*
G04 #@! TD*
D23*
G04 #@! TO.C,IC3*
X199975000Y-102338000D03*
X200625000Y-102338000D03*
X201275000Y-102338000D03*
X201925000Y-102338000D03*
X202575000Y-102338000D03*
X203225000Y-102338000D03*
X203875000Y-102338000D03*
X204525000Y-102338000D03*
X205175000Y-102338000D03*
X205825000Y-102338000D03*
X206475000Y-102338000D03*
X207125000Y-102338000D03*
X207125000Y-96462000D03*
X206475000Y-96462000D03*
X205825000Y-96462000D03*
X205175000Y-96462000D03*
X204525000Y-96462000D03*
X203875000Y-96462000D03*
X203225000Y-96462000D03*
X202575000Y-96462000D03*
X201925000Y-96462000D03*
X201275000Y-96462000D03*
X200625000Y-96462000D03*
X199975000Y-96462000D03*
G04 #@! TD*
D24*
G04 #@! TO.C,IC7*
X209788000Y-79722000D03*
X209788000Y-79088000D03*
X209788000Y-78452000D03*
X209788000Y-77818000D03*
X209788000Y-77182000D03*
X209788000Y-76548000D03*
X209788000Y-75912000D03*
X209788000Y-75278000D03*
X215212000Y-75278000D03*
X215212000Y-75912000D03*
X215212000Y-76548000D03*
X215212000Y-77182000D03*
X215212000Y-77818000D03*
X215212000Y-78452000D03*
X215212000Y-79088000D03*
X215212000Y-79722000D03*
G04 #@! TD*
D25*
G04 #@! TO.C,IC6*
X202800000Y-80700000D03*
X202800000Y-80050000D03*
X202800000Y-79400000D03*
X200900000Y-79400000D03*
X200900000Y-80700000D03*
G04 #@! TD*
D23*
G04 #@! TO.C,IC2*
X188025000Y-70988000D03*
X188675000Y-70988000D03*
X189325000Y-70988000D03*
X189975000Y-70988000D03*
X190625000Y-70988000D03*
X191275000Y-70988000D03*
X191925000Y-70988000D03*
X192575000Y-70988000D03*
X192575000Y-65112000D03*
X191925000Y-65112000D03*
X191275000Y-65112000D03*
X190625000Y-65112000D03*
X189975000Y-65112000D03*
X189325000Y-65112000D03*
X188675000Y-65112000D03*
X188025000Y-65112000D03*
G04 #@! TD*
D24*
G04 #@! TO.C,IC5*
X201476000Y-70831000D03*
X201476000Y-71465000D03*
X201476000Y-72101000D03*
X201476000Y-72735000D03*
X201476000Y-73371000D03*
X201476000Y-74005000D03*
X201476000Y-74641000D03*
X201476000Y-75275000D03*
X206900000Y-75275000D03*
X206900000Y-74641000D03*
X206900000Y-74005000D03*
X206900000Y-73371000D03*
X206900000Y-72735000D03*
X206900000Y-72101000D03*
X206900000Y-71465000D03*
X206900000Y-70831000D03*
G04 #@! TD*
D13*
G04 #@! TO.C,C10*
G36*
X196966293Y-83364835D02*
X196997235Y-83369425D01*
X197027578Y-83377025D01*
X197057030Y-83387563D01*
X197085308Y-83400938D01*
X197112138Y-83417019D01*
X197137263Y-83435653D01*
X197160440Y-83456660D01*
X197181447Y-83479837D01*
X197200081Y-83504962D01*
X197216162Y-83531792D01*
X197229537Y-83560070D01*
X197240075Y-83589522D01*
X197247675Y-83619865D01*
X197252265Y-83650807D01*
X197253800Y-83682050D01*
X197253800Y-84319550D01*
X197252265Y-84350793D01*
X197247675Y-84381735D01*
X197240075Y-84412078D01*
X197229537Y-84441530D01*
X197216162Y-84469808D01*
X197200081Y-84496638D01*
X197181447Y-84521763D01*
X197160440Y-84544940D01*
X197137263Y-84565947D01*
X197112138Y-84584581D01*
X197085308Y-84600662D01*
X197057030Y-84614037D01*
X197027578Y-84624575D01*
X196997235Y-84632175D01*
X196966293Y-84636765D01*
X196935050Y-84638300D01*
X196222550Y-84638300D01*
X196191307Y-84636765D01*
X196160365Y-84632175D01*
X196130022Y-84624575D01*
X196100570Y-84614037D01*
X196072292Y-84600662D01*
X196045462Y-84584581D01*
X196020337Y-84565947D01*
X195997160Y-84544940D01*
X195976153Y-84521763D01*
X195957519Y-84496638D01*
X195941438Y-84469808D01*
X195928063Y-84441530D01*
X195917525Y-84412078D01*
X195909925Y-84381735D01*
X195905335Y-84350793D01*
X195903800Y-84319550D01*
X195903800Y-83682050D01*
X195905335Y-83650807D01*
X195909925Y-83619865D01*
X195917525Y-83589522D01*
X195928063Y-83560070D01*
X195941438Y-83531792D01*
X195957519Y-83504962D01*
X195976153Y-83479837D01*
X195997160Y-83456660D01*
X196020337Y-83435653D01*
X196045462Y-83417019D01*
X196072292Y-83400938D01*
X196100570Y-83387563D01*
X196130022Y-83377025D01*
X196160365Y-83369425D01*
X196191307Y-83364835D01*
X196222550Y-83363300D01*
X196935050Y-83363300D01*
X196966293Y-83364835D01*
X196966293Y-83364835D01*
G37*
D14*
X196578800Y-84000800D03*
D13*
G36*
X196966293Y-81789835D02*
X196997235Y-81794425D01*
X197027578Y-81802025D01*
X197057030Y-81812563D01*
X197085308Y-81825938D01*
X197112138Y-81842019D01*
X197137263Y-81860653D01*
X197160440Y-81881660D01*
X197181447Y-81904837D01*
X197200081Y-81929962D01*
X197216162Y-81956792D01*
X197229537Y-81985070D01*
X197240075Y-82014522D01*
X197247675Y-82044865D01*
X197252265Y-82075807D01*
X197253800Y-82107050D01*
X197253800Y-82744550D01*
X197252265Y-82775793D01*
X197247675Y-82806735D01*
X197240075Y-82837078D01*
X197229537Y-82866530D01*
X197216162Y-82894808D01*
X197200081Y-82921638D01*
X197181447Y-82946763D01*
X197160440Y-82969940D01*
X197137263Y-82990947D01*
X197112138Y-83009581D01*
X197085308Y-83025662D01*
X197057030Y-83039037D01*
X197027578Y-83049575D01*
X196997235Y-83057175D01*
X196966293Y-83061765D01*
X196935050Y-83063300D01*
X196222550Y-83063300D01*
X196191307Y-83061765D01*
X196160365Y-83057175D01*
X196130022Y-83049575D01*
X196100570Y-83039037D01*
X196072292Y-83025662D01*
X196045462Y-83009581D01*
X196020337Y-82990947D01*
X195997160Y-82969940D01*
X195976153Y-82946763D01*
X195957519Y-82921638D01*
X195941438Y-82894808D01*
X195928063Y-82866530D01*
X195917525Y-82837078D01*
X195909925Y-82806735D01*
X195905335Y-82775793D01*
X195903800Y-82744550D01*
X195903800Y-82107050D01*
X195905335Y-82075807D01*
X195909925Y-82044865D01*
X195917525Y-82014522D01*
X195928063Y-81985070D01*
X195941438Y-81956792D01*
X195957519Y-81929962D01*
X195976153Y-81904837D01*
X195997160Y-81881660D01*
X196020337Y-81860653D01*
X196045462Y-81842019D01*
X196072292Y-81825938D01*
X196100570Y-81812563D01*
X196130022Y-81802025D01*
X196160365Y-81794425D01*
X196191307Y-81789835D01*
X196222550Y-81788300D01*
X196935050Y-81788300D01*
X196966293Y-81789835D01*
X196966293Y-81789835D01*
G37*
D14*
X196578800Y-82425800D03*
G04 #@! TD*
D13*
G04 #@! TO.C,R18*
G36*
X194947493Y-78233835D02*
X194978435Y-78238425D01*
X195008778Y-78246025D01*
X195038230Y-78256563D01*
X195066508Y-78269938D01*
X195093338Y-78286019D01*
X195118463Y-78304653D01*
X195141640Y-78325660D01*
X195162647Y-78348837D01*
X195181281Y-78373962D01*
X195197362Y-78400792D01*
X195210737Y-78429070D01*
X195221275Y-78458522D01*
X195228875Y-78488865D01*
X195233465Y-78519807D01*
X195235000Y-78551050D01*
X195235000Y-79188550D01*
X195233465Y-79219793D01*
X195228875Y-79250735D01*
X195221275Y-79281078D01*
X195210737Y-79310530D01*
X195197362Y-79338808D01*
X195181281Y-79365638D01*
X195162647Y-79390763D01*
X195141640Y-79413940D01*
X195118463Y-79434947D01*
X195093338Y-79453581D01*
X195066508Y-79469662D01*
X195038230Y-79483037D01*
X195008778Y-79493575D01*
X194978435Y-79501175D01*
X194947493Y-79505765D01*
X194916250Y-79507300D01*
X194203750Y-79507300D01*
X194172507Y-79505765D01*
X194141565Y-79501175D01*
X194111222Y-79493575D01*
X194081770Y-79483037D01*
X194053492Y-79469662D01*
X194026662Y-79453581D01*
X194001537Y-79434947D01*
X193978360Y-79413940D01*
X193957353Y-79390763D01*
X193938719Y-79365638D01*
X193922638Y-79338808D01*
X193909263Y-79310530D01*
X193898725Y-79281078D01*
X193891125Y-79250735D01*
X193886535Y-79219793D01*
X193885000Y-79188550D01*
X193885000Y-78551050D01*
X193886535Y-78519807D01*
X193891125Y-78488865D01*
X193898725Y-78458522D01*
X193909263Y-78429070D01*
X193922638Y-78400792D01*
X193938719Y-78373962D01*
X193957353Y-78348837D01*
X193978360Y-78325660D01*
X194001537Y-78304653D01*
X194026662Y-78286019D01*
X194053492Y-78269938D01*
X194081770Y-78256563D01*
X194111222Y-78246025D01*
X194141565Y-78238425D01*
X194172507Y-78233835D01*
X194203750Y-78232300D01*
X194916250Y-78232300D01*
X194947493Y-78233835D01*
X194947493Y-78233835D01*
G37*
D14*
X194560000Y-78869800D03*
D13*
G36*
X194947493Y-79808835D02*
X194978435Y-79813425D01*
X195008778Y-79821025D01*
X195038230Y-79831563D01*
X195066508Y-79844938D01*
X195093338Y-79861019D01*
X195118463Y-79879653D01*
X195141640Y-79900660D01*
X195162647Y-79923837D01*
X195181281Y-79948962D01*
X195197362Y-79975792D01*
X195210737Y-80004070D01*
X195221275Y-80033522D01*
X195228875Y-80063865D01*
X195233465Y-80094807D01*
X195235000Y-80126050D01*
X195235000Y-80763550D01*
X195233465Y-80794793D01*
X195228875Y-80825735D01*
X195221275Y-80856078D01*
X195210737Y-80885530D01*
X195197362Y-80913808D01*
X195181281Y-80940638D01*
X195162647Y-80965763D01*
X195141640Y-80988940D01*
X195118463Y-81009947D01*
X195093338Y-81028581D01*
X195066508Y-81044662D01*
X195038230Y-81058037D01*
X195008778Y-81068575D01*
X194978435Y-81076175D01*
X194947493Y-81080765D01*
X194916250Y-81082300D01*
X194203750Y-81082300D01*
X194172507Y-81080765D01*
X194141565Y-81076175D01*
X194111222Y-81068575D01*
X194081770Y-81058037D01*
X194053492Y-81044662D01*
X194026662Y-81028581D01*
X194001537Y-81009947D01*
X193978360Y-80988940D01*
X193957353Y-80965763D01*
X193938719Y-80940638D01*
X193922638Y-80913808D01*
X193909263Y-80885530D01*
X193898725Y-80856078D01*
X193891125Y-80825735D01*
X193886535Y-80794793D01*
X193885000Y-80763550D01*
X193885000Y-80126050D01*
X193886535Y-80094807D01*
X193891125Y-80063865D01*
X193898725Y-80033522D01*
X193909263Y-80004070D01*
X193922638Y-79975792D01*
X193938719Y-79948962D01*
X193957353Y-79923837D01*
X193978360Y-79900660D01*
X194001537Y-79879653D01*
X194026662Y-79861019D01*
X194053492Y-79844938D01*
X194081770Y-79831563D01*
X194111222Y-79821025D01*
X194141565Y-79813425D01*
X194172507Y-79808835D01*
X194203750Y-79807300D01*
X194916250Y-79807300D01*
X194947493Y-79808835D01*
X194947493Y-79808835D01*
G37*
D14*
X194560000Y-80444800D03*
G04 #@! TD*
D13*
G04 #@! TO.C,R17*
G36*
X194934293Y-81790035D02*
X194965235Y-81794625D01*
X194995578Y-81802225D01*
X195025030Y-81812763D01*
X195053308Y-81826138D01*
X195080138Y-81842219D01*
X195105263Y-81860853D01*
X195128440Y-81881860D01*
X195149447Y-81905037D01*
X195168081Y-81930162D01*
X195184162Y-81956992D01*
X195197537Y-81985270D01*
X195208075Y-82014722D01*
X195215675Y-82045065D01*
X195220265Y-82076007D01*
X195221800Y-82107250D01*
X195221800Y-82744750D01*
X195220265Y-82775993D01*
X195215675Y-82806935D01*
X195208075Y-82837278D01*
X195197537Y-82866730D01*
X195184162Y-82895008D01*
X195168081Y-82921838D01*
X195149447Y-82946963D01*
X195128440Y-82970140D01*
X195105263Y-82991147D01*
X195080138Y-83009781D01*
X195053308Y-83025862D01*
X195025030Y-83039237D01*
X194995578Y-83049775D01*
X194965235Y-83057375D01*
X194934293Y-83061965D01*
X194903050Y-83063500D01*
X194190550Y-83063500D01*
X194159307Y-83061965D01*
X194128365Y-83057375D01*
X194098022Y-83049775D01*
X194068570Y-83039237D01*
X194040292Y-83025862D01*
X194013462Y-83009781D01*
X193988337Y-82991147D01*
X193965160Y-82970140D01*
X193944153Y-82946963D01*
X193925519Y-82921838D01*
X193909438Y-82895008D01*
X193896063Y-82866730D01*
X193885525Y-82837278D01*
X193877925Y-82806935D01*
X193873335Y-82775993D01*
X193871800Y-82744750D01*
X193871800Y-82107250D01*
X193873335Y-82076007D01*
X193877925Y-82045065D01*
X193885525Y-82014722D01*
X193896063Y-81985270D01*
X193909438Y-81956992D01*
X193925519Y-81930162D01*
X193944153Y-81905037D01*
X193965160Y-81881860D01*
X193988337Y-81860853D01*
X194013462Y-81842219D01*
X194040292Y-81826138D01*
X194068570Y-81812763D01*
X194098022Y-81802225D01*
X194128365Y-81794625D01*
X194159307Y-81790035D01*
X194190550Y-81788500D01*
X194903050Y-81788500D01*
X194934293Y-81790035D01*
X194934293Y-81790035D01*
G37*
D14*
X194546800Y-82426000D03*
D13*
G36*
X194934293Y-83365035D02*
X194965235Y-83369625D01*
X194995578Y-83377225D01*
X195025030Y-83387763D01*
X195053308Y-83401138D01*
X195080138Y-83417219D01*
X195105263Y-83435853D01*
X195128440Y-83456860D01*
X195149447Y-83480037D01*
X195168081Y-83505162D01*
X195184162Y-83531992D01*
X195197537Y-83560270D01*
X195208075Y-83589722D01*
X195215675Y-83620065D01*
X195220265Y-83651007D01*
X195221800Y-83682250D01*
X195221800Y-84319750D01*
X195220265Y-84350993D01*
X195215675Y-84381935D01*
X195208075Y-84412278D01*
X195197537Y-84441730D01*
X195184162Y-84470008D01*
X195168081Y-84496838D01*
X195149447Y-84521963D01*
X195128440Y-84545140D01*
X195105263Y-84566147D01*
X195080138Y-84584781D01*
X195053308Y-84600862D01*
X195025030Y-84614237D01*
X194995578Y-84624775D01*
X194965235Y-84632375D01*
X194934293Y-84636965D01*
X194903050Y-84638500D01*
X194190550Y-84638500D01*
X194159307Y-84636965D01*
X194128365Y-84632375D01*
X194098022Y-84624775D01*
X194068570Y-84614237D01*
X194040292Y-84600862D01*
X194013462Y-84584781D01*
X193988337Y-84566147D01*
X193965160Y-84545140D01*
X193944153Y-84521963D01*
X193925519Y-84496838D01*
X193909438Y-84470008D01*
X193896063Y-84441730D01*
X193885525Y-84412278D01*
X193877925Y-84381935D01*
X193873335Y-84350993D01*
X193871800Y-84319750D01*
X193871800Y-83682250D01*
X193873335Y-83651007D01*
X193877925Y-83620065D01*
X193885525Y-83589722D01*
X193896063Y-83560270D01*
X193909438Y-83531992D01*
X193925519Y-83505162D01*
X193944153Y-83480037D01*
X193965160Y-83456860D01*
X193988337Y-83435853D01*
X194013462Y-83417219D01*
X194040292Y-83401138D01*
X194068570Y-83387763D01*
X194098022Y-83377225D01*
X194128365Y-83369625D01*
X194159307Y-83365035D01*
X194190550Y-83363500D01*
X194903050Y-83363500D01*
X194934293Y-83365035D01*
X194934293Y-83365035D01*
G37*
D14*
X194546800Y-84001000D03*
G04 #@! TD*
D26*
G04 #@! TO.C,U1*
X191570000Y-82440000D03*
D27*
X191570000Y-84980000D03*
X191570000Y-87520000D03*
X191570000Y-90060000D03*
X191570000Y-92600000D03*
X191570000Y-95140000D03*
X191570000Y-97680000D03*
X191570000Y-100220000D03*
X191570000Y-102760000D03*
X191570000Y-105300000D03*
X191570000Y-107840000D03*
X191570000Y-110380000D03*
X191570000Y-112920000D03*
X191570000Y-115460000D03*
X191570000Y-118000000D03*
X214430000Y-118000000D03*
X214430000Y-115460000D03*
X214430000Y-112920000D03*
X214430000Y-110380000D03*
X214430000Y-107840000D03*
X214430000Y-105300000D03*
X214430000Y-102760000D03*
X214430000Y-100220000D03*
X214430000Y-97680000D03*
X214430000Y-95140000D03*
X214430000Y-92600000D03*
X214430000Y-90060000D03*
X214430000Y-87520000D03*
X214430000Y-84980000D03*
X214430000Y-82440000D03*
G04 #@! TD*
D12*
G04 #@! TO.C,J1*
X182000000Y-49000000D03*
D11*
X184540000Y-49000000D03*
X182000000Y-51540000D03*
X184540000Y-51540000D03*
X182000000Y-54080000D03*
X184540000Y-54080000D03*
X182000000Y-56620000D03*
X184540000Y-56620000D03*
X182000000Y-59160000D03*
X184540000Y-59160000D03*
G04 #@! TD*
G04 #@! TO.C,J3*
X192960000Y-48840000D03*
X195500000Y-48840000D03*
X192960000Y-51380000D03*
X195500000Y-51380000D03*
X192960000Y-53920000D03*
X195500000Y-53920000D03*
X192960000Y-56460000D03*
X195500000Y-56460000D03*
X192960000Y-59000000D03*
D12*
X195500000Y-59000000D03*
G04 #@! TD*
D28*
G04 #@! TO.C,MK4*
X228000000Y-120000000D03*
G04 #@! TD*
G04 #@! TO.C,MK3*
X218000000Y-68000000D03*
G04 #@! TD*
G04 #@! TO.C,MK2*
X183000000Y-120000000D03*
G04 #@! TD*
G04 #@! TO.C,MK1*
X183000000Y-68000000D03*
G04 #@! TD*
D13*
G04 #@! TO.C,C2*
G36*
X187921893Y-102130735D02*
X187952835Y-102135325D01*
X187983178Y-102142925D01*
X188012630Y-102153463D01*
X188040908Y-102166838D01*
X188067738Y-102182919D01*
X188092863Y-102201553D01*
X188116040Y-102222560D01*
X188137047Y-102245737D01*
X188155681Y-102270862D01*
X188171762Y-102297692D01*
X188185137Y-102325970D01*
X188195675Y-102355422D01*
X188203275Y-102385765D01*
X188207865Y-102416707D01*
X188209400Y-102447950D01*
X188209400Y-103160450D01*
X188207865Y-103191693D01*
X188203275Y-103222635D01*
X188195675Y-103252978D01*
X188185137Y-103282430D01*
X188171762Y-103310708D01*
X188155681Y-103337538D01*
X188137047Y-103362663D01*
X188116040Y-103385840D01*
X188092863Y-103406847D01*
X188067738Y-103425481D01*
X188040908Y-103441562D01*
X188012630Y-103454937D01*
X187983178Y-103465475D01*
X187952835Y-103473075D01*
X187921893Y-103477665D01*
X187890650Y-103479200D01*
X187253150Y-103479200D01*
X187221907Y-103477665D01*
X187190965Y-103473075D01*
X187160622Y-103465475D01*
X187131170Y-103454937D01*
X187102892Y-103441562D01*
X187076062Y-103425481D01*
X187050937Y-103406847D01*
X187027760Y-103385840D01*
X187006753Y-103362663D01*
X186988119Y-103337538D01*
X186972038Y-103310708D01*
X186958663Y-103282430D01*
X186948125Y-103252978D01*
X186940525Y-103222635D01*
X186935935Y-103191693D01*
X186934400Y-103160450D01*
X186934400Y-102447950D01*
X186935935Y-102416707D01*
X186940525Y-102385765D01*
X186948125Y-102355422D01*
X186958663Y-102325970D01*
X186972038Y-102297692D01*
X186988119Y-102270862D01*
X187006753Y-102245737D01*
X187027760Y-102222560D01*
X187050937Y-102201553D01*
X187076062Y-102182919D01*
X187102892Y-102166838D01*
X187131170Y-102153463D01*
X187160622Y-102142925D01*
X187190965Y-102135325D01*
X187221907Y-102130735D01*
X187253150Y-102129200D01*
X187890650Y-102129200D01*
X187921893Y-102130735D01*
X187921893Y-102130735D01*
G37*
D14*
X187571900Y-102804200D03*
D13*
G36*
X189496893Y-102130735D02*
X189527835Y-102135325D01*
X189558178Y-102142925D01*
X189587630Y-102153463D01*
X189615908Y-102166838D01*
X189642738Y-102182919D01*
X189667863Y-102201553D01*
X189691040Y-102222560D01*
X189712047Y-102245737D01*
X189730681Y-102270862D01*
X189746762Y-102297692D01*
X189760137Y-102325970D01*
X189770675Y-102355422D01*
X189778275Y-102385765D01*
X189782865Y-102416707D01*
X189784400Y-102447950D01*
X189784400Y-103160450D01*
X189782865Y-103191693D01*
X189778275Y-103222635D01*
X189770675Y-103252978D01*
X189760137Y-103282430D01*
X189746762Y-103310708D01*
X189730681Y-103337538D01*
X189712047Y-103362663D01*
X189691040Y-103385840D01*
X189667863Y-103406847D01*
X189642738Y-103425481D01*
X189615908Y-103441562D01*
X189587630Y-103454937D01*
X189558178Y-103465475D01*
X189527835Y-103473075D01*
X189496893Y-103477665D01*
X189465650Y-103479200D01*
X188828150Y-103479200D01*
X188796907Y-103477665D01*
X188765965Y-103473075D01*
X188735622Y-103465475D01*
X188706170Y-103454937D01*
X188677892Y-103441562D01*
X188651062Y-103425481D01*
X188625937Y-103406847D01*
X188602760Y-103385840D01*
X188581753Y-103362663D01*
X188563119Y-103337538D01*
X188547038Y-103310708D01*
X188533663Y-103282430D01*
X188523125Y-103252978D01*
X188515525Y-103222635D01*
X188510935Y-103191693D01*
X188509400Y-103160450D01*
X188509400Y-102447950D01*
X188510935Y-102416707D01*
X188515525Y-102385765D01*
X188523125Y-102355422D01*
X188533663Y-102325970D01*
X188547038Y-102297692D01*
X188563119Y-102270862D01*
X188581753Y-102245737D01*
X188602760Y-102222560D01*
X188625937Y-102201553D01*
X188651062Y-102182919D01*
X188677892Y-102166838D01*
X188706170Y-102153463D01*
X188735622Y-102142925D01*
X188765965Y-102135325D01*
X188796907Y-102130735D01*
X188828150Y-102129200D01*
X189465650Y-102129200D01*
X189496893Y-102130735D01*
X189496893Y-102130735D01*
G37*
D14*
X189146900Y-102804200D03*
G04 #@! TD*
D13*
G04 #@! TO.C,C3*
G36*
X201523093Y-108797635D02*
X201554035Y-108802225D01*
X201584378Y-108809825D01*
X201613830Y-108820363D01*
X201642108Y-108833738D01*
X201668938Y-108849819D01*
X201694063Y-108868453D01*
X201717240Y-108889460D01*
X201738247Y-108912637D01*
X201756881Y-108937762D01*
X201772962Y-108964592D01*
X201786337Y-108992870D01*
X201796875Y-109022322D01*
X201804475Y-109052665D01*
X201809065Y-109083607D01*
X201810600Y-109114850D01*
X201810600Y-109752350D01*
X201809065Y-109783593D01*
X201804475Y-109814535D01*
X201796875Y-109844878D01*
X201786337Y-109874330D01*
X201772962Y-109902608D01*
X201756881Y-109929438D01*
X201738247Y-109954563D01*
X201717240Y-109977740D01*
X201694063Y-109998747D01*
X201668938Y-110017381D01*
X201642108Y-110033462D01*
X201613830Y-110046837D01*
X201584378Y-110057375D01*
X201554035Y-110064975D01*
X201523093Y-110069565D01*
X201491850Y-110071100D01*
X200779350Y-110071100D01*
X200748107Y-110069565D01*
X200717165Y-110064975D01*
X200686822Y-110057375D01*
X200657370Y-110046837D01*
X200629092Y-110033462D01*
X200602262Y-110017381D01*
X200577137Y-109998747D01*
X200553960Y-109977740D01*
X200532953Y-109954563D01*
X200514319Y-109929438D01*
X200498238Y-109902608D01*
X200484863Y-109874330D01*
X200474325Y-109844878D01*
X200466725Y-109814535D01*
X200462135Y-109783593D01*
X200460600Y-109752350D01*
X200460600Y-109114850D01*
X200462135Y-109083607D01*
X200466725Y-109052665D01*
X200474325Y-109022322D01*
X200484863Y-108992870D01*
X200498238Y-108964592D01*
X200514319Y-108937762D01*
X200532953Y-108912637D01*
X200553960Y-108889460D01*
X200577137Y-108868453D01*
X200602262Y-108849819D01*
X200629092Y-108833738D01*
X200657370Y-108820363D01*
X200686822Y-108809825D01*
X200717165Y-108802225D01*
X200748107Y-108797635D01*
X200779350Y-108796100D01*
X201491850Y-108796100D01*
X201523093Y-108797635D01*
X201523093Y-108797635D01*
G37*
D14*
X201135600Y-109433600D03*
D13*
G36*
X201523093Y-107222635D02*
X201554035Y-107227225D01*
X201584378Y-107234825D01*
X201613830Y-107245363D01*
X201642108Y-107258738D01*
X201668938Y-107274819D01*
X201694063Y-107293453D01*
X201717240Y-107314460D01*
X201738247Y-107337637D01*
X201756881Y-107362762D01*
X201772962Y-107389592D01*
X201786337Y-107417870D01*
X201796875Y-107447322D01*
X201804475Y-107477665D01*
X201809065Y-107508607D01*
X201810600Y-107539850D01*
X201810600Y-108177350D01*
X201809065Y-108208593D01*
X201804475Y-108239535D01*
X201796875Y-108269878D01*
X201786337Y-108299330D01*
X201772962Y-108327608D01*
X201756881Y-108354438D01*
X201738247Y-108379563D01*
X201717240Y-108402740D01*
X201694063Y-108423747D01*
X201668938Y-108442381D01*
X201642108Y-108458462D01*
X201613830Y-108471837D01*
X201584378Y-108482375D01*
X201554035Y-108489975D01*
X201523093Y-108494565D01*
X201491850Y-108496100D01*
X200779350Y-108496100D01*
X200748107Y-108494565D01*
X200717165Y-108489975D01*
X200686822Y-108482375D01*
X200657370Y-108471837D01*
X200629092Y-108458462D01*
X200602262Y-108442381D01*
X200577137Y-108423747D01*
X200553960Y-108402740D01*
X200532953Y-108379563D01*
X200514319Y-108354438D01*
X200498238Y-108327608D01*
X200484863Y-108299330D01*
X200474325Y-108269878D01*
X200466725Y-108239535D01*
X200462135Y-108208593D01*
X200460600Y-108177350D01*
X200460600Y-107539850D01*
X200462135Y-107508607D01*
X200466725Y-107477665D01*
X200474325Y-107447322D01*
X200484863Y-107417870D01*
X200498238Y-107389592D01*
X200514319Y-107362762D01*
X200532953Y-107337637D01*
X200553960Y-107314460D01*
X200577137Y-107293453D01*
X200602262Y-107274819D01*
X200629092Y-107258738D01*
X200657370Y-107245363D01*
X200686822Y-107234825D01*
X200717165Y-107227225D01*
X200748107Y-107222635D01*
X200779350Y-107221100D01*
X201491850Y-107221100D01*
X201523093Y-107222635D01*
X201523093Y-107222635D01*
G37*
D14*
X201135600Y-107858600D03*
G04 #@! TD*
D13*
G04 #@! TO.C,C4*
G36*
X199897493Y-92135035D02*
X199928435Y-92139625D01*
X199958778Y-92147225D01*
X199988230Y-92157763D01*
X200016508Y-92171138D01*
X200043338Y-92187219D01*
X200068463Y-92205853D01*
X200091640Y-92226860D01*
X200112647Y-92250037D01*
X200131281Y-92275162D01*
X200147362Y-92301992D01*
X200160737Y-92330270D01*
X200171275Y-92359722D01*
X200178875Y-92390065D01*
X200183465Y-92421007D01*
X200185000Y-92452250D01*
X200185000Y-93089750D01*
X200183465Y-93120993D01*
X200178875Y-93151935D01*
X200171275Y-93182278D01*
X200160737Y-93211730D01*
X200147362Y-93240008D01*
X200131281Y-93266838D01*
X200112647Y-93291963D01*
X200091640Y-93315140D01*
X200068463Y-93336147D01*
X200043338Y-93354781D01*
X200016508Y-93370862D01*
X199988230Y-93384237D01*
X199958778Y-93394775D01*
X199928435Y-93402375D01*
X199897493Y-93406965D01*
X199866250Y-93408500D01*
X199153750Y-93408500D01*
X199122507Y-93406965D01*
X199091565Y-93402375D01*
X199061222Y-93394775D01*
X199031770Y-93384237D01*
X199003492Y-93370862D01*
X198976662Y-93354781D01*
X198951537Y-93336147D01*
X198928360Y-93315140D01*
X198907353Y-93291963D01*
X198888719Y-93266838D01*
X198872638Y-93240008D01*
X198859263Y-93211730D01*
X198848725Y-93182278D01*
X198841125Y-93151935D01*
X198836535Y-93120993D01*
X198835000Y-93089750D01*
X198835000Y-92452250D01*
X198836535Y-92421007D01*
X198841125Y-92390065D01*
X198848725Y-92359722D01*
X198859263Y-92330270D01*
X198872638Y-92301992D01*
X198888719Y-92275162D01*
X198907353Y-92250037D01*
X198928360Y-92226860D01*
X198951537Y-92205853D01*
X198976662Y-92187219D01*
X199003492Y-92171138D01*
X199031770Y-92157763D01*
X199061222Y-92147225D01*
X199091565Y-92139625D01*
X199122507Y-92135035D01*
X199153750Y-92133500D01*
X199866250Y-92133500D01*
X199897493Y-92135035D01*
X199897493Y-92135035D01*
G37*
D14*
X199510000Y-92771000D03*
D13*
G36*
X199897493Y-93710035D02*
X199928435Y-93714625D01*
X199958778Y-93722225D01*
X199988230Y-93732763D01*
X200016508Y-93746138D01*
X200043338Y-93762219D01*
X200068463Y-93780853D01*
X200091640Y-93801860D01*
X200112647Y-93825037D01*
X200131281Y-93850162D01*
X200147362Y-93876992D01*
X200160737Y-93905270D01*
X200171275Y-93934722D01*
X200178875Y-93965065D01*
X200183465Y-93996007D01*
X200185000Y-94027250D01*
X200185000Y-94664750D01*
X200183465Y-94695993D01*
X200178875Y-94726935D01*
X200171275Y-94757278D01*
X200160737Y-94786730D01*
X200147362Y-94815008D01*
X200131281Y-94841838D01*
X200112647Y-94866963D01*
X200091640Y-94890140D01*
X200068463Y-94911147D01*
X200043338Y-94929781D01*
X200016508Y-94945862D01*
X199988230Y-94959237D01*
X199958778Y-94969775D01*
X199928435Y-94977375D01*
X199897493Y-94981965D01*
X199866250Y-94983500D01*
X199153750Y-94983500D01*
X199122507Y-94981965D01*
X199091565Y-94977375D01*
X199061222Y-94969775D01*
X199031770Y-94959237D01*
X199003492Y-94945862D01*
X198976662Y-94929781D01*
X198951537Y-94911147D01*
X198928360Y-94890140D01*
X198907353Y-94866963D01*
X198888719Y-94841838D01*
X198872638Y-94815008D01*
X198859263Y-94786730D01*
X198848725Y-94757278D01*
X198841125Y-94726935D01*
X198836535Y-94695993D01*
X198835000Y-94664750D01*
X198835000Y-94027250D01*
X198836535Y-93996007D01*
X198841125Y-93965065D01*
X198848725Y-93934722D01*
X198859263Y-93905270D01*
X198872638Y-93876992D01*
X198888719Y-93850162D01*
X198907353Y-93825037D01*
X198928360Y-93801860D01*
X198951537Y-93780853D01*
X198976662Y-93762219D01*
X199003492Y-93746138D01*
X199031770Y-93732763D01*
X199061222Y-93722225D01*
X199091565Y-93714625D01*
X199122507Y-93710035D01*
X199153750Y-93708500D01*
X199866250Y-93708500D01*
X199897493Y-93710035D01*
X199897493Y-93710035D01*
G37*
D14*
X199510000Y-94346000D03*
G04 #@! TD*
D13*
G04 #@! TO.C,C5*
G36*
X222049993Y-62076535D02*
X222080935Y-62081125D01*
X222111278Y-62088725D01*
X222140730Y-62099263D01*
X222169008Y-62112638D01*
X222195838Y-62128719D01*
X222220963Y-62147353D01*
X222244140Y-62168360D01*
X222265147Y-62191537D01*
X222283781Y-62216662D01*
X222299862Y-62243492D01*
X222313237Y-62271770D01*
X222323775Y-62301222D01*
X222331375Y-62331565D01*
X222335965Y-62362507D01*
X222337500Y-62393750D01*
X222337500Y-63106250D01*
X222335965Y-63137493D01*
X222331375Y-63168435D01*
X222323775Y-63198778D01*
X222313237Y-63228230D01*
X222299862Y-63256508D01*
X222283781Y-63283338D01*
X222265147Y-63308463D01*
X222244140Y-63331640D01*
X222220963Y-63352647D01*
X222195838Y-63371281D01*
X222169008Y-63387362D01*
X222140730Y-63400737D01*
X222111278Y-63411275D01*
X222080935Y-63418875D01*
X222049993Y-63423465D01*
X222018750Y-63425000D01*
X221381250Y-63425000D01*
X221350007Y-63423465D01*
X221319065Y-63418875D01*
X221288722Y-63411275D01*
X221259270Y-63400737D01*
X221230992Y-63387362D01*
X221204162Y-63371281D01*
X221179037Y-63352647D01*
X221155860Y-63331640D01*
X221134853Y-63308463D01*
X221116219Y-63283338D01*
X221100138Y-63256508D01*
X221086763Y-63228230D01*
X221076225Y-63198778D01*
X221068625Y-63168435D01*
X221064035Y-63137493D01*
X221062500Y-63106250D01*
X221062500Y-62393750D01*
X221064035Y-62362507D01*
X221068625Y-62331565D01*
X221076225Y-62301222D01*
X221086763Y-62271770D01*
X221100138Y-62243492D01*
X221116219Y-62216662D01*
X221134853Y-62191537D01*
X221155860Y-62168360D01*
X221179037Y-62147353D01*
X221204162Y-62128719D01*
X221230992Y-62112638D01*
X221259270Y-62099263D01*
X221288722Y-62088725D01*
X221319065Y-62081125D01*
X221350007Y-62076535D01*
X221381250Y-62075000D01*
X222018750Y-62075000D01*
X222049993Y-62076535D01*
X222049993Y-62076535D01*
G37*
D14*
X221700000Y-62750000D03*
D13*
G36*
X220474993Y-62076535D02*
X220505935Y-62081125D01*
X220536278Y-62088725D01*
X220565730Y-62099263D01*
X220594008Y-62112638D01*
X220620838Y-62128719D01*
X220645963Y-62147353D01*
X220669140Y-62168360D01*
X220690147Y-62191537D01*
X220708781Y-62216662D01*
X220724862Y-62243492D01*
X220738237Y-62271770D01*
X220748775Y-62301222D01*
X220756375Y-62331565D01*
X220760965Y-62362507D01*
X220762500Y-62393750D01*
X220762500Y-63106250D01*
X220760965Y-63137493D01*
X220756375Y-63168435D01*
X220748775Y-63198778D01*
X220738237Y-63228230D01*
X220724862Y-63256508D01*
X220708781Y-63283338D01*
X220690147Y-63308463D01*
X220669140Y-63331640D01*
X220645963Y-63352647D01*
X220620838Y-63371281D01*
X220594008Y-63387362D01*
X220565730Y-63400737D01*
X220536278Y-63411275D01*
X220505935Y-63418875D01*
X220474993Y-63423465D01*
X220443750Y-63425000D01*
X219806250Y-63425000D01*
X219775007Y-63423465D01*
X219744065Y-63418875D01*
X219713722Y-63411275D01*
X219684270Y-63400737D01*
X219655992Y-63387362D01*
X219629162Y-63371281D01*
X219604037Y-63352647D01*
X219580860Y-63331640D01*
X219559853Y-63308463D01*
X219541219Y-63283338D01*
X219525138Y-63256508D01*
X219511763Y-63228230D01*
X219501225Y-63198778D01*
X219493625Y-63168435D01*
X219489035Y-63137493D01*
X219487500Y-63106250D01*
X219487500Y-62393750D01*
X219489035Y-62362507D01*
X219493625Y-62331565D01*
X219501225Y-62301222D01*
X219511763Y-62271770D01*
X219525138Y-62243492D01*
X219541219Y-62216662D01*
X219559853Y-62191537D01*
X219580860Y-62168360D01*
X219604037Y-62147353D01*
X219629162Y-62128719D01*
X219655992Y-62112638D01*
X219684270Y-62099263D01*
X219713722Y-62088725D01*
X219744065Y-62081125D01*
X219775007Y-62076535D01*
X219806250Y-62075000D01*
X220443750Y-62075000D01*
X220474993Y-62076535D01*
X220474993Y-62076535D01*
G37*
D14*
X220125000Y-62750000D03*
G04 #@! TD*
D13*
G04 #@! TO.C,C6*
G36*
X225712493Y-62076535D02*
X225743435Y-62081125D01*
X225773778Y-62088725D01*
X225803230Y-62099263D01*
X225831508Y-62112638D01*
X225858338Y-62128719D01*
X225883463Y-62147353D01*
X225906640Y-62168360D01*
X225927647Y-62191537D01*
X225946281Y-62216662D01*
X225962362Y-62243492D01*
X225975737Y-62271770D01*
X225986275Y-62301222D01*
X225993875Y-62331565D01*
X225998465Y-62362507D01*
X226000000Y-62393750D01*
X226000000Y-63106250D01*
X225998465Y-63137493D01*
X225993875Y-63168435D01*
X225986275Y-63198778D01*
X225975737Y-63228230D01*
X225962362Y-63256508D01*
X225946281Y-63283338D01*
X225927647Y-63308463D01*
X225906640Y-63331640D01*
X225883463Y-63352647D01*
X225858338Y-63371281D01*
X225831508Y-63387362D01*
X225803230Y-63400737D01*
X225773778Y-63411275D01*
X225743435Y-63418875D01*
X225712493Y-63423465D01*
X225681250Y-63425000D01*
X225043750Y-63425000D01*
X225012507Y-63423465D01*
X224981565Y-63418875D01*
X224951222Y-63411275D01*
X224921770Y-63400737D01*
X224893492Y-63387362D01*
X224866662Y-63371281D01*
X224841537Y-63352647D01*
X224818360Y-63331640D01*
X224797353Y-63308463D01*
X224778719Y-63283338D01*
X224762638Y-63256508D01*
X224749263Y-63228230D01*
X224738725Y-63198778D01*
X224731125Y-63168435D01*
X224726535Y-63137493D01*
X224725000Y-63106250D01*
X224725000Y-62393750D01*
X224726535Y-62362507D01*
X224731125Y-62331565D01*
X224738725Y-62301222D01*
X224749263Y-62271770D01*
X224762638Y-62243492D01*
X224778719Y-62216662D01*
X224797353Y-62191537D01*
X224818360Y-62168360D01*
X224841537Y-62147353D01*
X224866662Y-62128719D01*
X224893492Y-62112638D01*
X224921770Y-62099263D01*
X224951222Y-62088725D01*
X224981565Y-62081125D01*
X225012507Y-62076535D01*
X225043750Y-62075000D01*
X225681250Y-62075000D01*
X225712493Y-62076535D01*
X225712493Y-62076535D01*
G37*
D14*
X225362500Y-62750000D03*
D13*
G36*
X227287493Y-62076535D02*
X227318435Y-62081125D01*
X227348778Y-62088725D01*
X227378230Y-62099263D01*
X227406508Y-62112638D01*
X227433338Y-62128719D01*
X227458463Y-62147353D01*
X227481640Y-62168360D01*
X227502647Y-62191537D01*
X227521281Y-62216662D01*
X227537362Y-62243492D01*
X227550737Y-62271770D01*
X227561275Y-62301222D01*
X227568875Y-62331565D01*
X227573465Y-62362507D01*
X227575000Y-62393750D01*
X227575000Y-63106250D01*
X227573465Y-63137493D01*
X227568875Y-63168435D01*
X227561275Y-63198778D01*
X227550737Y-63228230D01*
X227537362Y-63256508D01*
X227521281Y-63283338D01*
X227502647Y-63308463D01*
X227481640Y-63331640D01*
X227458463Y-63352647D01*
X227433338Y-63371281D01*
X227406508Y-63387362D01*
X227378230Y-63400737D01*
X227348778Y-63411275D01*
X227318435Y-63418875D01*
X227287493Y-63423465D01*
X227256250Y-63425000D01*
X226618750Y-63425000D01*
X226587507Y-63423465D01*
X226556565Y-63418875D01*
X226526222Y-63411275D01*
X226496770Y-63400737D01*
X226468492Y-63387362D01*
X226441662Y-63371281D01*
X226416537Y-63352647D01*
X226393360Y-63331640D01*
X226372353Y-63308463D01*
X226353719Y-63283338D01*
X226337638Y-63256508D01*
X226324263Y-63228230D01*
X226313725Y-63198778D01*
X226306125Y-63168435D01*
X226301535Y-63137493D01*
X226300000Y-63106250D01*
X226300000Y-62393750D01*
X226301535Y-62362507D01*
X226306125Y-62331565D01*
X226313725Y-62301222D01*
X226324263Y-62271770D01*
X226337638Y-62243492D01*
X226353719Y-62216662D01*
X226372353Y-62191537D01*
X226393360Y-62168360D01*
X226416537Y-62147353D01*
X226441662Y-62128719D01*
X226468492Y-62112638D01*
X226496770Y-62099263D01*
X226526222Y-62088725D01*
X226556565Y-62081125D01*
X226587507Y-62076535D01*
X226618750Y-62075000D01*
X227256250Y-62075000D01*
X227287493Y-62076535D01*
X227287493Y-62076535D01*
G37*
D14*
X226937500Y-62750000D03*
G04 #@! TD*
D13*
G04 #@! TO.C,C7*
G36*
X194804793Y-65744635D02*
X194835735Y-65749225D01*
X194866078Y-65756825D01*
X194895530Y-65767363D01*
X194923808Y-65780738D01*
X194950638Y-65796819D01*
X194975763Y-65815453D01*
X194998940Y-65836460D01*
X195019947Y-65859637D01*
X195038581Y-65884762D01*
X195054662Y-65911592D01*
X195068037Y-65939870D01*
X195078575Y-65969322D01*
X195086175Y-65999665D01*
X195090765Y-66030607D01*
X195092300Y-66061850D01*
X195092300Y-66699350D01*
X195090765Y-66730593D01*
X195086175Y-66761535D01*
X195078575Y-66791878D01*
X195068037Y-66821330D01*
X195054662Y-66849608D01*
X195038581Y-66876438D01*
X195019947Y-66901563D01*
X194998940Y-66924740D01*
X194975763Y-66945747D01*
X194950638Y-66964381D01*
X194923808Y-66980462D01*
X194895530Y-66993837D01*
X194866078Y-67004375D01*
X194835735Y-67011975D01*
X194804793Y-67016565D01*
X194773550Y-67018100D01*
X194061050Y-67018100D01*
X194029807Y-67016565D01*
X193998865Y-67011975D01*
X193968522Y-67004375D01*
X193939070Y-66993837D01*
X193910792Y-66980462D01*
X193883962Y-66964381D01*
X193858837Y-66945747D01*
X193835660Y-66924740D01*
X193814653Y-66901563D01*
X193796019Y-66876438D01*
X193779938Y-66849608D01*
X193766563Y-66821330D01*
X193756025Y-66791878D01*
X193748425Y-66761535D01*
X193743835Y-66730593D01*
X193742300Y-66699350D01*
X193742300Y-66061850D01*
X193743835Y-66030607D01*
X193748425Y-65999665D01*
X193756025Y-65969322D01*
X193766563Y-65939870D01*
X193779938Y-65911592D01*
X193796019Y-65884762D01*
X193814653Y-65859637D01*
X193835660Y-65836460D01*
X193858837Y-65815453D01*
X193883962Y-65796819D01*
X193910792Y-65780738D01*
X193939070Y-65767363D01*
X193968522Y-65756825D01*
X193998865Y-65749225D01*
X194029807Y-65744635D01*
X194061050Y-65743100D01*
X194773550Y-65743100D01*
X194804793Y-65744635D01*
X194804793Y-65744635D01*
G37*
D14*
X194417300Y-66380600D03*
D13*
G36*
X194804793Y-64169635D02*
X194835735Y-64174225D01*
X194866078Y-64181825D01*
X194895530Y-64192363D01*
X194923808Y-64205738D01*
X194950638Y-64221819D01*
X194975763Y-64240453D01*
X194998940Y-64261460D01*
X195019947Y-64284637D01*
X195038581Y-64309762D01*
X195054662Y-64336592D01*
X195068037Y-64364870D01*
X195078575Y-64394322D01*
X195086175Y-64424665D01*
X195090765Y-64455607D01*
X195092300Y-64486850D01*
X195092300Y-65124350D01*
X195090765Y-65155593D01*
X195086175Y-65186535D01*
X195078575Y-65216878D01*
X195068037Y-65246330D01*
X195054662Y-65274608D01*
X195038581Y-65301438D01*
X195019947Y-65326563D01*
X194998940Y-65349740D01*
X194975763Y-65370747D01*
X194950638Y-65389381D01*
X194923808Y-65405462D01*
X194895530Y-65418837D01*
X194866078Y-65429375D01*
X194835735Y-65436975D01*
X194804793Y-65441565D01*
X194773550Y-65443100D01*
X194061050Y-65443100D01*
X194029807Y-65441565D01*
X193998865Y-65436975D01*
X193968522Y-65429375D01*
X193939070Y-65418837D01*
X193910792Y-65405462D01*
X193883962Y-65389381D01*
X193858837Y-65370747D01*
X193835660Y-65349740D01*
X193814653Y-65326563D01*
X193796019Y-65301438D01*
X193779938Y-65274608D01*
X193766563Y-65246330D01*
X193756025Y-65216878D01*
X193748425Y-65186535D01*
X193743835Y-65155593D01*
X193742300Y-65124350D01*
X193742300Y-64486850D01*
X193743835Y-64455607D01*
X193748425Y-64424665D01*
X193756025Y-64394322D01*
X193766563Y-64364870D01*
X193779938Y-64336592D01*
X193796019Y-64309762D01*
X193814653Y-64284637D01*
X193835660Y-64261460D01*
X193858837Y-64240453D01*
X193883962Y-64221819D01*
X193910792Y-64205738D01*
X193939070Y-64192363D01*
X193968522Y-64181825D01*
X193998865Y-64174225D01*
X194029807Y-64169635D01*
X194061050Y-64168100D01*
X194773550Y-64168100D01*
X194804793Y-64169635D01*
X194804793Y-64169635D01*
G37*
D14*
X194417300Y-64805600D03*
G04 #@! TD*
D13*
G04 #@! TO.C,C8*
G36*
X211711793Y-81193735D02*
X211742735Y-81198325D01*
X211773078Y-81205925D01*
X211802530Y-81216463D01*
X211830808Y-81229838D01*
X211857638Y-81245919D01*
X211882763Y-81264553D01*
X211905940Y-81285560D01*
X211926947Y-81308737D01*
X211945581Y-81333862D01*
X211961662Y-81360692D01*
X211975037Y-81388970D01*
X211985575Y-81418422D01*
X211993175Y-81448765D01*
X211997765Y-81479707D01*
X211999300Y-81510950D01*
X211999300Y-82223450D01*
X211997765Y-82254693D01*
X211993175Y-82285635D01*
X211985575Y-82315978D01*
X211975037Y-82345430D01*
X211961662Y-82373708D01*
X211945581Y-82400538D01*
X211926947Y-82425663D01*
X211905940Y-82448840D01*
X211882763Y-82469847D01*
X211857638Y-82488481D01*
X211830808Y-82504562D01*
X211802530Y-82517937D01*
X211773078Y-82528475D01*
X211742735Y-82536075D01*
X211711793Y-82540665D01*
X211680550Y-82542200D01*
X211043050Y-82542200D01*
X211011807Y-82540665D01*
X210980865Y-82536075D01*
X210950522Y-82528475D01*
X210921070Y-82517937D01*
X210892792Y-82504562D01*
X210865962Y-82488481D01*
X210840837Y-82469847D01*
X210817660Y-82448840D01*
X210796653Y-82425663D01*
X210778019Y-82400538D01*
X210761938Y-82373708D01*
X210748563Y-82345430D01*
X210738025Y-82315978D01*
X210730425Y-82285635D01*
X210725835Y-82254693D01*
X210724300Y-82223450D01*
X210724300Y-81510950D01*
X210725835Y-81479707D01*
X210730425Y-81448765D01*
X210738025Y-81418422D01*
X210748563Y-81388970D01*
X210761938Y-81360692D01*
X210778019Y-81333862D01*
X210796653Y-81308737D01*
X210817660Y-81285560D01*
X210840837Y-81264553D01*
X210865962Y-81245919D01*
X210892792Y-81229838D01*
X210921070Y-81216463D01*
X210950522Y-81205925D01*
X210980865Y-81198325D01*
X211011807Y-81193735D01*
X211043050Y-81192200D01*
X211680550Y-81192200D01*
X211711793Y-81193735D01*
X211711793Y-81193735D01*
G37*
D14*
X211361800Y-81867200D03*
D13*
G36*
X210136793Y-81193735D02*
X210167735Y-81198325D01*
X210198078Y-81205925D01*
X210227530Y-81216463D01*
X210255808Y-81229838D01*
X210282638Y-81245919D01*
X210307763Y-81264553D01*
X210330940Y-81285560D01*
X210351947Y-81308737D01*
X210370581Y-81333862D01*
X210386662Y-81360692D01*
X210400037Y-81388970D01*
X210410575Y-81418422D01*
X210418175Y-81448765D01*
X210422765Y-81479707D01*
X210424300Y-81510950D01*
X210424300Y-82223450D01*
X210422765Y-82254693D01*
X210418175Y-82285635D01*
X210410575Y-82315978D01*
X210400037Y-82345430D01*
X210386662Y-82373708D01*
X210370581Y-82400538D01*
X210351947Y-82425663D01*
X210330940Y-82448840D01*
X210307763Y-82469847D01*
X210282638Y-82488481D01*
X210255808Y-82504562D01*
X210227530Y-82517937D01*
X210198078Y-82528475D01*
X210167735Y-82536075D01*
X210136793Y-82540665D01*
X210105550Y-82542200D01*
X209468050Y-82542200D01*
X209436807Y-82540665D01*
X209405865Y-82536075D01*
X209375522Y-82528475D01*
X209346070Y-82517937D01*
X209317792Y-82504562D01*
X209290962Y-82488481D01*
X209265837Y-82469847D01*
X209242660Y-82448840D01*
X209221653Y-82425663D01*
X209203019Y-82400538D01*
X209186938Y-82373708D01*
X209173563Y-82345430D01*
X209163025Y-82315978D01*
X209155425Y-82285635D01*
X209150835Y-82254693D01*
X209149300Y-82223450D01*
X209149300Y-81510950D01*
X209150835Y-81479707D01*
X209155425Y-81448765D01*
X209163025Y-81418422D01*
X209173563Y-81388970D01*
X209186938Y-81360692D01*
X209203019Y-81333862D01*
X209221653Y-81308737D01*
X209242660Y-81285560D01*
X209265837Y-81264553D01*
X209290962Y-81245919D01*
X209317792Y-81229838D01*
X209346070Y-81216463D01*
X209375522Y-81205925D01*
X209405865Y-81198325D01*
X209436807Y-81193735D01*
X209468050Y-81192200D01*
X210105550Y-81192200D01*
X210136793Y-81193735D01*
X210136793Y-81193735D01*
G37*
D14*
X209786800Y-81867200D03*
G04 #@! TD*
D13*
G04 #@! TO.C,C9*
G36*
X201805593Y-76520135D02*
X201836535Y-76524725D01*
X201866878Y-76532325D01*
X201896330Y-76542863D01*
X201924608Y-76556238D01*
X201951438Y-76572319D01*
X201976563Y-76590953D01*
X201999740Y-76611960D01*
X202020747Y-76635137D01*
X202039381Y-76660262D01*
X202055462Y-76687092D01*
X202068837Y-76715370D01*
X202079375Y-76744822D01*
X202086975Y-76775165D01*
X202091565Y-76806107D01*
X202093100Y-76837350D01*
X202093100Y-77549850D01*
X202091565Y-77581093D01*
X202086975Y-77612035D01*
X202079375Y-77642378D01*
X202068837Y-77671830D01*
X202055462Y-77700108D01*
X202039381Y-77726938D01*
X202020747Y-77752063D01*
X201999740Y-77775240D01*
X201976563Y-77796247D01*
X201951438Y-77814881D01*
X201924608Y-77830962D01*
X201896330Y-77844337D01*
X201866878Y-77854875D01*
X201836535Y-77862475D01*
X201805593Y-77867065D01*
X201774350Y-77868600D01*
X201136850Y-77868600D01*
X201105607Y-77867065D01*
X201074665Y-77862475D01*
X201044322Y-77854875D01*
X201014870Y-77844337D01*
X200986592Y-77830962D01*
X200959762Y-77814881D01*
X200934637Y-77796247D01*
X200911460Y-77775240D01*
X200890453Y-77752063D01*
X200871819Y-77726938D01*
X200855738Y-77700108D01*
X200842363Y-77671830D01*
X200831825Y-77642378D01*
X200824225Y-77612035D01*
X200819635Y-77581093D01*
X200818100Y-77549850D01*
X200818100Y-76837350D01*
X200819635Y-76806107D01*
X200824225Y-76775165D01*
X200831825Y-76744822D01*
X200842363Y-76715370D01*
X200855738Y-76687092D01*
X200871819Y-76660262D01*
X200890453Y-76635137D01*
X200911460Y-76611960D01*
X200934637Y-76590953D01*
X200959762Y-76572319D01*
X200986592Y-76556238D01*
X201014870Y-76542863D01*
X201044322Y-76532325D01*
X201074665Y-76524725D01*
X201105607Y-76520135D01*
X201136850Y-76518600D01*
X201774350Y-76518600D01*
X201805593Y-76520135D01*
X201805593Y-76520135D01*
G37*
D14*
X201455600Y-77193600D03*
D13*
G36*
X203380593Y-76520135D02*
X203411535Y-76524725D01*
X203441878Y-76532325D01*
X203471330Y-76542863D01*
X203499608Y-76556238D01*
X203526438Y-76572319D01*
X203551563Y-76590953D01*
X203574740Y-76611960D01*
X203595747Y-76635137D01*
X203614381Y-76660262D01*
X203630462Y-76687092D01*
X203643837Y-76715370D01*
X203654375Y-76744822D01*
X203661975Y-76775165D01*
X203666565Y-76806107D01*
X203668100Y-76837350D01*
X203668100Y-77549850D01*
X203666565Y-77581093D01*
X203661975Y-77612035D01*
X203654375Y-77642378D01*
X203643837Y-77671830D01*
X203630462Y-77700108D01*
X203614381Y-77726938D01*
X203595747Y-77752063D01*
X203574740Y-77775240D01*
X203551563Y-77796247D01*
X203526438Y-77814881D01*
X203499608Y-77830962D01*
X203471330Y-77844337D01*
X203441878Y-77854875D01*
X203411535Y-77862475D01*
X203380593Y-77867065D01*
X203349350Y-77868600D01*
X202711850Y-77868600D01*
X202680607Y-77867065D01*
X202649665Y-77862475D01*
X202619322Y-77854875D01*
X202589870Y-77844337D01*
X202561592Y-77830962D01*
X202534762Y-77814881D01*
X202509637Y-77796247D01*
X202486460Y-77775240D01*
X202465453Y-77752063D01*
X202446819Y-77726938D01*
X202430738Y-77700108D01*
X202417363Y-77671830D01*
X202406825Y-77642378D01*
X202399225Y-77612035D01*
X202394635Y-77581093D01*
X202393100Y-77549850D01*
X202393100Y-76837350D01*
X202394635Y-76806107D01*
X202399225Y-76775165D01*
X202406825Y-76744822D01*
X202417363Y-76715370D01*
X202430738Y-76687092D01*
X202446819Y-76660262D01*
X202465453Y-76635137D01*
X202486460Y-76611960D01*
X202509637Y-76590953D01*
X202534762Y-76572319D01*
X202561592Y-76556238D01*
X202589870Y-76542863D01*
X202619322Y-76532325D01*
X202649665Y-76524725D01*
X202680607Y-76520135D01*
X202711850Y-76518600D01*
X203349350Y-76518600D01*
X203380593Y-76520135D01*
X203380593Y-76520135D01*
G37*
D14*
X203030600Y-77193600D03*
G04 #@! TD*
D13*
G04 #@! TO.C,C1*
G36*
X227487493Y-48614035D02*
X227518435Y-48618625D01*
X227548778Y-48626225D01*
X227578230Y-48636763D01*
X227606508Y-48650138D01*
X227633338Y-48666219D01*
X227658463Y-48684853D01*
X227681640Y-48705860D01*
X227702647Y-48729037D01*
X227721281Y-48754162D01*
X227737362Y-48780992D01*
X227750737Y-48809270D01*
X227761275Y-48838722D01*
X227768875Y-48869065D01*
X227773465Y-48900007D01*
X227775000Y-48931250D01*
X227775000Y-49568750D01*
X227773465Y-49599993D01*
X227768875Y-49630935D01*
X227761275Y-49661278D01*
X227750737Y-49690730D01*
X227737362Y-49719008D01*
X227721281Y-49745838D01*
X227702647Y-49770963D01*
X227681640Y-49794140D01*
X227658463Y-49815147D01*
X227633338Y-49833781D01*
X227606508Y-49849862D01*
X227578230Y-49863237D01*
X227548778Y-49873775D01*
X227518435Y-49881375D01*
X227487493Y-49885965D01*
X227456250Y-49887500D01*
X226743750Y-49887500D01*
X226712507Y-49885965D01*
X226681565Y-49881375D01*
X226651222Y-49873775D01*
X226621770Y-49863237D01*
X226593492Y-49849862D01*
X226566662Y-49833781D01*
X226541537Y-49815147D01*
X226518360Y-49794140D01*
X226497353Y-49770963D01*
X226478719Y-49745838D01*
X226462638Y-49719008D01*
X226449263Y-49690730D01*
X226438725Y-49661278D01*
X226431125Y-49630935D01*
X226426535Y-49599993D01*
X226425000Y-49568750D01*
X226425000Y-48931250D01*
X226426535Y-48900007D01*
X226431125Y-48869065D01*
X226438725Y-48838722D01*
X226449263Y-48809270D01*
X226462638Y-48780992D01*
X226478719Y-48754162D01*
X226497353Y-48729037D01*
X226518360Y-48705860D01*
X226541537Y-48684853D01*
X226566662Y-48666219D01*
X226593492Y-48650138D01*
X226621770Y-48636763D01*
X226651222Y-48626225D01*
X226681565Y-48618625D01*
X226712507Y-48614035D01*
X226743750Y-48612500D01*
X227456250Y-48612500D01*
X227487493Y-48614035D01*
X227487493Y-48614035D01*
G37*
D14*
X227100000Y-49250000D03*
D13*
G36*
X227487493Y-47039035D02*
X227518435Y-47043625D01*
X227548778Y-47051225D01*
X227578230Y-47061763D01*
X227606508Y-47075138D01*
X227633338Y-47091219D01*
X227658463Y-47109853D01*
X227681640Y-47130860D01*
X227702647Y-47154037D01*
X227721281Y-47179162D01*
X227737362Y-47205992D01*
X227750737Y-47234270D01*
X227761275Y-47263722D01*
X227768875Y-47294065D01*
X227773465Y-47325007D01*
X227775000Y-47356250D01*
X227775000Y-47993750D01*
X227773465Y-48024993D01*
X227768875Y-48055935D01*
X227761275Y-48086278D01*
X227750737Y-48115730D01*
X227737362Y-48144008D01*
X227721281Y-48170838D01*
X227702647Y-48195963D01*
X227681640Y-48219140D01*
X227658463Y-48240147D01*
X227633338Y-48258781D01*
X227606508Y-48274862D01*
X227578230Y-48288237D01*
X227548778Y-48298775D01*
X227518435Y-48306375D01*
X227487493Y-48310965D01*
X227456250Y-48312500D01*
X226743750Y-48312500D01*
X226712507Y-48310965D01*
X226681565Y-48306375D01*
X226651222Y-48298775D01*
X226621770Y-48288237D01*
X226593492Y-48274862D01*
X226566662Y-48258781D01*
X226541537Y-48240147D01*
X226518360Y-48219140D01*
X226497353Y-48195963D01*
X226478719Y-48170838D01*
X226462638Y-48144008D01*
X226449263Y-48115730D01*
X226438725Y-48086278D01*
X226431125Y-48055935D01*
X226426535Y-48024993D01*
X226425000Y-47993750D01*
X226425000Y-47356250D01*
X226426535Y-47325007D01*
X226431125Y-47294065D01*
X226438725Y-47263722D01*
X226449263Y-47234270D01*
X226462638Y-47205992D01*
X226478719Y-47179162D01*
X226497353Y-47154037D01*
X226518360Y-47130860D01*
X226541537Y-47109853D01*
X226566662Y-47091219D01*
X226593492Y-47075138D01*
X226621770Y-47061763D01*
X226651222Y-47051225D01*
X226681565Y-47043625D01*
X226712507Y-47039035D01*
X226743750Y-47037500D01*
X227456250Y-47037500D01*
X227487493Y-47039035D01*
X227487493Y-47039035D01*
G37*
D14*
X227100000Y-47675000D03*
G04 #@! TD*
D12*
G04 #@! TO.C,JP1*
X230700000Y-69400000D03*
D11*
X230700000Y-66860000D03*
X230700000Y-64320000D03*
G04 #@! TD*
G04 #@! TO.C,JP2*
X230500000Y-48920000D03*
X230500000Y-51460000D03*
D12*
X230500000Y-54000000D03*
G04 #@! TD*
G04 #@! TO.C,JP3*
X226000000Y-54000000D03*
D11*
X223460000Y-54000000D03*
X220920000Y-54000000D03*
G04 #@! TD*
D12*
G04 #@! TO.C,J2*
X182000000Y-77000000D03*
D11*
X184540000Y-77000000D03*
X182000000Y-79540000D03*
X184540000Y-79540000D03*
X182000000Y-82080000D03*
X184540000Y-82080000D03*
X182000000Y-84620000D03*
X184540000Y-84620000D03*
X182000000Y-87160000D03*
X184540000Y-87160000D03*
G04 #@! TD*
D13*
G04 #@! TO.C,R15*
G36*
X210847793Y-62245335D02*
X210878735Y-62249925D01*
X210909078Y-62257525D01*
X210938530Y-62268063D01*
X210966808Y-62281438D01*
X210993638Y-62297519D01*
X211018763Y-62316153D01*
X211041940Y-62337160D01*
X211062947Y-62360337D01*
X211081581Y-62385462D01*
X211097662Y-62412292D01*
X211111037Y-62440570D01*
X211121575Y-62470022D01*
X211129175Y-62500365D01*
X211133765Y-62531307D01*
X211135300Y-62562550D01*
X211135300Y-63275050D01*
X211133765Y-63306293D01*
X211129175Y-63337235D01*
X211121575Y-63367578D01*
X211111037Y-63397030D01*
X211097662Y-63425308D01*
X211081581Y-63452138D01*
X211062947Y-63477263D01*
X211041940Y-63500440D01*
X211018763Y-63521447D01*
X210993638Y-63540081D01*
X210966808Y-63556162D01*
X210938530Y-63569537D01*
X210909078Y-63580075D01*
X210878735Y-63587675D01*
X210847793Y-63592265D01*
X210816550Y-63593800D01*
X210179050Y-63593800D01*
X210147807Y-63592265D01*
X210116865Y-63587675D01*
X210086522Y-63580075D01*
X210057070Y-63569537D01*
X210028792Y-63556162D01*
X210001962Y-63540081D01*
X209976837Y-63521447D01*
X209953660Y-63500440D01*
X209932653Y-63477263D01*
X209914019Y-63452138D01*
X209897938Y-63425308D01*
X209884563Y-63397030D01*
X209874025Y-63367578D01*
X209866425Y-63337235D01*
X209861835Y-63306293D01*
X209860300Y-63275050D01*
X209860300Y-62562550D01*
X209861835Y-62531307D01*
X209866425Y-62500365D01*
X209874025Y-62470022D01*
X209884563Y-62440570D01*
X209897938Y-62412292D01*
X209914019Y-62385462D01*
X209932653Y-62360337D01*
X209953660Y-62337160D01*
X209976837Y-62316153D01*
X210001962Y-62297519D01*
X210028792Y-62281438D01*
X210057070Y-62268063D01*
X210086522Y-62257525D01*
X210116865Y-62249925D01*
X210147807Y-62245335D01*
X210179050Y-62243800D01*
X210816550Y-62243800D01*
X210847793Y-62245335D01*
X210847793Y-62245335D01*
G37*
D14*
X210497800Y-62918800D03*
D13*
G36*
X212422793Y-62245335D02*
X212453735Y-62249925D01*
X212484078Y-62257525D01*
X212513530Y-62268063D01*
X212541808Y-62281438D01*
X212568638Y-62297519D01*
X212593763Y-62316153D01*
X212616940Y-62337160D01*
X212637947Y-62360337D01*
X212656581Y-62385462D01*
X212672662Y-62412292D01*
X212686037Y-62440570D01*
X212696575Y-62470022D01*
X212704175Y-62500365D01*
X212708765Y-62531307D01*
X212710300Y-62562550D01*
X212710300Y-63275050D01*
X212708765Y-63306293D01*
X212704175Y-63337235D01*
X212696575Y-63367578D01*
X212686037Y-63397030D01*
X212672662Y-63425308D01*
X212656581Y-63452138D01*
X212637947Y-63477263D01*
X212616940Y-63500440D01*
X212593763Y-63521447D01*
X212568638Y-63540081D01*
X212541808Y-63556162D01*
X212513530Y-63569537D01*
X212484078Y-63580075D01*
X212453735Y-63587675D01*
X212422793Y-63592265D01*
X212391550Y-63593800D01*
X211754050Y-63593800D01*
X211722807Y-63592265D01*
X211691865Y-63587675D01*
X211661522Y-63580075D01*
X211632070Y-63569537D01*
X211603792Y-63556162D01*
X211576962Y-63540081D01*
X211551837Y-63521447D01*
X211528660Y-63500440D01*
X211507653Y-63477263D01*
X211489019Y-63452138D01*
X211472938Y-63425308D01*
X211459563Y-63397030D01*
X211449025Y-63367578D01*
X211441425Y-63337235D01*
X211436835Y-63306293D01*
X211435300Y-63275050D01*
X211435300Y-62562550D01*
X211436835Y-62531307D01*
X211441425Y-62500365D01*
X211449025Y-62470022D01*
X211459563Y-62440570D01*
X211472938Y-62412292D01*
X211489019Y-62385462D01*
X211507653Y-62360337D01*
X211528660Y-62337160D01*
X211551837Y-62316153D01*
X211576962Y-62297519D01*
X211603792Y-62281438D01*
X211632070Y-62268063D01*
X211661522Y-62257525D01*
X211691865Y-62249925D01*
X211722807Y-62245335D01*
X211754050Y-62243800D01*
X212391550Y-62243800D01*
X212422793Y-62245335D01*
X212422793Y-62245335D01*
G37*
D14*
X212072800Y-62918800D03*
G04 #@! TD*
D13*
G04 #@! TO.C,R2*
G36*
X212024993Y-86846535D02*
X212055935Y-86851125D01*
X212086278Y-86858725D01*
X212115730Y-86869263D01*
X212144008Y-86882638D01*
X212170838Y-86898719D01*
X212195963Y-86917353D01*
X212219140Y-86938360D01*
X212240147Y-86961537D01*
X212258781Y-86986662D01*
X212274862Y-87013492D01*
X212288237Y-87041770D01*
X212298775Y-87071222D01*
X212306375Y-87101565D01*
X212310965Y-87132507D01*
X212312500Y-87163750D01*
X212312500Y-87876250D01*
X212310965Y-87907493D01*
X212306375Y-87938435D01*
X212298775Y-87968778D01*
X212288237Y-87998230D01*
X212274862Y-88026508D01*
X212258781Y-88053338D01*
X212240147Y-88078463D01*
X212219140Y-88101640D01*
X212195963Y-88122647D01*
X212170838Y-88141281D01*
X212144008Y-88157362D01*
X212115730Y-88170737D01*
X212086278Y-88181275D01*
X212055935Y-88188875D01*
X212024993Y-88193465D01*
X211993750Y-88195000D01*
X211356250Y-88195000D01*
X211325007Y-88193465D01*
X211294065Y-88188875D01*
X211263722Y-88181275D01*
X211234270Y-88170737D01*
X211205992Y-88157362D01*
X211179162Y-88141281D01*
X211154037Y-88122647D01*
X211130860Y-88101640D01*
X211109853Y-88078463D01*
X211091219Y-88053338D01*
X211075138Y-88026508D01*
X211061763Y-87998230D01*
X211051225Y-87968778D01*
X211043625Y-87938435D01*
X211039035Y-87907493D01*
X211037500Y-87876250D01*
X211037500Y-87163750D01*
X211039035Y-87132507D01*
X211043625Y-87101565D01*
X211051225Y-87071222D01*
X211061763Y-87041770D01*
X211075138Y-87013492D01*
X211091219Y-86986662D01*
X211109853Y-86961537D01*
X211130860Y-86938360D01*
X211154037Y-86917353D01*
X211179162Y-86898719D01*
X211205992Y-86882638D01*
X211234270Y-86869263D01*
X211263722Y-86858725D01*
X211294065Y-86851125D01*
X211325007Y-86846535D01*
X211356250Y-86845000D01*
X211993750Y-86845000D01*
X212024993Y-86846535D01*
X212024993Y-86846535D01*
G37*
D14*
X211675000Y-87520000D03*
D13*
G36*
X210449993Y-86846535D02*
X210480935Y-86851125D01*
X210511278Y-86858725D01*
X210540730Y-86869263D01*
X210569008Y-86882638D01*
X210595838Y-86898719D01*
X210620963Y-86917353D01*
X210644140Y-86938360D01*
X210665147Y-86961537D01*
X210683781Y-86986662D01*
X210699862Y-87013492D01*
X210713237Y-87041770D01*
X210723775Y-87071222D01*
X210731375Y-87101565D01*
X210735965Y-87132507D01*
X210737500Y-87163750D01*
X210737500Y-87876250D01*
X210735965Y-87907493D01*
X210731375Y-87938435D01*
X210723775Y-87968778D01*
X210713237Y-87998230D01*
X210699862Y-88026508D01*
X210683781Y-88053338D01*
X210665147Y-88078463D01*
X210644140Y-88101640D01*
X210620963Y-88122647D01*
X210595838Y-88141281D01*
X210569008Y-88157362D01*
X210540730Y-88170737D01*
X210511278Y-88181275D01*
X210480935Y-88188875D01*
X210449993Y-88193465D01*
X210418750Y-88195000D01*
X209781250Y-88195000D01*
X209750007Y-88193465D01*
X209719065Y-88188875D01*
X209688722Y-88181275D01*
X209659270Y-88170737D01*
X209630992Y-88157362D01*
X209604162Y-88141281D01*
X209579037Y-88122647D01*
X209555860Y-88101640D01*
X209534853Y-88078463D01*
X209516219Y-88053338D01*
X209500138Y-88026508D01*
X209486763Y-87998230D01*
X209476225Y-87968778D01*
X209468625Y-87938435D01*
X209464035Y-87907493D01*
X209462500Y-87876250D01*
X209462500Y-87163750D01*
X209464035Y-87132507D01*
X209468625Y-87101565D01*
X209476225Y-87071222D01*
X209486763Y-87041770D01*
X209500138Y-87013492D01*
X209516219Y-86986662D01*
X209534853Y-86961537D01*
X209555860Y-86938360D01*
X209579037Y-86917353D01*
X209604162Y-86898719D01*
X209630992Y-86882638D01*
X209659270Y-86869263D01*
X209688722Y-86858725D01*
X209719065Y-86851125D01*
X209750007Y-86846535D01*
X209781250Y-86845000D01*
X210418750Y-86845000D01*
X210449993Y-86846535D01*
X210449993Y-86846535D01*
G37*
D14*
X210100000Y-87520000D03*
G04 #@! TD*
D13*
G04 #@! TO.C,R3*
G36*
X225187493Y-47039035D02*
X225218435Y-47043625D01*
X225248778Y-47051225D01*
X225278230Y-47061763D01*
X225306508Y-47075138D01*
X225333338Y-47091219D01*
X225358463Y-47109853D01*
X225381640Y-47130860D01*
X225402647Y-47154037D01*
X225421281Y-47179162D01*
X225437362Y-47205992D01*
X225450737Y-47234270D01*
X225461275Y-47263722D01*
X225468875Y-47294065D01*
X225473465Y-47325007D01*
X225475000Y-47356250D01*
X225475000Y-47993750D01*
X225473465Y-48024993D01*
X225468875Y-48055935D01*
X225461275Y-48086278D01*
X225450737Y-48115730D01*
X225437362Y-48144008D01*
X225421281Y-48170838D01*
X225402647Y-48195963D01*
X225381640Y-48219140D01*
X225358463Y-48240147D01*
X225333338Y-48258781D01*
X225306508Y-48274862D01*
X225278230Y-48288237D01*
X225248778Y-48298775D01*
X225218435Y-48306375D01*
X225187493Y-48310965D01*
X225156250Y-48312500D01*
X224443750Y-48312500D01*
X224412507Y-48310965D01*
X224381565Y-48306375D01*
X224351222Y-48298775D01*
X224321770Y-48288237D01*
X224293492Y-48274862D01*
X224266662Y-48258781D01*
X224241537Y-48240147D01*
X224218360Y-48219140D01*
X224197353Y-48195963D01*
X224178719Y-48170838D01*
X224162638Y-48144008D01*
X224149263Y-48115730D01*
X224138725Y-48086278D01*
X224131125Y-48055935D01*
X224126535Y-48024993D01*
X224125000Y-47993750D01*
X224125000Y-47356250D01*
X224126535Y-47325007D01*
X224131125Y-47294065D01*
X224138725Y-47263722D01*
X224149263Y-47234270D01*
X224162638Y-47205992D01*
X224178719Y-47179162D01*
X224197353Y-47154037D01*
X224218360Y-47130860D01*
X224241537Y-47109853D01*
X224266662Y-47091219D01*
X224293492Y-47075138D01*
X224321770Y-47061763D01*
X224351222Y-47051225D01*
X224381565Y-47043625D01*
X224412507Y-47039035D01*
X224443750Y-47037500D01*
X225156250Y-47037500D01*
X225187493Y-47039035D01*
X225187493Y-47039035D01*
G37*
D14*
X224800000Y-47675000D03*
D13*
G36*
X225187493Y-48614035D02*
X225218435Y-48618625D01*
X225248778Y-48626225D01*
X225278230Y-48636763D01*
X225306508Y-48650138D01*
X225333338Y-48666219D01*
X225358463Y-48684853D01*
X225381640Y-48705860D01*
X225402647Y-48729037D01*
X225421281Y-48754162D01*
X225437362Y-48780992D01*
X225450737Y-48809270D01*
X225461275Y-48838722D01*
X225468875Y-48869065D01*
X225473465Y-48900007D01*
X225475000Y-48931250D01*
X225475000Y-49568750D01*
X225473465Y-49599993D01*
X225468875Y-49630935D01*
X225461275Y-49661278D01*
X225450737Y-49690730D01*
X225437362Y-49719008D01*
X225421281Y-49745838D01*
X225402647Y-49770963D01*
X225381640Y-49794140D01*
X225358463Y-49815147D01*
X225333338Y-49833781D01*
X225306508Y-49849862D01*
X225278230Y-49863237D01*
X225248778Y-49873775D01*
X225218435Y-49881375D01*
X225187493Y-49885965D01*
X225156250Y-49887500D01*
X224443750Y-49887500D01*
X224412507Y-49885965D01*
X224381565Y-49881375D01*
X224351222Y-49873775D01*
X224321770Y-49863237D01*
X224293492Y-49849862D01*
X224266662Y-49833781D01*
X224241537Y-49815147D01*
X224218360Y-49794140D01*
X224197353Y-49770963D01*
X224178719Y-49745838D01*
X224162638Y-49719008D01*
X224149263Y-49690730D01*
X224138725Y-49661278D01*
X224131125Y-49630935D01*
X224126535Y-49599993D01*
X224125000Y-49568750D01*
X224125000Y-48931250D01*
X224126535Y-48900007D01*
X224131125Y-48869065D01*
X224138725Y-48838722D01*
X224149263Y-48809270D01*
X224162638Y-48780992D01*
X224178719Y-48754162D01*
X224197353Y-48729037D01*
X224218360Y-48705860D01*
X224241537Y-48684853D01*
X224266662Y-48666219D01*
X224293492Y-48650138D01*
X224321770Y-48636763D01*
X224351222Y-48626225D01*
X224381565Y-48618625D01*
X224412507Y-48614035D01*
X224443750Y-48612500D01*
X225156250Y-48612500D01*
X225187493Y-48614035D01*
X225187493Y-48614035D01*
G37*
D14*
X224800000Y-49250000D03*
G04 #@! TD*
D13*
G04 #@! TO.C,R1*
G36*
X212024993Y-84306535D02*
X212055935Y-84311125D01*
X212086278Y-84318725D01*
X212115730Y-84329263D01*
X212144008Y-84342638D01*
X212170838Y-84358719D01*
X212195963Y-84377353D01*
X212219140Y-84398360D01*
X212240147Y-84421537D01*
X212258781Y-84446662D01*
X212274862Y-84473492D01*
X212288237Y-84501770D01*
X212298775Y-84531222D01*
X212306375Y-84561565D01*
X212310965Y-84592507D01*
X212312500Y-84623750D01*
X212312500Y-85336250D01*
X212310965Y-85367493D01*
X212306375Y-85398435D01*
X212298775Y-85428778D01*
X212288237Y-85458230D01*
X212274862Y-85486508D01*
X212258781Y-85513338D01*
X212240147Y-85538463D01*
X212219140Y-85561640D01*
X212195963Y-85582647D01*
X212170838Y-85601281D01*
X212144008Y-85617362D01*
X212115730Y-85630737D01*
X212086278Y-85641275D01*
X212055935Y-85648875D01*
X212024993Y-85653465D01*
X211993750Y-85655000D01*
X211356250Y-85655000D01*
X211325007Y-85653465D01*
X211294065Y-85648875D01*
X211263722Y-85641275D01*
X211234270Y-85630737D01*
X211205992Y-85617362D01*
X211179162Y-85601281D01*
X211154037Y-85582647D01*
X211130860Y-85561640D01*
X211109853Y-85538463D01*
X211091219Y-85513338D01*
X211075138Y-85486508D01*
X211061763Y-85458230D01*
X211051225Y-85428778D01*
X211043625Y-85398435D01*
X211039035Y-85367493D01*
X211037500Y-85336250D01*
X211037500Y-84623750D01*
X211039035Y-84592507D01*
X211043625Y-84561565D01*
X211051225Y-84531222D01*
X211061763Y-84501770D01*
X211075138Y-84473492D01*
X211091219Y-84446662D01*
X211109853Y-84421537D01*
X211130860Y-84398360D01*
X211154037Y-84377353D01*
X211179162Y-84358719D01*
X211205992Y-84342638D01*
X211234270Y-84329263D01*
X211263722Y-84318725D01*
X211294065Y-84311125D01*
X211325007Y-84306535D01*
X211356250Y-84305000D01*
X211993750Y-84305000D01*
X212024993Y-84306535D01*
X212024993Y-84306535D01*
G37*
D14*
X211675000Y-84980000D03*
D13*
G36*
X210449993Y-84306535D02*
X210480935Y-84311125D01*
X210511278Y-84318725D01*
X210540730Y-84329263D01*
X210569008Y-84342638D01*
X210595838Y-84358719D01*
X210620963Y-84377353D01*
X210644140Y-84398360D01*
X210665147Y-84421537D01*
X210683781Y-84446662D01*
X210699862Y-84473492D01*
X210713237Y-84501770D01*
X210723775Y-84531222D01*
X210731375Y-84561565D01*
X210735965Y-84592507D01*
X210737500Y-84623750D01*
X210737500Y-85336250D01*
X210735965Y-85367493D01*
X210731375Y-85398435D01*
X210723775Y-85428778D01*
X210713237Y-85458230D01*
X210699862Y-85486508D01*
X210683781Y-85513338D01*
X210665147Y-85538463D01*
X210644140Y-85561640D01*
X210620963Y-85582647D01*
X210595838Y-85601281D01*
X210569008Y-85617362D01*
X210540730Y-85630737D01*
X210511278Y-85641275D01*
X210480935Y-85648875D01*
X210449993Y-85653465D01*
X210418750Y-85655000D01*
X209781250Y-85655000D01*
X209750007Y-85653465D01*
X209719065Y-85648875D01*
X209688722Y-85641275D01*
X209659270Y-85630737D01*
X209630992Y-85617362D01*
X209604162Y-85601281D01*
X209579037Y-85582647D01*
X209555860Y-85561640D01*
X209534853Y-85538463D01*
X209516219Y-85513338D01*
X209500138Y-85486508D01*
X209486763Y-85458230D01*
X209476225Y-85428778D01*
X209468625Y-85398435D01*
X209464035Y-85367493D01*
X209462500Y-85336250D01*
X209462500Y-84623750D01*
X209464035Y-84592507D01*
X209468625Y-84561565D01*
X209476225Y-84531222D01*
X209486763Y-84501770D01*
X209500138Y-84473492D01*
X209516219Y-84446662D01*
X209534853Y-84421537D01*
X209555860Y-84398360D01*
X209579037Y-84377353D01*
X209604162Y-84358719D01*
X209630992Y-84342638D01*
X209659270Y-84329263D01*
X209688722Y-84318725D01*
X209719065Y-84311125D01*
X209750007Y-84306535D01*
X209781250Y-84305000D01*
X210418750Y-84305000D01*
X210449993Y-84306535D01*
X210449993Y-84306535D01*
G37*
D14*
X210100000Y-84980000D03*
G04 #@! TD*
D13*
G04 #@! TO.C,R16*
G36*
X207887493Y-82851535D02*
X207918435Y-82856125D01*
X207948778Y-82863725D01*
X207978230Y-82874263D01*
X208006508Y-82887638D01*
X208033338Y-82903719D01*
X208058463Y-82922353D01*
X208081640Y-82943360D01*
X208102647Y-82966537D01*
X208121281Y-82991662D01*
X208137362Y-83018492D01*
X208150737Y-83046770D01*
X208161275Y-83076222D01*
X208168875Y-83106565D01*
X208173465Y-83137507D01*
X208175000Y-83168750D01*
X208175000Y-83806250D01*
X208173465Y-83837493D01*
X208168875Y-83868435D01*
X208161275Y-83898778D01*
X208150737Y-83928230D01*
X208137362Y-83956508D01*
X208121281Y-83983338D01*
X208102647Y-84008463D01*
X208081640Y-84031640D01*
X208058463Y-84052647D01*
X208033338Y-84071281D01*
X208006508Y-84087362D01*
X207978230Y-84100737D01*
X207948778Y-84111275D01*
X207918435Y-84118875D01*
X207887493Y-84123465D01*
X207856250Y-84125000D01*
X207143750Y-84125000D01*
X207112507Y-84123465D01*
X207081565Y-84118875D01*
X207051222Y-84111275D01*
X207021770Y-84100737D01*
X206993492Y-84087362D01*
X206966662Y-84071281D01*
X206941537Y-84052647D01*
X206918360Y-84031640D01*
X206897353Y-84008463D01*
X206878719Y-83983338D01*
X206862638Y-83956508D01*
X206849263Y-83928230D01*
X206838725Y-83898778D01*
X206831125Y-83868435D01*
X206826535Y-83837493D01*
X206825000Y-83806250D01*
X206825000Y-83168750D01*
X206826535Y-83137507D01*
X206831125Y-83106565D01*
X206838725Y-83076222D01*
X206849263Y-83046770D01*
X206862638Y-83018492D01*
X206878719Y-82991662D01*
X206897353Y-82966537D01*
X206918360Y-82943360D01*
X206941537Y-82922353D01*
X206966662Y-82903719D01*
X206993492Y-82887638D01*
X207021770Y-82874263D01*
X207051222Y-82863725D01*
X207081565Y-82856125D01*
X207112507Y-82851535D01*
X207143750Y-82850000D01*
X207856250Y-82850000D01*
X207887493Y-82851535D01*
X207887493Y-82851535D01*
G37*
D14*
X207500000Y-83487500D03*
D13*
G36*
X207887493Y-81276535D02*
X207918435Y-81281125D01*
X207948778Y-81288725D01*
X207978230Y-81299263D01*
X208006508Y-81312638D01*
X208033338Y-81328719D01*
X208058463Y-81347353D01*
X208081640Y-81368360D01*
X208102647Y-81391537D01*
X208121281Y-81416662D01*
X208137362Y-81443492D01*
X208150737Y-81471770D01*
X208161275Y-81501222D01*
X208168875Y-81531565D01*
X208173465Y-81562507D01*
X208175000Y-81593750D01*
X208175000Y-82231250D01*
X208173465Y-82262493D01*
X208168875Y-82293435D01*
X208161275Y-82323778D01*
X208150737Y-82353230D01*
X208137362Y-82381508D01*
X208121281Y-82408338D01*
X208102647Y-82433463D01*
X208081640Y-82456640D01*
X208058463Y-82477647D01*
X208033338Y-82496281D01*
X208006508Y-82512362D01*
X207978230Y-82525737D01*
X207948778Y-82536275D01*
X207918435Y-82543875D01*
X207887493Y-82548465D01*
X207856250Y-82550000D01*
X207143750Y-82550000D01*
X207112507Y-82548465D01*
X207081565Y-82543875D01*
X207051222Y-82536275D01*
X207021770Y-82525737D01*
X206993492Y-82512362D01*
X206966662Y-82496281D01*
X206941537Y-82477647D01*
X206918360Y-82456640D01*
X206897353Y-82433463D01*
X206878719Y-82408338D01*
X206862638Y-82381508D01*
X206849263Y-82353230D01*
X206838725Y-82323778D01*
X206831125Y-82293435D01*
X206826535Y-82262493D01*
X206825000Y-82231250D01*
X206825000Y-81593750D01*
X206826535Y-81562507D01*
X206831125Y-81531565D01*
X206838725Y-81501222D01*
X206849263Y-81471770D01*
X206862638Y-81443492D01*
X206878719Y-81416662D01*
X206897353Y-81391537D01*
X206918360Y-81368360D01*
X206941537Y-81347353D01*
X206966662Y-81328719D01*
X206993492Y-81312638D01*
X207021770Y-81299263D01*
X207051222Y-81288725D01*
X207081565Y-81281125D01*
X207112507Y-81276535D01*
X207143750Y-81275000D01*
X207856250Y-81275000D01*
X207887493Y-81276535D01*
X207887493Y-81276535D01*
G37*
D14*
X207500000Y-81912500D03*
G04 #@! TD*
D13*
G04 #@! TO.C,R4*
G36*
X222999993Y-48576535D02*
X223030935Y-48581125D01*
X223061278Y-48588725D01*
X223090730Y-48599263D01*
X223119008Y-48612638D01*
X223145838Y-48628719D01*
X223170963Y-48647353D01*
X223194140Y-48668360D01*
X223215147Y-48691537D01*
X223233781Y-48716662D01*
X223249862Y-48743492D01*
X223263237Y-48771770D01*
X223273775Y-48801222D01*
X223281375Y-48831565D01*
X223285965Y-48862507D01*
X223287500Y-48893750D01*
X223287500Y-49606250D01*
X223285965Y-49637493D01*
X223281375Y-49668435D01*
X223273775Y-49698778D01*
X223263237Y-49728230D01*
X223249862Y-49756508D01*
X223233781Y-49783338D01*
X223215147Y-49808463D01*
X223194140Y-49831640D01*
X223170963Y-49852647D01*
X223145838Y-49871281D01*
X223119008Y-49887362D01*
X223090730Y-49900737D01*
X223061278Y-49911275D01*
X223030935Y-49918875D01*
X222999993Y-49923465D01*
X222968750Y-49925000D01*
X222331250Y-49925000D01*
X222300007Y-49923465D01*
X222269065Y-49918875D01*
X222238722Y-49911275D01*
X222209270Y-49900737D01*
X222180992Y-49887362D01*
X222154162Y-49871281D01*
X222129037Y-49852647D01*
X222105860Y-49831640D01*
X222084853Y-49808463D01*
X222066219Y-49783338D01*
X222050138Y-49756508D01*
X222036763Y-49728230D01*
X222026225Y-49698778D01*
X222018625Y-49668435D01*
X222014035Y-49637493D01*
X222012500Y-49606250D01*
X222012500Y-48893750D01*
X222014035Y-48862507D01*
X222018625Y-48831565D01*
X222026225Y-48801222D01*
X222036763Y-48771770D01*
X222050138Y-48743492D01*
X222066219Y-48716662D01*
X222084853Y-48691537D01*
X222105860Y-48668360D01*
X222129037Y-48647353D01*
X222154162Y-48628719D01*
X222180992Y-48612638D01*
X222209270Y-48599263D01*
X222238722Y-48588725D01*
X222269065Y-48581125D01*
X222300007Y-48576535D01*
X222331250Y-48575000D01*
X222968750Y-48575000D01*
X222999993Y-48576535D01*
X222999993Y-48576535D01*
G37*
D14*
X222650000Y-49250000D03*
D13*
G36*
X221424993Y-48576535D02*
X221455935Y-48581125D01*
X221486278Y-48588725D01*
X221515730Y-48599263D01*
X221544008Y-48612638D01*
X221570838Y-48628719D01*
X221595963Y-48647353D01*
X221619140Y-48668360D01*
X221640147Y-48691537D01*
X221658781Y-48716662D01*
X221674862Y-48743492D01*
X221688237Y-48771770D01*
X221698775Y-48801222D01*
X221706375Y-48831565D01*
X221710965Y-48862507D01*
X221712500Y-48893750D01*
X221712500Y-49606250D01*
X221710965Y-49637493D01*
X221706375Y-49668435D01*
X221698775Y-49698778D01*
X221688237Y-49728230D01*
X221674862Y-49756508D01*
X221658781Y-49783338D01*
X221640147Y-49808463D01*
X221619140Y-49831640D01*
X221595963Y-49852647D01*
X221570838Y-49871281D01*
X221544008Y-49887362D01*
X221515730Y-49900737D01*
X221486278Y-49911275D01*
X221455935Y-49918875D01*
X221424993Y-49923465D01*
X221393750Y-49925000D01*
X220756250Y-49925000D01*
X220725007Y-49923465D01*
X220694065Y-49918875D01*
X220663722Y-49911275D01*
X220634270Y-49900737D01*
X220605992Y-49887362D01*
X220579162Y-49871281D01*
X220554037Y-49852647D01*
X220530860Y-49831640D01*
X220509853Y-49808463D01*
X220491219Y-49783338D01*
X220475138Y-49756508D01*
X220461763Y-49728230D01*
X220451225Y-49698778D01*
X220443625Y-49668435D01*
X220439035Y-49637493D01*
X220437500Y-49606250D01*
X220437500Y-48893750D01*
X220439035Y-48862507D01*
X220443625Y-48831565D01*
X220451225Y-48801222D01*
X220461763Y-48771770D01*
X220475138Y-48743492D01*
X220491219Y-48716662D01*
X220509853Y-48691537D01*
X220530860Y-48668360D01*
X220554037Y-48647353D01*
X220579162Y-48628719D01*
X220605992Y-48612638D01*
X220634270Y-48599263D01*
X220663722Y-48588725D01*
X220694065Y-48581125D01*
X220725007Y-48576535D01*
X220756250Y-48575000D01*
X221393750Y-48575000D01*
X221424993Y-48576535D01*
X221424993Y-48576535D01*
G37*
D14*
X221075000Y-49250000D03*
G04 #@! TD*
D13*
G04 #@! TO.C,R14*
G36*
X210847793Y-64175735D02*
X210878735Y-64180325D01*
X210909078Y-64187925D01*
X210938530Y-64198463D01*
X210966808Y-64211838D01*
X210993638Y-64227919D01*
X211018763Y-64246553D01*
X211041940Y-64267560D01*
X211062947Y-64290737D01*
X211081581Y-64315862D01*
X211097662Y-64342692D01*
X211111037Y-64370970D01*
X211121575Y-64400422D01*
X211129175Y-64430765D01*
X211133765Y-64461707D01*
X211135300Y-64492950D01*
X211135300Y-65205450D01*
X211133765Y-65236693D01*
X211129175Y-65267635D01*
X211121575Y-65297978D01*
X211111037Y-65327430D01*
X211097662Y-65355708D01*
X211081581Y-65382538D01*
X211062947Y-65407663D01*
X211041940Y-65430840D01*
X211018763Y-65451847D01*
X210993638Y-65470481D01*
X210966808Y-65486562D01*
X210938530Y-65499937D01*
X210909078Y-65510475D01*
X210878735Y-65518075D01*
X210847793Y-65522665D01*
X210816550Y-65524200D01*
X210179050Y-65524200D01*
X210147807Y-65522665D01*
X210116865Y-65518075D01*
X210086522Y-65510475D01*
X210057070Y-65499937D01*
X210028792Y-65486562D01*
X210001962Y-65470481D01*
X209976837Y-65451847D01*
X209953660Y-65430840D01*
X209932653Y-65407663D01*
X209914019Y-65382538D01*
X209897938Y-65355708D01*
X209884563Y-65327430D01*
X209874025Y-65297978D01*
X209866425Y-65267635D01*
X209861835Y-65236693D01*
X209860300Y-65205450D01*
X209860300Y-64492950D01*
X209861835Y-64461707D01*
X209866425Y-64430765D01*
X209874025Y-64400422D01*
X209884563Y-64370970D01*
X209897938Y-64342692D01*
X209914019Y-64315862D01*
X209932653Y-64290737D01*
X209953660Y-64267560D01*
X209976837Y-64246553D01*
X210001962Y-64227919D01*
X210028792Y-64211838D01*
X210057070Y-64198463D01*
X210086522Y-64187925D01*
X210116865Y-64180325D01*
X210147807Y-64175735D01*
X210179050Y-64174200D01*
X210816550Y-64174200D01*
X210847793Y-64175735D01*
X210847793Y-64175735D01*
G37*
D14*
X210497800Y-64849200D03*
D13*
G36*
X212422793Y-64175735D02*
X212453735Y-64180325D01*
X212484078Y-64187925D01*
X212513530Y-64198463D01*
X212541808Y-64211838D01*
X212568638Y-64227919D01*
X212593763Y-64246553D01*
X212616940Y-64267560D01*
X212637947Y-64290737D01*
X212656581Y-64315862D01*
X212672662Y-64342692D01*
X212686037Y-64370970D01*
X212696575Y-64400422D01*
X212704175Y-64430765D01*
X212708765Y-64461707D01*
X212710300Y-64492950D01*
X212710300Y-65205450D01*
X212708765Y-65236693D01*
X212704175Y-65267635D01*
X212696575Y-65297978D01*
X212686037Y-65327430D01*
X212672662Y-65355708D01*
X212656581Y-65382538D01*
X212637947Y-65407663D01*
X212616940Y-65430840D01*
X212593763Y-65451847D01*
X212568638Y-65470481D01*
X212541808Y-65486562D01*
X212513530Y-65499937D01*
X212484078Y-65510475D01*
X212453735Y-65518075D01*
X212422793Y-65522665D01*
X212391550Y-65524200D01*
X211754050Y-65524200D01*
X211722807Y-65522665D01*
X211691865Y-65518075D01*
X211661522Y-65510475D01*
X211632070Y-65499937D01*
X211603792Y-65486562D01*
X211576962Y-65470481D01*
X211551837Y-65451847D01*
X211528660Y-65430840D01*
X211507653Y-65407663D01*
X211489019Y-65382538D01*
X211472938Y-65355708D01*
X211459563Y-65327430D01*
X211449025Y-65297978D01*
X211441425Y-65267635D01*
X211436835Y-65236693D01*
X211435300Y-65205450D01*
X211435300Y-64492950D01*
X211436835Y-64461707D01*
X211441425Y-64430765D01*
X211449025Y-64400422D01*
X211459563Y-64370970D01*
X211472938Y-64342692D01*
X211489019Y-64315862D01*
X211507653Y-64290737D01*
X211528660Y-64267560D01*
X211551837Y-64246553D01*
X211576962Y-64227919D01*
X211603792Y-64211838D01*
X211632070Y-64198463D01*
X211661522Y-64187925D01*
X211691865Y-64180325D01*
X211722807Y-64175735D01*
X211754050Y-64174200D01*
X212391550Y-64174200D01*
X212422793Y-64175735D01*
X212422793Y-64175735D01*
G37*
D14*
X212072800Y-64849200D03*
G04 #@! TD*
D13*
G04 #@! TO.C,R9*
G36*
X203555093Y-107222635D02*
X203586035Y-107227225D01*
X203616378Y-107234825D01*
X203645830Y-107245363D01*
X203674108Y-107258738D01*
X203700938Y-107274819D01*
X203726063Y-107293453D01*
X203749240Y-107314460D01*
X203770247Y-107337637D01*
X203788881Y-107362762D01*
X203804962Y-107389592D01*
X203818337Y-107417870D01*
X203828875Y-107447322D01*
X203836475Y-107477665D01*
X203841065Y-107508607D01*
X203842600Y-107539850D01*
X203842600Y-108177350D01*
X203841065Y-108208593D01*
X203836475Y-108239535D01*
X203828875Y-108269878D01*
X203818337Y-108299330D01*
X203804962Y-108327608D01*
X203788881Y-108354438D01*
X203770247Y-108379563D01*
X203749240Y-108402740D01*
X203726063Y-108423747D01*
X203700938Y-108442381D01*
X203674108Y-108458462D01*
X203645830Y-108471837D01*
X203616378Y-108482375D01*
X203586035Y-108489975D01*
X203555093Y-108494565D01*
X203523850Y-108496100D01*
X202811350Y-108496100D01*
X202780107Y-108494565D01*
X202749165Y-108489975D01*
X202718822Y-108482375D01*
X202689370Y-108471837D01*
X202661092Y-108458462D01*
X202634262Y-108442381D01*
X202609137Y-108423747D01*
X202585960Y-108402740D01*
X202564953Y-108379563D01*
X202546319Y-108354438D01*
X202530238Y-108327608D01*
X202516863Y-108299330D01*
X202506325Y-108269878D01*
X202498725Y-108239535D01*
X202494135Y-108208593D01*
X202492600Y-108177350D01*
X202492600Y-107539850D01*
X202494135Y-107508607D01*
X202498725Y-107477665D01*
X202506325Y-107447322D01*
X202516863Y-107417870D01*
X202530238Y-107389592D01*
X202546319Y-107362762D01*
X202564953Y-107337637D01*
X202585960Y-107314460D01*
X202609137Y-107293453D01*
X202634262Y-107274819D01*
X202661092Y-107258738D01*
X202689370Y-107245363D01*
X202718822Y-107234825D01*
X202749165Y-107227225D01*
X202780107Y-107222635D01*
X202811350Y-107221100D01*
X203523850Y-107221100D01*
X203555093Y-107222635D01*
X203555093Y-107222635D01*
G37*
D14*
X203167600Y-107858600D03*
D13*
G36*
X203555093Y-108797635D02*
X203586035Y-108802225D01*
X203616378Y-108809825D01*
X203645830Y-108820363D01*
X203674108Y-108833738D01*
X203700938Y-108849819D01*
X203726063Y-108868453D01*
X203749240Y-108889460D01*
X203770247Y-108912637D01*
X203788881Y-108937762D01*
X203804962Y-108964592D01*
X203818337Y-108992870D01*
X203828875Y-109022322D01*
X203836475Y-109052665D01*
X203841065Y-109083607D01*
X203842600Y-109114850D01*
X203842600Y-109752350D01*
X203841065Y-109783593D01*
X203836475Y-109814535D01*
X203828875Y-109844878D01*
X203818337Y-109874330D01*
X203804962Y-109902608D01*
X203788881Y-109929438D01*
X203770247Y-109954563D01*
X203749240Y-109977740D01*
X203726063Y-109998747D01*
X203700938Y-110017381D01*
X203674108Y-110033462D01*
X203645830Y-110046837D01*
X203616378Y-110057375D01*
X203586035Y-110064975D01*
X203555093Y-110069565D01*
X203523850Y-110071100D01*
X202811350Y-110071100D01*
X202780107Y-110069565D01*
X202749165Y-110064975D01*
X202718822Y-110057375D01*
X202689370Y-110046837D01*
X202661092Y-110033462D01*
X202634262Y-110017381D01*
X202609137Y-109998747D01*
X202585960Y-109977740D01*
X202564953Y-109954563D01*
X202546319Y-109929438D01*
X202530238Y-109902608D01*
X202516863Y-109874330D01*
X202506325Y-109844878D01*
X202498725Y-109814535D01*
X202494135Y-109783593D01*
X202492600Y-109752350D01*
X202492600Y-109114850D01*
X202494135Y-109083607D01*
X202498725Y-109052665D01*
X202506325Y-109022322D01*
X202516863Y-108992870D01*
X202530238Y-108964592D01*
X202546319Y-108937762D01*
X202564953Y-108912637D01*
X202585960Y-108889460D01*
X202609137Y-108868453D01*
X202634262Y-108849819D01*
X202661092Y-108833738D01*
X202689370Y-108820363D01*
X202718822Y-108809825D01*
X202749165Y-108802225D01*
X202780107Y-108797635D01*
X202811350Y-108796100D01*
X203523850Y-108796100D01*
X203555093Y-108797635D01*
X203555093Y-108797635D01*
G37*
D14*
X203167600Y-109433600D03*
G04 #@! TD*
D17*
G04 #@! TO.C,EXT2*
X219000000Y-103000000D03*
D18*
X221000000Y-103000000D03*
X223000000Y-103000000D03*
X225000000Y-103000000D03*
X227000000Y-103000000D03*
X229000000Y-103000000D03*
G04 #@! TD*
G04 #@! TO.C,LOC1*
X203000000Y-50000000D03*
X203000000Y-52000000D03*
X203000000Y-54000000D03*
X203000000Y-56000000D03*
X203000000Y-58000000D03*
D17*
X203000000Y-60000000D03*
G04 #@! TD*
G04 #@! TO.C,LOC0*
X208500000Y-60000000D03*
D18*
X208500000Y-58000000D03*
X208500000Y-56000000D03*
X208500000Y-54000000D03*
X208500000Y-52000000D03*
X208500000Y-50000000D03*
G04 #@! TD*
D17*
G04 #@! TO.C,EXT0*
X219000000Y-114000000D03*
D18*
X221000000Y-114000000D03*
X223000000Y-114000000D03*
X225000000Y-114000000D03*
X227000000Y-114000000D03*
X229000000Y-114000000D03*
G04 #@! TD*
G04 #@! TO.C,EXT3*
X229000000Y-97500000D03*
X227000000Y-97500000D03*
X225000000Y-97500000D03*
X223000000Y-97500000D03*
X221000000Y-97500000D03*
D17*
X219000000Y-97500000D03*
G04 #@! TD*
D18*
G04 #@! TO.C,EXT6*
X229000000Y-81000000D03*
X227000000Y-81000000D03*
X225000000Y-81000000D03*
X223000000Y-81000000D03*
X221000000Y-81000000D03*
D17*
X219000000Y-81000000D03*
G04 #@! TD*
G04 #@! TO.C,EXT7*
X219000000Y-75500000D03*
D18*
X221000000Y-75500000D03*
X223000000Y-75500000D03*
X225000000Y-75500000D03*
X227000000Y-75500000D03*
X229000000Y-75500000D03*
G04 #@! TD*
G04 #@! TO.C,EXT5*
X229000000Y-86500000D03*
X227000000Y-86500000D03*
X225000000Y-86500000D03*
X223000000Y-86500000D03*
X221000000Y-86500000D03*
D17*
X219000000Y-86500000D03*
G04 #@! TD*
G04 #@! TO.C,EXT1*
X219000000Y-108500000D03*
D18*
X221000000Y-108500000D03*
X223000000Y-108500000D03*
X225000000Y-108500000D03*
X227000000Y-108500000D03*
X229000000Y-108500000D03*
G04 #@! TD*
D29*
G04 #@! TO.C,R8*
X189600000Y-81400000D03*
X188800000Y-81400000D03*
X188000000Y-81400000D03*
X187200000Y-81400000D03*
X189600000Y-83200000D03*
X188800000Y-83200000D03*
X188000000Y-83200000D03*
X187200000Y-83200000D03*
G04 #@! TD*
D22*
G04 #@! TO.C,R7*
X210200000Y-100600000D03*
X210200000Y-101400000D03*
X210200000Y-102200000D03*
X210200000Y-103000000D03*
X212000000Y-100600000D03*
X212000000Y-101400000D03*
X212000000Y-102200000D03*
X212000000Y-103000000D03*
G04 #@! TD*
G04 #@! TO.C,R11*
X212000000Y-98200000D03*
X212000000Y-97400000D03*
X212000000Y-96600000D03*
X212000000Y-95800000D03*
X210200000Y-98200000D03*
X210200000Y-97400000D03*
X210200000Y-96600000D03*
X210200000Y-95800000D03*
G04 #@! TD*
G04 #@! TO.C,R12*
X196900000Y-98200000D03*
X196900000Y-97400000D03*
X196900000Y-96600000D03*
X196900000Y-95800000D03*
X195100000Y-98200000D03*
X195100000Y-97400000D03*
X195100000Y-96600000D03*
X195100000Y-95800000D03*
G04 #@! TD*
G04 #@! TO.C,R6*
X196900000Y-103000000D03*
X196900000Y-102200000D03*
X196900000Y-101400000D03*
X196900000Y-100600000D03*
X195100000Y-103000000D03*
X195100000Y-102200000D03*
X195100000Y-101400000D03*
X195100000Y-100600000D03*
G04 #@! TD*
M02*
